<svg id="Grupo_147380" data-name="Grupo 147380" xmlns="http://www.w3.org/2000/svg" xmlns:xlink="http://www.w3.org/1999/xlink" width="505" height="299.791" viewBox="0 0 505 299.791">
  <defs>
    <clipPath id="clip-path">
      <rect id="Rectángulo_45406" data-name="Rectángulo 45406" width="505" height="299.791" fill="none"/>
    </clipPath>
    <clipPath id="clip-path-4">
      <rect id="Rectángulo_45399" data-name="Rectángulo 45399" width="16.755" height="22.624" fill="none"/>
    </clipPath>
    <clipPath id="clip-path-5">
      <rect id="Rectángulo_45400" data-name="Rectángulo 45400" width="36.195" height="15.621" fill="none"/>
    </clipPath>
    <clipPath id="clip-path-6">
      <rect id="Rectángulo_45401" data-name="Rectángulo 45401" width="165.844" height="105.396" fill="none"/>
    </clipPath>
    <clipPath id="clip-path-7">
      <rect id="Rectángulo_45402" data-name="Rectángulo 45402" width="54.992" height="47.624" fill="none"/>
    </clipPath>
  </defs>
  <g id="Grupo_147379" data-name="Grupo 147379" clip-path="url(#clip-path)">
    <g id="Grupo_147360" data-name="Grupo 147360">
      <g id="Grupo_147359" data-name="Grupo 147359" clip-path="url(#clip-path)">
        <path id="Trazado_199423" data-name="Trazado 199423" d="M611.874,180.868H566.981a5.617,5.617,0,0,1-5.617-5.617V113.114a5.617,5.617,0,0,1,5.617-5.617h28.471l22.039,22.715v45.039a5.617,5.617,0,0,1-5.617,5.617" transform="translate(-144.921 -27.751)" fill="#ebebeb"/>
        <path id="Trazado_199424" data-name="Trazado 199424" d="M607.314,107.5v17.488a5.225,5.225,0,0,0,5.224,5.225l16.815,0Z" transform="translate(-156.784 -27.751)" fill="#f5f5f5"/>
        <path id="Trazado_199425" data-name="Trazado 199425" d="M607.622,133.138a5.809,5.809,0,0,0,4.608,5.636,5.41,5.41,0,0,0,.553.125c2.2.392,16.649,2.964,16.649,2.631v-4.7H612.617s-4.2-.144-4.994-3.693" transform="translate(-156.863 -34.371)" fill="#e0e0e0"/>
        <path id="Trazado_199426" data-name="Trazado 199426" d="M611.806,180.8c0-.027.337.007.97-.114a5.624,5.624,0,0,0,2.547-1.188,5.55,5.55,0,0,0,2.01-3.961c.029-1.812,0-3.914,0-6.261-.016-9.409-.039-22.869-.068-39.131l.046.112-22.056-22.7.133.056-16.429.006H568.181a14.262,14.262,0,0,0-2.157.079,5.428,5.428,0,0,0-3.522,2.2,5.347,5.347,0,0,0-.993,2.761c-.04,1-.011,2.036-.02,3.047q0,3.051,0,6.061,0,6.018,0,11.85c0,7.769-.007,15.262-.011,22.4q0,5.354-.008,10.432,0,2.536,0,5,0,1.231,0,2.441a12.883,12.883,0,0,0,.1,2.363,5.473,5.473,0,0,0,2.542,3.611,5.412,5.412,0,0,0,2.071.731,20.808,20.808,0,0,0,2.209.059l8.473.013,25.572.062,6.952.036,1.809.019c.407.007.616.02.616.02s-.209.013-.616.02l-1.809.019-6.952.036-25.572.062-8.473.013a20.759,20.759,0,0,1-2.25-.056,5.725,5.725,0,0,1-2.19-.767,5.791,5.791,0,0,1-2.7-3.814,13.144,13.144,0,0,1-.114-2.425q0-1.211,0-2.441,0-2.46,0-5,0-5.073-.008-10.432c0-7.139-.007-14.632-.011-22.4q0-5.828,0-11.85,0-3.009,0-6.061c.009-1.023-.021-2.024.02-3.074a5.744,5.744,0,0,1,1.065-2.959,5.813,5.813,0,0,1,3.774-2.353,14.583,14.583,0,0,1,2.219-.085h10.774l16.429.007h.079l.054.056,22.022,22.731.045.048v.065c-.028,16.262-.052,29.723-.068,39.131-.015,2.351,0,4.441-.039,6.27a5.645,5.645,0,0,1-2.092,4.028,5.571,5.571,0,0,1-2.6,1.161,4.209,4.209,0,0,1-.731.065c-.165,0-.248,0-.248,0" transform="translate(-144.853 -27.683)" fill="#e0e0e0"/>
        <path id="Trazado_199427" data-name="Trazado 199427" d="M629.285,130.211a1.851,1.851,0,0,1-.432.039l-1.239.036-4.555.061-6.755.04-3.994,0a5.42,5.42,0,0,1-5.007-3.779,6.271,6.271,0,0,1-.247-2.145c0-1.382.008-2.717.012-3.99.016-2.53.029-4.817.041-6.756.026-1.884.047-3.427.062-4.555.015-.5.027-.912.036-1.238a1.808,1.808,0,0,1,.039-.432,1.85,1.85,0,0,1,.039.432c.01.326.021.735.036,1.238.016,1.128.036,2.671.062,4.555.012,1.939.026,4.226.042,6.756,0,1.273.007,2.608.011,3.99a5.2,5.2,0,0,0,1.26,3.836,5.039,5.039,0,0,0,3.626,1.709l3.983.019,6.755.043,4.555.062,1.239.036a1.864,1.864,0,0,1,.432.039" transform="translate(-156.716 -27.751)" fill="#e0e0e0"/>
        <path id="Trazado_199428" data-name="Trazado 199428" d="M597.929,128.465c0,.107-5.3.194-11.842.194s-11.843-.087-11.843-.194,5.3-.193,11.843-.193,11.842.086,11.842.193" transform="translate(-148.246 -33.115)" fill="#e0e0e0"/>
        <path id="Trazado_199429" data-name="Trazado 199429" d="M609.166,140.224c0,.107-7.818.193-17.461.193s-17.462-.086-17.462-.193,7.817-.193,17.462-.193,17.461.086,17.461.193" transform="translate(-148.246 -36.15)" fill="#e0e0e0"/>
        <path id="Trazado_199430" data-name="Trazado 199430" d="M609.166,151.984c0,.107-7.818.193-17.461.193s-17.462-.086-17.462-.193,7.817-.193,17.462-.193,17.461.086,17.461.193" transform="translate(-148.246 -39.186)" fill="#e0e0e0"/>
        <path id="Trazado_199431" data-name="Trazado 199431" d="M609.166,163.744c0,.107-7.818.193-17.461.193s-17.462-.086-17.462-.193,7.817-.193,17.462-.193,17.461.086,17.461.193" transform="translate(-148.246 -42.222)" fill="#e0e0e0"/>
        <path id="Trazado_199432" data-name="Trazado 199432" d="M609.166,175.5c0,.107-7.818.193-17.461.193s-17.462-.086-17.462-.193,7.817-.193,17.462-.193,17.461.086,17.461.193" transform="translate(-148.246 -45.258)" fill="#e0e0e0"/>
        <path id="Trazado_199433" data-name="Trazado 199433" d="M609.166,190.007c0,.107-7.818.193-17.461.193s-17.462-.086-17.462-.193,7.817-.193,17.462-.193,17.461.086,17.461.193" transform="translate(-148.246 -49.002)" fill="#e0e0e0"/>
        <path id="Trazado_199434" data-name="Trazado 199434" d="M582.793,184.112H550.926a3.132,3.132,0,0,1-3.132-3.131V170.111a3.132,3.132,0,0,1,3.132-3.132h31.867a3.131,3.131,0,0,1,3.131,3.131V180.98a3.132,3.132,0,0,1-3.131,3.132" transform="translate(-141.418 -43.107)" fill="#e0e0e0"/>
        <path id="Trazado_199435" data-name="Trazado 199435" d="M553.749,174.511h2.941c2.117,0,3.57,1.276,3.57,3.237s-1.453,3.237-3.57,3.237h-2.941Zm2.866,5.243a2.01,2.01,0,1,0,0-4.013h-1.369v4.013Z" transform="translate(-142.955 -45.052)" fill="#fff"/>
        <path id="Trazado_199436" data-name="Trazado 199436" d="M563.495,177.709a3.548,3.548,0,1,1,3.542,3.348,3.35,3.35,0,0,1-3.542-3.348m5.568,0a2.026,2.026,0,1,0-2.025,2.072,1.975,1.975,0,0,0,2.025-2.072" transform="translate(-145.471 -45.013)" fill="#fff"/>
        <path id="Trazado_199437" data-name="Trazado 199437" d="M574.015,177.709a3.564,3.564,0,0,1,6.177-2.2l-.961.888a2.083,2.083,0,0,0-1.628-.758,2.072,2.072,0,1,0,0,4.143,2.064,2.064,0,0,0,1.628-.768l.961.887a3.558,3.558,0,0,1-6.177-2.191" transform="translate(-148.187 -45.013)" fill="#fff"/>
        <path id="Trazado_199438" data-name="Trazado 199438" d="M587.346,180.984l-1.563-2.247-1.535,2.247h-1.72l2.4-3.293-2.275-3.181h1.7l1.489,2.1,1.461-2.1h1.618l-2.256,3.126,2.413,3.348Z" transform="translate(-150.385 -45.051)" fill="#fff"/>
        <path id="Trazado_199439" data-name="Trazado 199439" d="M520.992,313.892,487,373.345l-67.258.97a4.07,4.07,0,0,0-4.006,3.848l68.4.193,2.571-.088,85.641.169,17.306-29.846,22.108-31.685a3.126,3.126,0,0,0-2.576-4.915l-85.487.326a3.125,3.125,0,0,0-2.7,1.574" transform="translate(-107.326 -80.543)" fill="#ebebeb"/>
        <path id="Trazado_199440" data-name="Trazado 199440" d="M637.763,314.876a1.486,1.486,0,0,1-.409.043l-1.2.042-4.624.08-17.007.134-56.109.125h-4.085a3.368,3.368,0,0,0-3.114,1.47l-3.808,6.865-7.22,13.031c-4.61,8.283-8.765,15.748-12.267,22.042-3.493,6.211-6.332,11.26-8.335,14.823l-2.3,4.009-.618,1.032a1.492,1.492,0,0,1-.235.337,1.466,1.466,0,0,1,.16-.38c.145-.286.324-.639.544-1.073l2.164-4.088c1.947-3.594,4.706-8.688,8.1-14.955,3.457-6.319,7.558-13.813,12.109-22.13l7.177-13.055,3.827-6.922a4.227,4.227,0,0,1,3.818-1.853h4.085l56.109.125,17.007.135,4.624.079,1.2.042a1.5,1.5,0,0,1,.409.044" transform="translate(-133.32 -81.175)" fill="#e0e0e0"/>
        <path id="Trazado_199441" data-name="Trazado 199441" d="M598.347,354.8a3.613,3.613,0,1,0,5.4-.638,3.862,3.862,0,0,0-5.4.638" transform="translate(-154.17 -91.216)" fill="#fff"/>
        <path id="Trazado_199442" data-name="Trazado 199442" d="M13.237,316.063v35.555H7.3v3.858h5.936v23.8H124.2V357.62h-8.22V352.9h8.22v-7.074h3.653v-3.216h-4.338v-26.55Z" transform="translate(-1.885 -81.594)" fill="#f5f5f5"/>
        <path id="Trazado_199443" data-name="Trazado 199443" d="M125.161,316.166v62.71h29.467V357.224h-8.22V352.9l8.22.146v-7.074l3.724,0-.071-3.656-4.338-.107V316.063Z" transform="translate(-32.311 -81.595)" fill="#e0e0e0"/>
        <path id="Trazado_199444" data-name="Trazado 199444" d="M96.779,368.367c0,.218-20.079.394-44.843.394s-44.847-.176-44.847-.394,20.076-.394,44.847-.394,44.843.177,44.843.394" transform="translate(-1.83 -94.996)" fill="#e0e0e0"/>
        <path id="Trazado_199445" data-name="Trazado 199445" d="M96.779,363.5c0,.218-20.079.394-44.843.394s-44.847-.176-44.847-.394,20.076-.394,44.847-.394,44.843.177,44.843.394" transform="translate(-1.83 -93.739)" fill="#e0e0e0"/>
        <path id="Trazado_199446" data-name="Trazado 199446" d="M104.544,350.4c0,.218-20.079.394-44.843.394s-44.847-.176-44.847-.394S34.929,350,59.7,350s44.843.177,44.843.394" transform="translate(-3.835 -90.356)" fill="#e0e0e0"/>
        <path id="Trazado_199447" data-name="Trazado 199447" d="M105.29,386.1c0,.218-20.079.394-44.843.394S15.6,386.318,15.6,386.1s20.076-.394,44.847-.394,44.843.177,44.843.394" transform="translate(-4.027 -99.574)" fill="#e0e0e0"/>
        <path id="Trazado_199448" data-name="Trazado 199448" d="M497.273,87.107H453.418a5.486,5.486,0,0,1-5.487-5.487V20.92a5.487,5.487,0,0,1,5.487-5.487h27.812l21.53,22.19v44a5.488,5.488,0,0,1-5.487,5.487" transform="translate(-115.638 -3.984)" fill="#ebebeb"/>
        <path id="Trazado_199449" data-name="Trazado 199449" d="M492.819,15.433V32.517a5.1,5.1,0,0,0,5.1,5.1l16.427,0Z" transform="translate(-127.226 -3.984)" fill="#f5f5f5"/>
        <path id="Trazado_199450" data-name="Trazado 199450" d="M493.121,40.482a5.675,5.675,0,0,0,4.5,5.505,5.181,5.181,0,0,0,.541.122c2.144.384,16.264,2.9,16.264,2.571V44.089H498s-4.1-.141-4.878-3.608" transform="translate(-127.303 -10.451)" fill="#e0e0e0"/>
        <path id="Trazado_199451" data-name="Trazado 199451" d="M497.205,87.04c0-.026.329.007.947-.113a5.482,5.482,0,0,0,2.487-1.159A5.422,5.422,0,0,0,502.6,81.9c.027-1.769-.005-3.823,0-6.116-.017-9.191-.04-22.341-.069-38.226l.046.112L481.03,15.494l.133.056-16.049.006H454.589a13.962,13.962,0,0,0-2.1.077,5.3,5.3,0,0,0-3.439,2.144,5.225,5.225,0,0,0-.969,2.7c-.039.972-.011,1.989-.02,2.976q0,2.981,0,5.921,0,5.879,0,11.576c0,7.589-.007,14.91-.011,21.884q0,5.23-.008,10.19,0,2.478,0,4.882,0,1.2,0,2.384a12.556,12.556,0,0,0,.1,2.307,5.336,5.336,0,0,0,4.5,4.239,20.219,20.219,0,0,0,2.157.057l8.278.013,24.98.062,6.792.036,1.766.019c.4.007.6.02.6.02s-.2.013-.6.02l-1.766.019-6.792.036-24.98.062-8.278.013a20.366,20.366,0,0,1-2.2-.054,5.649,5.649,0,0,1-4.777-4.478,12.866,12.866,0,0,1-.112-2.369q0-1.183,0-2.384,0-2.4,0-4.882,0-4.955-.008-10.19c0-6.974-.007-14.295-.012-21.884q0-5.692,0-11.576,0-2.94,0-5.921c.009-1-.02-1.978.02-3a5.61,5.61,0,0,1,1.041-2.892,5.682,5.682,0,0,1,3.69-2.3,14.391,14.391,0,0,1,2.168-.082h10.525l16.049.006h.079l.055.056,21.512,22.206.045.047v.065c-.028,15.886-.052,29.035-.068,38.226-.015,2.3,0,4.338-.039,6.125a5.519,5.519,0,0,1-2.044,3.936,5.439,5.439,0,0,1-2.541,1.133,4.074,4.074,0,0,1-.714.065c-.16,0-.242,0-.242,0" transform="translate(-115.57 -3.916)" fill="#e0e0e0"/>
        <path id="Trazado_199452" data-name="Trazado 199452" d="M514.281,37.622a1.721,1.721,0,0,1-.422.039l-1.21.036-4.45.061-6.6.04-3.9,0a5.3,5.3,0,0,1-4.9-3.694,6.136,6.136,0,0,1-.241-2.1c0-1.35.008-2.654.012-3.9.015-2.471.029-4.7.041-6.6.026-1.838.047-3.345.062-4.45.015-.49.027-.89.036-1.209a1.735,1.735,0,0,1,.039-.422,1.82,1.82,0,0,1,.039.422c.01.319.021.719.036,1.209.015,1.1.036,2.611.062,4.45.012,1.9.026,4.128.041,6.6,0,1.244.007,2.547.012,3.9a5.073,5.073,0,0,0,1.23,3.744,4.913,4.913,0,0,0,3.538,1.668l3.892.02,6.6.042,4.45.062,1.21.037a1.769,1.769,0,0,1,.422.039" transform="translate(-127.158 -3.984)" fill="#e0e0e0"/>
        <path id="Trazado_199453" data-name="Trazado 199453" d="M483.65,35.915c0,.107-5.18.193-11.568.193s-11.57-.086-11.57-.193,5.179-.193,11.57-.193,11.568.086,11.568.193" transform="translate(-118.885 -9.222)" fill="#e0e0e0"/>
        <path id="Trazado_199454" data-name="Trazado 199454" d="M494.628,47.4c0,.107-7.637.193-17.057.193s-17.059-.086-17.059-.193,7.637-.193,17.059-.193,17.057.086,17.057.193" transform="translate(-118.885 -12.187)" fill="#e0e0e0"/>
        <path id="Trazado_199455" data-name="Trazado 199455" d="M494.628,58.89c0,.107-7.638.193-17.057.193S460.512,59,460.512,58.89s7.637-.193,17.059-.193,17.057.086,17.057.193" transform="translate(-118.885 -15.153)" fill="#e0e0e0"/>
        <path id="Trazado_199456" data-name="Trazado 199456" d="M494.628,70.378c0,.107-7.638.193-17.057.193s-17.059-.086-17.059-.193,7.637-.193,17.059-.193,17.057.086,17.057.193" transform="translate(-118.885 -18.119)" fill="#e0e0e0"/>
        <path id="Trazado_199457" data-name="Trazado 199457" d="M494.628,81.866c0,.107-7.638.193-17.057.193s-17.059-.086-17.059-.193,7.637-.193,17.059-.193,17.057.086,17.057.193" transform="translate(-118.885 -21.085)" fill="#e0e0e0"/>
        <path id="Trazado_199458" data-name="Trazado 199458" d="M494.628,96.034c0,.107-7.638.193-17.057.193s-17.059-.086-17.059-.193,7.637-.193,17.059-.193,17.057.086,17.057.193" transform="translate(-118.885 -24.742)" fill="#e0e0e0"/>
        <path id="Trazado_199459" data-name="Trazado 199459" d="M468.793,90.277H437.807a3.131,3.131,0,0,1-3.131-3.131V76.672a3.132,3.132,0,0,1,3.131-3.132h30.985a3.132,3.132,0,0,1,3.131,3.131V87.145a3.132,3.132,0,0,1-3.131,3.132" transform="translate(-112.216 -18.985)" fill="#e0e0e0"/>
        <path id="Trazado_199460" data-name="Trazado 199460" d="M452.4,83.194c0,1.409-1.056,2.286-2.746,2.286h-1.274v1.743h-1.464V80.9h2.737c1.689,0,2.746.876,2.746,2.295m-1.481,0c0-.7-.452-1.1-1.346-1.1h-1.192v2.194h1.192c.895,0,1.346-.407,1.346-1.093" transform="translate(-115.375 -20.885)" fill="#fff"/>
        <path id="Trazado_199461" data-name="Trazado 199461" d="M455.706,80.9h2.873c2.068,0,3.487,1.246,3.487,3.162s-1.418,3.162-3.487,3.162h-2.873Zm2.8,5.122a1.964,1.964,0,1,0,0-3.921H457.17v3.921Z" transform="translate(-117.645 -20.885)" fill="#fff"/>
        <path id="Trazado_199462" data-name="Trazado 199462" d="M467.227,82.073v1.671h2.927v1.174h-2.927v2.3h-1.464V80.9h4.779v1.174Z" transform="translate(-120.241 -20.885)" fill="#fff"/>
        <rect id="Rectángulo_45387" data-name="Rectángulo 45387" width="23.692" height="40.832" transform="translate(160.135 15.693)" fill="#ebebeb"/>
        <rect id="Rectángulo_45388" data-name="Rectángulo 45388" width="18.709" height="50.972" transform="translate(94.043 6.203)" fill="#ebebeb"/>
        <path id="Trazado_199463" data-name="Trazado 199463" d="M126.478,13.226a80.486,80.486,0,0,1,9.554-.284,80.484,80.484,0,0,1,9.555.284,80.674,80.674,0,0,1-9.555.284,80.676,80.676,0,0,1-9.554-.284" transform="translate(-32.651 -3.341)" fill="#fafafa"/>
        <path id="Trazado_199464" data-name="Trazado 199464" d="M127.874,16.484a72.19,72.19,0,0,1,9.036-.284,72.18,72.18,0,0,1,9.036.284,72.01,72.01,0,0,1-9.036.284,72.02,72.02,0,0,1-9.036-.284" transform="translate(-33.012 -4.182)" fill="#fafafa"/>
        <path id="Trazado_199465" data-name="Trazado 199465" d="M138.56,53.027c-.157,0-.284-6.751-.284-15.079s.127-15.082.284-15.082.284,6.751.284,15.082-.127,15.079-.284,15.079" transform="translate(-35.697 -5.903)" fill="#fafafa"/>
        <path id="Trazado_199466" data-name="Trazado 199466" d="M126.77,69.709a73.974,73.974,0,0,1,9.158-.284,73.961,73.961,0,0,1,9.159.284,74.133,74.133,0,0,1-9.159.284,74.146,74.146,0,0,1-9.158-.284" transform="translate(-32.727 -17.923)" fill="#fafafa"/>
        <path id="Trazado_199467" data-name="Trazado 199467" d="M126.77,72.658a77.539,77.539,0,0,1,9.388-.284,77.544,77.544,0,0,1,9.389.284,77.83,77.83,0,0,1-9.389.283,77.825,77.825,0,0,1-9.388-.283" transform="translate(-32.727 -18.684)" fill="#fafafa"/>
        <rect id="Rectángulo_45389" data-name="Rectángulo 45389" width="15.03" height="56.484" transform="translate(112.74 0.69)" fill="#e0e0e0"/>
        <path id="Trazado_199468" data-name="Trazado 199468" d="M151.845,35.9a14.555,14.555,0,0,1,2.325,1.61l5.423,4.114,5.415,4.126a14.449,14.449,0,0,1,2.173,1.81,13.5,13.5,0,0,1-2.409-1.485c-1.442-.982-3.4-2.387-5.522-4s-4-3.125-5.329-4.251a13.464,13.464,0,0,1-2.076-1.924" transform="translate(-39.2 -9.266)" fill="#fafafa"/>
        <path id="Trazado_199469" data-name="Trazado 199469" d="M151.756,23.978a86.282,86.282,0,0,1,7.691,6.216,86.158,86.158,0,0,1,7.321,6.648,86.32,86.32,0,0,1-7.691-6.217,86.13,86.13,0,0,1-7.32-6.648" transform="translate(-39.177 -6.189)" fill="#fafafa"/>
        <rect id="Rectángulo_45390" data-name="Rectángulo 45390" width="7.188" height="53.809" transform="translate(47.423 3.406)" fill="#ebebeb"/>
        <path id="Trazado_199470" data-name="Trazado 199470" d="M64.328,14.355c0,.187,1.508.338,3.367.338s3.369-.151,3.369-.338-1.508-.338-3.369-.338-3.367.151-3.367.338" transform="translate(-16.607 -3.619)" fill="#fafafa"/>
        <path id="Trazado_199471" data-name="Trazado 199471" d="M64.13,12.776c0,.187,1.508.338,3.368.338s3.368-.151,3.368-.338-1.508-.338-3.368-.338-3.368.151-3.368.338" transform="translate(-16.556 -3.211)" fill="#fafafa"/>
        <path id="Trazado_199472" data-name="Trazado 199472" d="M64.328,71.4c0,.187,1.508.338,3.367.338s3.369-.151,3.369-.338-1.508-.338-3.369-.338-3.367.151-3.367.338" transform="translate(-16.607 -18.345)" fill="#fafafa"/>
        <path id="Trazado_199473" data-name="Trazado 199473" d="M64.13,69.82c0,.187,1.508.338,3.368.338s3.368-.151,3.368-.338-1.508-.338-3.368-.338-3.368.151-3.368.338" transform="translate(-16.556 -17.937)" fill="#fafafa"/>
        <path id="Trazado_199474" data-name="Trazado 199474" d="M68.947,50.884c.187,0,.338-6.163.338-13.763s-.151-13.765-.338-13.765-.338,6.161-.338,13.765.151,13.763.338,13.763" transform="translate(-17.712 -6.03)" fill="#fafafa"/>
        <rect id="Rectángulo_45391" data-name="Rectángulo 45391" width="14.377" height="53.809" transform="translate(79.637 3.061)" fill="#e0e0e0"/>
        <path id="Trazado_199475" data-name="Trazado 199475" d="M118.105,58.672a1.208,1.208,0,0,0,.168-.292c.1-.2.241-.5.41-.9a15.64,15.64,0,0,0,1.044-3.648,9.5,9.5,0,0,0-.84-5.92,7.88,7.88,0,0,0-2.548-2.812,5.919,5.919,0,0,0-4.142-.978,4.362,4.362,0,0,0-2.141.989,2.832,2.832,0,0,0-1.03,2.269,3.263,3.263,0,0,0,1.23,2.281,4.465,4.465,0,0,0,2.452,1.041,6.527,6.527,0,0,0,5.1-1.855,8.19,8.19,0,0,0,2.527-5.171,13.734,13.734,0,0,0-.745-6,11.075,11.075,0,0,0-3.524-5.245,5.785,5.785,0,0,0-3.1-1.223,4.029,4.029,0,0,0-3.229,1.145,2.623,2.623,0,0,0-.739,1.684,3.08,3.08,0,0,0,.5,1.759,4.666,4.666,0,0,0,2.9,1.98,6.771,6.771,0,0,0,6.333-2.122,10.586,10.586,0,0,0,2.466-6.058,14.91,14.91,0,0,0-.619-6.28,8.675,8.675,0,0,0-3.714-4.777,6.364,6.364,0,0,0-5.711-.6,3,3,0,0,0-1.858,2.2,3.471,3.471,0,0,0,.654,2.711,4.49,4.49,0,0,0,4.843,1.282,8.374,8.374,0,0,0,3.82-2.713,12.211,12.211,0,0,0,2.867-7.378,11.829,11.829,0,0,0-1.329-5.847,11.707,11.707,0,0,0-2.26-3.048,8.7,8.7,0,0,0-.748-.644,1.2,1.2,0,0,0-.278-.19,13.673,13.673,0,0,1,3.05,4,11.714,11.714,0,0,1,1.185,5.711,11.866,11.866,0,0,1-2.852,7.084,7.913,7.913,0,0,1-3.605,2.524,3.963,3.963,0,0,1-4.247-1.119,2.906,2.906,0,0,1-.534-2.262,2.409,2.409,0,0,1,1.527-1.76,5.77,5.77,0,0,1,5.152.588,8.051,8.051,0,0,1,3.424,4.453,14.322,14.322,0,0,1,.57,6,9.936,9.936,0,0,1-2.3,5.676,6.11,6.11,0,0,1-5.683,1.915,4,4,0,0,1-2.479-1.677,2.061,2.061,0,0,1,.159-2.624,3.37,3.37,0,0,1,2.694-.94,5.109,5.109,0,0,1,2.749,1.084,10.458,10.458,0,0,1,3.313,4.924,13.143,13.143,0,0,1,.737,5.72,7.585,7.585,0,0,1-2.315,4.809,5.959,5.959,0,0,1-4.628,1.733,3.436,3.436,0,0,1-3.221-2.791,2.32,2.32,0,0,1,.841-1.868,3.894,3.894,0,0,1,1.889-.892,5.484,5.484,0,0,1,3.827.868,7.507,7.507,0,0,1,2.451,2.633,9.323,9.323,0,0,1,.911,5.7,17.1,17.1,0,0,1-.91,3.634c-.3.809-.476,1.226-.45,1.238" transform="translate(-28.135 -1.112)" fill="#fafafa"/>
        <rect id="Rectángulo_45392" data-name="Rectángulo 45392" width="24.944" height="49.004" transform="translate(54.496 7.889)" fill="#fafafa"/>
        <path id="Trazado_199476" data-name="Trazado 199476" d="M74.615,21.492c0,.187,5.405.338,12.072.338s12.073-.151,12.073-.338-5.4-.338-12.073-.338-12.072.151-12.072.338" transform="translate(-19.263 -5.461)" fill="#e0e0e0"/>
        <path id="Trazado_199477" data-name="Trazado 199477" d="M74.2,26.5c0,.187,5.336.339,11.918.339s11.918-.152,11.918-.339-5.335-.338-11.918-.338S74.2,26.312,74.2,26.5" transform="translate(-19.155 -6.754)" fill="#e0e0e0"/>
        <path id="Trazado_199478" data-name="Trazado 199478" d="M73.118,69.106c0,.187,5.619.338,12.55.338s12.551-.151,12.551-.338-5.618-.338-12.551-.338-12.55.151-12.55.338" transform="translate(-18.876 -17.753)" fill="#e0e0e0"/>
        <path id="Trazado_199479" data-name="Trazado 199479" d="M73.572,63.22c0,.187,5.475.339,12.227.339s12.228-.152,12.228-.339-5.474-.338-12.228-.338-12.227.151-12.227.338" transform="translate(-18.993 -16.234)" fill="#e0e0e0"/>
        <rect id="Rectángulo_45393" data-name="Rectángulo 45393" width="14.377" height="53.809" transform="translate(127.758 2.716)" fill="#ebebeb"/>
        <path id="Trazado_199480" data-name="Trazado 199480" d="M182.971,58.207a1.208,1.208,0,0,0,.168-.292c.1-.2.241-.5.409-.9a15.568,15.568,0,0,0,1.044-3.648,9.5,9.5,0,0,0-.84-5.92,7.88,7.88,0,0,0-2.548-2.812,5.919,5.919,0,0,0-4.142-.978,4.362,4.362,0,0,0-2.141.989,2.829,2.829,0,0,0-1.03,2.269,3.258,3.258,0,0,0,1.23,2.28,4.455,4.455,0,0,0,2.452,1.042,6.527,6.527,0,0,0,5.1-1.855,8.19,8.19,0,0,0,2.527-5.171,13.745,13.745,0,0,0-.745-6,11.078,11.078,0,0,0-3.525-5.245,5.769,5.769,0,0,0-3.1-1.223,4.029,4.029,0,0,0-3.23,1.146,2.619,2.619,0,0,0-.738,1.683,3.074,3.074,0,0,0,.5,1.759,4.666,4.666,0,0,0,2.9,1.98,6.771,6.771,0,0,0,6.333-2.122,10.592,10.592,0,0,0,2.466-6.058,14.922,14.922,0,0,0-.619-6.28,8.678,8.678,0,0,0-3.714-4.777,6.364,6.364,0,0,0-5.711-.6,3,3,0,0,0-1.858,2.2,3.471,3.471,0,0,0,.654,2.711,4.49,4.49,0,0,0,4.843,1.282,8.375,8.375,0,0,0,3.821-2.713,12.209,12.209,0,0,0,2.866-7.379,11.905,11.905,0,0,0-3.588-8.895A8.839,8.839,0,0,0,182,4.034a1.214,1.214,0,0,0-.278-.19,13.673,13.673,0,0,1,3.05,4,11.713,11.713,0,0,1,1.185,5.711A11.871,11.871,0,0,1,183.1,20.64a7.913,7.913,0,0,1-3.605,2.524,3.964,3.964,0,0,1-4.248-1.119,2.909,2.909,0,0,1-.533-2.262,2.409,2.409,0,0,1,1.527-1.76,5.77,5.77,0,0,1,5.152.588,8.051,8.051,0,0,1,3.424,4.453,14.322,14.322,0,0,1,.57,6,9.946,9.946,0,0,1-2.3,5.676,6.111,6.111,0,0,1-5.683,1.915,4,4,0,0,1-2.479-1.677,2.062,2.062,0,0,1,.16-2.625,3.372,3.372,0,0,1,2.694-.939,5.109,5.109,0,0,1,2.749,1.084,10.454,10.454,0,0,1,3.313,4.924,13.154,13.154,0,0,1,.737,5.72,7.585,7.585,0,0,1-2.315,4.809,5.959,5.959,0,0,1-4.628,1.733,3.436,3.436,0,0,1-3.221-2.791,2.317,2.317,0,0,1,.841-1.868,3.891,3.891,0,0,1,1.889-.892,5.486,5.486,0,0,1,3.826.867,7.511,7.511,0,0,1,2.452,2.634,9.322,9.322,0,0,1,.91,5.7,17.065,17.065,0,0,1-.91,3.634c-.3.809-.476,1.226-.45,1.238" transform="translate(-44.881 -0.992)" fill="#fafafa"/>
        <rect id="Rectángulo_45394" data-name="Rectángulo 45394" width="19.978" height="56.525" transform="translate(27.445)" fill="#e0e0e0"/>
        <rect id="Rectángulo_45395" data-name="Rectángulo 45395" width="18.685" height="50.322" transform="translate(142.134 6.203)" fill="#e0e0e0"/>
        <path id="Trazado_199481" data-name="Trazado 199481" d="M217.416,42.111a15.658,15.658,0,0,0,2.971,2.112,10.357,10.357,0,0,0,3.758,1.043,9.7,9.7,0,0,0,4.665-.812c1.576-.674,3.023-1.538,4.487-2.044a7.06,7.06,0,0,1,4.073-.372,4.35,4.35,0,0,1,2.36,1.431,1.717,1.717,0,0,1,.462.9c-.047.024-.188-.311-.628-.752a4.418,4.418,0,0,0-2.283-1.185,6.9,6.9,0,0,0-3.8.472c-1.393.509-2.812,1.375-4.444,2.076a9.906,9.906,0,0,1-4.932.809,10.156,10.156,0,0,1-3.9-1.208,8.6,8.6,0,0,1-2.178-1.668,2.694,2.694,0,0,1-.607-.8" transform="translate(-56.128 -10.812)" fill="#fafafa"/>
        <path id="Trazado_199482" data-name="Trazado 199482" d="M216.849,48.824a15.618,15.618,0,0,0,2.971,2.112,10.357,10.357,0,0,0,3.758,1.043,9.7,9.7,0,0,0,4.665-.811c1.576-.674,3.023-1.539,4.487-2.045a7.053,7.053,0,0,1,4.073-.372,4.345,4.345,0,0,1,2.36,1.43,1.717,1.717,0,0,1,.462.9c-.047.024-.188-.311-.628-.752a4.423,4.423,0,0,0-2.283-1.185,6.907,6.907,0,0,0-3.8.472c-1.393.51-2.812,1.375-4.444,2.076a9.913,9.913,0,0,1-4.933.809,10.156,10.156,0,0,1-3.9-1.208,8.578,8.578,0,0,1-2.178-1.668,2.683,2.683,0,0,1-.607-.8" transform="translate(-55.981 -12.545)" fill="#fafafa"/>
        <path id="Trazado_199483" data-name="Trazado 199483" d="M217.267,27.079c0-.157,5.145-.284,11.49-.284s11.49.128,11.49.284-5.144.284-11.49.284-11.49-.127-11.49-.284" transform="translate(-56.089 -6.917)" fill="#fafafa"/>
        <path id="Trazado_199484" data-name="Trazado 199484" d="M204.623,19.094A2.71,2.71,0,0,0,203,18.957a1.964,1.964,0,0,0-1.264,1.048,1.808,1.808,0,0,0,2.32,2.231,1.965,1.965,0,0,0,1-1.3,2.716,2.716,0,0,0-.2-1.619c.019-.02.185.069.358.348a2.038,2.038,0,0,1,.235,1.348,2.3,2.3,0,0,1-1.162,1.7,2.294,2.294,0,0,1-3.029-2.914,2.3,2.3,0,0,1,1.651-1.226,2.036,2.036,0,0,1,1.355.183c.286.162.381.324.362.344" transform="translate(-51.91 -4.783)" fill="#fafafa"/>
        <path id="Trazado_199485" data-name="Trazado 199485" d="M204.129,58.44c-.157,0-.284-7.054-.284-15.754s.127-15.754.284-15.754.284,7.052.284,15.754-.127,15.754-.284,15.754" transform="translate(-52.624 -6.953)" fill="#fafafa"/>
        <rect id="Rectángulo_45396" data-name="Rectángulo 45396" width="193.383" height="11.039" transform="translate(9.964 56.237)" fill="#ebebeb"/>
        <rect id="Rectángulo_45397" data-name="Rectángulo 45397" width="16.884" height="11.039" transform="translate(186.463 56.237)" fill="#e0e0e0"/>
      </g>
    </g>
    <g id="Grupo_147374" data-name="Grupo 147374">
      <g id="Grupo_147373" data-name="Grupo 147373" clip-path="url(#clip-path)">
        <path id="Trazado_199486" data-name="Trazado 199486" d="M286.893,61.955l-.944,75.973c-.161,12.919,2.243,31.93,22.682,31.253,17.688-1.926,22.381-18.67,22.519-30.727.065-5.719.131-10.488.177-11.076,0,0,19.363-1.579,21-20.7.79-9.242.866-28.41.735-45.752A35.752,35.752,0,0,0,319.9,25.556l-1.846-.135c-20-.292-31.421,16.533-31.159,36.534" transform="translate(-73.819 -6.562)" fill="#ffbe9d"/>
        <path id="Trazado_199487" data-name="Trazado 199487" d="M338.633,159.663s-12.118-.174-24.386-9.188c0,0,5.059,14.426,24.286,14.1Z" transform="translate(-81.126 -38.847)" fill="#eb996e"/>
        <path id="Trazado_199488" data-name="Trazado 199488" d="M328.245,82.665c-.381.387-2.589-1.391-5.793-1.477-3.2-.134-5.6,1.486-5.934,1.073-.166-.183.23-.89,1.275-1.624a8.019,8.019,0,0,1,4.763-1.351,7.734,7.734,0,0,1,4.6,1.672c.964.8,1.278,1.534,1.092,1.706" transform="translate(-81.703 -20.467)" fill="#263238"/>
        <path id="Trazado_199489" data-name="Trazado 199489" d="M329.625,91.9a2.593,2.593,0,0,1-2.684,2.427,2.48,2.48,0,0,1-2.495-2.526,2.594,2.594,0,0,1,2.682-2.429,2.482,2.482,0,0,1,2.5,2.528" transform="translate(-83.758 -23.071)" fill="#263238"/>
        <path id="Trazado_199490" data-name="Trazado 199490" d="M343.158,105.324c0-.168,1.85-.351,4.841-.513.757-.022,1.478-.119,1.642-.623a3.833,3.833,0,0,0-.339-2.263q-.86-2.8-1.8-5.882c-2.49-8.369-4.234-15.228-3.9-15.326s2.631,6.608,5.12,14.976q.895,3.093,1.708,5.91a4.369,4.369,0,0,1,.174,2.977,1.89,1.89,0,0,1-1.315,1.007,5.126,5.126,0,0,1-1.289.085c-2.993-.058-4.844-.179-4.843-.347" transform="translate(-88.589 -20.837)" fill="#263238"/>
        <path id="Trazado_199491" data-name="Trazado 199491" d="M326.35,66.767c-.309.711-2.875.176-5.947.333-3.074.093-5.6.835-5.953.152-.157-.326.32-.981,1.365-1.616a9.69,9.69,0,0,1,4.5-1.265,9.589,9.589,0,0,1,4.568.9c1.083.547,1.6,1.161,1.469,1.5" transform="translate(-81.171 -16.616)" fill="#263238"/>
        <path id="Trazado_199492" data-name="Trazado 199492" d="M367.431,74.742c-.336.579-2.837-.064-5.866-.157-3.03-.148-5.545.295-5.865-.311-.14-.289.36-.809,1.415-1.269a10.583,10.583,0,0,1,4.482-.74,10.926,10.926,0,0,1,4.456,1.1c1.042.544,1.527,1.1,1.378,1.38" transform="translate(-91.821 -18.653)" fill="#263238"/>
        <path id="Trazado_199493" data-name="Trazado 199493" d="M283.265,93.6c-.316-.165-12.869-4.85-13.407,8.266s12.743,10.952,12.781,10.576.625-18.843.625-18.843" transform="translate(-69.662 -23.92)" fill="#ffbe9d"/>
        <path id="Trazado_199494" data-name="Trazado 199494" d="M280,108.762c-.056-.045-.235.151-.628.312a2.285,2.285,0,0,1-1.71-.035c-1.365-.565-2.441-2.813-2.409-5.18a7.567,7.567,0,0,1,.774-3.246,2.643,2.643,0,0,1,1.792-1.684,1.165,1.165,0,0,1,1.323.682c.161.374.067.632.135.658.036.034.291-.208.207-.754a1.456,1.456,0,0,0-.482-.843,1.725,1.725,0,0,0-1.25-.385,3.212,3.212,0,0,0-2.47,1.935,7.764,7.764,0,0,0-.942,3.624c-.024,2.647,1.228,5.175,3.1,5.8a2.449,2.449,0,0,0,2.1-.261c.419-.308.5-.6.456-.624" transform="translate(-70.822 -25.372)" fill="#eb996e"/>
        <path id="Trazado_199495" data-name="Trazado 199495" d="M336.57,123.192c.143-.332-2.427-1.1-4.233-3.512a14.7,14.7,0,0,1-1.815-3.426c-.383-.952-.673-1.55-.815-1.506s-.1.686.111,1.723a9.686,9.686,0,0,0,1.688,3.837,7.841,7.841,0,0,0,3.351,2.565c1,.406,1.68.431,1.714.319" transform="translate(-85.097 -29.623)" fill="#263238"/>
        <path id="Trazado_199496" data-name="Trazado 199496" d="M372.579,39.749a3.1,3.1,0,0,0-1.455-1.809c-1.5-.884-3.223-.766-4.889-.793a27.621,27.621,0,0,1-14.383-4.372,64.338,64.338,0,0,0-6.693-8.111c-5.8-5.978-10.568-10.046-15.5-12.032-6.382-2.569-17.056-3.611-23.71-1.865s-12.631,7.145-13.556,13.962c-3.732-3.155-9.335-3.128-13.88-1.3l-.114-.05c-5.062,1.8-7.938,7.152-9.431,12.315S266.836,46.374,264.1,51c-.571.967-1.25,2.126-.751,3.133a2.135,2.135,0,0,0,2.235.973,6.256,6.256,0,0,0,2.356-1.066L266.248,58.1a11.964,11.964,0,0,0,5.506-.368,117.381,117.381,0,0,0,3.6,13.612c2.117-.006,4.053.145,5.358,1.318,1.773,1.594,2.566,4.593,5.512,3.455,1.5-.579,2.867-3.725,3.369-5.252a74.639,74.639,0,0,0,3.232-31.6,23.986,23.986,0,0,1,7.408-5.347l-.226.2c5.345-1.857,11.391-3.682,16.462-1.174,3.934,1.947,6.246,6.028,9.188,9.286a30.028,30.028,0,0,0,21.4,9.886c.283,5.385-.169,13,.113,18.382l4.53-8.627,0,.043c.371-.631.677-1.268.974-1.906l.1-.194V59.8a33.406,33.406,0,0,1,1.515-3.064l.051.046c2.918,2.574,7.217-1.362,4.916-4.5a7.587,7.587,0,0,0-1.627-1.634,5.323,5.323,0,0,0,5.07,1.315,4.176,4.176,0,0,0,2.954-4.13,3.551,3.551,0,0,0-2.117-2.849,12,12,0,0,0,6.822-1.5c1.347-.769,2.668-2.033,2.211-3.727" transform="translate(-67.942 -2.557)" fill="#263238"/>
        <path id="Trazado_199497" data-name="Trazado 199497" d="M300.9,32.849a16.452,16.452,0,0,0-1.919,1.755,13.718,13.718,0,0,0-2.936,6.352,24.075,24.075,0,0,0-.489,4.862c-.008,1.762.134,3.648.269,5.637a50.435,50.435,0,0,1,.143,6.274,22.091,22.091,0,0,1-.431,3.309,6.9,6.9,0,0,1-1.35,3.211,2.886,2.886,0,0,1-2.7.907,4.3,4.3,0,0,1-2.43-1.372,9.925,9.925,0,0,1-1.844-4.865l.4.048a16.013,16.013,0,0,1-2.328,4.008A5.7,5.7,0,0,1,281.569,65a3.679,3.679,0,0,1-1.973-.345,3.187,3.187,0,0,1-1.34-1.32,3.279,3.279,0,0,1-.407-1.7,2.383,2.383,0,0,1,.614-1.488l.2.181a12.341,12.341,0,0,1-4.11,3.084,11.02,11.02,0,0,1-1.274.494,2.119,2.119,0,0,1-.456.113,2.312,2.312,0,0,1,.432-.184c.284-.117.707-.287,1.234-.556a12.706,12.706,0,0,0,3.967-3.128l.2.181a2.452,2.452,0,0,0-.127,2.843,2.87,2.87,0,0,0,1.211,1.168,3.335,3.335,0,0,0,1.788.291,5.342,5.342,0,0,0,3.455-1.926,15.783,15.783,0,0,0,2.241-3.922l.275-.613.127.662a9.591,9.591,0,0,0,1.755,4.648,3.865,3.865,0,0,0,2.174,1.228,2.436,2.436,0,0,0,2.3-.769,6.532,6.532,0,0,0,1.246-3,21.94,21.94,0,0,0,.429-3.242,51.188,51.188,0,0,0-.118-6.222c-.123-1.987-.252-3.882-.228-5.667a23.991,23.991,0,0,1,.55-4.925,13.532,13.532,0,0,1,3.116-6.4,7.758,7.758,0,0,1,2.048-1.639" transform="translate(-70.433 -8.48)" fill="#455a64"/>
        <path id="Trazado_199498" data-name="Trazado 199498" d="M370.085,47.727c0,.006-.047.05-.154.131l-.478.349a6.41,6.41,0,0,1-.811.52,10.122,10.122,0,0,1-1.164.612,16.959,16.959,0,0,1-8.188,1.473,21.677,21.677,0,0,1-11.547-4.263,37.564,37.564,0,0,1-9.919-11.433c-1.392-2.317-2.526-4.691-3.776-6.885a25.361,25.361,0,0,0-4.275-5.824,13.056,13.056,0,0,0-5.513-3.346,9.358,9.358,0,0,0-2.907-.335,10.29,10.29,0,0,0-2.662.511,11.073,11.073,0,0,0-6.148,5.2,13.347,13.347,0,0,0-.988,2.869.687.687,0,0,1,.016-.2c.024-.158.055-.351.09-.585a9.6,9.6,0,0,1,.726-2.16,10.9,10.9,0,0,1,2.142-2.9,11.2,11.2,0,0,1,4.059-2.519,10.528,10.528,0,0,1,2.746-.557,9.686,9.686,0,0,1,3.025.322,13.38,13.38,0,0,1,5.7,3.407,25.562,25.562,0,0,1,4.369,5.9c1.266,2.209,2.4,4.578,3.78,6.873a37.569,37.569,0,0,0,9.777,11.328A21.543,21.543,0,0,0,359.311,50.5a17.232,17.232,0,0,0,8.1-1.316,27,27,0,0,0,2.677-1.453" transform="translate(-80.43 -4.743)" fill="#455a64"/>
        <path id="Trazado_199499" data-name="Trazado 199499" d="M385.745,46.608a2.988,2.988,0,0,1-.686.478,14.79,14.79,0,0,1-2.031,1.032,19.788,19.788,0,0,1-3.217,1.056,20.829,20.829,0,0,1-8.254.264,19.835,19.835,0,0,1-3.277-.848,14.826,14.826,0,0,1-2.093-.9,3,3,0,0,1-.715-.432c.037-.076,1.093.467,2.907,1.032a22.666,22.666,0,0,0,3.244.742,22.343,22.343,0,0,0,8.1-.26,22.558,22.558,0,0,0,3.189-.948c1.775-.679,2.795-1.289,2.836-1.216" transform="translate(-94.349 -12.031)" fill="#455a64"/>
        <path id="Trazado_199500" data-name="Trazado 199500" d="M367.623,84.291c-.381.387-2.588-1.391-5.793-1.477-3.2-.134-5.6,1.486-5.933,1.073-.166-.183.23-.89,1.275-1.624a8.026,8.026,0,0,1,4.763-1.352,7.742,7.742,0,0,1,4.6,1.673c.964.8,1.277,1.533,1.091,1.706" transform="translate(-91.868 -20.887)" fill="#263238"/>
        <path id="Trazado_199501" data-name="Trazado 199501" d="M365.51,93.151a2.594,2.594,0,0,1-2.685,2.427,2.48,2.48,0,0,1-2.494-2.526,2.594,2.594,0,0,1,2.682-2.429,2.482,2.482,0,0,1,2.5,2.528" transform="translate(-93.022 -23.395)" fill="#263238"/>
        <path id="Trazado_199502" data-name="Trazado 199502" d="M513.9,185.736a5.281,5.281,0,0,0-5.311-5.558c-2.023-2.657-4.3-1.691-4.3-1.691l-8.6,5.8c-1.264,2.174-9.609,10.39-9.609,10.39-2.276-1.691-2.276-5.074-5-9.183s-8.905-3.625-8.905-3.625,4.8,10.874,5.311,17.639-3.694,25.637-3.694,25.637l24.308,6.832s1.534-10.353,4.258-11.188c3.278-1.006,5.1-5.843,5.1-5.843,3.544-7.179,10.739-17.612,11.751-22.928s-5.311-6.283-5.311-6.283" transform="translate(-121.896 -46.034)" fill="#ffbe9d"/>
        <path id="Trazado_199503" data-name="Trazado 199503" d="M269.776,172.12c15.483,9.729,31.087,13.39,46.89,7.089l23.756,6.068,23.372,156.152-137.036,1.19,6.752-36.268L250.5,176.042Z" transform="translate(-58.54 -44.434)" fill="#16697a"/>
        <path id="Trazado_199504" data-name="Trazado 199504" d="M379.977,189.855s18.476,7.672,25.528,21.112,18.386,51.164,18.386,51.164l20.878-38.341,38.747,9.905s-28.841,79.553-36.082,86.8c-7.927,7.929-29.53,15.924-40.108,9.754s-12.73-29.591-12.73-29.591Z" transform="translate(-98.095 -49.013)" fill="#16697a"/>
        <path id="Trazado_199505" data-name="Trazado 199505" d="M381.627,267.115c-.107,0-.193-6.935-.193-15.49s.086-15.491.193-15.491.193,6.935.193,15.491-.086,15.49-.193,15.49" transform="translate(-98.471 -60.96)" fill="#263238"/>
        <path id="Trazado_199506" data-name="Trazado 199506" d="M389.539,201.883a23.074,23.074,0,0,1-.9,2.558c-.582,1.568-1.354,3.745-2.109,6.18s-1.346,4.67-1.751,6.292a23.052,23.052,0,0,1-.7,2.619,2.682,2.682,0,0,1,.072-.728c.07-.464.193-1.131.363-1.953.339-1.642.892-3.9,1.648-6.345s1.576-4.619,2.224-6.166c.324-.774.6-1.394.8-1.817a2.678,2.678,0,0,1,.352-.641" transform="translate(-99.15 -52.118)" fill="#263238"/>
        <path id="Trazado_199507" data-name="Trazado 199507" d="M228.485,235.756l4.287-58.838s-32.255,2.993-42.929,25.749c-8.995,19.177-33.824,76.873-36.481,84.766-7.8,23.16,4.384,55,54.608,53.158L213.7,309.1Z" transform="translate(-39.033 -45.673)" fill="#16697a"/>
        <path id="Trazado_199508" data-name="Trazado 199508" d="M206.695,359.615a3.771,3.771,0,0,1,.263-.565l.819-1.584,3.076-5.789,1.028-1.915a5.671,5.671,0,0,1,1.475-1.9,4.011,4.011,0,0,1,2.481-.714,11.292,11.292,0,0,1,2.674.433,27.425,27.425,0,0,1,5.4,2.042,14.309,14.309,0,0,1,2.591,1.651l.3.26a.97.97,0,0,1,.254.4,3.354,3.354,0,0,1,.163.811,12.627,12.627,0,0,1,.035,1.6c-.078,2.127-.343,4.177-.607,6.154s-.574,3.874-.876,5.68c-.607,3.611-1.214,6.852-1.735,9.57l-1.26,6.433q-.216,1.1-.344,1.748a4.969,4.969,0,0,1-.13.609,3.04,3.04,0,0,1,.053-.621c.053-.405.145-1,.274-1.763.276-1.562.663-3.758,1.139-6.456.486-2.724,1.065-5.968,1.652-9.579.292-1.8.586-3.7.852-5.673s.519-4.018.6-6.113a12.3,12.3,0,0,0-.033-1.547,2.991,2.991,0,0,0-.139-.714.575.575,0,0,0-.154-.251l-.284-.248a14.02,14.02,0,0,0-2.518-1.61,27.449,27.449,0,0,0-5.315-2.033,11.026,11.026,0,0,0-2.588-.438,3.692,3.692,0,0,0-2.286.631,5.406,5.406,0,0,0-1.405,1.783q-.546.99-1.048,1.9l-3.185,5.73-.883,1.549a3.737,3.737,0,0,1-.331.527" transform="translate(-53.36 -89.621)" fill="#263238"/>
        <path id="Trazado_199509" data-name="Trazado 199509" d="M175.255,326.27a1.4,1.4,0,0,1,.379-.012l1.083.042c.939.046,2.3.125,3.975.281a51.613,51.613,0,0,1,5.858.852,29.978,29.978,0,0,1,6.889,2.283,27.026,27.026,0,0,1,6.061,4,16.192,16.192,0,0,1,3.68,4.649,10.3,10.3,0,0,1,1.115,3.838,6.814,6.814,0,0,1,.021,1.088,1.373,1.373,0,0,1-.031.377c-.042,0-.027-.524-.139-1.448a10.8,10.8,0,0,0-1.208-3.728,16.4,16.4,0,0,0-3.673-4.509,27.5,27.5,0,0,0-5.993-3.917,30.752,30.752,0,0,0-6.8-2.283,56.991,56.991,0,0,0-5.811-.929c-1.668-.189-3.022-.311-3.958-.4l-1.077-.114a1.4,1.4,0,0,1-.374-.065" transform="translate(-45.244 -84.226)" fill="#263238"/>
        <path id="Trazado_199510" data-name="Trazado 199510" d="M219.48,322.27a13.951,13.951,0,0,1-.8,2.315c-.553,1.409-1.375,3.329-2.32,5.433l-2.421,5.381a17.157,17.157,0,0,1-1.054,2.21,13.907,13.907,0,0,1,.8-2.315c.553-1.409,1.375-3.33,2.32-5.433l2.421-5.381a17.071,17.071,0,0,1,1.053-2.209" transform="translate(-54.957 -83.197)" fill="#263238"/>
        <path id="Trazado_199511" data-name="Trazado 199511" d="M245.772,254.05c-.107,0-.193-3.729-.193-8.329s.086-8.33.193-8.33.193,3.728.193,8.33-.086,8.329-.193,8.329" transform="translate(-63.398 -61.285)" fill="#263238"/>
        <g id="Grupo_147363" data-name="Grupo 147363" transform="translate(142.285 259.44)" opacity="0.3">
          <g id="Grupo_147362" data-name="Grupo 147362">
            <g id="Grupo_147361" data-name="Grupo 147361" clip-path="url(#clip-path-4)">
              <path id="Trazado_199512" data-name="Trazado 199512" d="M208.555,349.725c-8.485,2.96-14.221,10.66-16.538,19.342a3,3,0,0,0,.2,2.7,2.135,2.135,0,0,0,2.664.218,6.23,6.23,0,0,0,1.889-2.176c4.088-6.542,8.079-12.6,11.781-20.089" transform="translate(-191.8 -349.725)"/>
            </g>
          </g>
        </g>
        <g id="Grupo_147366" data-name="Grupo 147366" transform="translate(121.732 238.791)" opacity="0.3">
          <g id="Grupo_147365" data-name="Grupo 147365">
            <g id="Grupo_147364" data-name="Grupo 147364" clip-path="url(#clip-path-5)">
              <path id="Trazado_199513" data-name="Trazado 199513" d="M190.877,325.752a34.208,34.208,0,0,0-14.606-3.831,22.184,22.184,0,0,0-5.9.519c-2.648.556-5.694,1.895-6.272,3.8,6.091-1.907,15.055-.651,21.289.711a22.871,22.871,0,0,1,14.906,10.562,21.261,21.261,0,0,0-9.412-11.758" transform="translate(-164.094 -321.889)"/>
            </g>
          </g>
        </g>
        <path id="Trazado_199514" data-name="Trazado 199514" d="M235.149,218.777a4.789,4.789,0,0,1-.3-.929c-.159-.6-.418-1.471-.768-2.53a40.839,40.839,0,0,0-8.766-14.9c-.755-.82-1.387-1.467-1.838-1.9a4.752,4.752,0,0,1-.668-.709,4.709,4.709,0,0,1,.77.6c.484.4,1.149,1.02,1.935,1.822a36.78,36.78,0,0,1,8.828,15c.319,1.076.539,1.959.653,2.577a4.71,4.71,0,0,1,.149.964" transform="translate(-57.521 -51.067)" fill="#263238"/>
        <path id="Trazado_199515" data-name="Trazado 199515" d="M242.708,365.243l-35.942-86.717c-1.64-3.957.418-7.165,4.6-7.165h7.231c2.951,0,4.961-1.625,5.151-4.163l.24-3.188c.191-2.537,2.206-4.163,5.16-4.163H263.5a12.026,12.026,0,0,1,7.956,3.52l2.789,2.7a12.02,12.02,0,0,0,7.95,3.52h43.763a12.212,12.212,0,0,1,10.452,7.165l35.631,88.488Z" transform="translate(-53.233 -67.082)" fill="#ff725e"/>
        <g id="Grupo_147369" data-name="Grupo 147369" transform="translate(152.968 192.765)">
          <g id="Grupo_147368" data-name="Grupo 147368">
            <g id="Grupo_147367" data-name="Grupo 147367" clip-path="url(#clip-path-6)">
              <path id="Trazado_199516" data-name="Trazado 199516" d="M242.708,365.243l-35.942-86.717c-1.64-3.957.418-7.165,4.6-7.165h7.231c2.951,0,4.961-1.625,5.151-4.163l.24-3.188c.191-2.537,2.206-4.163,5.16-4.163H263.5a12.026,12.026,0,0,1,7.956,3.52l2.789,2.7a12.02,12.02,0,0,0,7.95,3.52h43.763a12.212,12.212,0,0,1,10.452,7.165l35.631,88.488Z" transform="translate(-206.201 -259.847)" fill="#ffa400"/>
            </g>
          </g>
        </g>
        <path id="Trazado_199517" data-name="Trazado 199517" d="M242.618,341.577l-13.556-52.41c-.892-3.451,1.368-6.913,4.513-6.913H339.828a4.846,4.846,0,0,1,4.525,3.9l19.731,78.886c.866,3.464-.519,5.542-3.668,5.5l-106.905.033a4.849,4.849,0,0,1-4.465-3.872Z" transform="translate(-59.084 -72.866)" fill="#e0e0e0"/>
        <path id="Trazado_199518" data-name="Trazado 199518" d="M255.288,368.116l-5.774-82.535a5.062,5.062,0,0,1,5.049-5.415h110.09v87.95Z" transform="translate(-64.411 -72.327)" fill="#ebebeb"/>
        <path id="Trazado_199519" data-name="Trazado 199519" d="M255.642,370.005l13.1-85.087a6.1,6.1,0,0,1,5.986-4.752H386.093a6.02,6.02,0,0,1,5.622,8.387L367.668,366.42Z" transform="translate(-65.996 -72.327)" fill="#fafafa"/>
        <path id="Trazado_199520" data-name="Trazado 199520" d="M255.412,372.209l27.01-79.69a8,8,0,0,1,7.512-5.54h114.81a5.611,5.611,0,0,1,5.128,7.444L384.75,372.247Z" transform="translate(-65.937 -74.086)" fill="#ffa400"/>
        <g id="Grupo_147372" data-name="Grupo 147372" transform="translate(191.816 250.537)" opacity="0.3">
          <g id="Grupo_147371" data-name="Grupo 147371">
            <g id="Grupo_147370" data-name="Grupo 147370" clip-path="url(#clip-path-7)">
              <path id="Trazado_199521" data-name="Trazado 199521" d="M311.737,371.967s-4.335.2-6.333.335a59,59,0,0,1-27.9-4.949c-2.7-1.2-5.559-2.9-6.375-5.745-.915-3.184,1.146-6.5,3.66-8.654s5.57-3.694,7.752-6.185,3.215-6.525,1.065-9.044l-.594.435c-1.553,3.935-5.878,5.834-9.46,8.085a33.386,33.386,0,0,0-14.02,18.324c-1.26,4.125-1.6,8.938.9,12.453,1.775,2.493,4.68,3.911,7.55,4.976,8.685,3.221,17.97,3.341,27.233,3.352,2.927,0,11.91-.12,11.91-.12,2.824-.769,3.756-2.238,5.456-4.621,1.561-2.188,1.22-6.924-.85-8.639" transform="translate(-258.568 -337.724)"/>
            </g>
          </g>
        </g>
        <path id="Trazado_199522" data-name="Trazado 199522" d="M304.07,371.307l-29.944-4.5L262.5,360.115a5.246,5.246,0,0,1-2.672-4.223c0-.033,0-.066,0-.1a5.307,5.307,0,0,1,3.29-5.067c3.688-1.554,9.531-3.622,12.023-7.987,3.581-6.274,0-7.575,0-7.575l-25.006,10-17.7,12.047L228.867,377.3l24.7,8.066s27.522,1.551,35.116.7,7.594-4.389,7.594-4.389c1.41-.441,4.261-2.944,4.26-5.277,3.685-3.457,3.535-5.088,3.535-5.088" transform="translate(-59.084 -86.526)" fill="#ffbe9d"/>
        <path id="Trazado_199523" data-name="Trazado 199523" d="M278.611,395.536a5.929,5.929,0,0,1,1.234.236c.783.19,1.921.441,3.331.723a70.4,70.4,0,0,0,22.349.872c1.428-.171,2.582-.333,3.378-.461a5.981,5.981,0,0,1,1.248-.139,5.826,5.826,0,0,1-1.211.334c-.786.189-1.936.407-3.366.624a60.835,60.835,0,0,1-22.473-.877c-1.408-.328-2.538-.634-3.307-.884a5.978,5.978,0,0,1-1.182-.427" transform="translate(-71.926 -102.109)" fill="#eb996e"/>
        <path id="Trazado_199524" data-name="Trazado 199524" d="M282.3,389.3a6.194,6.194,0,0,1,1.252.239c.795.193,1.951.444,3.384.719a72.707,72.707,0,0,0,11.319,1.251,76.841,76.841,0,0,0,11.381-.522c1.449-.175,2.621-.341,3.428-.472a6.171,6.171,0,0,1,1.266-.143,6.118,6.118,0,0,1-1.23.338c-.8.191-1.965.413-3.416.634a64.409,64.409,0,0,1-11.445.674,61.507,61.507,0,0,1-11.377-1.407c-1.432-.323-2.581-.628-3.362-.881a6.06,6.06,0,0,1-1.2-.43" transform="translate(-72.878 -100.498)" fill="#eb996e"/>
        <path id="Trazado_199525" data-name="Trazado 199525" d="M493.968,211.072l-53.2,10.508a6.784,6.784,0,0,1-7.971-5.342L418.247,142.6a6.785,6.785,0,0,1,5.342-7.972l33.743-6.665,31.436,21.762L499.31,203.1a6.785,6.785,0,0,1-5.342,7.972" transform="translate(-107.941 -33.034)" fill="#ebebeb"/>
        <path id="Trazado_199526" data-name="Trazado 199526" d="M470.978,127.96l4.093,20.726a6.311,6.311,0,0,0,7.414,4.97l19.929-3.933Z" transform="translate(-121.587 -33.034)" fill="#f5f5f5"/>
        <path id="Trazado_199527" data-name="Trazado 199527" d="M477.347,158.024s.731,5.079,6.78,5.6a6.574,6.574,0,0,0,.684.018c2.694-.048,20.426-.385,20.348-.778-.084-.426-1.1-5.569-1.1-5.569l-19.928,3.935s-5.01.813-6.783-3.207" transform="translate(-123.232 -40.607)" fill="#e0e0e0"/>
        <path id="Trazado_199528" data-name="Trazado 199528" d="M493.9,211s.1-.033.287-.085a5.785,5.785,0,0,0,.838-.274,6.735,6.735,0,0,0,4.209-7.176c-.389-2.156-.919-4.639-1.466-7.421l-9.226-46.363.066.1-31.45-21.742.141.029-19.47,3.852-10.184,2.013-2.585.51a17.34,17.34,0,0,0-2.543.6,6.6,6.6,0,0,0-3.683,3.45,6.508,6.508,0,0,0-.534,3.527c.188,1.194.464,2.418.691,3.619q.713,3.617,1.418,7.183,1.408,7.133,2.771,14.045c1.815,9.208,3.565,18.089,5.233,26.55q1.249,6.346,2.434,12.364.591,3.007,1.165,5.924.287,1.458.569,2.893a15.6,15.6,0,0,0,.678,2.783,6.647,6.647,0,0,0,3.878,3.7,6.577,6.577,0,0,0,2.639.384,25.306,25.306,0,0,0,2.636-.449l10.045-1.971,30.318-5.926,8.246-1.592,2.147-.4c.484-.089.734-.125.734-.125s-.245.062-.726.163l-2.139.442-8.233,1.663-30.294,6.046-10.041,2a25.181,25.181,0,0,1-2.674.46,6.883,6.883,0,0,1-2.763-.4,6.963,6.963,0,0,1-4.068-3.871,15.8,15.8,0,0,1-.7-2.841l-.574-2.892q-.578-2.915-1.174-5.921-1.191-6.011-2.45-12.361c-1.674-8.46-3.432-17.34-5.254-26.546q-1.365-6.906-2.777-14.044-.7-3.565-1.42-7.182c-.228-1.214-.5-2.4-.694-3.645a6.893,6.893,0,0,1,.565-3.734,6.981,6.981,0,0,1,3.9-3.651,17.618,17.618,0,0,1,2.6-.617l2.585-.51,10.185-2.01,19.471-3.84.077-.015.065.045,31.423,21.782.053.037.013.064c3.78,19.281,6.907,35.24,9.093,46.39.534,2.789,1.047,5.262,1.425,7.438a6.812,6.812,0,0,1-1.529,5.255,6.734,6.734,0,0,1-2.8,1.986,5.038,5.038,0,0,1-.849.251c-.194.045-.293.061-.293.061" transform="translate(-107.875 -32.966)" fill="#263238"/>
        <path id="Trazado_199529" data-name="Trazado 199529" d="M502.413,149.722a2.64,2.64,0,0,1-.5.139l-1.461.325-5.386,1.125-8,1.621-4.732.935a6.513,6.513,0,0,1-6.777-3.287,7.53,7.53,0,0,1-.791-2.472l-.923-4.731c-.578-3.007-1.1-5.72-1.541-8.015-.418-2.251-.76-4.088-1.006-5.41-.1-.609-.189-1.1-.254-1.474a2.628,2.628,0,0,1-.063-.519,2.567,2.567,0,0,1,.139.5c.083.372.191.857.326,1.461.275,1.316.658,3.145,1.126,5.386.465,2.29,1.014,5,1.622,8,.3,1.507.617,3.088.945,4.726a7.158,7.158,0,0,0,.757,2.361,6.149,6.149,0,0,0,6.377,3.1l4.726-.912,8.014-1.539,5.41-1.005,1.475-.254a2.619,2.619,0,0,1,.519-.063" transform="translate(-121.586 -33.034)" fill="#263238"/>
        <path id="Trazado_199530" data-name="Trazado 199530" d="M464.779,153.156c.021.1-6.247,1.431-14,2.961s-14.053,2.688-14.073,2.583,6.246-1.43,14-2.962,14.051-2.687,14.072-2.582" transform="translate(-112.74 -39.537)" fill="#263238"/>
        <path id="Trazado_199531" data-name="Trazado 199531" d="M480.849,163.547c.021.1-9.229,2.02-20.656,4.277s-20.712,4-20.733,3.9,9.226-2.019,20.658-4.277,20.71-4,20.731-3.9" transform="translate(-113.451 -42.22)" fill="#263238"/>
        <path id="Trazado_199532" data-name="Trazado 199532" d="M483.6,177.484c.021.1-9.229,2.02-20.656,4.277s-20.712,4-20.733,3.9,9.226-2.019,20.658-4.277,20.71-4,20.731-3.9" transform="translate(-114.161 -45.818)" fill="#263238"/>
        <path id="Trazado_199533" data-name="Trazado 199533" d="M444.965,199.6c-.021-.1,9.229-2.02,20.656-4.277s20.712-4,20.733-3.9-9.226,2.019-20.658,4.277-20.71,4-20.731,3.9" transform="translate(-114.872 -49.416)" fill="#263238"/>
        <path id="Trazado_199534" data-name="Trazado 199534" d="M489.107,205.358c.021.1-9.228,2.02-20.656,4.277s-20.712,4-20.733,3.9,9.226-2.019,20.658-4.277,20.71-4,20.731-3.9" transform="translate(-115.582 -53.014)" fill="#263238"/>
        <path id="Trazado_199535" data-name="Trazado 199535" d="M491.86,219.3c.021.1-9.228,2.02-20.656,4.277s-20.712,4-20.733,3.9,9.226-2.019,20.658-4.277,20.71-4,20.731-3.9" transform="translate(-116.293 -56.612)" fill="#263238"/>
        <path id="Trazado_199536" data-name="Trazado 199536" d="M460.679,221.459l-39.045,7.711a3.131,3.131,0,0,1-3.679-2.465l-2.8-14.16a3.132,3.132,0,0,1,2.465-3.68l39.045-7.711a3.131,3.131,0,0,1,3.679,2.466l2.8,14.16a3.133,3.133,0,0,1-2.466,3.68" transform="translate(-107.161 -51.914)" fill="#ffa400"/>
        <path id="Trazado_199537" data-name="Trazado 199537" d="M431.049,218.067l3.485-.688c2.511-.5,4.53.677,4.988,3s-.962,4.177-3.473,4.673l-3.485.688Zm4.625,5.544a2.428,2.428,0,1,0-.94-4.757l-1.622.32.94,4.757Z" transform="translate(-111.279 -56.089)" fill="#fff"/>
        <path id="Trazado_199538" data-name="Trazado 199538" d="M443.593,219.532a4.286,4.286,0,1,1,4.982,3.138,4.048,4.048,0,0,1-4.982-3.138m6.6-1.3a2.448,2.448,0,1,0-1.915,2.929,2.386,2.386,0,0,0,1.915-2.929" transform="translate(-114.496 -55.411)" fill="#fff"/>
        <path id="Trazado_199539" data-name="Trazado 199539" d="M456.06,217.071a4.307,4.307,0,0,1,6.807-4.055l-.932,1.277a2.516,2.516,0,0,0-2.107-.517,2.5,2.5,0,1,0,.97,4.91,2.5,2.5,0,0,0,1.749-1.29l1.349.826a4.3,4.3,0,0,1-7.836-1.152" transform="translate(-117.714 -54.777)" fill="#fff"/>
        <path id="Trazado_199540" data-name="Trazado 199540" d="M506.613,165.067s3.93-4.975,6.956-2.193,2.154,4.213-.724,8.611c0,0,6.423-.338,4.364,6.26,0,0,6.4-.708,5.785,4.691,0,0,4.833,4.729,2.32,7.778s-11.629,8.551-13.932,7.6-2.32-4.207-2.32-4.207-2.739-1.234-3.495-2.677.542-3.466.542-3.466-2.309-2.359-2.881-3.017.313-3.719.313-3.719l3.686-3.577s-5.076,2.206-6.134,1.365-2.25-1.569-1.118-3.1a51.378,51.378,0,0,1,5.159-4.968Z" transform="translate(-128.955 -41.829)" fill="#ffbe9d"/>
        <path id="Trazado_199541" data-name="Trazado 199541" d="M513.073,201.088a17.5,17.5,0,0,1,1.663-2.02,19.432,19.432,0,0,1,4.689-4.3,45.248,45.248,0,0,0,5.27-3.388,24.889,24.889,0,0,0,1.8-1.849,4.685,4.685,0,0,1-1.508,2.171,31.139,31.139,0,0,1-5.232,3.584,23.587,23.587,0,0,0-4.7,4.07,8.257,8.257,0,0,1-1.981,1.728" transform="translate(-132.454 -48.93)" fill="#eb996e"/>
        <path id="Trazado_199542" data-name="Trazado 199542" d="M508.28,193.886c-.119-.119,2.24-2.667,5.268-5.689,1.521-1.487,2.824-2.934,3.947-3.819a4.747,4.747,0,0,1,1.975-1.167c.044.082-.692.53-1.691,1.493-1.016.938-2.263,2.421-3.8,3.927-3.028,3.022-5.58,5.375-5.7,5.256" transform="translate(-131.216 -47.295)" fill="#eb996e"/>
        <path id="Trazado_199543" data-name="Trazado 199543" d="M509.907,180.347c-.121-.153,1.337-1.309,2.953-2.85a38.3,38.3,0,0,0,2.6-3.105c.174.039-.451,1.937-2.175,3.543a10.308,10.308,0,0,1-3.381,2.412" transform="translate(-131.635 -45.02)" fill="#eb996e"/>
        <path id="Trazado_199544" data-name="Trazado 199544" d="M506.546,165a1.627,1.627,0,0,1-.065.368c-.066.274-.15.619-.253,1.048-.249.963-.594,2.3-1.033,4l-.01.038-.033.028c-.741.652-1.574,1.4-2.475,2.249a21.922,21.922,0,0,0-2.74,2.927,1.532,1.532,0,0,0-.279.93,1.471,1.471,0,0,0,.495.867,9.946,9.946,0,0,0,.9.747,1.367,1.367,0,0,0,1.023.2,19.649,19.649,0,0,0,4.979-1.544l1.188-.491-.917.9-3.674,3.59.056-.079a4.687,4.687,0,0,0-.189,3.734,10.422,10.422,0,0,0,2.907,2.963l.249.188-.2.237c-.8.947-1.37,2.446-.321,3.37a13.644,13.644,0,0,0,3.481,2.381l-.432.24.006-.072s0-.033,0-.02v.005c.076.089-.171-.213.176.261.828-.391.24-.161.421-.226v0l-.006.14,0,.3a5.712,5.712,0,0,0,.056.6,4.711,4.711,0,0,0,.319,1.163,3.078,3.078,0,0,0,.652.977,1.823,1.823,0,0,0,.953.547,5.792,5.792,0,0,0,2.428-.478,21.588,21.588,0,0,0,2.412-1.084,39.731,39.731,0,0,0,4.291-2.6,25.01,25.01,0,0,0,3.754-3.08,3.04,3.04,0,0,0,.975-1.932,4.7,4.7,0,0,0-.4-2.162,12.29,12.29,0,0,0-2.526-3.671l-.091-.1.007-.142a4.621,4.621,0,0,0-.217-2.11,3.131,3.131,0,0,0-1.293-1.529,6.916,6.916,0,0,0-3.961-.758l-.369.024.088-.364c.1-.4.212-.8.295-1.191a6.683,6.683,0,0,0,.092-1.18,3.278,3.278,0,0,0-.662-2.089,4.816,4.816,0,0,0-3.823-1.5h-.43l.23-.349a35.711,35.711,0,0,0,2.068-3.374,4.959,4.959,0,0,0,.526-1.671,2.74,2.74,0,0,0-.329-1.556,6.942,6.942,0,0,0-2.019-2.194,2.967,2.967,0,0,0-2.4-.246,8.04,8.04,0,0,0-2.987,1.87c-.3.276-.518.5-.668.654a1.461,1.461,0,0,1-.231.222,1.031,1.031,0,0,1,.182-.266,8.84,8.84,0,0,1,.627-.7,9.761,9.761,0,0,1,1.151-1.016,6.117,6.117,0,0,1,1.855-1,3.226,3.226,0,0,1,2.629.222l.615.45.556.532a6.361,6.361,0,0,1,1.008,1.306,3.1,3.1,0,0,1,.4,1.756,5.307,5.307,0,0,1-.541,1.817,35.4,35.4,0,0,1-2.058,3.444l-.2-.348a6.711,6.711,0,0,1,2.238.319,4.139,4.139,0,0,1,2,1.323,3.777,3.777,0,0,1,.786,2.38,7.15,7.15,0,0,1-.091,1.281c-.084.42-.2.836-.3,1.26l-.28-.341a7.4,7.4,0,0,1,4.307.811,3.693,3.693,0,0,1,1.529,1.793,5.182,5.182,0,0,1,.263,2.381l-.084-.237a12.792,12.792,0,0,1,2.67,3.856,5.266,5.266,0,0,1,.444,2.444,3.79,3.79,0,0,1-.357,1.255,5.483,5.483,0,0,1-.772,1.03,25.435,25.435,0,0,1-3.846,3.17,40.043,40.043,0,0,1-4.358,2.639,22.162,22.162,0,0,1-2.481,1.114,6.245,6.245,0,0,1-2.728.507,3.031,3.031,0,0,1-2.072-1.887,5.273,5.273,0,0,1-.359-1.315,6.129,6.129,0,0,1-.061-.669l0-.338.009-.177,0-.035,0-.01c.18-.066-.407.162.422-.23.348.471.1.171.177.262v.025l0,.059-.007.086-.041.448-.392-.208a14.1,14.1,0,0,1-3.65-2.522,2.862,2.862,0,0,1-.625-1,2.363,2.363,0,0,1-.05-1.185,4.554,4.554,0,0,1,1-1.963l.048.424a10.83,10.83,0,0,1-3.069-3.179,3.9,3.9,0,0,1-.339-2.178,6.911,6.911,0,0,1,.541-2.032l.018-.042.038-.037,3.7-3.563.271.4a19.779,19.779,0,0,1-5.143,1.536,1.806,1.806,0,0,1-1.325-.307,10.337,10.337,0,0,1-.935-.792,1.875,1.875,0,0,1-.6-1.125,1.914,1.914,0,0,1,.352-1.177,21.459,21.459,0,0,1,2.846-2.962c.92-.836,1.768-1.569,2.528-2.208l-.042.066q.742-2.543,1.163-3.987l.317-1.023a1.377,1.377,0,0,1,.128-.337" transform="translate(-128.886 -41.779)" fill="#eb996e"/>
      </g>
    </g>
    <g id="Grupo_147376" data-name="Grupo 147376">
      <g id="Grupo_147375" data-name="Grupo 147375" clip-path="url(#clip-path)">
        <path id="Trazado_199545" data-name="Trazado 199545" d="M126.967,194.011H81.193a5.727,5.727,0,0,1-5.727-5.728V124.927a5.727,5.727,0,0,1,5.727-5.728h29.03l22.471,23.161v45.923a5.727,5.727,0,0,1-5.727,5.728" transform="translate(-19.482 -30.772)" fill="#ebebeb"/>
        <path id="Trazado_199546" data-name="Trazado 199546" d="M122.318,119.2V137.03a5.326,5.326,0,0,0,5.326,5.327l17.145,0Z" transform="translate(-31.578 -30.772)" fill="#f5f5f5"/>
        <path id="Trazado_199547" data-name="Trazado 199547" d="M122.633,145.345s-.226,4.325,4.7,5.746a5.425,5.425,0,0,0,.563.127c2.239.4,16.976,3.022,16.976,2.683V149.11H127.725s-4.28-.146-5.092-3.765" transform="translate(-31.659 -37.522)" fill="#e0e0e0"/>
        <path id="Trazado_199548" data-name="Trazado 199548" d="M126.9,193.943c0-.027.343.007.99-.116a5.74,5.74,0,0,0,2.6-1.21,5.662,5.662,0,0,0,2.05-4.041c.03-1.847,0-3.99,0-6.384-.016-9.593-.04-23.318-.068-39.9l.045.113L110.022,119.26l.133.056-16.752.006H82.418a14.718,14.718,0,0,0-2.2.081,5.539,5.539,0,0,0-3.595,2.242,5.466,5.466,0,0,0-1.013,2.818c-.04,1.016-.011,2.076-.02,3.108q0,3.11,0,6.18,0,6.136,0,12.082c0,7.921-.008,15.562-.011,22.841q0,5.459-.008,10.637,0,2.586-.005,5.1l0,2.488a13.209,13.209,0,0,0,.105,2.41,5.579,5.579,0,0,0,4.706,4.43,21.241,21.241,0,0,0,2.253.059l8.64.013,26.073.062,7.088.036,1.843.019c.415.007.628.02.628.02s-.213.013-.628.02l-1.843.019-7.088.036-26.073.062-8.64.013a21.194,21.194,0,0,1-2.294-.057,5.829,5.829,0,0,1-2.231-.782,5.9,5.9,0,0,1-2.748-3.886,13.394,13.394,0,0,1-.117-2.473l0-2.488q0-2.509,0-5.1,0-5.172-.008-10.637c0-7.279-.007-14.919-.011-22.841q0-5.941,0-12.082,0-3.068,0-6.18c.009-1.043-.022-2.065.021-3.135a5.841,5.841,0,0,1,1.085-3.015,5.919,5.919,0,0,1,3.846-2.4,14.86,14.86,0,0,1,2.262-.086H93.4l16.752.006h.079l.054.056,22.454,23.178.046.047v.065c-.028,16.582-.052,30.307-.068,39.9-.016,2.4,0,4.527-.04,6.393a5.758,5.758,0,0,1-2.132,4.107,5.686,5.686,0,0,1-2.651,1.183,4.28,4.28,0,0,1-.746.068c-.168,0-.252,0-.252,0" transform="translate(-19.414 -30.705)" fill="#263238"/>
        <path id="Trazado_199549" data-name="Trazado 199549" d="M144.723,142.36a1.867,1.867,0,0,1-.441.039l-1.263.036-4.644.061-6.888.04-4.073,0a5.525,5.525,0,0,1-5.1-3.851,6.361,6.361,0,0,1-.251-2.185c0-1.41.007-2.77.011-4.068.016-2.58.029-4.912.041-6.888.026-1.922.047-3.5.062-4.645.015-.513.027-.932.036-1.263a1.882,1.882,0,0,1,.039-.44,1.917,1.917,0,0,1,.039.44c.01.331.022.749.036,1.263.015,1.148.036,2.723.062,4.645.012,1.976.026,4.308.042,6.888,0,1.3.007,2.659.011,4.068a6.032,6.032,0,0,0,.239,2.07,5.163,5.163,0,0,0,4.746,3.588l4.062.019,6.888.043,4.644.062,1.263.036a1.886,1.886,0,0,1,.441.039" transform="translate(-31.51 -30.772)" fill="#263238"/>
        <path id="Trazado_199550" data-name="Trazado 199550" d="M112.748,140.581c0,.107-5.407.193-12.075.193s-12.076-.086-12.076-.193,5.406-.193,12.076-.193,12.075.086,12.075.193" transform="translate(-22.872 -36.242)" fill="#263238"/>
        <path id="Trazado_199551" data-name="Trazado 199551" d="M124.206,152.571c0,.107-7.972.193-17.8.193s-17.8-.086-17.8-.193,7.97-.193,17.8-.193,17.8.086,17.8.193" transform="translate(-22.872 -39.338)" fill="#263238"/>
        <path id="Trazado_199552" data-name="Trazado 199552" d="M124.206,164.562c0,.107-7.972.193-17.8.193s-17.8-.086-17.8-.193,7.97-.193,17.8-.193,17.8.086,17.8.193" transform="translate(-22.872 -42.433)" fill="#263238"/>
        <path id="Trazado_199553" data-name="Trazado 199553" d="M124.206,176.552c0,.107-7.972.193-17.8.193s-17.8-.086-17.8-.193,7.97-.193,17.8-.193,17.8.086,17.8.193" transform="translate(-22.872 -45.529)" fill="#263238"/>
        <path id="Trazado_199554" data-name="Trazado 199554" d="M124.206,188.543c0,.107-7.972.193-17.8.193s-17.8-.086-17.8-.193,7.97-.193,17.8-.193,17.8.086,17.8.193" transform="translate(-22.872 -48.624)" fill="#263238"/>
        <path id="Trazado_199555" data-name="Trazado 199555" d="M124.206,200.533c0,.107-7.972.193-17.8.193s-17.8-.086-17.8-.193,7.97-.193,17.8-.193,17.8.086,17.8.193" transform="translate(-22.872 -51.72)" fill="#263238"/>
        <path id="Trazado_199556" data-name="Trazado 199556" d="M97.376,197.319H64.761a3.132,3.132,0,0,1-3.132-3.131V182.981a3.132,3.132,0,0,1,3.132-3.131H97.376a3.131,3.131,0,0,1,3.131,3.131v11.206a3.132,3.132,0,0,1-3.132,3.132" transform="translate(-15.91 -46.43)" fill="#16697a"/>
        <path id="Trazado_199557" data-name="Trazado 199557" d="M80.157,189.912c0,1.47-1.1,2.385-2.866,2.385H75.961v1.82H74.434v-6.6h2.857c1.763,0,2.866.915,2.866,2.4m-1.547,0c0-.726-.471-1.151-1.405-1.151H75.961v2.292h1.244c.934,0,1.405-.424,1.405-1.141" transform="translate(-19.216 -48.409)" fill="#fff"/>
        <path id="Trazado_199558" data-name="Trazado 199558" d="M83.61,187.518h3c2.16,0,3.639,1.3,3.639,3.3s-1.48,3.3-3.639,3.3h-3Zm2.923,5.346a2.049,2.049,0,1,0,0-4.092h-1.4v4.092Z" transform="translate(-21.585 -48.41)" fill="#fff"/>
        <path id="Trazado_199559" data-name="Trazado 199559" d="M95.634,188.743v1.745h3.055v1.225H95.634v2.4H94.107v-6.6H99.1v1.226Z" transform="translate(-24.295 -48.409)" fill="#fff"/>
        <path id="Trazado_199560" data-name="Trazado 199560" d="M87.857,335.018H42.572a5.666,5.666,0,0,1-5.666-5.666v-62.68a5.665,5.665,0,0,1,5.665-5.666h28.72l22.231,22.913v45.433a5.666,5.666,0,0,1-5.666,5.666" transform="translate(-9.528 -67.381)" fill="#ebebeb"/>
        <path id="Trazado_199561" data-name="Trazado 199561" d="M83.257,261v17.641a5.27,5.27,0,0,0,5.269,5.27l16.963,0Z" transform="translate(-21.494 -67.381)" fill="#f5f5f5"/>
        <path id="Trazado_199562" data-name="Trazado 199562" d="M83.569,286.871s-.223,4.278,4.648,5.685a5.287,5.287,0,0,0,.558.126c2.214.4,16.795,2.99,16.795,2.654V290.6H88.607s-4.235-.145-5.038-3.725" transform="translate(-21.574 -74.058)" fill="#e0e0e0"/>
        <path id="Trazado_199563" data-name="Trazado 199563" d="M87.789,334.95c0-.027.34.007.978-.116a5.672,5.672,0,0,0,2.57-1.2,5.6,5.6,0,0,0,2.028-4c.029-1.828,0-3.949,0-6.316-.016-9.49-.04-23.069-.068-39.474l.045.113-22.249-22.9.133.056-16.573.006-8.668,0h-2.2a14.5,14.5,0,0,0-2.175.079,5.478,5.478,0,0,0-3.555,2.217,5.4,5.4,0,0,0-1,2.786c-.04,1-.011,2.054-.02,3.073q0,3.079,0,6.114,0,6.071,0,11.953c0,7.837-.008,15.4-.011,22.6q0,5.4-.008,10.522,0,2.559-.005,5.042,0,1.241,0,2.462a12.99,12.99,0,0,0,.1,2.384,5.514,5.514,0,0,0,4.654,4.381,20.97,20.97,0,0,0,2.228.059l8.547.013,25.8.062,7.013.036,1.823.019c.411.007.622.02.622.02s-.211.013-.622.02l-1.823.019-7.013.036-25.8.062-8.547.013a21.12,21.12,0,0,1-2.269-.056,5.764,5.764,0,0,1-2.208-.774,5.837,5.837,0,0,1-2.72-3.846,13.3,13.3,0,0,1-.116-2.446q0-1.222,0-2.462,0-2.482,0-5.042,0-5.116-.008-10.522c0-7.2-.007-14.76-.011-22.6q0-5.878,0-11.953,0-3.036,0-6.114c.009-1.031-.022-2.042.02-3.1a5.8,5.8,0,0,1,1.073-2.984,5.864,5.864,0,0,1,3.806-2.373,14.638,14.638,0,0,1,2.238-.085H54.651l16.573.006H71.3l.054.056,22.214,22.93.046.047v.065c-.028,16.405-.051,29.984-.068,39.474-.015,2.372,0,4.479-.039,6.325a5.7,5.7,0,0,1-2.11,4.063,5.618,5.618,0,0,1-2.622,1.171,4.237,4.237,0,0,1-.737.067c-.166,0-.25,0-.25,0" transform="translate(-9.46 -67.313)" fill="#263238"/>
        <path id="Trazado_199564" data-name="Trazado 199564" d="M105.422,283.918a1.829,1.829,0,0,1-.435.039l-1.249.036-4.595.061-6.815.04-4.029,0a5.468,5.468,0,0,1-5.049-3.811A6.324,6.324,0,0,1,83,278.123c0-1.394.007-2.74.011-4.025.016-2.553.03-4.859.042-6.815.025-1.9.046-3.457.061-4.594.015-.507.027-.921.036-1.249a1.846,1.846,0,0,1,.039-.435,1.879,1.879,0,0,1,.039.435c.01.328.022.741.036,1.249.016,1.137.036,2.694.062,4.594.012,1.956.026,4.263.042,6.815,0,1.284.007,2.631.011,4.025a5.959,5.959,0,0,0,.237,2.047,5.106,5.106,0,0,0,4.694,3.548l4.018.019,6.815.043,4.595.062,1.249.037a1.878,1.878,0,0,1,.435.039" transform="translate(-21.426 -67.381)" fill="#263238"/>
        <path id="Trazado_199565" data-name="Trazado 199565" d="M73.789,282.157c0,.107-5.349.193-11.946.193s-11.947-.086-11.947-.193,5.348-.193,11.947-.193,11.946.086,11.946.193" transform="translate(-12.881 -72.792)" fill="#263238"/>
        <path id="Trazado_199566" data-name="Trazado 199566" d="M85.126,294.019c0,.107-7.887.193-17.614.193s-17.615-.086-17.615-.193,7.885-.193,17.615-.193,17.614.086,17.614.193" transform="translate(-12.881 -75.854)" fill="#263238"/>
        <path id="Trazado_199567" data-name="Trazado 199567" d="M85.126,305.882c0,.107-7.887.193-17.614.193s-17.615-.086-17.615-.193,7.885-.193,17.615-.193,17.614.086,17.614.193" transform="translate(-12.881 -78.916)" fill="#263238"/>
        <path id="Trazado_199568" data-name="Trazado 199568" d="M85.126,317.745c0,.107-7.887.193-17.614.193s-17.615-.086-17.615-.193,7.885-.193,17.615-.193,17.614.086,17.614.193" transform="translate(-12.881 -81.979)" fill="#263238"/>
        <path id="Trazado_199569" data-name="Trazado 199569" d="M85.126,329.607c0,.107-7.887.193-17.614.193s-17.615-.086-17.615-.193,7.885-.193,17.615-.193,17.614.086,17.614.193" transform="translate(-12.881 -85.041)" fill="#263238"/>
        <path id="Trazado_199570" data-name="Trazado 199570" d="M85.126,341.469c0,.107-7.887.193-17.614.193s-17.615-.086-17.615-.193,7.885-.193,17.615-.193,17.614.086,17.614.193" transform="translate(-12.881 -88.104)" fill="#263238"/>
        <path id="Trazado_199571" data-name="Trazado 199571" d="M58.549,338.291h-32.2a3.132,3.132,0,0,1-3.131-3.132V324.14a3.132,3.132,0,0,1,3.131-3.132h32.2a3.132,3.132,0,0,1,3.131,3.132v11.019a3.132,3.132,0,0,1-3.131,3.132" transform="translate(-5.994 -82.871)" fill="#ffa400"/>
        <path id="Trazado_199572" data-name="Trazado 199572" d="M41.543,330.968c0,1.455-1.092,2.36-2.836,2.36H37.392v1.8H35.881V328.6h2.826c1.744,0,2.836.9,2.836,2.369m-1.53,0c0-.719-.466-1.138-1.389-1.138H37.392V332.1h1.231c.924,0,1.389-.42,1.389-1.128" transform="translate(-9.263 -84.831)" fill="#fff"/>
        <path id="Trazado_199573" data-name="Trazado 199573" d="M50.62,330.968c0,1.455-1.091,2.36-2.835,2.36H46.47v1.8H44.959V328.6h2.826c1.745,0,2.835.9,2.835,2.369m-1.529,0c0-.719-.467-1.138-1.39-1.138H46.47V332.1H47.7c.924,0,1.39-.42,1.39-1.128" transform="translate(-11.607 -84.831)" fill="#fff"/>
        <path id="Trazado_199574" data-name="Trazado 199574" d="M54.894,329.829H52.805V328.6h5.69v1.231h-2.09v5.3H54.894Z" transform="translate(-13.632 -84.831)" fill="#fff"/>
        <path id="Trazado_199575" data-name="Trazado 199575" d="M208,93.814H163a5.63,5.63,0,0,1-5.63-5.63V25.9a5.63,5.63,0,0,1,5.63-5.63H191.54l22.09,22.768V88.184a5.63,5.63,0,0,1-5.63,5.63" transform="translate(-40.628 -5.234)" fill="#ebebeb"/>
        <path id="Trazado_199576" data-name="Trazado 199576" d="M203.43,20.273V37.8a5.237,5.237,0,0,0,5.236,5.237l16.854,0Z" transform="translate(-52.517 -5.234)" fill="#f5f5f5"/>
        <path id="Trazado_199577" data-name="Trazado 199577" d="M203.739,45.975a5.822,5.822,0,0,0,4.618,5.649,5.437,5.437,0,0,0,.554.125c2.2.393,16.688,2.97,16.688,2.638V49.676H208.745s-4.208-.144-5.006-3.7" transform="translate(-52.597 -11.869)" fill="#e0e0e0"/>
        <path id="Trazado_199578" data-name="Trazado 199578" d="M207.932,93.747c0-.027.338.007.973-.115a5.638,5.638,0,0,0,2.553-1.19,5.565,5.565,0,0,0,2.016-3.971c.028-1.815,0-3.923,0-6.275-.016-9.43-.04-22.922-.068-39.222l.045.112L191.34,20.335l.133.056-16.467.006h-10.8a14.417,14.417,0,0,0-2.161.079,5.44,5.44,0,0,0-3.531,2.2,5.361,5.361,0,0,0-1,2.769c-.04,1-.011,2.041-.02,3.054q0,3.058,0,6.075,0,6.031,0,11.877c0,7.786-.007,15.3-.011,22.453q0,5.366-.008,10.455,0,2.542-.005,5.009l0,2.446a12.89,12.89,0,0,0,.1,2.369,5.479,5.479,0,0,0,4.624,4.352,20.889,20.889,0,0,0,2.214.059l8.493.013,25.631.062,6.969.036,1.812.019c.408.007.617.02.617.02s-.209.013-.617.02l-1.812.019-6.969.036-25.631.062-8.493.013a21.034,21.034,0,0,1-2.254-.056,5.737,5.737,0,0,1-2.2-.769,5.8,5.8,0,0,1-2.7-3.822,13.136,13.136,0,0,1-.115-2.431q0-1.213,0-2.446,0-2.467,0-5.009,0-5.084-.008-10.455c0-7.156-.007-14.667-.011-22.453q0-5.84,0-11.877,0-3.017,0-6.075c.009-1.025-.021-2.03.02-3.082a5.751,5.751,0,0,1,1.067-2.965,5.828,5.828,0,0,1,3.783-2.359,14.646,14.646,0,0,1,2.224-.084h10.8l16.467.006h.079l.055.056,22.072,22.784.046.047v.065c-.028,16.3-.052,29.792-.068,39.222-.015,2.356,0,4.451-.04,6.284a5.657,5.657,0,0,1-2.1,4.038,5.582,5.582,0,0,1-2.606,1.163,4.167,4.167,0,0,1-.732.066c-.165,0-.249,0-.249,0" transform="translate(-40.56 -5.166)" fill="#263238"/>
        <path id="Trazado_199579" data-name="Trazado 199579" d="M225.452,43.041a1.857,1.857,0,0,1-.432.039l-1.242.036-4.565.061-6.771.04-4,0a5.435,5.435,0,0,1-5.018-3.788,6.26,6.26,0,0,1-.247-2.149c0-1.386.007-2.723.011-4,.016-2.536.03-4.828.042-6.772.025-1.888.046-3.435.062-4.565.015-.5.027-.915.036-1.24a1.862,1.862,0,0,1,.039-.433,1.811,1.811,0,0,1,.039.433c.01.326.022.737.036,1.24.016,1.131.036,2.677.062,4.565.012,1.944.026,4.235.042,6.772,0,1.277.007,2.614.011,4a5.936,5.936,0,0,0,.235,2.034,5.074,5.074,0,0,0,4.662,3.524l3.993.019,6.771.043,4.565.062L225.02,43a1.857,1.857,0,0,1,.432.039" transform="translate(-52.45 -5.234)" fill="#263238"/>
        <path id="Trazado_199580" data-name="Trazado 199580" d="M194.022,41.29c0,.107-5.315.193-11.869.193s-11.871-.086-11.871-.193,5.314-.193,11.871-.193,11.869.086,11.869.193" transform="translate(-43.96 -10.61)" fill="#263238"/>
        <path id="Trazado_199581" data-name="Trazado 199581" d="M205.286,53.077c0,.107-7.836.193-17.5.193s-17.5-.086-17.5-.193,7.835-.193,17.5-.193,17.5.086,17.5.193" transform="translate(-43.96 -13.652)" fill="#263238"/>
        <path id="Trazado_199582" data-name="Trazado 199582" d="M205.286,64.864c0,.107-7.836.193-17.5.193s-17.5-.086-17.5-.193,7.835-.193,17.5-.193,17.5.086,17.5.193" transform="translate(-43.96 -16.695)" fill="#263238"/>
        <path id="Trazado_199583" data-name="Trazado 199583" d="M205.286,76.651c0,.107-7.836.193-17.5.193s-17.5-.086-17.5-.193,7.835-.193,17.5-.193,17.5.086,17.5.193" transform="translate(-43.96 -19.738)" fill="#263238"/>
        <path id="Trazado_199584" data-name="Trazado 199584" d="M205.286,88.438c0,.107-7.836.193-17.5.193s-17.5-.086-17.5-.193,7.835-.193,17.5-.193,17.5.086,17.5.193" transform="translate(-43.96 -22.781)" fill="#263238"/>
        <path id="Trazado_199585" data-name="Trazado 199585" d="M205.286,100.225c0,.107-7.837.193-17.5.193s-17.5-.086-17.5-.193,7.835-.193,17.5-.193,17.5.086,17.5.193" transform="translate(-43.96 -25.824)" fill="#263238"/>
        <path id="Trazado_199586" data-name="Trazado 199586" d="M178.859,97.066H146.9a3.132,3.132,0,0,1-3.132-3.131V83.025a3.132,3.132,0,0,1,3.132-3.131h31.955a3.132,3.132,0,0,1,3.132,3.131v10.91a3.132,3.132,0,0,1-3.132,3.131" transform="translate(-37.116 -20.625)" fill="#ffa400"/>
        <path id="Trazado_199587" data-name="Trazado 199587" d="M160.2,93.91l-1.567-2.253-1.539,2.253h-1.725l2.4-3.3-2.28-3.189h1.706l1.493,2.1,1.465-2.1h1.622l-2.263,3.134,2.42,3.356Z" transform="translate(-40.109 -22.568)" fill="#fff"/>
        <path id="Trazado_199588" data-name="Trazado 199588" d="M165.011,87.421h1.5v5.266h3.254V93.91h-4.756Z" transform="translate(-42.599 -22.568)" fill="#fff"/>
        <path id="Trazado_199589" data-name="Trazado 199589" d="M171.819,93.232l.51-1.131a3.818,3.818,0,0,0,2.142.677c.889,0,1.251-.3,1.251-.7,0-1.214-3.773-.38-3.773-2.79,0-1.1.89-2.022,2.734-2.022a4.356,4.356,0,0,1,2.253.575l-.464,1.14a3.666,3.666,0,0,0-1.8-.51c-.89,0-1.233.334-1.233.742,0,1.2,3.773.371,3.773,2.753,0,1.085-.9,2.012-2.753,2.012a4.623,4.623,0,0,1-2.642-.751" transform="translate(-44.357 -22.53)" fill="#fff"/>
        <path id="Trazado_199590" data-name="Trazado 199590" d="M582.9,346.627H537.185a5.72,5.72,0,0,1-5.72-5.72V277.634a5.72,5.72,0,0,1,5.72-5.72h28.991l22.442,23.131v45.863a5.72,5.72,0,0,1-5.72,5.72" transform="translate(-137.203 -70.197)" fill="#ebebeb"/>
        <path id="Trazado_199591" data-name="Trazado 199591" d="M578.256,271.914v17.808a5.32,5.32,0,0,0,5.319,5.32l17.123,0Z" transform="translate(-149.282 -70.197)" fill="#f5f5f5"/>
        <path id="Trazado_199592" data-name="Trazado 199592" d="M578.57,298.025s-.225,4.319,4.691,5.739a5.4,5.4,0,0,0,.563.127c2.236.4,16.954,3.018,16.954,2.68v-4.785H583.656s-4.275-.146-5.085-3.76" transform="translate(-149.363 -76.938)" fill="#e0e0e0"/>
        <path id="Trazado_199593" data-name="Trazado 199593" d="M582.83,346.559c0-.027.343.007.988-.116a5.718,5.718,0,0,0,2.593-1.208,5.652,5.652,0,0,0,2.048-4.035c.029-1.845,0-3.986,0-6.376-.016-9.579-.04-23.287-.068-39.847l.045.112-22.459-23.114.133.056-16.729.006-8.752,0h-2.22a14.583,14.583,0,0,0-2.2.081,5.532,5.532,0,0,0-3.59,2.238,5.461,5.461,0,0,0-1.012,2.814c-.04,1.014-.011,2.074-.02,3.1q0,3.107,0,6.172,0,6.128,0,12.066c0,7.911-.007,15.542-.011,22.811q0,5.451-.008,10.622,0,2.583,0,5.089,0,1.252,0,2.485a13.166,13.166,0,0,0,.105,2.407,5.574,5.574,0,0,0,4.7,4.424,21.166,21.166,0,0,0,2.249.059l8.629.013,26.039.062,7.079.036,1.84.019c.415.007.628.02.628.02s-.212.013-.628.02l-1.84.019-7.079.036-26.039.062-8.629.013a21.3,21.3,0,0,1-2.29-.056,5.829,5.829,0,0,1-2.229-.781,5.893,5.893,0,0,1-2.744-3.881,13.3,13.3,0,0,1-.116-2.469q0-1.233,0-2.485,0-2.506,0-5.089,0-5.165-.008-10.622c0-7.269-.007-14.9-.011-22.811q0-5.933,0-12.066,0-3.065,0-6.172c.009-1.042-.021-2.062.021-3.13a5.842,5.842,0,0,1,1.083-3.012,5.918,5.918,0,0,1,3.84-2.395,14.918,14.918,0,0,1,2.259-.085h2.22l8.752,0,16.729.006h.079l.055.056,22.424,23.147.046.048v.065c-.028,16.559-.051,30.267-.068,39.847-.016,2.395,0,4.522-.04,6.385a5.751,5.751,0,0,1-2.129,4.1,5.669,5.669,0,0,1-2.648,1.182,4.267,4.267,0,0,1-.744.068c-.168,0-.252,0-.252,0" transform="translate(-137.135 -70.129)" fill="#263238"/>
        <path id="Trazado_199594" data-name="Trazado 199594" d="M600.63,295.045a1.878,1.878,0,0,1-.44.039l-1.261.036-4.638.061-6.879.04-4.068,0a5.519,5.519,0,0,1-5.1-3.846A6.384,6.384,0,0,1,578,289.2c0-1.408.008-2.767.011-4.063.016-2.577.03-4.906.042-6.88.026-1.919.047-3.49.062-4.637.015-.513.027-.931.036-1.261a1.916,1.916,0,0,1,.039-.44,1.877,1.877,0,0,1,.039.44c.01.33.021.748.036,1.261.015,1.147.036,2.718.061,4.637.013,1.974.026,4.3.042,6.88,0,1.3.007,2.655.012,4.063a6,6,0,0,0,.239,2.067,5.154,5.154,0,0,0,4.739,3.583l4.056.019,6.879.043,4.638.062,1.261.037a1.918,1.918,0,0,1,.44.039" transform="translate(-149.214 -70.197)" fill="#263238"/>
        <path id="Trazado_199595" data-name="Trazado 199595" d="M568.7,293.267c0,.107-5.4.193-12.059.193s-12.06-.086-12.06-.193,5.4-.193,12.06-.193,12.059.086,12.059.193" transform="translate(-140.588 -75.66)" fill="#263238"/>
        <path id="Trazado_199596" data-name="Trazado 199596" d="M580.142,305.242c0,.107-7.961.193-17.78.193s-17.782-.086-17.782-.193,7.96-.193,17.782-.193,17.78.086,17.78.193" transform="translate(-140.588 -78.751)" fill="#263238"/>
        <path id="Trazado_199597" data-name="Trazado 199597" d="M580.142,317.216c0,.107-7.961.193-17.78.193s-17.782-.086-17.782-.193,7.96-.193,17.782-.193,17.78.086,17.78.193" transform="translate(-140.588 -81.842)" fill="#263238"/>
        <path id="Trazado_199598" data-name="Trazado 199598" d="M580.142,329.191c0,.107-7.961.193-17.78.193s-17.782-.086-17.782-.193,7.96-.193,17.782-.193,17.78.086,17.78.193" transform="translate(-140.588 -84.934)" fill="#263238"/>
        <path id="Trazado_199599" data-name="Trazado 199599" d="M580.142,341.166c0,.107-7.961.193-17.78.193s-17.782-.086-17.782-.193,7.96-.193,17.782-.193,17.78.086,17.78.193" transform="translate(-140.588 -88.025)" fill="#263238"/>
        <path id="Trazado_199600" data-name="Trazado 199600" d="M580.142,355.935c0,.107-7.961.193-17.78.193s-17.782-.086-17.782-.193,7.96-.193,17.782-.193,17.78.086,17.78.193" transform="translate(-140.588 -91.838)" fill="#263238"/>
        <path id="Trazado_199601" data-name="Trazado 199601" d="M553.343,349.931H520.779a3.132,3.132,0,0,1-3.132-3.131V335.616a3.132,3.132,0,0,1,3.132-3.131h32.564a3.132,3.132,0,0,1,3.131,3.131V346.8a3.132,3.132,0,0,1-3.131,3.132" transform="translate(-133.635 -85.834)" fill="#16697a"/>
        <path id="Trazado_199602" data-name="Trazado 199602" d="M523.711,340.153h2.995c2.157,0,3.635,1.3,3.635,3.3s-1.479,3.3-3.635,3.3h-2.995Zm2.919,5.34a2.047,2.047,0,1,0,0-4.088h-1.394v4.088Z" transform="translate(-135.201 -87.814)" fill="#fff"/>
        <path id="Trazado_199603" data-name="Trazado 199603" d="M533.635,343.411a3.613,3.613,0,1,1,3.608,3.41,3.412,3.412,0,0,1-3.608-3.41m5.67,0a2.063,2.063,0,1,0-2.062,2.11,2.011,2.011,0,0,0,2.062-2.11" transform="translate(-137.763 -87.774)" fill="#fff"/>
        <path id="Trazado_199604" data-name="Trazado 199604" d="M544.348,343.411a3.63,3.63,0,0,1,6.291-2.241l-.979.9A2.123,2.123,0,0,0,548,341.3a2.11,2.11,0,0,0,0,4.22,2.1,2.1,0,0,0,1.657-.782l.979.9a3.624,3.624,0,0,1-6.291-2.232" transform="translate(-140.528 -87.774)" fill="#fff"/>
        <path id="Trazado_199605" data-name="Trazado 199605" d="M557.923,346.746l-1.592-2.289-1.563,2.289h-1.752l2.439-3.353-2.317-3.24h1.733l1.516,2.138,1.487-2.138h1.648l-2.3,3.183,2.458,3.409Z" transform="translate(-142.766 -87.814)" fill="#fff"/>
      </g>
    </g>
    <g id="Grupo_147378" data-name="Grupo 147378">
      <g id="Grupo_147377" data-name="Grupo 147377" clip-path="url(#clip-path)">
        <path id="Trazado_199606" data-name="Trazado 199606" d="M495.344,401.853c0,.107-110.9.193-247.661.193C110.872,402.046,0,401.96,0,401.853s110.872-.193,247.684-.193c136.765,0,247.661.086,247.661.193" transform="translate(0 -103.692)" fill="#263238"/>
      </g>
    </g>
  </g>
</svg>
