<svg xmlns="http://www.w3.org/2000/svg" width="71" height="71" viewBox="0 0 71 71">
  <g id="Grupo_147381" data-name="Grupo 147381" transform="translate(-260 -1281.5)">
    <rect id="Rectángulo_44855" data-name="Rectángulo 44855" width="71" height="71" rx="6" transform="translate(260 1281.5)" fill="#ffa400"/>
    <g id="obediente" transform="translate(255.814 1292)">
      <g id="Grupo_147329" data-name="Grupo 147329" transform="translate(25.418 0.766)">
        <path id="Trazado_199385" data-name="Trazado 199385" d="M149.352,7.5H116.826a.511.511,0,0,0-.511.511V22.17h3.349a2.5,2.5,0,0,1,.175,5v3.105h0a1.021,1.021,0,0,1,.866,1.008v6.34a1.021,1.021,0,0,1-.866,1.008h0v3.105a2.5,2.5,0,0,1-.175,5h-3.349v4.191h7.049a1.021,1.021,0,0,1,1.021,1.021v2.035h.778A1.021,1.021,0,0,1,126.184,55v3.257h23.678V8.011A.511.511,0,0,0,149.352,7.5Z" transform="translate(-116.315 -7.5)" fill="#d0eae2"/>
      </g>
      <g id="Grupo_147330" data-name="Grupo 147330" transform="translate(25.418 0.766)">
        <path id="Trazado_199386" data-name="Trazado 199386" d="M119.664,22.17l.091,0V8.011a.511.511,0,0,1,.511-.511h-3.44a.511.511,0,0,0-.511.511V22.17Z" transform="translate(-116.315 -7.5)" fill="#92bfb1"/>
        <path id="Trazado_199387" data-name="Trazado 199387" d="M119.664,391.629h-3.349v4.191h3.441v-4.194Z" transform="translate(-116.315 -352.393)" fill="#92bfb1"/>
      </g>
      <g id="Grupo_147348" data-name="Grupo 147348" transform="translate(15.844 15.436)">
        <g id="Grupo_147331" data-name="Grupo 147331" transform="translate(13.964 10.537)">
          <path id="Trazado_199388" data-name="Trazado 199388" d="M159.3,254.29h4.728v3.493H159.3Z" transform="translate(-159.296 -254.29)" fill="#d0eae2"/>
          <path id="Trazado_199389" data-name="Trazado 199389" d="M237.5,254.29h6.753v3.493H237.5Z" transform="translate(-229.514 -254.29)" fill="#d0eae2"/>
        </g>
        <g id="Grupo_147332" data-name="Grupo 147332" transform="translate(13.964 12.346)">
          <path id="Trazado_199390" data-name="Trazado 199390" d="M159.3,272h4.728v1.684H159.3Z" transform="translate(-159.296 -272)" fill="#92bfb1"/>
          <path id="Trazado_199391" data-name="Trazado 199391" d="M237.5,272h6.753v1.684H237.5Z" transform="translate(-229.514 -272)" fill="#92bfb1"/>
        </g>
        <g id="Grupo_147333" data-name="Grupo 147333" transform="translate(28.704 9.722)">
          <path id="Trazado_199392" data-name="Trazado 199392" d="M322.594,248.872a2.561,2.561,0,0,1-2.561,2.561H304.2a.582.582,0,0,1-.582-.582v-3.959a.582.582,0,0,1,.582-.582h15.834A2.562,2.562,0,0,1,322.594,248.872Z" transform="translate(-303.616 -246.31)" fill="#92bfb1"/>
        </g>
        <g id="Grupo_147334" data-name="Grupo 147334" transform="translate(28.704 9.722)">
          <path id="Trazado_199393" data-name="Trazado 199393" d="M307.1,249.24a.582.582,0,0,1-.582-.582V246.31H304.2a.582.582,0,0,0-.582.582v3.959a.582.582,0,0,0,.582.582h15.834a2.562,2.562,0,0,0,2.535-2.193Z" transform="translate(-303.616 -246.31)" fill="#d0eae2"/>
        </g>
        <g id="Grupo_147335" data-name="Grupo 147335" transform="translate(18.692 9.722)">
          <path id="Trazado_199394" data-name="Trazado 199394" d="M208.845,246.822v4.1a.511.511,0,0,1-.511.511H206.1a.511.511,0,0,1-.511-.511v-4.1a.511.511,0,0,1,.511-.511h2.239A.511.511,0,0,1,208.845,246.822Z" transform="translate(-205.585 -246.311)" fill="#d0eae2"/>
        </g>
        <g id="Grupo_147336" data-name="Grupo 147336" transform="translate(18.692 9.722)">
          <path id="Trazado_199395" data-name="Trazado 199395" d="M207.066,250.923v-4.1a.511.511,0,0,1,.511-.511H206.1a.511.511,0,0,0-.511.511v4.1a.511.511,0,0,0,.511.511h1.481A.511.511,0,0,1,207.066,250.923Z" transform="translate(-205.585 -246.311)" fill="#92bfb1"/>
        </g>
        <g id="Grupo_147337" data-name="Grupo 147337" transform="translate(6.345 5)">
          <path id="Trazado_199396" data-name="Trazado 199396" d="M91.3,312.31H84.858a1.028,1.028,0,0,1-.155-.013V315.4c.058,0,.116-.007.175-.007h6.4c.059,0,.117,0,.175.007V312.3A1.012,1.012,0,0,1,91.3,312.31Z" transform="translate(-84.703 -300.835)" fill="#92bfb1"/>
          <path id="Trazado_199397" data-name="Trazado 199397" d="M84.858,312.31a1.028,1.028,0,0,1-.155-.013V315.4c.058,0,.116-.007.175-.007h2.4V312.31H84.858Z" transform="translate(-84.703 -300.835)" fill="#d0eae2"/>
          <path id="Trazado_199398" data-name="Trazado 199398" d="M84.858,203.171H91.3a1.026,1.026,0,0,1,.155.013v-3.105c-.058,0-.116.007-.175.007h-6.4c-.059,0-.117,0-.175-.007v3.105A1.026,1.026,0,0,1,84.858,203.171Z" transform="translate(-84.703 -200.079)" fill="#92bfb1"/>
          <path id="Trazado_199399" data-name="Trazado 199399" d="M84.858,203.17h2.417v-3.085h-2.4c-.059,0-.117,0-.175-.007v3.105A1.04,1.04,0,0,1,84.858,203.17Z" transform="translate(-84.703 -200.078)" fill="#d0eae2"/>
        </g>
        <g id="Grupo_147338" data-name="Grupo 147338" transform="translate(5.479 8.092)">
          <path id="Trazado_199400" data-name="Trazado 199400" d="M84.71,231.373v6.34a1.021,1.021,0,0,1-1.021,1.021H77.246a1.021,1.021,0,0,1-1.021-1.021v-6.34a1.021,1.021,0,0,1,1.021-1.021h6.442a1.021,1.021,0,0,1,1.021,1.021Z" transform="translate(-76.225 -230.352)" fill="#d0eae2"/>
        </g>
        <g id="Grupo_147339" data-name="Grupo 147339" transform="translate(5.479 8.092)">
          <path id="Trazado_199401" data-name="Trazado 199401" d="M79.675,237.713v-6.34a1.021,1.021,0,0,1,1.021-1.021h-3.45a1.021,1.021,0,0,0-1.021,1.021v6.34a1.021,1.021,0,0,0,1.021,1.021H80.7A1.021,1.021,0,0,1,79.675,237.713Z" transform="translate(-76.225 -230.352)" fill="#92bfb1"/>
        </g>
        <g id="Grupo_147342" data-name="Grupo 147342" transform="translate(0 28.757)">
          <path id="Trazado_199402" data-name="Trazado 199402" d="M56.034,435.843a1.045,1.045,0,0,0,.005-.1v-2.032a1.021,1.021,0,0,0-1.021-1.021h-13.8a1.021,1.021,0,0,0-1.021,1.021v2.032a1.045,1.045,0,0,0,.005.1Z" transform="translate(-38.396 -432.685)" fill="#92bfb1"/>
          <path id="Trazado_199403" data-name="Trazado 199403" d="M43.653,435.843a1.045,1.045,0,0,1-.005-.1v-2.032a1.021,1.021,0,0,1,1.021-1.021H41.216a1.021,1.021,0,0,0-1.021,1.021v2.032a1.045,1.045,0,0,0,.005.1Z" transform="translate(-38.396 -432.685)" fill="#d0eae2"/>
          <g id="Grupo_147340" data-name="Grupo 147340" transform="translate(0 3.056)">
            <path id="Trazado_199404" data-name="Trazado 199404" d="M42.021,466.887H23.089a.511.511,0,0,1-.511-.511v-2.747a1.021,1.021,0,0,1,1.021-1.021H41a1.021,1.021,0,0,1,1.021,1.021Z" transform="translate(-22.578 -462.608)" fill="#d0eae2"/>
          </g>
          <g id="Grupo_147341" data-name="Grupo 147341" transform="translate(0 3.056)">
            <path id="Trazado_199405" data-name="Trazado 199405" d="M25.992,466.376v-2.747a1.021,1.021,0,0,1,1.021-1.021H23.6a1.021,1.021,0,0,0-1.021,1.021v2.747a.511.511,0,0,0,.511.511H26.5A.511.511,0,0,1,25.992,466.376Z" transform="translate(-22.578 -462.608)" fill="#92bfb1"/>
          </g>
        </g>
        <g id="Grupo_147347" data-name="Grupo 147347" transform="translate(4.017)">
          <g id="Grupo_147343" data-name="Grupo 147343" transform="translate(0 19.56)">
            <path id="Trazado_199406" data-name="Trazado 199406" d="M73.315,345.136a2.5,2.5,0,0,1-2.5,2.5h-6.4a2.5,2.5,0,1,1,0-5.006h6.4A2.5,2.5,0,0,1,73.315,345.136Z" transform="translate(-61.905 -342.633)" fill="#d0eae2"/>
          </g>
          <g id="Grupo_147344" data-name="Grupo 147344" transform="translate(0 19.56)">
            <path id="Trazado_199407" data-name="Trazado 199407" d="M65.315,345.136a2.5,2.5,0,0,1,2.5-2.5h-3.41a2.5,2.5,0,1,0,0,5.006h3.41A2.5,2.5,0,0,1,65.315,345.136Z" transform="translate(-61.905 -342.633)" fill="#92bfb1"/>
          </g>
          <g id="Grupo_147345" data-name="Grupo 147345" transform="translate(0)">
            <path id="Trazado_199408" data-name="Trazado 199408" d="M73.315,153.631a2.5,2.5,0,0,1-2.5,2.5h-6.4a2.5,2.5,0,1,1,0-5.006h6.4A2.5,2.5,0,0,1,73.315,153.631Z" transform="translate(-61.905 -151.128)" fill="#d0eae2"/>
          </g>
          <g id="Grupo_147346" data-name="Grupo 147346">
            <path id="Trazado_199409" data-name="Trazado 199409" d="M65.315,153.631a2.5,2.5,0,0,1,2.5-2.5h-3.41a2.5,2.5,0,1,0,0,5.006h3.41A2.5,2.5,0,0,1,65.315,153.631Z" transform="translate(-61.905 -151.128)" fill="#92bfb1"/>
          </g>
        </g>
      </g>
      <g id="Grupo_147351" data-name="Grupo 147351" transform="translate(35.025 5.526)">
        <g id="Grupo_147349" data-name="Grupo 147349">
          <circle id="Elipse_1396" data-name="Elipse 1396" cx="7.167" cy="7.167" r="7.167" fill="#ffa400"/>
        </g>
      </g>
      <g id="Grupo_147352" data-name="Grupo 147352" transform="translate(15.078 0)">
        <path id="Trazado_199411" data-name="Trazado 199411" d="M60.965,24.392H59.731V11.133a.766.766,0,0,0-.79-.766.787.787,0,0,0-.743.8V24.391H53.065a.766.766,0,1,0,0,1.532h7.9a1.8,1.8,0,0,1,0,3.591H45.315V25.924H49.49a.766.766,0,1,0,0-1.532h-4.36a1.35,1.35,0,0,0-1.238.815H38.474a1.278,1.278,0,0,0-1.189-.815H35.047a1.278,1.278,0,0,0-1.189.815H30.574v-.658a1.786,1.786,0,0,0-.866-1.529V21.07a3.269,3.269,0,0,0-.941-6.4H26.184V1.532H58.2V7.558a.766.766,0,0,0,.79.766.787.787,0,0,0,.743-.8V1.277A1.277,1.277,0,0,0,58.455,0H25.929a1.277,1.277,0,0,0-1.277,1.277V14.67H22.364a3.269,3.269,0,0,0-.941,6.4V23.02a1.786,1.786,0,0,0-.866,1.529v6.34a1.786,1.786,0,0,0,.866,1.529v1.951a3.269,3.269,0,0,0,.941,6.4h2.288v2.659H18.665a1.789,1.789,0,0,0-1.787,1.787v1.269h-.012a1.79,1.79,0,0,0-1.787,1.787v2.747a1.278,1.278,0,0,0,1.277,1.277h42.1a1.277,1.277,0,0,0,1.277-1.277V31.046h1.233a3.327,3.327,0,0,0,0-6.655Zm-22.4,2.347h5.221V28.7H38.562Zm-3.26-.815H37.03v3.591H35.3Zm-4.728.815h3.2V28.7h-3.2Zm-9.947-8.8A1.739,1.739,0,0,1,22.364,16.2h6.4a1.737,1.737,0,0,1,0,3.474h-6.4A1.739,1.739,0,0,1,20.627,17.939Zm1.718,13.205a.256.256,0,0,1-.255-.255v-6.34a.256.256,0,0,1,.255-.255h6.442a.256.256,0,0,1,.255.255v6.34a.256.256,0,0,1-.255.255Zm5.831,1.532V34.23H22.955V32.676Zm-5.221-9.915V21.208h5.221v1.553Zm-.591,16.474a1.737,1.737,0,1,1,0-3.474h6.4a1.737,1.737,0,0,1,0,3.474ZM34.521,50.762H16.61V48.271a.256.256,0,0,1,.255-.255h4.741a.766.766,0,0,0,0-1.532h-3.2V45.215a.256.256,0,0,1,.255-.255h13.8a.256.256,0,0,1,.255.255v1.269h-7.54a.766.766,0,1,0,0,1.532h9.084a.256.256,0,0,1,.255.255Zm23.678,0H36.053V48.271a1.79,1.79,0,0,0-1.787-1.787h-.012V45.215a1.789,1.789,0,0,0-1.787-1.787H26.184V40.768h2.583a3.269,3.269,0,0,0,.941-6.4V32.418a1.786,1.786,0,0,0,.866-1.529v-.658h3.284a1.278,1.278,0,0,0,1.189.815h2.239a1.278,1.278,0,0,0,1.189-.815h5.419a1.35,1.35,0,0,0,1.238.815H58.2V50.762Z" transform="translate(-15.078 0)"/>
        <path id="Trazado_199412" data-name="Trazado 199412" d="M202.872,54.54a7.933,7.933,0,1,0,7.933-7.933A7.942,7.942,0,0,0,202.872,54.54Zm14.334,0a6.4,6.4,0,1,1-6.4-6.4A6.408,6.408,0,0,1,217.206,54.54Z" transform="translate(-183.691 -41.847)"/>
        <path id="Trazado_199413" data-name="Trazado 199413" d="M247.651,102.68a.766.766,0,1,0-1.083,1.083l2.356,2.356a.766.766,0,0,0,1.083,0l3.652-3.652a.766.766,0,1,0-1.083-1.083l-3.111,3.111Z" transform="translate(-222.722 -90.827)"/>
        <path id="Trazado_199414" data-name="Trazado 199414" d="M243.681,327.835a.766.766,0,0,0,.766.766h14.088a.766.766,0,0,0,0-1.532H244.447A.766.766,0,0,0,243.681,327.835Z" transform="translate(-220.332 -293.663)"/>
        <path id="Trazado_199415" data-name="Trazado 199415" d="M318.529,363.546h-7.263a.766.766,0,0,0,0,1.532h7.263a.766.766,0,0,0,0-1.532Z" transform="translate(-280.326 -326.414)"/>
        <path id="Trazado_199416" data-name="Trazado 199416" d="M244.447,365.078h4.169a.766.766,0,0,0,0-1.532h-4.169a.766.766,0,1,0,0,1.532Z" transform="translate(-220.332 -326.414)"/>
        <path id="Trazado_199417" data-name="Trazado 199417" d="M258.534,400.023H244.446a.766.766,0,1,0,0,1.532h14.088a.766.766,0,0,0,0-1.532Z" transform="translate(-220.331 -359.166)"/>
        <path id="Trazado_199418" data-name="Trazado 199418" d="M349.954,436.5h-3.688a.766.766,0,1,0,0,1.532h3.688a.766.766,0,0,0,0-1.532Z" transform="translate(-311.752 -391.917)"/>
        <path id="Trazado_199419" data-name="Trazado 199419" d="M252.5,436.5h-8.05a.766.766,0,1,0,0,1.532h8.05a.766.766,0,0,0,0-1.532Z" transform="translate(-220.332 -391.917)"/>
      </g>
    </g>
  </g>
</svg>
