<svg xmlns="http://www.w3.org/2000/svg" width="79" height="79" viewBox="0 0 79 79">
  <g id="Grupo_147781" data-name="Grupo 147781" transform="translate(-1079 -8060.587)">
    <circle id="Elipse_1416" data-name="Elipse 1416" cx="39.5" cy="39.5" r="39.5" transform="translate(1079 8060.587)" fill="#fff"/>
    <path id="Trazado_205899" data-name="Trazado 205899" d="M8.723-19.094h3.494q4.153,0,4.153-4.065a3.515,3.515,0,0,0-.989-2.582,3.749,3.749,0,0,0-2.791-1,4.014,4.014,0,0,0-2.56.857,2.614,2.614,0,0,0-1.088,2.131h-7.4a7.58,7.58,0,0,1,1.406-4.5,9.287,9.287,0,0,1,3.9-3.087,13.334,13.334,0,0,1,5.482-1.11q5.339,0,8.394,2.439a8.108,8.108,0,0,1,3.054,6.7,6.758,6.758,0,0,1-1.263,3.9,9,9,0,0,1-3.68,2.977,8.6,8.6,0,0,1,4,2.8,7.378,7.378,0,0,1,1.45,4.647,8.255,8.255,0,0,1-3.3,6.855A13.681,13.681,0,0,1,12.327.439a14.188,14.188,0,0,1-5.834-1.2A9.14,9.14,0,0,1,2.417-4.076,8.626,8.626,0,0,1,1.033-8.9H8.481A3.334,3.334,0,0,0,9.668-6.35,4.189,4.189,0,0,0,12.59-5.273a4.388,4.388,0,0,0,3.12-1.088,3.635,3.635,0,0,0,1.165-2.78,4.25,4.25,0,0,0-1.208-3.428,5.052,5.052,0,0,0-3.34-1.011h-3.6Z" transform="translate(1106 8114.587)" fill="#ffa400"/>
  </g>
</svg>
