<svg xmlns="http://www.w3.org/2000/svg" width="136" height="136" viewBox="0 0 136 136">
  <g id="Grupo_147400" data-name="Grupo 147400" transform="translate(-378 -9827)">
    <circle id="Elipse_1412" data-name="Elipse 1412" cx="68" cy="68" r="68" transform="translate(378 9827)" fill="#ffa400"/>
    <g id="documentos" transform="translate(375.6 9852)">
      <g id="Grupo_147397" data-name="Grupo 147397" transform="translate(33.673 1.258)">
        <path id="Trazado_199836" data-name="Trazado 199836" d="M425.067,136.5h-.012l-.5.3v8.692h7.616l.417-.355v-1.113A7.541,7.541,0,0,0,425.067,136.5Z" transform="translate(-359.644 -114.723)" fill="#ffa90f"/>
        <path id="Trazado_199837" data-name="Trazado 199837" d="M169.789,8.667l-.538-1.21h-36.9a2.788,2.788,0,0,0-2.788,2.788v4.813l1.159.95h30.938l10.157,9.873V38.455h7.229l.8-.587V18.054l-1.254-.554Z" transform="translate(-114.435 -7.457)" fill="#d0eae2"/>
        <g id="Grupo_147396" data-name="Grupo 147396" transform="translate(15.124 0)">
          <path id="Trazado_199838" data-name="Trazado 199838" d="M138.207,10.245A2.788,2.788,0,0,1,141,7.457h-8.648a2.788,2.788,0,0,0-2.788,2.788v4.813l1.159.95h8.648l-1.159-.95V10.245Z" transform="translate(-129.559 -7.457)" fill="#92bfb1"/>
        </g>
        <path id="Trazado_199839" data-name="Trazado 199839" d="M47.475,136.5h-.154a7.4,7.4,0,0,0-7.376,7.376v1.256l.729.2h7.37v-8.359Z" transform="translate(-39.945 -114.723)" fill="#ffa90f"/>
        <path id="Trazado_199840" data-name="Trazado 199840" d="M364.741,7.457v7.808a2.788,2.788,0,0,0,2.788,2.788h7.808Z" transform="translate(-309.925 -7.457)" fill="#d0eae2"/>
        <path id="Trazado_199841" data-name="Trazado 199841" d="M124.905,54.095l-.65-1.6h-36.9a2.788,2.788,0,0,0-2.788,2.788V75.308L85.657,76.4h46.192l3-1.093V63.095l-1.564-.73Z" transform="translate(-77.034 -44.896)" fill="#d0eae2"/>
        <path id="Trazado_199842" data-name="Trazado 199842" d="M93.213,55.285A2.788,2.788,0,0,1,96,52.5H87.353a2.788,2.788,0,0,0-2.788,2.788V75.307L85.658,76.4h8.648l-1.093-1.093Z" transform="translate(-77.035 -44.896)" fill="#92bfb1"/>
        <path id="Trazado_199843" data-name="Trazado 199843" d="M319.746,52.5v7.808a2.788,2.788,0,0,0,2.788,2.788h7.808Z" transform="translate(-272.524 -44.896)" fill="#d0eae2"/>
        <path id="Trazado_199844" data-name="Trazado 199844" d="M369.3,15.265V12.014l-4.557-4.557v7.808a2.788,2.788,0,0,0,2.788,2.788h4.557a2.788,2.788,0,0,1-2.788-2.788Z" transform="translate(-309.925 -7.457)" fill="#ffa400"/>
        <path id="Trazado_199845" data-name="Trazado 199845" d="M324.3,60.306V57.055L319.746,52.5v7.808a2.788,2.788,0,0,0,2.788,2.788h4.557A2.788,2.788,0,0,1,324.3,60.306Z" transform="translate(-272.524 -44.896)" fill="#ffa400"/>
        <path id="Trazado_199846" data-name="Trazado 199846" d="M112.887,187.649H39.945v51.226a2.242,2.242,0,0,0,2.242,2.242h68.459a2.242,2.242,0,0,0,2.242-2.242Z" transform="translate(-39.945 -157.238)" fill="#ffd086"/>
        <path id="Trazado_199847" data-name="Trazado 199847" d="M50.7,238.875V187.649H39.945v51.226a2.242,2.242,0,0,0,2.242,2.242H52.937a2.241,2.241,0,0,1-2.242-2.242Z" transform="translate(-39.945 -157.238)" fill="#ffc365"/>
        <path id="Trazado_199848" data-name="Trazado 199848" d="M284.342,320H257.481a1.435,1.435,0,0,0-1.435,1.435V342.58a1.435,1.435,0,0,0,1.435,1.435h26.861a1.435,1.435,0,0,0,1.435-1.435V321.437A1.435,1.435,0,0,0,284.342,320Z" transform="translate(-219.575 -267.254)" fill="#d0eae2"/>
        <path id="Trazado_199849" data-name="Trazado 199849" d="M262.787,342.58V321.437A1.435,1.435,0,0,1,264.221,320h-6.741a1.435,1.435,0,0,0-1.435,1.435V342.58a1.435,1.435,0,0,0,1.435,1.435h6.741A1.434,1.434,0,0,1,262.787,342.58Z" transform="translate(-219.575 -267.254)" fill="#92bfb1"/>
      </g>
      <g id="Grupo_147398" data-name="Grupo 147398" transform="translate(32.4 0)">
        <path id="Trazado_199850" data-name="Trazado 199850" d="M39.93,21.853a8.653,8.653,0,0,0-7.53,8.568V82.9a3.511,3.511,0,0,0,3.507,3.507h68.459a3.511,3.511,0,0,0,3.507-3.507V59.992a1.266,1.266,0,1,0-2.532,0V82.9a.977.977,0,0,1-.976.976H35.907a.977.977,0,0,1-.976-.976V32.942h70.411V54.086a1.266,1.266,0,0,0,2.532,0V30.563a8.8,8.8,0,0,0-7.53-8.694V11.862a1.272,1.272,0,0,0-.371-.9L89.377.371a1.278,1.278,0,0,0-.9-.371h-36.9a4.059,4.059,0,0,0-4.054,4.054V7.6h-3.54a4.059,4.059,0,0,0-4.054,4.054Zm0,8.558h-5a6.121,6.121,0,0,1,5-6Zm60.413-5.974a6.264,6.264,0,0,1,5,5.974h-5ZM89.747,4.321,96.022,10.6H91.27a1.524,1.524,0,0,1-1.522-1.522ZM50.056,4.054a1.524,1.524,0,0,1,1.522-1.522H87.216V9.074a4.059,4.059,0,0,0,4.054,4.054h6.543V30.411H92.75V19.464a1.272,1.272,0,0,0-.371-.9l-10.6-10.6a1.281,1.281,0,0,0-.9-.371H50.056ZM88.428,18.2H83.676a1.524,1.524,0,0,1-1.522-1.522V11.923ZM42.462,11.655a1.524,1.524,0,0,1,1.522-1.522H79.622v6.543a4.059,4.059,0,0,0,4.054,4.054h6.543v9.681H42.462Z" transform="translate(-32.4 0)"/>
        <path id="Trazado_199851" data-name="Trazado 199851" d="M302.736,425.126h-17.89a1.266,1.266,0,0,0,0,2.532h17.89a1.266,1.266,0,1,0,0-2.532Z" transform="translate(-241.189 -353.378)"/>
        <path id="Trazado_199852" data-name="Trazado 199852" d="M302.736,397.5h-17.89a1.266,1.266,0,1,0,0,2.532h17.89a1.266,1.266,0,1,0,0-2.532Z" transform="translate(-241.189 -330.413)"/>
        <path id="Trazado_199853" data-name="Trazado 199853" d="M302.736,369.873h-17.89a1.266,1.266,0,1,0,0,2.532h17.89a1.266,1.266,0,1,0,0-2.532Z" transform="translate(-241.189 -307.45)"/>
        <path id="Trazado_199854" data-name="Trazado 199854" d="M302.736,342.246h-17.89a1.266,1.266,0,1,0,0,2.532h17.89a1.266,1.266,0,1,0,0-2.532Z" transform="translate(-241.189 -284.485)"/>
        <path id="Trazado_199855" data-name="Trazado 199855" d="M154.676,149.617h-34.82a1.266,1.266,0,1,0,0,2.532h34.82a1.266,1.266,0,0,0,0-2.532Z" transform="translate(-104.044 -124.366)"/>
        <path id="Trazado_199856" data-name="Trazado 199856" d="M119.855,124.523h29.307a1.266,1.266,0,0,0,0-2.532H119.855a1.266,1.266,0,0,0,0,2.532Z" transform="translate(-104.043 -101.403)"/>
        <path id="Trazado_199857" data-name="Trazado 199857" d="M261.678,312.545H251.2a2.7,2.7,0,0,0-2.7,2.7v21.144a2.7,2.7,0,0,0,2.7,2.7h26.861a2.7,2.7,0,0,0,2.7-2.7V315.245a2.7,2.7,0,0,0-2.7-2.7H267.584a1.266,1.266,0,1,0,0,2.532h10.477a.169.169,0,0,1,.169.169v21.144a.169.169,0,0,1-.169.169H251.2a.169.169,0,0,1-.169-.169V315.245a.169.169,0,0,1,.169-.169h10.477a1.266,1.266,0,0,0,0-2.532Z" transform="translate(-212.029 -259.797)"/>
      </g>
    </g>
  </g>
</svg>
