<svg xmlns="http://www.w3.org/2000/svg" width="79" height="79" viewBox="0 0 79 79">
  <g id="Grupo_147784" data-name="Grupo 147784" transform="translate(-1079 -8502.587)">
    <circle id="Elipse_1419" data-name="Elipse 1419" cx="39.5" cy="39.5" r="39.5" transform="translate(1079 8502.587)" fill="#fff"/>
    <path id="Trazado_205902" data-name="Trazado 205902" d="M19.841-32.454v5.823h-.33a11.117,11.117,0,0,0-6.823,1.989A8.4,8.4,0,0,0,9.4-19.116a8.659,8.659,0,0,1,6.328-2.461,8.077,8.077,0,0,1,6.614,3.032,12.23,12.23,0,0,1,2.461,7.954,11.2,11.2,0,0,1-1.439,5.6A10.269,10.269,0,0,1,19.347-1,11.555,11.555,0,0,1,13.623.439,11.942,11.942,0,0,1,7.537-1.11,10.65,10.65,0,0,1,3.362-5.537a14.579,14.579,0,0,1-1.538-6.636v-2.966a18.469,18.469,0,0,1,2.12-8.888A15.372,15.372,0,0,1,10-30.212a17.307,17.307,0,0,1,8.723-2.241Zm-6.68,16.545a4.237,4.237,0,0,0-2.461.681,4.324,4.324,0,0,0-1.472,1.67v2.219q0,6.064,4.2,6.064A3.4,3.4,0,0,0,16.249-6.79a6.179,6.179,0,0,0,1.132-3.8,6.065,6.065,0,0,0-1.154-3.834A3.69,3.69,0,0,0,13.162-15.908Z" transform="translate(1106 8556.587)" fill="#ffa400"/>
  </g>
</svg>
