<svg xmlns="http://www.w3.org/2000/svg" width="141" height="141" viewBox="0 0 141 141">
  <g id="Grupo_147567" data-name="Grupo 147567" transform="translate(-1117 -4029)">
    <rect id="Rectángulo_45622" data-name="Rectángulo 45622" width="141" height="141" transform="translate(1117 4029)" fill="none"/>
    <g id="surface1" transform="translate(1131.207 4049.691)">
      <path id="Trazado_201749" data-name="Trazado 201749" d="M17.216,10.262h79.9a7.264,7.264,0,0,1,7.263,7.263v79.9a7.264,7.264,0,0,1-7.263,7.264h-79.9a7.264,7.264,0,0,1-7.263-7.264v-79.9A7.264,7.264,0,0,1,17.216,10.262Zm0,0" transform="translate(-8.137 -8.137)" fill="#d0eae2"/>
      <path id="Trazado_201750" data-name="Trazado 201750" d="M69.66,153.5h76.268a7.264,7.264,0,0,0,7.263-7.264V69.969Zm0,0" transform="translate(-56.949 -56.949)" fill="#f2fffb"/>
      <path id="Trazado_201751" data-name="Trazado 201751" d="M39.8,40.117h3.632v3.632H39.8Zm0,0" transform="translate(-32.541 -32.545)" fill="#5eb3d1"/>
      <path id="Trazado_201752" data-name="Trazado 201752" d="M79.613,40.117h3.632v3.632H79.613Zm0,0" transform="translate(-65.086 -32.545)" fill="#5eb3d1"/>
      <path id="Trazado_201753" data-name="Trazado 201753" d="M119.418,40.117h3.632v3.632h-3.632Zm0,0" transform="translate(-97.627 -32.545)" fill="#5eb3d1"/>
      <path id="Trazado_201754" data-name="Trazado 201754" d="M39.8,79.922h83.532v3.632H39.8Zm0,0" transform="translate(-32.541 -65.086)" fill="#5eb3d1"/>
      <path id="Trazado_201755" data-name="Trazado 201755" d="M169.176,159.535h30.871v3.632H169.176Zm0,0" transform="translate(-138.306 -130.172)" fill="#5eb3d1"/>
      <path id="Trazado_201756" data-name="Trazado 201756" d="M169.176,199.34h12.712v3.632H169.176Zm0,0" transform="translate(-138.306 -162.713)" fill="#5eb3d1"/>
      <path id="Trazado_201757" data-name="Trazado 201757" d="M258.742,199.34h25.423v3.632H258.742Zm0,0" transform="translate(-211.529 -162.713)" fill="#5eb3d1"/>
      <path id="Trazado_201758" data-name="Trazado 201758" d="M358.258,159.535h18.159v3.632H358.258Zm0,0" transform="translate(-292.885 -130.172)" fill="#5eb3d1"/>
      <path id="Trazado_201759" data-name="Trazado 201759" d="M48.888,157.792a9.079,9.079,0,1,1,9.079-9.079A9.08,9.08,0,0,1,48.888,157.792Zm0-14.527a5.448,5.448,0,1,0,5.447,5.448A5.447,5.447,0,0,0,48.888,143.264Zm0,0" transform="translate(-32.545 -113.901)" fill="#5eb3d1"/>
      <path id="Trazado_201760" data-name="Trazado 201760" d="M169.176,278.953h30.871v3.632H169.176Zm0,0" transform="translate(-138.306 -227.799)" fill="#5eb3d1"/>
      <path id="Trazado_201761" data-name="Trazado 201761" d="M169.176,318.762h12.712v3.632H169.176Zm0,0" transform="translate(-138.306 -260.344)" fill="#5eb3d1"/>
      <path id="Trazado_201764" data-name="Trazado 201764" d="M48.888,277.21a9.079,9.079,0,1,1,9.079-9.079A9.08,9.08,0,0,1,48.888,277.21Zm0-14.527a5.448,5.448,0,1,0,5.447,5.448A5.447,5.447,0,0,0,48.888,262.682Zm0,0" transform="translate(-32.545 -211.529)" fill="#5eb3d1"/>
      <path id="Trazado_201766" data-name="Trazado 201766" d="M169.176,438.18h12.712v3.632H169.176Zm0,0" transform="translate(-138.306 -357.971)" fill="#5eb3d1"/>
      <path id="Trazado_201768" data-name="Trazado 201768" d="M358.258,398.375h18.159v3.632H358.258Zm0,0" transform="translate(-292.885 -325.43)" fill="#5eb3d1"/>
      <path id="Trazado_201769" data-name="Trazado 201769" d="M48.888,396.632a9.079,9.079,0,1,1,9.079-9.079A9.08,9.08,0,0,1,48.888,396.632Zm0-14.527a5.448,5.448,0,1,0,5.447,5.448A5.447,5.447,0,0,0,48.888,382.1Zm0,0" transform="translate(-32.545 -309.159)" fill="#5eb3d1"/>
      <path id="Trazado_201770" data-name="Trazado 201770" d="M82.531,133.543l10.895-10.895,2.568,2.568L85.1,136.112Zm0,0" transform="translate(-67.472 -100.016)" fill="#e34b87"/>
      <path id="Trazado_201771" data-name="Trazado 201771" d="M82.52,252.957l10.895-10.894,2.567,2.567L85.087,255.525Zm0,0" transform="translate(-67.462 -197.64)" fill="#e34b87"/>
      <path id="Trazado_201772" data-name="Trazado 201772" d="M82.516,372.375,93.411,361.48l2.568,2.568L85.084,374.944Zm0,0" transform="translate(-67.459 -295.268)" fill="#e34b87"/>
      <path id="Trazado_201773" data-name="Trazado 201773" d="M379.247,334.232a25.423,25.423,0,1,1-25.422-25.423A25.422,25.422,0,0,1,379.247,334.232Zm0,0" transform="translate(-268.478 -252.207)" fill="#ffa400"/>
      <path id="Trazado_201774" data-name="Trazado 201774" d="M394.414,396.327a1.718,1.718,0,0,1-.291-.024,1.808,1.808,0,0,1-1.334-.98l-3.632-7.264,3.25-1.623,2.5,5.01,20.009-20.009L417.488,374,395.7,395.8A1.81,1.81,0,0,1,394.414,396.327Zm0,0" transform="translate(-318.146 -303.408)" fill="#bf3d75"/>
      <path id="Trazado_201775" data-name="Trazado 201775" d="M397.367,412.53a25.39,25.39,0,0,0,34.757-34.757Zm0,0" transform="translate(-324.858 -308.588)" fill="#ffa400"/>
      <path id="Trazado_201776" data-name="Trazado 201776" d="M9.079,98.367H56.293V94.736H9.079a5.448,5.448,0,0,1-5.448-5.448V9.388A5.447,5.447,0,0,1,9.079,3.941h79.9a5.447,5.447,0,0,1,5.448,5.447V51.154h3.632V9.388A9.09,9.09,0,0,0,88.979.309H9.079A9.09,9.09,0,0,0,0,9.388v79.9A9.09,9.09,0,0,0,9.079,98.367Zm0,0"/>
      <path id="Trazado_201777" data-name="Trazado 201777" d="M39.8,40.117h3.632v3.632H39.8Zm0,0" transform="translate(-32.541 -32.545)"/>
      <path id="Trazado_201778" data-name="Trazado 201778" d="M79.613,40.117h3.632v3.632H79.613Zm0,0" transform="translate(-65.086 -32.545)"/>
      <path id="Trazado_201779" data-name="Trazado 201779" d="M119.418,40.117h3.632v3.632h-3.632Zm0,0" transform="translate(-97.627 -32.545)"/>
      <path id="Trazado_201780" data-name="Trazado 201780" d="M39.8,79.922h83.532v3.632H39.8Zm0,0" transform="translate(-32.541 -65.086)"/>
      <path id="Trazado_201781" data-name="Trazado 201781" d="M58.246,122.645l-4.612,4.612a9.106,9.106,0,1,0,2.568,2.567l4.612-4.612Zm-9.611,17.627a5.448,5.448,0,1,1,0-10.9,5.362,5.362,0,0,1,2.333.545l-3.617,3.617,2.567,2.568,3.619-3.616a5.353,5.353,0,0,1,.545,2.334A5.448,5.448,0,0,1,48.635,140.272Zm0,0" transform="translate(-32.292 -100.013)"/>
      <path id="Trazado_201782" data-name="Trazado 201782" d="M169.176,159.535h30.871v3.632H169.176Zm0,0" transform="translate(-138.306 -130.172)"/>
      <path id="Trazado_201783" data-name="Trazado 201783" d="M169.176,199.34h12.712v3.632H169.176Zm0,0" transform="translate(-138.306 -162.713)"/>
      <path id="Trazado_201784" data-name="Trazado 201784" d="M258.742,199.34h25.423v3.632H258.742Zm0,0" transform="translate(-211.529 -162.713)"/>
      <path id="Trazado_201785" data-name="Trazado 201785" d="M358.258,159.535h18.159v3.632H358.258Zm0,0" transform="translate(-292.885 -130.172)"/>
      <path id="Trazado_201786" data-name="Trazado 201786" d="M58.246,242.063l-4.612,4.612a9.107,9.107,0,1,0,2.568,2.568l4.612-4.612ZM48.635,259.69a5.448,5.448,0,1,1,0-10.9,5.352,5.352,0,0,1,2.333.545l-3.617,3.617,2.567,2.567,3.619-3.615a5.352,5.352,0,0,1,.545,2.333A5.448,5.448,0,0,1,48.635,259.69Zm0,0" transform="translate(-32.292 -197.64)"/>
      <path id="Trazado_201787" data-name="Trazado 201787" d="M169.176,278.953h30.871v3.632H169.176Zm0,0" transform="translate(-138.306 -227.799)"/>
      <path id="Trazado_201788" data-name="Trazado 201788" d="M169.176,318.762h12.712v3.632H169.176Zm0,0" transform="translate(-138.306 -260.344)"/>
      <path id="Trazado_201789" data-name="Trazado 201789" d="M258.742,318.762H273.27v3.632H258.742Zm0,0" transform="translate(-211.529 -260.344)"/>
      <path id="Trazado_201790" data-name="Trazado 201790" d="M358.258,278.953h7.264v3.632h-7.264Zm0,0" transform="translate(-292.885 -227.799)"/>
      <path id="Trazado_201791" data-name="Trazado 201791" d="M58.246,361.484,53.634,366.1a9.106,9.106,0,1,0,2.568,2.567l4.612-4.612Zm-9.611,17.627a5.448,5.448,0,0,1,0-10.9,5.362,5.362,0,0,1,2.333.545l-3.617,3.617,2.567,2.567,3.619-3.615a5.353,5.353,0,0,1,.545,2.334A5.448,5.448,0,0,1,48.635,379.112Zm0,0" transform="translate(-32.292 -295.271)"/>
      <path id="Trazado_201792" data-name="Trazado 201792" d="M169.176,398.375h23.607v3.632H169.176Zm0,0" transform="translate(-138.306 -325.43)"/>
      <path id="Trazado_201793" data-name="Trazado 201793" d="M169.176,438.18h12.712v3.632H169.176Zm0,0" transform="translate(-138.306 -357.971)"/>
      <path id="Trazado_201794" data-name="Trazado 201794" d="M258.742,438.18h7.263v3.632h-7.263Zm0,0" transform="translate(-211.529 -357.971)"/>
      <path id="Trazado_201795" data-name="Trazado 201795" d="M345.691,353.336A27.238,27.238,0,1,0,318.453,326.1,27.239,27.239,0,0,0,345.691,353.336Zm0-50.845A23.607,23.607,0,1,1,322.085,326.1,23.606,23.606,0,0,1,345.691,302.491Zm0,0" transform="translate(-260.344 -244.073)"/>
      <path id="Trazado_201796" data-name="Trazado 201796" d="M392.457,386.433l-3.25,1.623,3.632,7.264a1.814,1.814,0,0,0,1.335.98,1.764,1.764,0,0,0,.282.024,1.81,1.81,0,0,0,1.284-.532L417.53,374l-2.568-2.567-20.009,20.009Zm0,0" transform="translate(-318.187 -303.405)"/>
    </g>
  </g>
</svg>
