<svg xmlns="http://www.w3.org/2000/svg" width="141" height="141" viewBox="0 0 141 141">
  <g id="Grupo_147566" data-name="Grupo 147566" transform="translate(5296 7671)">
    <g id="buena-calidad_1_" data-name="buena-calidad (1)" transform="translate(-5274.998 -7650)">
      <path id="Trazado_201797" data-name="Trazado 201797" d="M71.435,96.087H4.522A3.532,3.532,0,0,1,1,92.566V4.522A3.532,3.532,0,0,1,4.522,1H58.387a1.733,1.733,0,0,1,1.233.511l11.3,11.3a1.733,1.733,0,0,1,.511,1.233Z" transform="translate(0.761 0.761)" fill="#d0eae2"/>
      <rect id="Rect치ngulo_45608" data-name="Rect치ngulo 45608" width="32.041" height="7.235" rx="2" transform="translate(20.672 13.663)" fill="#ffa400"/>
      <path id="Trazado_201798" data-name="Trazado 201798" d="M39.289,47.8,33.707,60.6a2.272,2.272,0,0,0,2.1,3.152h4.7a1.518,1.518,0,0,1,1.074.44l2.659,2.661a2.3,2.3,0,0,0,3.715-.687l5.776-12.735L59.5,66.168a2.3,2.3,0,0,0,3.715.687l2.659-2.661a1.518,1.518,0,0,1,1.074-.44h4.7a2.272,2.272,0,0,0,2.1-3.152L68.167,47.818Z" transform="translate(25.512 36.37)" fill="#92bfb1"/>
      <path id="Trazado_201799" data-name="Trazado 201799" d="M79.515,50.5v.012a5.635,5.635,0,0,0-.72,3.627,5.644,5.644,0,0,1-2.189,5.283,5.635,5.635,0,0,0-2.06,3.08,5.644,5.644,0,0,1-4.038,4.036,5.635,5.635,0,0,0-3.078,2.06,5.635,5.635,0,0,1-5.283,2.189,5.647,5.647,0,0,0-3.629.72h-.011a5.652,5.652,0,0,1-5.705,0H52.79a5.635,5.635,0,0,0-3.627-.72,5.644,5.644,0,0,1-5.283-2.189,5.635,5.635,0,0,0-3.08-2.06A5.644,5.644,0,0,1,36.764,62.5a5.635,5.635,0,0,0-2.06-3.078,5.635,5.635,0,0,1-2.189-5.283,5.647,5.647,0,0,0-.72-3.629V50.5a5.652,5.652,0,0,1,0-5.705v-.012a5.635,5.635,0,0,0,.72-3.627A5.644,5.644,0,0,1,34.7,35.869a5.635,5.635,0,0,0,2.06-3.08A5.644,5.644,0,0,1,40.8,28.753a5.635,5.635,0,0,0,3.078-2.06A5.635,5.635,0,0,1,49.162,24.5a5.647,5.647,0,0,0,3.629-.72H52.8a5.652,5.652,0,0,1,5.705,0h.012a5.635,5.635,0,0,0,3.627.72,5.644,5.644,0,0,1,5.283,2.189,5.635,5.635,0,0,0,3.08,2.06,5.644,5.644,0,0,1,4.036,4.038,5.635,5.635,0,0,0,2.06,3.078,5.635,5.635,0,0,1,2.189,5.283,5.647,5.647,0,0,0,.72,3.629v.011A5.652,5.652,0,0,1,79.515,50.5Z" transform="translate(23.604 17.509)" fill="#ffa400"/>
      <circle id="Elipse_1427" data-name="Elipse 1427" cx="16.021" cy="16.021" r="16.021" transform="translate(63.049 48.805)" fill="#ffa400"/>
      <path id="Trazado_201800" data-name="Trazado 201800" d="M46.168,13.258H37.522A3.532,3.532,0,0,1,34,9.736V1.09a1.9,1.9,0,0,1,.511.352l11.3,11.3a1.9,1.9,0,0,1,.352.511Z" transform="translate(25.87 0.829)" fill="#92bfb1"/>
      <g id="Grupo_147561" data-name="Grupo 147561" transform="translate(0 0)">
        <path id="Trazado_201801" data-name="Trazado 201801" d="M40.935,17.565A5.283,5.283,0,1,0,40.935,7H16.283a5.283,5.283,0,1,0,0,10.565ZM14.522,12.283a1.761,1.761,0,0,1,1.761-1.761H40.935a1.761,1.761,0,1,1,0,3.522H16.283A1.761,1.761,0,0,1,14.522,12.283Z" transform="translate(8.37 5.326)" fill="#0c0a3e"/>
        <path id="Trazado_201802" data-name="Trazado 201802" d="M104.136,58.9a7.412,7.412,0,0,0-2.872-6.931,3.874,3.874,0,0,1-1.419-2.125,7.415,7.415,0,0,0-5.3-5.293,3.906,3.906,0,0,1-2.113-1.419,7.38,7.38,0,0,0-6.934-2.872,3.928,3.928,0,0,1-2.507-.5,7.426,7.426,0,0,0-7.493,0,3.874,3.874,0,0,1-1.532.495V14.809a3.481,3.481,0,0,0-1.032-2.483l-11.3-11.3A3.481,3.481,0,0,0,59.148,0H5.283A5.283,5.283,0,0,0,0,5.283V93.326a5.283,5.283,0,0,0,5.283,5.283H52.826a1.761,1.761,0,1,0,0-3.522H5.283a1.761,1.761,0,0,1-1.761-1.761V5.283A1.761,1.761,0,0,1,5.283,3.522H58.109v7.044a5.283,5.283,0,0,0,5.283,5.283h7.044V40.361a7.408,7.408,0,0,0-4.379,2.766,3.874,3.874,0,0,1-2.125,1.419,7.415,7.415,0,0,0-5.293,5.3,3.906,3.906,0,0,1-1.419,2.113A7.417,7.417,0,0,0,54.346,58.9a3.9,3.9,0,0,1-.5,2.507,7.417,7.417,0,0,0,0,7.493,3.911,3.911,0,0,1,.495,2.5,7.412,7.412,0,0,0,2.872,6.931,3.874,3.874,0,0,1,1.419,2.125,7.4,7.4,0,0,0,3.811,4.717L57.6,96.286a4.034,4.034,0,0,0,3.717,5.6H65.92l2.592,2.6a4.083,4.083,0,0,0,2.86,1.171,4.225,4.225,0,0,0,.755-.07,4.05,4.05,0,0,0,2.941-2.316l4.172-9.2,4.168,9.186a4.05,4.05,0,0,0,2.944,2.326,4.115,4.115,0,0,0,3.624-1.111l2.583-2.585h4.606a4.032,4.032,0,0,0,3.708-5.617L96.033,85.175a7.4,7.4,0,0,0,3.809-4.721,3.906,3.906,0,0,1,1.419-2.113,7.417,7.417,0,0,0,2.872-6.934,3.985,3.985,0,0,1,.5-2.509,7.417,7.417,0,0,0,0-7.493,3.911,3.911,0,0,1-.5-2.506ZM61.631,10.565V6.01l6.32,6.316H63.392A1.761,1.761,0,0,1,61.631,10.565Zm10.225,91.256a.507.507,0,0,1-.382.3.537.537,0,0,1-.481-.139l-2.655-2.657a3.3,3.3,0,0,0-2.323-.96h-4.7a.509.509,0,0,1-.43-.232.474.474,0,0,1-.051-.454l4.788-10.984a3.792,3.792,0,0,1,.435.484,7.376,7.376,0,0,0,6.934,2.872,3.907,3.907,0,0,1,2.507.5,7.5,7.5,0,0,0,1.219.555Zm25.739-3.689a.509.509,0,0,1-.43.232h-4.7a3.293,3.293,0,0,0-2.319.956L87.5,101.962a.542.542,0,0,1-.49.15.509.509,0,0,1-.386-.31L81.772,91.1A7.463,7.463,0,0,0,83,90.535a3.943,3.943,0,0,1,2.5-.495,7.4,7.4,0,0,0,6.931-2.872,3.854,3.854,0,0,1,.431-.481l4.784,10.965A.482.482,0,0,1,97.595,98.132Zm4.008-31.02v.016a7.452,7.452,0,0,0-.942,4.754,3.893,3.893,0,0,1-1.507,3.636,7.447,7.447,0,0,0-2.7,4.05,3.9,3.9,0,0,1-2.782,2.78,7.408,7.408,0,0,0-4.05,2.7,3.936,3.936,0,0,1-3.636,1.506,7.468,7.468,0,0,0-4.777.949,3.874,3.874,0,0,1-3.936,0,7.442,7.442,0,0,0-3.751-1.013,7.528,7.528,0,0,0-1.013.07,3.92,3.92,0,0,1-3.636-1.507,7.447,7.447,0,0,0-4.05-2.7,3.9,3.9,0,0,1-2.78-2.782,7.408,7.408,0,0,0-2.7-4.05,3.888,3.888,0,0,1-1.506-3.636,7.466,7.466,0,0,0-.949-4.777,3.874,3.874,0,0,1,0-3.936,7.452,7.452,0,0,0,.942-4.754,3.893,3.893,0,0,1,1.507-3.636,7.447,7.447,0,0,0,2.7-4.05,3.9,3.9,0,0,1,2.782-2.78,7.408,7.408,0,0,0,4.05-2.7A3.932,3.932,0,0,1,72.5,43.742a7.482,7.482,0,0,0,4.777-.949,3.874,3.874,0,0,1,3.936,0,7.44,7.44,0,0,0,4.754.942,3.911,3.911,0,0,1,3.636,1.507,7.447,7.447,0,0,0,4.05,2.7,3.9,3.9,0,0,1,2.78,2.782,7.408,7.408,0,0,0,2.7,4.05,3.888,3.888,0,0,1,1.506,3.636,7.466,7.466,0,0,0,.949,4.777,3.874,3.874,0,0,1,.009,3.92Z" transform="translate(0 0)" fill="#0c0a3e"/>
        <path id="Trazado_201803" data-name="Trazado 201803" d="M52.609,27A17.609,17.609,0,1,0,70.218,44.609,17.609,17.609,0,0,0,52.609,27Zm0,31.7A14.087,14.087,0,1,1,66.7,44.609,14.087,14.087,0,0,1,52.609,58.7Z" transform="translate(26.631 20.544)" fill="#0c0a3e"/>
        <path id="Trazado_201804" data-name="Trazado 201804" d="M6,18.761a1.761,1.761,0,0,0,1.761,1.761h49.3a1.761,1.761,0,1,0,0-3.522H7.761A1.761,1.761,0,0,0,6,18.761Z" transform="translate(4.565 12.935)" fill="#0c0a3e"/>
        <path id="Trazado_201805" data-name="Trazado 201805" d="M55.3,23.761A1.761,1.761,0,0,0,53.544,22H7.761a1.761,1.761,0,0,0,0,3.522H53.544A1.761,1.761,0,0,0,55.3,23.761Z" transform="translate(4.565 16.739)" fill="#0c0a3e"/>
        <path id="Trazado_201806" data-name="Trazado 201806" d="M36.848,28.761A1.761,1.761,0,0,0,35.087,27H22.761a1.761,1.761,0,0,0,0,3.522H35.087A1.761,1.761,0,0,0,36.848,28.761Z" transform="translate(15.978 20.544)" fill="#0c0a3e"/>
        <path id="Trazado_201807" data-name="Trazado 201807" d="M27.131,27H7.761a1.761,1.761,0,1,0,0,3.522h19.37a1.761,1.761,0,1,0,0-3.522Z" transform="translate(4.565 20.544)" fill="#0c0a3e"/>
        <path id="Trazado_201808" data-name="Trazado 201808" d="M13,33.761a1.761,1.761,0,0,0,1.761,1.761H37.652a1.761,1.761,0,1,0,0-3.522H14.761A1.761,1.761,0,0,0,13,33.761Z" transform="translate(9.891 24.348)" fill="#0c0a3e"/>
        <path id="Trazado_201809" data-name="Trazado 201809" d="M7.761,35.522h5.283a1.761,1.761,0,1,0,0-3.522H7.761a1.761,1.761,0,1,0,0,3.522Z" transform="translate(4.565 24.348)" fill="#0c0a3e"/>
        <path id="Trazado_201810" data-name="Trazado 201810" d="M7.761,40.522H42.978a1.761,1.761,0,1,0,0-3.522H7.761a1.761,1.761,0,1,0,0,3.522Z" transform="translate(4.565 28.152)" fill="#0c0a3e"/>
        <path id="Trazado_201811" data-name="Trazado 201811" d="M46.5,43.761A1.761,1.761,0,0,0,44.739,42H7.761a1.761,1.761,0,1,0,0,3.522H44.739A1.761,1.761,0,0,0,46.5,43.761Z" transform="translate(4.565 31.957)" fill="#0c0a3e"/>
        <path id="Trazado_201812" data-name="Trazado 201812" d="M7.761,47a1.761,1.761,0,1,0,0,3.522h19.37a1.761,1.761,0,1,0,0-3.522Z" transform="translate(4.565 35.761)" fill="#0c0a3e"/>
        <path id="Trazado_201813" data-name="Trazado 201813" d="M52.081,34.516l-7.559,7.559-.516-.516a1.761,1.761,0,1,0-2.49,2.49l1.761,1.761a1.761,1.761,0,0,0,2.49,0l8.8-8.8a1.761,1.761,0,1,0-2.49-2.49Z" transform="translate(31.196 25.87)" fill="#0c0a3e"/>
      </g>
    </g>
    <rect id="Rect치ngulo_45623" data-name="Rect치ngulo 45623" width="141" height="141" transform="translate(-5296 -7671)" fill="none"/>
  </g>
</svg>
