<svg xmlns="http://www.w3.org/2000/svg" width="103" height="103" viewBox="0 0 103 103">
  <g id="Grupo_147788" data-name="Grupo 147788" transform="translate(-917 -7138)">
    <g id="Grupo_147773" data-name="Grupo 147773">
      <path id="Trazado_205892" data-name="Trazado 205892" d="M51.5,0A51.5,51.5,0,1,1,0,51.5,51.5,51.5,0,0,1,51.5,0Z" transform="translate(917 7138)" fill="#92bfb1"/>
      <g id="variabilidad" transform="translate(937.253 7155.257)">
        <path id="Trazado_205855" data-name="Trazado 205855" d="M67.751,167.2l-60.037-.156L7.69,123.619a1.007,1.007,0,0,0-1.007-1.007h0a1.007,1.007,0,0,0-1.007,1.008l0,4.58H2.944a1.007,1.007,0,0,0,0,2.015H5.679l.007,12.353H2.944a1.007,1.007,0,0,0,0,2.015H5.687l.007,12.354H2.944a1.007,1.007,0,0,0,0,2.015H5.695l0,8.251H1a1.007,1.007,0,0,0,0,2.015H5.675v4.676a1.007,1.007,0,0,0,2.015,0V169.06l8.136.021v2.9a1.007,1.007,0,0,0,2.015,0v-2.895l12.353.032v2.862a1.007,1.007,0,0,0,2.015,0v-2.857l12.353.032v2.825a1.007,1.007,0,0,0,2.015,0v-2.82l12.353.032v2.787a1.007,1.007,0,0,0,2.015,0V169.2l6.8.018h0A1.007,1.007,0,0,0,67.751,167.2Z" transform="translate(0 -106.144)" fill="#fff"/>
        <path id="Trazado_205856" data-name="Trazado 205856" d="M15.48,9.7h2.731v1.725a1.007,1.007,0,0,0,2.015,0V1a1.007,1.007,0,0,0-2.015,0V7.688H15.48A1.007,1.007,0,0,0,15.48,9.7Z" transform="translate(-12.536 0)" fill="#fff"/>
        <path id="Trazado_205857" data-name="Trazado 205857" d="M102.823,61.116a3.521,3.521,0,0,0,3.368-2.511l7.645-.032a3.6,3.6,0,0,0,3.991,2.473l3.558,7.127-3.5,6.674a3.554,3.554,0,0,0-4.094,4.255l-8.176,4.7a3.514,3.514,0,1,0-2.415,6.065,3.571,3.571,0,0,0,3.421-4.32l8.176-4.7a3.513,3.513,0,0,0,4.871-5.062l2.829-5.39,6.7,13.418a3.514,3.514,0,1,0,5.517.93l9.919-9.683a3.621,3.621,0,0,0,2.722.291,1.007,1.007,0,0,0-.582-1.929,1.5,1.5,0,1,1,.889-2.139,1.007,1.007,0,1,0,1.777-.949,3.514,3.514,0,0,0-6.213,3.284L133.3,83.3a3.647,3.647,0,0,0-2.307-.39L123.648,68.2l7.213-13.742a3.58,3.58,0,0,0,4.16-4.227l8.363-4.387a3.514,3.514,0,1,0,2.6-5.878,3.575,3.575,0,0,0-3.472,4.061l-8.489,4.453a3.513,3.513,0,0,0-4.926,5.007l-6.556,12.491-2.914-5.838a3.514,3.514,0,1,0-5.777-3.577l-7.659.032a3.514,3.514,0,1,0-3.366,4.525Zm.375,26.739a1.5,1.5,0,1,1,1.5-1.5,1.5,1.5,0,0,1-1.5,1.5ZM117.209,79.8a1.521,1.521,0,0,1-1.5-1.5,1.5,1.5,0,1,1,1.5,1.5ZM133.1,86.374a1.5,1.5,0,1,1-1.5-1.5A1.5,1.5,0,0,1,133.1,86.374Zm12.886-44.4a1.5,1.5,0,1,1-1.5,1.5A1.5,1.5,0,0,1,145.982,41.977ZM131.6,49.517a1.5,1.5,0,1,1-1.5,1.5A1.5,1.5,0,0,1,131.6,49.517Zm-14.386,6.569a1.5,1.5,0,1,1-1.5,1.5A1.5,1.5,0,0,1,117.209,56.087Zm-14.386.015a1.5,1.5,0,1,1-1.5,1.5,1.5,1.5,0,0,1,1.5-1.5Z" transform="translate(-85.97 -34.594)" fill="#fff"/>
      </g>
    </g>
  </g>
</svg>
