<svg xmlns="http://www.w3.org/2000/svg" width="103" height="103" viewBox="0 0 103 103">
  <g id="Grupo_147791" data-name="Grupo 147791" transform="translate(-525 -7823)">
    <g id="Grupo_147769" data-name="Grupo 147769">
      <circle id="Elipse_1462" data-name="Elipse 1462" cx="51.5" cy="51.5" r="51.5" transform="translate(525 7823)" fill="#92bfb1"/>
      <path id="meta" d="M33.734,46.837a2.691,2.691,0,1,0-2.691-2.691,2.691,2.691,0,0,0,2.691,2.691Zm0-3.137a.447.447,0,1,1-.447.447A.447.447,0,0,1,33.734,43.7ZM85.859,21.1l5.489-7.812a1.122,1.122,0,0,0-.918-1.767H79.739l.008-6.8A1.122,1.122,0,0,0,78.625,3.6H63.909V2.264A2.267,2.267,0,0,0,61.644,0H57.912a2.267,2.267,0,0,0-2.264,2.264v27.1a5.194,5.194,0,0,0-4.806,3.175,27.708,27.708,0,0,1-3.4,6.429,2.557,2.557,0,0,1-1.872,1.175c-.21.055-.441.115-.692.191V39.317a1.745,1.745,0,0,0-1.743-1.743H29.195a1.745,1.745,0,0,0-1.743,1.743V63.653A1.745,1.745,0,0,0,29.195,65.4H43.134a1.745,1.745,0,0,0,1.743-1.743v-.47a6.816,6.816,0,0,0,3.078.727c.119,0,.24,0,.361-.009H55.8v5.636A2.267,2.267,0,0,0,58.065,71.8H61.8a2.267,2.267,0,0,0,2.264-2.264V63.9H65.18a4.347,4.347,0,0,0,4.053-5.787,4.721,4.721,0,0,0,2.919-6.441,4.865,4.865,0,0,0,.351-7.455,5.432,5.432,0,0,0-3.616-7.6,1.131,1.131,0,0,0-.248-.032c-1.226-.021-2.89-.036-4.73-.043V22.828h4.759v6.8a1.122,1.122,0,0,0,1.122,1.122H90.431a1.122,1.122,0,0,0,.921-1.763ZM57.892,2.264a.025.025,0,0,1,.02-.02h3.732a.025.025,0,0,1,.02.02V36.537h-.821a2.96,2.96,0,0,1-2.952-2.952ZM42.634,63.151H29.7V39.818H42.633Zm19.184,6.385a.025.025,0,0,1-.021.02H58.065a.025.025,0,0,1-.021-.02V63.9h3.773Zm6.647-30.71a3.186,3.186,0,0,1,1.657,5.006,1.122,1.122,0,0,0,.349,1.666,2.625,2.625,0,0,1-.29,4.738A1.122,1.122,0,0,0,69.738,52a2.487,2.487,0,0,1-2.283,4.058A1.122,1.122,0,0,0,66.536,58a2.1,2.1,0,0,1-1.367,3.656H48.287c-.02,0-.04,0-.06,0a4.792,4.792,0,0,1-3.35-1.128V42.716a8.76,8.76,0,0,1,1.256-.4,4.716,4.716,0,0,0,3.138-2.049,30.035,30.035,0,0,0,3.684-6.976,2.92,2.92,0,0,1,2.693-1.681v1.976a5.2,5.2,0,0,0,5.2,5.2h.005c2.911,0,5.743.014,7.616.045ZM63.909,5.842H77.5l-.017,14.741H63.909Zm11.85,16.985L70.913,27.04V22.828Zm-3.114,5.678,6.7-5.82a1.122,1.122,0,0,0,.386-.845l.009-8.076h8.534l-4.7,6.688a1.122,1.122,0,0,0,0,1.286l4.713,6.768Z" transform="translate(518.808 7837.6)" fill="#fff"/>
    </g>
  </g>
</svg>
