<svg xmlns="http://www.w3.org/2000/svg" width="103" height="103" viewBox="0 0 103 103">
  <g id="Grupo_147786" data-name="Grupo 147786" transform="translate(-915 -6821)">
    <circle id="Elipse_1459" data-name="Elipse 1459" cx="51.5" cy="51.5" r="51.5" transform="translate(915 6821)" fill="#92bfb1"/>
    <path id="metas" d="M39.4,21.361H53.35l2.262,6.787H71.571L68.932,20.23l2.639-7.918H55.612L53.35,19.1H39.4A19.217,19.217,0,1,0,19.1,39.4v21.55a3.4,3.4,0,0,0,3.394,3.394H34.935V67.74a3.4,3.4,0,0,0,3.394,3.394H60.952A7.912,7.912,0,0,0,67.88,59.387l2.968-3.339-1.691-1.5-2.676,3.011A7.893,7.893,0,0,0,60.952,55.3H38.329a3.4,3.4,0,0,0-3.394,3.394v3.394H22.492a1.133,1.133,0,0,1-1.131-1.131V46.247H34.935v3.394a3.4,3.4,0,0,0,3.394,3.394H60.952A7.912,7.912,0,0,0,67.88,41.288l2.968-3.339-1.691-1.5-2.676,3.011A7.893,7.893,0,0,0,60.952,37.2H38.329a3.4,3.4,0,0,0-3.394,3.394v3.394H21.361V39.4A19.223,19.223,0,0,0,39.4,21.361ZM64.975,59.249,60.9,63.829l-2.545-2.545-1.6,1.6,2.605,2.605a2.19,2.19,0,0,0,1.544.639h.063a2.194,2.194,0,0,0,1.567-.731l3.694-4.156a5.587,5.587,0,0,1,.376,1.974,5.673,5.673,0,1,1-1.633-3.966ZM37.2,58.69a1.133,1.133,0,0,1,1.131-1.131H55.421a7.895,7.895,0,0,0,0,11.312H38.329A1.133,1.133,0,0,1,37.2,67.74ZM64.975,41.15,60.9,45.73l-2.545-2.545-1.6,1.6,2.605,2.605a2.19,2.19,0,0,0,1.544.639h.063a2.194,2.194,0,0,0,1.567-.731l3.694-4.156a5.587,5.587,0,0,1,.376,1.974,5.673,5.673,0,1,1-1.633-3.966ZM37.2,40.591a1.133,1.133,0,0,1,1.131-1.131H55.421a7.895,7.895,0,0,0,0,11.312H38.329A1.133,1.133,0,0,1,37.2,49.641Zm18.538-19.23h4.4l1.508,4.525h-4.4Zm8.295,4.525-1.508-4.525h4.4l1.509,4.525ZM66.924,19.1h-4.4l1.508-4.525h4.4Zm-9.681-4.525h4.4L60.138,19.1h-4.4ZM3.262,20.23A16.957,16.957,0,0,1,37.14,19.1H32.615a12.443,12.443,0,1,0,0,2.262H37.14A16.957,16.957,0,0,1,3.262,20.23Zm24.8-1.131a7.918,7.918,0,1,0,0,2.262h2.286a10.181,10.181,0,1,1,0-2.262Zm-2.286,2.262a5.656,5.656,0,1,1,0-2.262H19.1v2.262Z" transform="translate(928.429 6836.629)" fill="#fff"/>
  </g>
</svg>
