<svg xmlns="http://www.w3.org/2000/svg" width="103" height="103" viewBox="0 0 103 103">
  <g id="Grupo_147787" data-name="Grupo 147787" transform="translate(-533 -6977)">
    <g id="Grupo_147772" data-name="Grupo 147772">
      <path id="Trazado_205893" data-name="Trazado 205893" d="M51.5,0A51.5,51.5,0,1,1,0,51.5,51.5,51.5,0,0,1,51.5,0Z" transform="translate(533 6977)" fill="#92bfb1"/>
      <g id="OUTLINE" transform="translate(537.002 6982)">
        <rect id="Rectángulo_45816" data-name="Rectángulo 45816" width="14" height="2" transform="translate(39.998 21)" fill="#fff"/>
        <path id="Trazado_205859" data-name="Trazado 205859" d="M145.833,112.533H144.8v-15.5A1.033,1.033,0,0,0,143.767,96h-4.133a1.033,1.033,0,0,0-1.033,1.033v15.5h-2.067V99.1a1.033,1.033,0,0,0-1.033-1.033h-4.133a1.033,1.033,0,0,0-1.033,1.033v13.433h-2.067V101.167a1.033,1.033,0,0,0-1.033-1.033H123.1a1.033,1.033,0,0,0-1.033,1.033v11.367H120V114.6h25.833Zm-19.633,0h-2.067V102.2H126.2Zm8.267,0H132.4v-12.4h2.067Zm8.267,0h-2.067V98.067h2.067Z" transform="translate(-90.568 -69.667)" fill="#fff"/>
        <path id="Trazado_205860" data-name="Trazado 205860" d="M330.067,82.067h2.067v9.3H334.2V81.033A1.033,1.033,0,0,0,333.167,80h-4.133A1.033,1.033,0,0,0,328,81.033V91.367h2.067Z" transform="translate(-271.702 -55.733)" fill="#fff"/>
        <path id="Trazado_205861" data-name="Trazado 205861" d="M74.9,37.7H71.8V17.033A1.033,1.033,0,0,0,70.765,16H23.232A1.033,1.033,0,0,0,22.2,17.033V30.817L22.08,30.4a3.1,3.1,0,1,0-5.963,1.7L22.2,53.451V76.966A1.033,1.033,0,0,0,23.232,78H62.5a1.033,1.033,0,0,0,.731-.3L71.5,69.431a1.033,1.033,0,0,0,.3-.731V56.3h3.1A3.1,3.1,0,0,0,78,53.2V40.8A3.1,3.1,0,0,0,74.9,37.7ZM18.105,31.534a1.033,1.033,0,1,1,1.988-.566l.566,1.988-1.988.566Zm6.16,44.4V60.707L28.006,73.84a1.034,1.034,0,0,0,.231.415l1.536,1.678Zm7.221-1.189-1.56-1.7L19.237,35.51l1.988-.566,10.689,37.53Zm32.045-.273V69.733H68.27Zm6.2-6.805H62.5A1.033,1.033,0,0,0,61.465,68.7v7.233h-28.1l.625-3.317a1.033,1.033,0,0,0-.022-.474l-9.7-34.069V18.067H69.732V37.7h-9.3a3.1,3.1,0,0,0-3.1,3.1V53.2a3.1,3.1,0,0,0,3.1,3.1H62.5v4.133a1.033,1.033,0,0,0,1.764.731L69.126,56.3h.605Zm6.2-14.467A1.035,1.035,0,0,1,74.9,54.233H68.7a1.033,1.033,0,0,0-.731.3l-3.4,3.4V55.267a1.033,1.033,0,0,0-1.033-1.033h-3.1A1.035,1.035,0,0,1,59.4,53.2V40.8a1.035,1.035,0,0,1,1.033-1.033H74.9A1.034,1.034,0,0,1,75.932,40.8Z" transform="translate(0)" fill="#fff"/>
        <rect id="Rectángulo_45817" data-name="Rectángulo 45817" width="12.051" height="2.067" transform="translate(63.679 51.635) rotate(-59.035)" fill="#fff"/>
        <rect id="Rectángulo_45818" data-name="Rectángulo 45818" width="1" height="2" transform="translate(64.998 42)" fill="#fff"/>
        <rect id="Rectángulo_45819" data-name="Rectángulo 45819" width="2" height="2" transform="translate(68.998 50)" fill="#fff"/>
        <path id="Trazado_205862" data-name="Trazado 205862" d="M177.871,274.373h-3.147a11.363,11.363,0,1,0-4.045,9.769l2.328,2.328a1.033,1.033,0,0,0,1.461,0,15.046,15.046,0,0,0,4.436-10.709v-.355a1.033,1.033,0,0,0-1.033-1.033ZM163.4,266.107a9.312,9.312,0,0,1,9.241,8.267h-8.633l-4.193-7.547A9.248,9.248,0,0,1,163.4,266.107Zm-9.3,9.3a9.293,9.293,0,0,1,3.911-7.572l4.107,7.393-5.98,5.98A9.253,9.253,0,0,1,154.1,275.407Zm9.3,9.3a9.253,9.253,0,0,1-5.8-2.038l5.8-5.8,5.8,5.8A9.218,9.218,0,0,1,163.4,284.707Zm10.305-.456-7.81-7.81h10.921A12.967,12.967,0,0,1,173.71,284.25Z" transform="translate(-118.473 -216.007)" fill="#fff"/>
      </g>
    </g>
  </g>
</svg>
