<svg xmlns="http://www.w3.org/2000/svg" width="103" height="103" viewBox="0 0 103 103">
  <g id="Grupo_147792" data-name="Grupo 147792" transform="translate(-915 -7988)">
    <g id="Grupo_147771" data-name="Grupo 147771">
      <circle id="Elipse_1462" data-name="Elipse 1462" cx="51.5" cy="51.5" r="51.5" transform="translate(915 7988)" fill="#92bfb1"/>
      <g id="XMLID_1156_" transform="translate(933 8006)">
        <g id="XMLID_416_">
          <path id="XMLID_419_" d="M63.859,46.5V9.226a4,4,0,0,0-3.991-3.991H50.381V3.926a3.926,3.926,0,0,0-7.852,0V5.234H21.33V3.926a3.926,3.926,0,0,0-7.852,0V5.234H3.991A4,4,0,0,0,0,9.226V57.774a4,4,0,0,0,3.991,3.991H21.827a1.309,1.309,0,0,0,0-2.617H3.991a1.376,1.376,0,0,1-1.374-1.374V9.226A1.376,1.376,0,0,1,3.991,7.852h9.487V9.16a3.926,3.926,0,0,0,7.852,0V7.852h21.2V9.16a3.926,3.926,0,0,0,7.852,0V7.852h9.487a1.376,1.376,0,0,1,1.374,1.374V15.7H11.777a1.309,1.309,0,0,0,0,2.617H61.242V44.288a12.233,12.233,0,0,0-3.664-1.548V23.293a1.309,1.309,0,0,0-1.309-1.309H7.59a1.309,1.309,0,0,0-1.309,1.309V54.176A1.309,1.309,0,0,0,7.59,55.484H42.424a12.209,12.209,0,0,0,.807,3.664H32.3a1.309,1.309,0,1,0,0,2.617h12.34A12.3,12.3,0,1,0,63.859,46.5ZM18.713,9.16a1.309,1.309,0,0,1-2.617,0V3.926a1.309,1.309,0,0,1,2.617,0Zm29.051,0a1.309,1.309,0,0,1-2.617,0V3.926a1.309,1.309,0,0,1,2.617,0ZM54.7,42.4a12.352,12.352,0,0,0-1.791.131H47.842v-7.59h7.119V42.4C54.874,42.4,54.787,42.4,54.7,42.4ZM42.535,52.867H38.106V45.146h7.119v1.716A12.254,12.254,0,0,0,42.535,52.867ZM8.9,34.939h7.119v7.59H8.9Zm9.736,0h7.119v7.59H18.634Zm19.472,0h7.119v7.59H38.106Zm-2.617,7.59H28.37v-7.59h7.119Zm2.617-10.207V24.6h7.119v7.721Zm-2.617,0H28.37V24.6h7.119Zm-9.736,0H18.634V24.6h7.119Zm0,12.824v7.721H18.634V45.146Zm2.617,0h7.119v7.721H28.37V45.146ZM54.961,32.322H47.842V24.6h7.119ZM16.017,24.6v7.721H8.9V24.6ZM8.9,45.146h7.119v7.721H8.9ZM54.7,64.383A9.684,9.684,0,1,1,64.383,54.7,9.695,9.695,0,0,1,54.7,64.383Z" fill="#fff"/>
          <path id="XMLID_1115_" d="M393.248,391.216l-4.047,4.047-1.8-1.8a1.309,1.309,0,0,0-1.851,1.851l2.726,2.726a1.309,1.309,0,0,0,1.851,0l4.973-4.973a1.309,1.309,0,1,0-1.85-1.851Z" transform="translate(-334.764 -339.689)" fill="#fff"/>
          <path id="XMLID_1116_" d="M198.109,452a1.309,1.309,0,1,0,.925.383A1.319,1.319,0,0,0,198.109,452Z" transform="translate(-171.047 -392.852)" fill="#fff"/>
          <path id="XMLID_1120_" d="M42.234,122.234a1.308,1.308,0,1,0-.925.383A1.318,1.318,0,0,0,42.234,122.234Z" transform="translate(-34.766 -104.297)" fill="#fff"/>
        </g>
      </g>
    </g>
  </g>
</svg>
