<svg id="Grupo_147736" data-name="Grupo 147736" xmlns="http://www.w3.org/2000/svg" xmlns:xlink="http://www.w3.org/1999/xlink" width="294.91" height="303.783" viewBox="0 0 294.91 303.783">
  <defs>
    <clipPath id="clip-path">
      <rect id="Rectángulo_45787" data-name="Rectángulo 45787" width="294.91" height="303.783" fill="none"/>
    </clipPath>
    <clipPath id="clip-path-2">
      <rect id="Rectángulo_45786" data-name="Rectángulo 45786" width="294.911" height="303.783" fill="none"/>
    </clipPath>
    <clipPath id="clip-path-3">
      <rect id="Rectángulo_45764" data-name="Rectángulo 45764" width="74.984" height="5.122" fill="none"/>
    </clipPath>
    <clipPath id="clip-path-4">
      <rect id="Rectángulo_45765" data-name="Rectángulo 45765" width="35.895" height="5.122" fill="none"/>
    </clipPath>
    <clipPath id="clip-path-8">
      <rect id="Rectángulo_45769" data-name="Rectángulo 45769" width="35.895" height="5.122" fill="#16697a"/>
    </clipPath>
    <clipPath id="clip-path-10">
      <rect id="Rectángulo_45771" data-name="Rectángulo 45771" width="35.895" height="5.122" fill="#92bfb1"/>
    </clipPath>
    <clipPath id="clip-path-14">
      <rect id="Rectángulo_45775" data-name="Rectángulo 45775" width="85.812" height="5.862" fill="#ffa400"/>
    </clipPath>
  </defs>
  <g id="Grupo_147735" data-name="Grupo 147735" clip-path="url(#clip-path)">
    <rect id="Rectángulo_45763" data-name="Rectángulo 45763" width="212.648" height="267.406" transform="translate(82.263 0.001)" fill="#fff"/>
    <g id="Grupo_147734" data-name="Grupo 147734" transform="translate(0 0)">
      <g id="Grupo_147733" data-name="Grupo 147733" clip-path="url(#clip-path-2)">
        <g id="Grupo_147687" data-name="Grupo 147687" transform="translate(100.595 50.581)" opacity="0.54">
          <g id="Grupo_147686" data-name="Grupo 147686">
            <g id="Grupo_147685" data-name="Grupo 147685" clip-path="url(#clip-path-3)">
              <path id="Trazado_205737" data-name="Trazado 205737" d="M639.439,289.8H567.87a1.712,1.712,0,0,1-1.708-1.707v-1.707a1.712,1.712,0,0,1,1.708-1.707h71.569a1.713,1.713,0,0,1,1.708,1.707v1.707a1.713,1.713,0,0,1-1.708,1.707" transform="translate(-566.162 -284.678)" fill="#99bfd6"/>
            </g>
          </g>
        </g>
        <path id="Trazado_205738" data-name="Trazado 205738" d="M639.439,345.856H567.87a1.712,1.712,0,0,1-1.708-1.707v-1.707a1.713,1.713,0,0,1,1.708-1.707h71.569a1.713,1.713,0,0,1,1.708,1.707v1.707a1.713,1.713,0,0,1-1.708,1.707" transform="translate(-465.567 -280.193)" fill="#dde9ed"/>
        <path id="Trazado_205739" data-name="Trazado 205739" d="M622.364,401.912H567.87a1.712,1.712,0,0,1-1.708-1.707V398.5a1.713,1.713,0,0,1,1.708-1.708h54.495a1.713,1.713,0,0,1,1.707,1.708V400.2a1.712,1.712,0,0,1-1.707,1.707" transform="translate(-465.567 -326.289)" fill="#dde9ed"/>
        <g id="Grupo_147690" data-name="Grupo 147690" transform="translate(242.737 50.581)" opacity="0.54">
          <g id="Grupo_147689" data-name="Grupo 147689">
            <g id="Grupo_147688" data-name="Grupo 147688" clip-path="url(#clip-path-4)">
              <path id="Trazado_205740" data-name="Trazado 205740" d="M1400.349,289.8h-32.48a1.713,1.713,0,0,1-1.708-1.707v-1.707a1.713,1.713,0,0,1,1.708-1.707h32.48a1.713,1.713,0,0,1,1.708,1.707v1.707a1.713,1.713,0,0,1-1.708,1.707" transform="translate(-1366.162 -284.678)" fill="#99bfd6"/>
            </g>
          </g>
        </g>
        <g id="Grupo_147693" data-name="Grupo 147693" transform="translate(242.737 59.465)" opacity="0.54">
          <g id="Grupo_147692" data-name="Grupo 147692">
            <g id="Grupo_147691" data-name="Grupo 147691" clip-path="url(#clip-path-4)">
              <path id="Trazado_205741" data-name="Trazado 205741" d="M1400.349,339.8h-32.48a1.713,1.713,0,0,1-1.708-1.707v-1.707a1.713,1.713,0,0,1,1.708-1.707h32.48a1.713,1.713,0,0,1,1.708,1.707v1.707a1.713,1.713,0,0,1-1.708,1.707" transform="translate(-1366.162 -334.678)" fill="#99bfd6"/>
            </g>
          </g>
        </g>
        <g id="Grupo_147696" data-name="Grupo 147696" transform="translate(242.737 89.67)" opacity="0.54">
          <g id="Grupo_147695" data-name="Grupo 147695">
            <g id="Grupo_147694" data-name="Grupo 147694" clip-path="url(#clip-path-4)">
              <path id="Trazado_205742" data-name="Trazado 205742" d="M1400.349,509.8h-32.48a1.713,1.713,0,0,1-1.708-1.707v-1.707a1.713,1.713,0,0,1,1.708-1.707h32.48a1.713,1.713,0,0,1,1.708,1.707v1.707a1.713,1.713,0,0,1-1.708,1.707" transform="translate(-1366.162 -504.678)" fill="#99bfd6"/>
            </g>
          </g>
        </g>
        <g id="Grupo_147699" data-name="Grupo 147699" transform="translate(242.737 98.554)" opacity="0.54">
          <g id="Grupo_147698" data-name="Grupo 147698">
            <g id="Grupo_147697" data-name="Grupo 147697" clip-path="url(#clip-path-4)">
              <path id="Trazado_205743" data-name="Trazado 205743" d="M1400.349,559.8h-32.48a1.713,1.713,0,0,1-1.708-1.707v-1.707a1.713,1.713,0,0,1,1.708-1.707h32.48a1.713,1.713,0,0,1,1.708,1.707v1.707a1.713,1.713,0,0,1-1.708,1.707" transform="translate(-1366.162 -554.678)" fill="#99bfd6"/>
            </g>
          </g>
        </g>
        <g id="Grupo_147702" data-name="Grupo 147702" transform="translate(242.737 130.536)">
          <g id="Grupo_147701" data-name="Grupo 147701">
            <g id="Grupo_147700" data-name="Grupo 147700" clip-path="url(#clip-path-8)">
              <path id="Trazado_205744" data-name="Trazado 205744" d="M1400.349,739.8h-32.48a1.713,1.713,0,0,1-1.708-1.708v-1.707a1.713,1.713,0,0,1,1.708-1.707h32.48a1.713,1.713,0,0,1,1.708,1.707v1.707a1.713,1.713,0,0,1-1.708,1.708" transform="translate(-1366.162 -734.678)" fill="#16697a"/>
            </g>
          </g>
        </g>
        <g id="Grupo_147705" data-name="Grupo 147705" transform="translate(242.737 139.42)" opacity="0.54">
          <g id="Grupo_147704" data-name="Grupo 147704">
            <g id="Grupo_147703" data-name="Grupo 147703" clip-path="url(#clip-path-4)">
              <path id="Trazado_205745" data-name="Trazado 205745" d="M1400.349,789.8h-32.48a1.713,1.713,0,0,1-1.708-1.708v-1.707a1.713,1.713,0,0,1,1.708-1.707h32.48a1.713,1.713,0,0,1,1.708,1.707v1.707a1.713,1.713,0,0,1-1.708,1.708" transform="translate(-1366.162 -784.678)" fill="#99bfd6"/>
            </g>
          </g>
        </g>
        <g id="Grupo_147708" data-name="Grupo 147708" transform="translate(242.737 169.625)">
          <g id="Grupo_147707" data-name="Grupo 147707">
            <g id="Grupo_147706" data-name="Grupo 147706" clip-path="url(#clip-path-10)">
              <path id="Trazado_205746" data-name="Trazado 205746" d="M1400.349,959.8h-32.48a1.713,1.713,0,0,1-1.708-1.708v-1.707a1.713,1.713,0,0,1,1.708-1.708h32.48a1.713,1.713,0,0,1,1.708,1.708v1.707a1.713,1.713,0,0,1-1.708,1.708" transform="translate(-1366.162 -954.678)" fill="#92bfb1"/>
            </g>
          </g>
        </g>
        <g id="Grupo_147711" data-name="Grupo 147711" transform="translate(242.737 178.509)" opacity="0.54">
          <g id="Grupo_147710" data-name="Grupo 147710">
            <g id="Grupo_147709" data-name="Grupo 147709" clip-path="url(#clip-path-4)">
              <path id="Trazado_205747" data-name="Trazado 205747" d="M1400.349,1009.8h-32.48a1.713,1.713,0,0,1-1.708-1.707v-1.707a1.713,1.713,0,0,1,1.708-1.707h32.48a1.713,1.713,0,0,1,1.708,1.707v1.707a1.713,1.713,0,0,1-1.708,1.707" transform="translate(-1366.162 -1004.678)" fill="#99bfd6"/>
            </g>
          </g>
        </g>
        <g id="Grupo_147714" data-name="Grupo 147714" transform="translate(242.737 212.268)" opacity="0.54">
          <g id="Grupo_147713" data-name="Grupo 147713">
            <g id="Grupo_147712" data-name="Grupo 147712" clip-path="url(#clip-path-4)">
              <path id="Trazado_205748" data-name="Trazado 205748" d="M1400.349,1199.8h-32.48a1.713,1.713,0,0,1-1.708-1.707v-1.707a1.713,1.713,0,0,1,1.708-1.708h32.48a1.713,1.713,0,0,1,1.708,1.708v1.707a1.713,1.713,0,0,1-1.708,1.707" transform="translate(-1366.162 -1194.678)" fill="#99bfd6"/>
            </g>
          </g>
        </g>
        <g id="Grupo_147717" data-name="Grupo 147717" transform="translate(242.737 221.152)" opacity="0.54">
          <g id="Grupo_147716" data-name="Grupo 147716">
            <g id="Grupo_147715" data-name="Grupo 147715" clip-path="url(#clip-path-4)">
              <path id="Trazado_205749" data-name="Trazado 205749" d="M1400.349,1249.8h-32.48a1.713,1.713,0,0,1-1.708-1.708v-1.707a1.713,1.713,0,0,1,1.708-1.708h32.48a1.713,1.713,0,0,1,1.708,1.708v1.707a1.713,1.713,0,0,1-1.708,1.708" transform="translate(-1366.162 -1244.678)" fill="#99bfd6"/>
            </g>
          </g>
        </g>
        <g id="Grupo_147720" data-name="Grupo 147720" transform="translate(143.007 29.638)">
          <g id="Grupo_147719" data-name="Grupo 147719">
            <g id="Grupo_147718" data-name="Grupo 147718" clip-path="url(#clip-path-14)">
              <path id="Trazado_205750" data-name="Trazado 205750" d="M888.726,172.672h-81.9a1.96,1.96,0,0,1-1.954-1.954v-1.954a1.96,1.96,0,0,1,1.954-1.954h81.9a1.96,1.96,0,0,1,1.954,1.954v1.954a1.96,1.96,0,0,1-1.954,1.954" transform="translate(-804.868 -166.81)" fill="#ffa400"/>
            </g>
          </g>
        </g>
        <rect id="Rectángulo_45776" data-name="Rectángulo 45776" width="177.323" height="0.888" transform="translate(100.564 41.577)" fill="#d6e0e5"/>
        <g id="Grupo_147723" data-name="Grupo 147723" transform="translate(100.595 91.447)" opacity="0.54">
          <g id="Grupo_147722" data-name="Grupo 147722">
            <g id="Grupo_147721" data-name="Grupo 147721" clip-path="url(#clip-path-3)">
              <path id="Trazado_205751" data-name="Trazado 205751" d="M639.439,519.8H567.87a1.712,1.712,0,0,1-1.708-1.707v-1.707a1.712,1.712,0,0,1,1.708-1.707h71.569a1.713,1.713,0,0,1,1.708,1.707v1.707a1.713,1.713,0,0,1-1.708,1.707" transform="translate(-566.162 -514.678)" fill="#99bfd6"/>
            </g>
          </g>
        </g>
        <path id="Trazado_205752" data-name="Trazado 205752" d="M639.439,575.856H567.87a1.713,1.713,0,0,1-1.708-1.708v-1.707a1.713,1.713,0,0,1,1.708-1.708h71.569a1.713,1.713,0,0,1,1.708,1.708v1.707a1.713,1.713,0,0,1-1.708,1.708" transform="translate(-465.567 -469.327)" fill="#dde9ed"/>
        <path id="Trazado_205753" data-name="Trazado 205753" d="M622.364,631.912H567.87a1.713,1.713,0,0,1-1.708-1.708V628.5a1.713,1.713,0,0,1,1.708-1.708h54.495a1.713,1.713,0,0,1,1.707,1.708V630.2a1.713,1.713,0,0,1-1.707,1.708" transform="translate(-465.567 -515.423)" fill="#dde9ed"/>
        <rect id="Rectángulo_45778" data-name="Rectángulo 45778" width="177.323" height="0.888" transform="translate(100.564 82.443)" fill="#d6e0e5"/>
        <g id="Grupo_147726" data-name="Grupo 147726" transform="translate(100.595 132.313)" opacity="0.54">
          <g id="Grupo_147725" data-name="Grupo 147725">
            <g id="Grupo_147724" data-name="Grupo 147724" clip-path="url(#clip-path-3)">
              <path id="Trazado_205754" data-name="Trazado 205754" d="M639.439,749.8H567.87a1.712,1.712,0,0,1-1.708-1.707v-1.707a1.713,1.713,0,0,1,1.708-1.708h71.569a1.713,1.713,0,0,1,1.708,1.708v1.707a1.713,1.713,0,0,1-1.708,1.707" transform="translate(-566.162 -744.678)" fill="#99bfd6"/>
            </g>
          </g>
        </g>
        <path id="Trazado_205755" data-name="Trazado 205755" d="M639.439,805.856H567.87a1.713,1.713,0,0,1-1.708-1.707v-1.707a1.713,1.713,0,0,1,1.708-1.708h71.569a1.713,1.713,0,0,1,1.708,1.708v1.707a1.713,1.713,0,0,1-1.708,1.707" transform="translate(-465.567 -658.461)" fill="#dde9ed"/>
        <path id="Trazado_205756" data-name="Trazado 205756" d="M622.364,861.912H567.87a1.713,1.713,0,0,1-1.708-1.708V858.5a1.713,1.713,0,0,1,1.708-1.708h54.495a1.713,1.713,0,0,1,1.707,1.708V860.2a1.713,1.713,0,0,1-1.707,1.708" transform="translate(-465.567 -704.557)" fill="#dde9ed"/>
        <rect id="Rectángulo_45780" data-name="Rectángulo 45780" width="177.323" height="0.888" transform="translate(100.564 123.309)" fill="#d6e0e5"/>
        <g id="Grupo_147729" data-name="Grupo 147729" transform="translate(100.595 173.179)" opacity="0.54">
          <g id="Grupo_147728" data-name="Grupo 147728">
            <g id="Grupo_147727" data-name="Grupo 147727" clip-path="url(#clip-path-3)">
              <path id="Trazado_205757" data-name="Trazado 205757" d="M639.439,979.8H567.87a1.712,1.712,0,0,1-1.708-1.707v-1.707a1.712,1.712,0,0,1,1.708-1.707h71.569a1.713,1.713,0,0,1,1.708,1.707v1.707a1.713,1.713,0,0,1-1.708,1.707" transform="translate(-566.162 -974.678)" fill="#99bfd6"/>
            </g>
          </g>
        </g>
        <path id="Trazado_205758" data-name="Trazado 205758" d="M639.439,1035.856H567.87a1.713,1.713,0,0,1-1.708-1.708v-1.707a1.713,1.713,0,0,1,1.708-1.708h71.569a1.713,1.713,0,0,1,1.708,1.708v1.707a1.713,1.713,0,0,1-1.708,1.708" transform="translate(-465.567 -847.595)" fill="#dde9ed"/>
        <path id="Trazado_205759" data-name="Trazado 205759" d="M622.364,1091.912H567.87a1.713,1.713,0,0,1-1.708-1.708V1088.5a1.712,1.712,0,0,1,1.708-1.707h54.495a1.712,1.712,0,0,1,1.707,1.707v1.707a1.713,1.713,0,0,1-1.707,1.708" transform="translate(-465.567 -893.691)" fill="#dde9ed"/>
        <rect id="Rectángulo_45782" data-name="Rectángulo 45782" width="177.323" height="0.888" transform="translate(100.564 164.175)" fill="#d6e0e5"/>
        <rect id="Rectángulo_45783" data-name="Rectángulo 45783" width="177.323" height="0.888" transform="translate(100.564 205.041)" fill="#d6e0e5"/>
        <path id="Trazado_205760" data-name="Trazado 205760" d="M754.419,428.047s2.154-10.566,4.506-10.5c1.9.056,5.09,5.661,5.09,5.661l-7.973,7.712Z" transform="translate(-620.375 -343.361)" fill="#e7b29c"/>
        <path id="Trazado_205761" data-name="Trazado 205761" d="M159.295,863.607s5.367,5.369,7.719,5.375c1.335,0,3.905-2.689,3.561-3.979-.716-2.681-10.539-3.483-10.539-3.483Z" transform="translate(-130.992 -708.448)" fill="#e7b29c"/>
        <path id="Trazado_205762" data-name="Trazado 205762" d="M420.985,1631.665v11.127h17.8l-13.352-4.451-2.225-10.014Z" transform="translate(-346.185 -1339.009)" fill="#061323"/>
        <path id="Trazado_205763" data-name="Trazado 205763" d="M227.062,1631.343,230.4,1644.7H219.273l3.338-11.127Z" transform="translate(-180.313 -1341.489)" fill="#061323"/>
        <path id="Trazado_205764" data-name="Trazado 205764" d="M244.865,1056.718l-8.9,62.312-5.175,40.056H219.273l3.338-43.4-3.338-66.763Z" transform="translate(-180.313 -862.558)" fill="#061323"/>
        <path id="Trazado_205765" data-name="Trazado 205765" d="M373.389,1011.355l12.24,54.523-15.345,62.889h-5.564l7.556-58.438-18.36-43.766Z" transform="translate(-291.034 -831.66)" fill="#09213d"/>
        <path id="Trazado_205766" data-name="Trazado 205766" d="M319.474,434.363a11.683,11.683,0,1,0,11.683-11.683,11.683,11.683,0,0,0-11.683,11.683" transform="translate(-262.71 -347.579)" fill="#e7b29c"/>
        <path id="Trazado_205767" data-name="Trazado 205767" d="M319.474,511.6V491.568l19.04,8.516L333.939,511.6Z" transform="translate(-262.71 -404.227)" fill="#e7b29c"/>
        <path id="Trazado_205768" data-name="Trazado 205768" d="M322.669,422.68c4.084,0,7.552,3.2,8.876,7.681a10.558,10.558,0,0,0-4.842,14.557,7.952,7.952,0,0,1-4.035,1.129c-5.224,0-9.458-5.231-9.458-11.684s4.234-11.683,9.458-11.683" transform="translate(-257.56 -347.579)" fill="#181626"/>
        <path id="Trazado_205769" data-name="Trazado 205769" d="M322.113,497.544h-7.789l-1.113-12.24Z" transform="translate(-257.56 -399.077)" fill="#181626"/>
        <path id="Trazado_205770" data-name="Trazado 205770" d="M366.079,1000.09H345.06l-6.8-11.672,24.479-20.9Z" transform="translate(-278.16 -795.612)" fill="#061323"/>
        <path id="Trazado_205771" data-name="Trazado 205771" d="M294.423,589.956c0,2.458,5.231,4.451,11.684,4.451s11.683-1.993,11.683-4.451-5.231-4.451-11.683-4.451-11.684,1.993-11.684,4.451" transform="translate(-242.11 -481.474)" fill="#cad1e0"/>
        <rect id="Rectángulo_45784" data-name="Rectángulo 45784" width="54.523" height="93.468" transform="translate(35.622 107.369)" fill="#0a2346"/>
        <path id="Trazado_205772" data-name="Trazado 205772" d="M497.049,487.137l21.99-9.126,23.808-16.187L545,468.667s-10.383,12.459-18.689,19.727c-9.707,8.493-31.484,23.775-31.484,23.775Z" transform="translate(-406.905 -379.768)" fill="#0a2346"/>
        <path id="Trazado_205773" data-name="Trazado 205773" d="M35.622,604.3S.882,617.051.015,627.662c-.769,9.419,27.818,25.592,27.818,25.592l3.338-3.338s-8.9-11.127-14.465-16.691c-5.507-5.508,22.254-7.139,22.254-7.139Z" transform="translate(0 -496.926)" fill="#0a2346"/>
        <path id="Trazado_205774" data-name="Trazado 205774" d="M200.486,897.5a33.245,33.245,0,0,1,18.36-5.13c12.7,0,23.285,6.168,25.651,14.344-4.279-5.862-13.159-9.893-23.426-9.893-8.36,0-15.8,2.674-20.585,6.832Z" transform="translate(-164.864 -733.814)" fill="#061323"/>
        <path id="Trazado_205775" data-name="Trazado 205775" d="M348.276,407.644s3.338-2.225,3.338-5.563-4.451-4.451-4.451-4.451l-8.9,7.962Z" transform="translate(-278.16 -326.98)" fill="#181626"/>
        <path id="Trazado_205776" data-name="Trazado 205776" d="M791.355,395.152l-8.306,4.153v4.153Z" transform="translate(-643.918 -324.942)" fill="#e7b29c"/>
      </g>
    </g>
  </g>
</svg>
