<svg xmlns="http://www.w3.org/2000/svg" xmlns:xlink="http://www.w3.org/1999/xlink" width="1600" height="220" viewBox="0 0 1600 220"><defs><linearGradient id="a" x1="0.536" y1="0.145" x2="0" y2="1" gradientUnits="objectBoundingBox"><stop offset="0" stop-color="#16697a" stop-opacity="0"/><stop offset="1" stop-color="#0c0a3e"/></linearGradient></defs><g transform="translate(0 -71)"><rect width="1600" height="220" transform="translate(0 71)" fill="#16697a"/><rect width="1600" height="220" transform="translate(0 71)" fill="url(#a)"/><g transform="translate(103.447 268.104) rotate(180)"><path d="M.035.07A.035.035,0,0,0,.07.035.036.036,0,0,0,.035,0,.036.036,0,0,0,0,.035.035.035,0,0,0,.035.07" transform="translate(75.693 0.035)" fill="#92bfb1"/><path d="M.069.14A.071.071,0,0,0,.14.069.071.071,0,0,0,.069,0a.07.07,0,0,0,0,.14" transform="translate(81.962 0)" fill="#92bfb1"/><path d="M.069.14A.071.071,0,0,0,.14.069.07.07,0,0,0,.069,0a.07.07,0,0,0,0,.14" transform="translate(88.268 0)" fill="#92bfb1"/><path d="M.069.14A.071.071,0,0,0,.14.069.071.071,0,0,0,.069,0a.07.07,0,0,0,0,.14" transform="translate(94.573 0)" fill="#92bfb1"/><path d="M.036.07A.035.035,0,0,0,.071.035.036.036,0,0,0,0,.035.035.035,0,0,0,.036.07" transform="translate(100.911 0.035)" fill="#92bfb1"/><path d="M.087.175A.088.088,0,1,0,0,.088.087.087,0,0,0,.087.175" transform="translate(56.726 6.287)" fill="#92bfb1"/><path d="M.193.384A.192.192,0,1,0,0,.192.192.192,0,0,0,.193.384" transform="translate(62.925 6.183)" fill="#92bfb1"/><path d="M.262.524A.262.262,0,1,0,0,.262.262.262,0,0,0,.262.524" transform="translate(69.16 6.113)" fill="#92bfb1"/><path d="M.28.559A.28.28,0,1,0,0,.28a.28.28,0,0,0,.28.28" transform="translate(75.448 6.094)" fill="#92bfb1"/><path d="M.28.559A.28.28,0,1,0,0,.28a.28.28,0,0,0,.28.28" transform="translate(81.752 6.094)" fill="#92bfb1"/><path d="M.28.559A.28.28,0,1,0,0,.28a.28.28,0,0,0,.28.28" transform="translate(88.058 6.094)" fill="#92bfb1"/><path d="M.28.559A.28.28,0,1,0,0,.28a.28.28,0,0,0,.28.28" transform="translate(94.362 6.094)" fill="#92bfb1"/><path d="M.281.559A.28.28,0,1,0,0,.28a.28.28,0,0,0,.281.28" transform="translate(100.666 6.094)" fill="#92bfb1"/><path d="M.1.21a.105.105,0,1,0-.1-.1.1.1,0,0,0,.1.1" transform="translate(44.1 12.573)" fill="#92bfb1"/><path d="M.227.455A.227.227,0,1,0,0,.228.227.227,0,0,0,.227.455" transform="translate(50.282 12.451)" fill="#92bfb1"/><path d="M.28.559A.28.28,0,1,0,0,.28a.28.28,0,0,0,.28.28" transform="translate(56.533 12.399)" fill="#92bfb1"/><path d="M.3.595A.3.3,0,1,0,0,.3a.3.3,0,0,0,.3.3" transform="translate(62.821 12.381)" fill="#92bfb1"/><path d="M.315.63A.315.315,0,1,0,0,.315.315.315,0,0,0,.315.63" transform="translate(69.108 12.364)" fill="#92bfb1"/><path d="M.315.63A.315.315,0,1,0,0,.315.315.315,0,0,0,.315.63" transform="translate(75.412 12.364)" fill="#92bfb1"/><path d="M.332.664A.332.332,0,1,0,0,.332.332.332,0,0,0,.332.664" transform="translate(81.7 12.347)" fill="#92bfb1"/><path d="M.333.664A.332.332,0,1,0,0,.332.332.332,0,0,0,.333.664" transform="translate(88.005 12.347)" fill="#92bfb1"/><path d="M.333.664A.332.332,0,1,0,0,.332.332.332,0,0,0,.333.664" transform="translate(94.31 12.347)" fill="#92bfb1"/><path d="M.316.63A.315.315,0,1,0,0,.315.315.315,0,0,0,.316.63" transform="translate(100.631 12.364)" fill="#92bfb1"/><path d="M.018.035A.017.017,0,0,0,.035.018.017.017,0,0,0,.018,0a.018.018,0,1,0,0,.035" transform="translate(31.577 18.967)" fill="#92bfb1"/><path d="M.193.384A.192.192,0,1,0,0,.192.192.192,0,0,0,.193.384" transform="translate(37.706 18.793)" fill="#92bfb1"/><path d="M.28.559A.28.28,0,1,0,0,.28a.28.28,0,0,0,.28.28" transform="translate(43.925 18.704)" fill="#92bfb1"/><path d="M.3.595A.3.3,0,1,0,0,.3a.3.3,0,0,0,.3.3" transform="translate(50.211 18.687)" fill="#92bfb1"/><path d="M.333.664A.332.332,0,1,0,0,.332.332.332,0,0,0,.333.664" transform="translate(56.479 18.653)" fill="#92bfb1"/><path d="M.349.7A.35.35,0,1,0,0,.35.35.35,0,0,0,.349.7" transform="translate(62.769 18.634)" fill="#92bfb1"/><path d="M.384.77A.385.385,0,1,0,0,.385.384.384,0,0,0,.384.77" transform="translate(69.039 18.599)" fill="#92bfb1"/><path d="M.4.8A.4.4,0,1,0,0,.4.4.4,0,0,0,.4.8" transform="translate(75.326 18.581)" fill="#92bfb1"/><path d="M.42.839A.42.42,0,1,0,0,.42a.419.419,0,0,0,.42.42" transform="translate(81.613 18.565)" fill="#92bfb1"/><path d="M.42.839A.42.42,0,1,0,0,.42a.419.419,0,0,0,.42.42" transform="translate(87.918 18.565)" fill="#92bfb1"/><path d="M.419.839A.42.42,0,1,0,0,.42a.419.419,0,0,0,.419.42" transform="translate(94.222 18.565)" fill="#92bfb1"/><path d="M.4.8A.4.4,0,1,0,0,.4.4.4,0,0,0,.4.8" transform="translate(100.544 18.581)" fill="#92bfb1"/><path d="M.035.07A.035.035,0,1,0,0,.035.035.035,0,0,0,.035.07" transform="translate(25.254 25.254)" fill="#92bfb1"/><path d="M.227.455A.227.227,0,1,0,0,.228.227.227,0,0,0,.227.455" transform="translate(31.368 25.061)" fill="#92bfb1"/><path d="M.28.559A.28.28,0,1,0,0,.28a.28.28,0,0,0,.28.28" transform="translate(37.619 25.01)" fill="#92bfb1"/><path d="M.315.63A.315.315,0,1,0,0,.315.315.315,0,0,0,.315.63" transform="translate(43.889 24.974)" fill="#92bfb1"/><path d="M.367.734A.367.367,0,1,0,0,.367.367.367,0,0,0,.367.734" transform="translate(50.143 24.92)" fill="#92bfb1"/><path d="M.4.8A.4.4,0,1,0,0,.4.4.4,0,0,0,.4.8" transform="translate(56.411 24.887)" fill="#92bfb1"/><path d="M.455.91A.455.455,0,1,0,0,.455.455.455,0,0,0,.455.91" transform="translate(62.663 24.834)" fill="#92bfb1"/><path d="M.489.979A.489.489,0,1,0,0,.489a.489.489,0,0,0,.489.49" transform="translate(68.934 24.799)" fill="#92bfb1"/><path d="M.524,1.049A.525.525,0,1,0,0,.525a.524.524,0,0,0,.524.524" transform="translate(75.204 24.764)" fill="#92bfb1"/><path d="M.542,1.084A.542.542,0,1,0,0,.542a.542.542,0,0,0,.542.542" transform="translate(81.49 24.747)" fill="#92bfb1"/><path d="M.56,1.119A.559.559,0,1,0,0,.559a.559.559,0,0,0,.56.559" transform="translate(87.778 24.729)" fill="#92bfb1"/><path d="M.542,1.084A.542.542,0,1,0,0,.542a.542.542,0,0,0,.542.542" transform="translate(94.101 24.747)" fill="#92bfb1"/><path d="M.525,1.049A.525.525,0,1,0,0,.525a.524.524,0,0,0,.525.524" transform="translate(100.421 24.764)" fill="#92bfb1"/><path d="M.018.035A.018.018,0,0,0,.035.018.017.017,0,0,0,.018,0a.018.018,0,0,0,0,.035" transform="translate(18.966 31.575)" fill="#92bfb1"/><path d="M.227.455A.227.227,0,1,0,0,.228.227.227,0,0,0,.227.455" transform="translate(25.062 31.366)" fill="#92bfb1"/><path d="M.28.559A.28.28,0,1,0,0,.28a.28.28,0,0,0,.28.28" transform="translate(31.315 31.314)" fill="#92bfb1"/><path d="M.333.664A.332.332,0,1,0,0,.332.332.332,0,0,0,.333.664" transform="translate(37.567 31.261)" fill="#92bfb1"/><path d="M.384.77A.385.385,0,1,0,0,.385.384.384,0,0,0,.384.77" transform="translate(43.82 31.208)" fill="#92bfb1"/><path d="M.437.874A.437.437,0,1,0,0,.437.437.437,0,0,0,.437.874" transform="translate(50.072 31.157)" fill="#92bfb1"/><path d="M.506,1.014A.507.507,0,1,0,0,.508a.507.507,0,0,0,.506.507" transform="translate(56.306 31.087)" fill="#92bfb1"/><path d="M.577,1.154A.577.577,0,1,0,0,.577a.577.577,0,0,0,.577.577" transform="translate(62.541 31.017)" fill="#92bfb1"/><path d="M.63,1.259A.629.629,0,1,0,0,.629a.629.629,0,0,0,.63.63" transform="translate(68.792 30.965)" fill="#92bfb1"/><path d="M.682,1.364A.682.682,0,1,0,0,.683a.682.682,0,0,0,.682.682" transform="translate(75.046 30.911)" fill="#92bfb1"/><path d="M.7,1.4A.7.7,0,1,0,0,.7a.7.7,0,0,0,.7.7" transform="translate(81.334 30.894)" fill="#92bfb1"/><path d="M.717,1.434A.717.717,0,1,0,0,.717a.717.717,0,0,0,.717.717" transform="translate(87.619 30.877)" fill="#92bfb1"/><path d="M.7,1.4A.7.7,0,1,0,0,.7a.7.7,0,0,0,.7.7" transform="translate(93.943 30.894)" fill="#92bfb1"/><path d="M.683,1.364A.682.682,0,1,0,0,.683a.682.682,0,0,0,.683.682" transform="translate(100.265 30.911)" fill="#92bfb1"/><path d="M.193.384A.192.192,0,1,0,0,.192.192.192,0,0,0,.193.384" transform="translate(18.792 37.706)" fill="#92bfb1"/><path d="M.28.559A.28.28,0,1,0,0,.28a.28.28,0,0,0,.28.28" transform="translate(25.009 37.619)" fill="#92bfb1"/><path d="M.332.664A.332.332,0,1,0,0,.332.332.332,0,0,0,.332.664" transform="translate(31.262 37.566)" fill="#92bfb1"/><path d="M.384.769A.384.384,0,1,0,0,.384.384.384,0,0,0,.384.769" transform="translate(37.515 37.515)" fill="#92bfb1"/><path d="M.472.944A.472.472,0,1,0,0,.471.472.472,0,0,0,.472.944" transform="translate(43.731 37.426)" fill="#92bfb1"/><path d="M.559,1.119A.559.559,0,1,0,0,.559a.559.559,0,0,0,.559.559" transform="translate(49.949 37.339)" fill="#92bfb1"/><path d="M.646,1.294A.647.647,0,1,0,0,.647a.646.646,0,0,0,.646.646" transform="translate(56.166 37.252)" fill="#92bfb1"/><path d="M.717,1.434A.717.717,0,1,0,0,.717a.717.717,0,0,0,.717.717" transform="translate(62.4 37.18)" fill="#92bfb1"/><path d="M.8,1.609A.8.8,0,1,0,0,.8a.8.8,0,0,0,.8.8" transform="translate(68.619 37.093)" fill="#92bfb1"/><path d="M.857,1.713A.857.857,0,1,0,0,.857a.856.856,0,0,0,.857.857" transform="translate(74.871 37.04)" fill="#92bfb1"/><path d="M.892,1.783A.891.891,0,1,0,0,.891a.891.891,0,0,0,.892.892" transform="translate(81.141 37.008)" fill="#92bfb1"/><path d="M.909,1.818A.909.909,0,1,0,0,.909a.91.91,0,0,0,.909.909" transform="translate(87.427 36.989)" fill="#92bfb1"/><path d="M.892,1.783A.891.891,0,1,0,0,.891a.892.892,0,0,0,.892.892" transform="translate(93.75 37.008)" fill="#92bfb1"/><path d="M.857,1.713A.857.857,0,1,0,0,.857a.856.856,0,0,0,.857.857" transform="translate(100.091 37.04)" fill="#92bfb1"/><path d="M.1.21a.105.105,0,1,0-.1-.1.1.1,0,0,0,.1.1" transform="translate(12.575 44.097)" fill="#92bfb1"/><path d="M.28.559A.28.28,0,1,0,0,.28a.28.28,0,0,0,.28.28" transform="translate(18.704 43.923)" fill="#92bfb1"/><path d="M.315.63A.315.315,0,1,0,0,.315.315.315,0,0,0,.315.63" transform="translate(24.974 43.888)" fill="#92bfb1"/><path d="M.384.77A.385.385,0,1,0,0,.385.384.384,0,0,0,.384.77" transform="translate(31.21 43.818)" fill="#92bfb1"/><path d="M.472.944A.472.472,0,1,0,0,.471.472.472,0,0,0,.472.944" transform="translate(37.427 43.731)" fill="#92bfb1"/><path d="M.559,1.119A.559.559,0,1,0,0,.559a.559.559,0,0,0,.559.559" transform="translate(43.645 43.643)" fill="#92bfb1"/><path d="M.682,1.363A.682.682,0,1,0,0,.682a.682.682,0,0,0,.682.682" transform="translate(49.827 43.522)" fill="#92bfb1"/><path d="M.786,1.574A.787.787,0,1,0,0,.786a.787.787,0,0,0,.786.787" transform="translate(56.026 43.417)" fill="#92bfb1"/><path d="M.892,1.784A.892.892,0,1,0,0,.892a.892.892,0,0,0,.892.892" transform="translate(62.225 43.311)" fill="#92bfb1"/><path d="M1,1.993A1,1,0,1,0,0,1a1,1,0,0,0,1,1" transform="translate(68.426 43.205)" fill="#92bfb1"/><path d="M1.067,2.133A1.066,1.066,0,1,0,0,1.067,1.067,1.067,0,0,0,1.067,2.133" transform="translate(74.66 43.137)" fill="#92bfb1"/><path d="M1.119,2.238A1.119,1.119,0,1,0,0,1.119,1.118,1.118,0,0,0,1.119,2.238" transform="translate(80.913 43.084)" fill="#92bfb1"/><path d="M1.136,2.273A1.136,1.136,0,1,0,0,1.136,1.136,1.136,0,0,0,1.136,2.273" transform="translate(87.201 43.066)" fill="#92bfb1"/><path d="M1.119,2.238A1.119,1.119,0,1,0,0,1.119,1.118,1.118,0,0,0,1.119,2.238" transform="translate(93.523 43.084)" fill="#92bfb1"/><path d="M1.067,2.133A1.066,1.066,0,1,0,0,1.067,1.067,1.067,0,0,0,1.067,2.133" transform="translate(99.88 43.137)" fill="#92bfb1"/><path d="M.227.455A.227.227,0,1,0,0,.228.227.227,0,0,0,.227.455" transform="translate(12.453 50.28)" fill="#92bfb1"/><path d="M.3.595A.3.3,0,1,0,0,.3a.3.3,0,0,0,.3.3" transform="translate(18.688 50.211)" fill="#92bfb1"/><path d="M.367.734A.367.367,0,1,0,0,.368.367.367,0,0,0,.367.734" transform="translate(24.923 50.14)" fill="#92bfb1"/><path d="M.437.874A.437.437,0,1,0,0,.437.437.437,0,0,0,.437.874" transform="translate(31.158 50.07)" fill="#92bfb1"/><path d="M.559,1.119A.559.559,0,1,0,0,.559a.559.559,0,0,0,.559.559" transform="translate(37.339 49.947)" fill="#92bfb1"/><path d="M.682,1.363A.682.682,0,1,0,0,.682a.681.681,0,0,0,.682.682" transform="translate(43.523 49.826)" fill="#92bfb1"/><path d="M.8,1.609A.8.8,0,1,0,0,.8a.8.8,0,0,0,.8.8" transform="translate(49.705 49.704)" fill="#92bfb1"/><path d="M.944,1.888A.944.944,0,1,0,0,.945a.944.944,0,0,0,.944.944" transform="translate(55.869 49.564)" fill="#92bfb1"/><path d="M1.084,2.168A1.084,1.084,0,1,0,0,1.085,1.084,1.084,0,0,0,1.084,2.168" transform="translate(62.034 49.424)" fill="#92bfb1"/><path d="M1.207,2.413A1.206,1.206,0,1,0,0,1.206,1.207,1.207,0,0,0,1.207,2.413" transform="translate(68.216 49.302)" fill="#92bfb1"/><path d="M1.311,2.623A1.311,1.311,0,1,0,0,1.311,1.311,1.311,0,0,0,1.311,2.623" transform="translate(74.417 49.196)" fill="#92bfb1"/><path d="M1.363,2.728A1.364,1.364,0,1,0,0,1.364,1.363,1.363,0,0,0,1.363,2.728" transform="translate(80.669 49.144)" fill="#92bfb1"/><path d="M1.4,2.8A1.4,1.4,0,1,0,0,1.4,1.4,1.4,0,0,0,1.4,2.8" transform="translate(86.939 49.108)" fill="#92bfb1"/><path d="M1.381,2.763A1.381,1.381,0,1,0,0,1.382,1.381,1.381,0,0,0,1.381,2.763" transform="translate(93.261 49.127)" fill="#92bfb1"/><path d="M1.311,2.623A1.311,1.311,0,1,0,0,1.311,1.312,1.312,0,0,0,1.311,2.623" transform="translate(99.636 49.196)" fill="#92bfb1"/><path d="M.087.175A.086.086,0,0,0,.173.088.087.087,0,1,0,0,.088.087.087,0,0,0,.087.175" transform="translate(6.289 56.726)" fill="#92bfb1"/><path d="M.28.559A.28.28,0,1,0,0,.28a.28.28,0,0,0,.28.28" transform="translate(12.4 56.532)" fill="#92bfb1"/><path d="M.332.664A.332.332,0,1,0,0,.332.332.332,0,0,0,.332.664" transform="translate(18.652 56.481)" fill="#92bfb1"/><path d="M.4.8A.4.4,0,1,0,0,.4.4.4,0,0,0,.4.8" transform="translate(24.888 56.41)" fill="#92bfb1"/><path d="M.507,1.014A.507.507,0,1,0,0,.508a.507.507,0,0,0,.507.507" transform="translate(31.088 56.306)" fill="#92bfb1"/><path d="M.646,1.294A.647.647,0,1,0,0,.647a.646.646,0,0,0,.646.646" transform="translate(37.253 56.165)" fill="#92bfb1"/><path d="M.786,1.574A.787.787,0,1,0,0,.787a.787.787,0,0,0,.786.786" transform="translate(43.417 56.026)" fill="#92bfb1"/><path d="M.944,1.888A.944.944,0,1,0,0,.945a.944.944,0,0,0,.944.944" transform="translate(49.564 55.867)" fill="#92bfb1"/><path d="M1.119,2.238A1.119,1.119,0,1,0,0,1.119,1.119,1.119,0,0,0,1.119,2.238" transform="translate(55.694 55.694)" fill="#92bfb1"/><path d="M1.276,2.552A1.276,1.276,0,1,0,0,1.276,1.276,1.276,0,0,0,1.276,2.552" transform="translate(61.84 55.537)" fill="#92bfb1"/><path d="M1.434,2.867A1.434,1.434,0,1,0,0,1.434,1.433,1.433,0,0,0,1.434,2.867" transform="translate(67.989 55.379)" fill="#92bfb1"/><path d="M1.573,3.147A1.574,1.574,0,1,0,0,1.574,1.573,1.573,0,0,0,1.573,3.147" transform="translate(74.154 55.239)" fill="#92bfb1"/><path d="M1.643,3.287A1.643,1.643,0,1,0,0,1.644,1.643,1.643,0,0,0,1.643,3.287" transform="translate(80.389 55.169)" fill="#92bfb1"/><path d="M1.678,3.356A1.678,1.678,0,1,0,0,1.678,1.678,1.678,0,0,0,1.678,3.356" transform="translate(86.659 55.135)" fill="#92bfb1"/><path d="M1.661,3.322A1.661,1.661,0,1,0,0,1.662,1.66,1.66,0,0,0,1.661,3.322" transform="translate(92.981 55.151)" fill="#92bfb1"/><path d="M1.574,3.147A1.574,1.574,0,1,0,0,1.574,1.574,1.574,0,0,0,1.574,3.147" transform="translate(99.373 55.239)" fill="#92bfb1"/><path d="M.194.384A.192.192,0,1,0,0,.192.192.192,0,0,0,.194.384" transform="translate(6.182 62.926)" fill="#92bfb1"/><path d="M.3.595A.3.3,0,1,0,0,.3a.3.3,0,0,0,.3.3" transform="translate(12.382 62.82)" fill="#92bfb1"/><path d="M.349.7A.35.35,0,1,0,0,.35.35.35,0,0,0,.349.7" transform="translate(18.636 62.769)" fill="#92bfb1"/><path d="M.455.909A.455.455,0,1,0,0,.455.454.454,0,0,0,.455.909" transform="translate(24.835 62.662)" fill="#92bfb1"/><path d="M.577,1.154A.577.577,0,1,0,0,.577a.577.577,0,0,0,.577.577" transform="translate(31.017 62.541)" fill="#92bfb1"/><path d="M.717,1.434A.717.717,0,1,0,0,.717a.717.717,0,0,0,.717.717" transform="translate(37.183 62.4)" fill="#92bfb1"/><path d="M.892,1.783A.891.891,0,1,0,0,.891a.892.892,0,0,0,.892.892" transform="translate(43.312 62.226)" fill="#92bfb1"/><path d="M1.083,2.168A1.084,1.084,0,1,0,0,1.084,1.084,1.084,0,0,0,1.083,2.168" transform="translate(49.426 62.032)" fill="#92bfb1"/><path d="M1.276,2.552A1.276,1.276,0,1,0,0,1.276,1.276,1.276,0,0,0,1.276,2.552" transform="translate(55.536 61.841)" fill="#92bfb1"/><path d="M1.486,2.972A1.486,1.486,0,1,0,0,1.486,1.486,1.486,0,0,0,1.486,2.972" transform="translate(61.632 61.631)" fill="#92bfb1"/><path d="M1.678,3.356A1.678,1.678,0,1,0,0,1.678,1.678,1.678,0,0,0,1.678,3.356" transform="translate(67.744 61.44)" fill="#92bfb1"/><path d="M1.836,3.671A1.836,1.836,0,1,0,0,1.836,1.835,1.835,0,0,0,1.836,3.671" transform="translate(73.892 61.282)" fill="#92bfb1"/><path d="M1.94,3.882A1.941,1.941,0,1,0,0,1.941a1.941,1.941,0,0,0,1.94,1.94" transform="translate(80.093 61.176)" fill="#92bfb1"/><path d="M1.975,3.951A1.975,1.975,0,1,0,0,1.975,1.975,1.975,0,0,0,1.975,3.951" transform="translate(86.361 61.141)" fill="#92bfb1"/><path d="M1.94,3.882A1.941,1.941,0,1,0,0,1.941a1.941,1.941,0,0,0,1.94,1.94" transform="translate(92.703 61.176)" fill="#92bfb1"/><path d="M1.854,3.706A1.853,1.853,0,1,0,0,1.853,1.853,1.853,0,0,0,1.854,3.706" transform="translate(99.092 61.264)" fill="#92bfb1"/><path d="M.263.524A.262.262,0,1,0,0,.262.262.262,0,0,0,.263.524" transform="translate(6.113 69.161)" fill="#92bfb1"/><path d="M.315.63A.315.315,0,1,0,0,.315.315.315,0,0,0,.315.63" transform="translate(12.365 69.107)" fill="#92bfb1"/><path d="M.384.77A.385.385,0,1,0,0,.385.384.384,0,0,0,.384.77" transform="translate(18.601 69.036)" fill="#92bfb1"/><path d="M.49.979A.489.489,0,1,0,0,.489a.49.49,0,0,0,.49.49" transform="translate(24.799 68.932)" fill="#92bfb1"/><path d="M.63,1.259A.629.629,0,1,0,0,.629a.63.63,0,0,0,.63.63" transform="translate(30.964 68.792)" fill="#92bfb1"/><path d="M.8,1.609A.8.8,0,1,0,0,.8a.8.8,0,0,0,.8.8" transform="translate(37.095 68.617)" fill="#92bfb1"/><path d="M1,1.993A1,1,0,1,0,0,1a1,1,0,0,0,1,1" transform="translate(43.207 68.425)" fill="#92bfb1"/><path d="M1.206,2.413A1.206,1.206,0,1,0,0,1.206,1.206,1.206,0,0,0,1.206,2.413" transform="translate(49.303 68.216)" fill="#92bfb1"/><path d="M1.434,2.867A1.434,1.434,0,1,0,0,1.434,1.433,1.433,0,0,0,1.434,2.867" transform="translate(55.38 67.988)" fill="#92bfb1"/><path d="M1.678,3.356A1.678,1.678,0,1,0,0,1.678,1.678,1.678,0,0,0,1.678,3.356" transform="translate(61.44 67.744)" fill="#92bfb1"/><path d="M1.906,3.811A1.906,1.906,0,1,0,0,1.905,1.906,1.906,0,0,0,1.906,3.811" transform="translate(67.516 67.516)" fill="#92bfb1"/><path d="M2.063,4.126A2.063,2.063,0,1,0,0,2.063,2.063,2.063,0,0,0,2.063,4.126" transform="translate(73.665 67.359)" fill="#92bfb1"/><path d="M2.168,4.335A2.168,2.168,0,1,0,0,2.167,2.168,2.168,0,0,0,2.168,4.335" transform="translate(79.865 67.255)" fill="#92bfb1"/><path d="M2.22,4.441A2.22,2.22,0,1,0,0,2.221a2.219,2.219,0,0,0,2.22,2.22" transform="translate(86.118 67.201)" fill="#92bfb1"/><path d="M2.186,4.37A2.185,2.185,0,1,0,0,2.185,2.186,2.186,0,0,0,2.186,4.37" transform="translate(92.456 67.237)" fill="#92bfb1"/><path d="M2.081,4.161A2.081,2.081,0,1,0,0,2.081a2.08,2.08,0,0,0,2.081,2.08" transform="translate(98.866 67.341)" fill="#92bfb1"/><path d="M.035.07A.035.035,0,0,0,.07.035.036.036,0,0,0,.035,0,.036.036,0,0,0,0,.035.035.035,0,0,0,.035.07" transform="translate(0.036 75.691)" fill="#92bfb1"/><path d="M.281.559A.28.28,0,1,0,0,.28a.28.28,0,0,0,.281.28" transform="translate(6.094 75.447)" fill="#92bfb1"/><path d="M.315.629A.314.314,0,1,0,0,.314.315.315,0,0,0,.315.629" transform="translate(12.365 75.412)" fill="#92bfb1"/><path d="M.4.8A.4.4,0,1,0,0,.4.4.4,0,0,0,.4.8" transform="translate(18.582 75.325)" fill="#92bfb1"/><path d="M.524,1.049A.525.525,0,1,0,0,.525a.524.524,0,0,0,.524.524" transform="translate(24.766 75.202)" fill="#92bfb1"/><path d="M.682,1.363A.682.682,0,1,0,0,.682a.682.682,0,0,0,.682.682" transform="translate(30.913 75.046)" fill="#92bfb1"/><path d="M.857,1.713A.857.857,0,1,0,0,.857a.856.856,0,0,0,.857.857" transform="translate(37.042 74.87)" fill="#92bfb1"/><path d="M1.066,2.133A1.066,1.066,0,1,0,0,1.067,1.067,1.067,0,0,0,1.066,2.133" transform="translate(43.138 74.66)" fill="#92bfb1"/><path d="M1.311,2.623A1.311,1.311,0,1,0,0,1.311,1.311,1.311,0,0,0,1.311,2.623" transform="translate(49.198 74.415)" fill="#92bfb1"/><path d="M1.574,3.147A1.574,1.574,0,1,0,0,1.574,1.573,1.573,0,0,0,1.574,3.147" transform="translate(55.24 74.154)" fill="#92bfb1"/><path d="M1.836,3.671A1.836,1.836,0,1,0,0,1.836,1.835,1.835,0,0,0,1.836,3.671" transform="translate(61.283 73.89)" fill="#92bfb1"/><path d="M2.062,4.126A2.063,2.063,0,1,0,0,2.063,2.063,2.063,0,0,0,2.062,4.126" transform="translate(67.36 73.664)" fill="#92bfb1"/><path d="M2.255,4.51A2.255,2.255,0,1,0,0,2.255,2.255,2.255,0,0,0,2.255,4.51" transform="translate(73.472 73.471)" fill="#92bfb1"/><path d="M2.413,4.825A2.413,2.413,0,1,0,0,2.413,2.413,2.413,0,0,0,2.413,4.825" transform="translate(79.62 73.315)" fill="#92bfb1"/><path d="M2.465,4.93A2.465,2.465,0,1,0,0,2.464,2.466,2.466,0,0,0,2.465,4.93" transform="translate(85.872 73.262)" fill="#92bfb1"/><path d="M2.413,4.825A2.413,2.413,0,1,0,0,2.413,2.413,2.413,0,0,0,2.413,4.825" transform="translate(92.23 73.315)" fill="#92bfb1"/><path d="M2.273,4.546A2.273,2.273,0,1,0,0,2.273,2.272,2.272,0,0,0,2.273,4.546" transform="translate(98.674 73.455)" fill="#92bfb1"/><path d="M.07.14A.07.07,0,1,0,0,.069.071.071,0,0,0,.07.14" transform="translate(0 81.963)" fill="#92bfb1"/><path d="M.281.559A.28.28,0,1,0,0,.28a.28.28,0,0,0,.281.28" transform="translate(6.094 81.752)" fill="#92bfb1"/><path d="M.332.664A.332.332,0,1,0,0,.332.333.333,0,0,0,.332.664" transform="translate(12.347 81.699)" fill="#92bfb1"/><path d="M.42.839A.42.42,0,1,0,0,.419a.419.419,0,0,0,.42.42" transform="translate(18.565 81.612)" fill="#92bfb1"/><path d="M.542,1.084A.542.542,0,1,0,0,.542a.542.542,0,0,0,.542.542" transform="translate(24.748 81.49)" fill="#92bfb1"/><path d="M.7,1.4A.7.7,0,1,0,0,.7a.7.7,0,0,0,.7.7" transform="translate(30.895 81.332)" fill="#92bfb1"/><path d="M.892,1.784A.892.892,0,1,0,0,.892a.891.891,0,0,0,.892.892" transform="translate(37.008 81.139)" fill="#92bfb1"/><path d="M1.119,2.238A1.119,1.119,0,1,0,0,1.119,1.119,1.119,0,0,0,1.119,2.238" transform="translate(43.085 80.913)" fill="#92bfb1"/><path d="M1.363,2.728A1.364,1.364,0,1,0,0,1.364,1.363,1.363,0,0,0,1.363,2.728" transform="translate(49.145 80.668)" fill="#92bfb1"/><path d="M1.643,3.287A1.643,1.643,0,1,0,0,1.644,1.643,1.643,0,0,0,1.643,3.287" transform="translate(55.17 80.388)" fill="#92bfb1"/><path d="M1.94,3.881A1.941,1.941,0,1,0,0,1.941a1.94,1.94,0,0,0,1.94,1.94" transform="translate(61.177 80.091)" fill="#92bfb1"/><path d="M2.168,4.336A2.168,2.168,0,1,0,0,2.168,2.168,2.168,0,0,0,2.168,4.336" transform="translate(67.255 79.863)" fill="#92bfb1"/><path d="M2.413,4.825A2.413,2.413,0,1,0,0,2.413,2.413,2.413,0,0,0,2.413,4.825" transform="translate(73.314 79.619)" fill="#92bfb1"/><path d="M2.605,5.21A2.6,2.6,0,1,0,0,2.6,2.606,2.606,0,0,0,2.605,5.21" transform="translate(79.427 79.426)" fill="#92bfb1"/><path d="M2.71,5.42A2.71,2.71,0,1,0,0,2.71,2.71,2.71,0,0,0,2.71,5.42" transform="translate(85.627 79.321)" fill="#92bfb1"/><path d="M2.623,5.245A2.622,2.622,0,1,0,0,2.622,2.623,2.623,0,0,0,2.623,5.245" transform="translate(92.019 79.409)" fill="#92bfb1"/><path d="M2.43,4.86A2.43,2.43,0,1,0,0,2.43,2.429,2.429,0,0,0,2.43,4.86" transform="translate(98.516 79.6)" fill="#92bfb1"/><path d="M.07.14A.07.07,0,1,0,0,.069.071.071,0,0,0,.07.14" transform="translate(0 88.267)" fill="#92bfb1"/><path d="M.281.559A.28.28,0,1,0,0,.28a.28.28,0,0,0,.281.28" transform="translate(6.094 88.058)" fill="#92bfb1"/><path d="M.332.664A.332.332,0,1,0,0,.331.333.333,0,0,0,.332.664" transform="translate(12.347 88.004)" fill="#92bfb1"/><path d="M.42.839A.42.42,0,1,0,0,.42a.42.42,0,0,0,.42.42" transform="translate(18.565 87.918)" fill="#92bfb1"/><path d="M.559,1.119A.559.559,0,1,0,0,.559a.559.559,0,0,0,.559.559" transform="translate(24.729 87.777)" fill="#92bfb1"/><path d="M.717,1.434A.717.717,0,1,0,0,.717a.717.717,0,0,0,.717.717" transform="translate(30.878 87.618)" fill="#92bfb1"/><path d="M.909,1.818A.909.909,0,1,0,0,.908a.91.91,0,0,0,.909.91" transform="translate(36.991 87.427)" fill="#92bfb1"/><path d="M1.136,2.273A1.136,1.136,0,1,0,0,1.136,1.136,1.136,0,0,0,1.136,2.273" transform="translate(43.067 87.2)" fill="#92bfb1"/><path d="M1.4,2.8A1.4,1.4,0,1,0,0,1.4,1.4,1.4,0,0,0,1.4,2.8" transform="translate(49.11 86.938)" fill="#92bfb1"/><path d="M1.678,3.356A1.678,1.678,0,1,0,0,1.678,1.678,1.678,0,0,0,1.678,3.356" transform="translate(55.134 86.659)" fill="#92bfb1"/><path d="M1.975,3.951A1.975,1.975,0,1,0,0,1.975,1.975,1.975,0,0,0,1.975,3.951" transform="translate(61.142 86.362)" fill="#92bfb1"/><path d="M2.22,4.441A2.22,2.22,0,1,0,0,2.221a2.22,2.22,0,0,0,2.22,2.22" transform="translate(67.202 86.115)" fill="#92bfb1"/><path d="M2.465,4.93A2.465,2.465,0,1,0,0,2.464,2.465,2.465,0,0,0,2.465,4.93" transform="translate(73.262 85.871)" fill="#92bfb1"/><path d="M2.71,5.42A2.71,2.71,0,1,0,0,2.71,2.71,2.71,0,0,0,2.71,5.42" transform="translate(79.323 85.626)" fill="#92bfb1"/><path d="M2.885,5.769A2.884,2.884,0,1,0,0,2.884,2.885,2.885,0,0,0,2.885,5.769" transform="translate(85.452 85.452)" fill="#92bfb1"/><path d="M2.745,5.489A2.745,2.745,0,1,0,0,2.744,2.745,2.745,0,0,0,2.745,5.489" transform="translate(91.897 85.592)" fill="#92bfb1"/><path d="M2.5,5A2.5,2.5,0,1,0,0,2.5,2.5,2.5,0,0,0,2.5,5" transform="translate(98.446 85.836)" fill="#92bfb1"/><path d="M.07.14A.07.07,0,1,0,0,.069.071.071,0,0,0,.07.14" transform="translate(0 94.571)" fill="#92bfb1"/><path d="M.281.559A.28.28,0,1,0,0,.28a.28.28,0,0,0,.281.28" transform="translate(6.094 94.361)" fill="#92bfb1"/><path d="M.332.664A.332.332,0,1,0,0,.332.333.333,0,0,0,.332.664" transform="translate(12.347 94.31)" fill="#92bfb1"/><path d="M.42.839A.42.42,0,1,0,0,.42a.419.419,0,0,0,.42.42" transform="translate(18.565 94.221)" fill="#92bfb1"/><path d="M.542,1.084A.542.542,0,1,0,0,.542a.542.542,0,0,0,.542.542" transform="translate(24.748 94.1)" fill="#92bfb1"/><path d="M.7,1.4A.7.7,0,1,0,0,.7a.7.7,0,0,0,.7.7" transform="translate(30.895 93.941)" fill="#92bfb1"/><path d="M.892,1.784A.892.892,0,1,0,0,.892a.891.891,0,0,0,.892.892" transform="translate(37.008 93.75)" fill="#92bfb1"/><path d="M1.119,2.238A1.119,1.119,0,1,0,0,1.119,1.119,1.119,0,0,0,1.119,2.238" transform="translate(43.085 93.522)" fill="#92bfb1"/><path d="M1.381,2.763A1.381,1.381,0,1,0,0,1.382,1.381,1.381,0,0,0,1.381,2.763" transform="translate(49.129 93.26)" fill="#92bfb1"/><path d="M1.661,3.322A1.661,1.661,0,1,0,0,1.662,1.66,1.66,0,0,0,1.661,3.322" transform="translate(55.152 92.98)" fill="#92bfb1"/><path d="M1.94,3.882A1.941,1.941,0,1,0,0,1.941a1.941,1.941,0,0,0,1.94,1.94" transform="translate(61.177 92.701)" fill="#92bfb1"/><path d="M2.186,4.37A2.185,2.185,0,1,0,0,2.185,2.186,2.186,0,0,0,2.186,4.37" transform="translate(67.237 92.456)" fill="#92bfb1"/><path d="M2.413,4.825A2.413,2.413,0,1,0,0,2.413,2.413,2.413,0,0,0,2.413,4.825" transform="translate(73.314 92.228)" fill="#92bfb1"/><path d="M2.622,5.245A2.622,2.622,0,1,0,0,2.622,2.623,2.623,0,0,0,2.622,5.245" transform="translate(79.41 92.019)" fill="#92bfb1"/><path d="M2.745,5.489A2.745,2.745,0,1,0,0,2.744,2.745,2.745,0,0,0,2.745,5.489" transform="translate(85.593 91.896)" fill="#92bfb1"/><path d="M2.639,5.28A2.64,2.64,0,1,0,0,2.64,2.64,2.64,0,0,0,2.639,5.28" transform="translate(92.003 92.001)" fill="#92bfb1"/><path d="M2.448,4.9A2.448,2.448,0,1,0,0,2.448,2.448,2.448,0,0,0,2.448,4.9" transform="translate(98.5 92.193)" fill="#92bfb1"/><path d="M.035.07a.035.035,0,1,0,0-.07A.035.035,0,0,0,0,.035.035.035,0,0,0,.035.07" transform="translate(0.036 100.911)" fill="#92bfb1"/><path d="M.281.559A.28.28,0,1,0,0,.28a.28.28,0,0,0,.281.28" transform="translate(6.094 100.666)" fill="#92bfb1"/><path d="M.315.63A.315.315,0,1,0,0,.315.315.315,0,0,0,.315.63" transform="translate(12.365 100.63)" fill="#92bfb1"/><path d="M.4.8A.4.4,0,1,0,0,.4.4.4,0,0,0,.4.8" transform="translate(18.582 100.544)" fill="#92bfb1"/><path d="M.524,1.049A.525.525,0,1,0,0,.525a.524.524,0,0,0,.524.524" transform="translate(24.766 100.42)" fill="#92bfb1"/><path d="M.682,1.364A.682.682,0,1,0,0,.683a.682.682,0,0,0,.682.682" transform="translate(30.913 100.263)" fill="#92bfb1"/><path d="M.857,1.713A.857.857,0,1,0,0,.857a.856.856,0,0,0,.857.857" transform="translate(37.042 100.089)" fill="#92bfb1"/><path d="M1.066,2.133A1.066,1.066,0,1,0,0,1.067,1.067,1.067,0,0,0,1.066,2.133" transform="translate(43.138 99.881)" fill="#92bfb1"/><path d="M1.311,2.623A1.311,1.311,0,1,0,0,1.311,1.311,1.311,0,0,0,1.311,2.623" transform="translate(49.198 99.633)" fill="#92bfb1"/><path d="M1.574,3.147A1.574,1.574,0,1,0,0,1.574,1.573,1.573,0,0,0,1.574,3.147" transform="translate(55.24 99.372)" fill="#92bfb1"/><path d="M1.853,3.706A1.853,1.853,0,1,0,0,1.853,1.853,1.853,0,0,0,1.853,3.706" transform="translate(61.265 99.092)" fill="#92bfb1"/><path d="M2.08,4.161A2.081,2.081,0,1,0,0,2.081a2.08,2.08,0,0,0,2.08,2.08" transform="translate(67.342 98.866)" fill="#92bfb1"/><path d="M2.273,4.546A2.273,2.273,0,1,0,0,2.273,2.272,2.272,0,0,0,2.273,4.546" transform="translate(73.455 98.672)" fill="#92bfb1"/><path d="M2.43,4.86A2.43,2.43,0,1,0,0,2.43,2.431,2.431,0,0,0,2.43,4.86" transform="translate(79.602 98.516)" fill="#92bfb1"/><path d="M2.5,5A2.5,2.5,0,1,0,0,2.5,2.5,2.5,0,0,0,2.5,5" transform="translate(85.838 98.446)" fill="#92bfb1"/><path d="M2.448,4.895A2.447,2.447,0,1,0,0,2.447,2.448,2.448,0,0,0,2.448,4.895" transform="translate(92.194 98.5)" fill="#92bfb1"/><path d="M2.29,4.581A2.29,2.29,0,1,0,0,2.29a2.289,2.289,0,0,0,2.29,2.29" transform="translate(98.657 98.656)" fill="#92bfb1"/><path d="M.263.524A.262.262,0,1,0,0,.262.262.262,0,0,0,.263.524" transform="translate(6.113 106.988)" fill="#92bfb1"/><path d="M.315.63A.315.315,0,1,0,0,.315.315.315,0,0,0,.315.63" transform="translate(12.365 106.936)" fill="#92bfb1"/><path d="M.384.77A.385.385,0,1,0,0,.385.384.384,0,0,0,.384.77" transform="translate(18.601 106.866)" fill="#92bfb1"/><path d="M.49.979A.489.489,0,1,0,0,.489a.49.49,0,0,0,.49.49" transform="translate(24.799 106.761)" fill="#92bfb1"/><path d="M.63,1.259A.629.629,0,1,0,0,.629a.63.63,0,0,0,.63.63" transform="translate(30.964 106.622)" fill="#92bfb1"/><path d="M.8,1.609A.8.8,0,1,0,0,.8a.8.8,0,0,0,.8.8" transform="translate(37.095 106.445)" fill="#92bfb1"/><path d="M1,1.993A1,1,0,1,0,0,1a1,1,0,0,0,1,1" transform="translate(43.207 106.254)" fill="#92bfb1"/><path d="M1.223,2.448A1.224,1.224,0,1,0,0,1.224,1.223,1.223,0,0,0,1.223,2.448" transform="translate(49.285 106.026)" fill="#92bfb1"/><path d="M1.451,2.9A1.451,1.451,0,1,0,0,1.451,1.451,1.451,0,0,0,1.451,2.9" transform="translate(55.362 105.8)" fill="#92bfb1"/><path d="M1.7,3.392A1.7,1.7,0,1,0,0,1.7a1.7,1.7,0,0,0,1.7,1.7" transform="translate(61.421 105.555)" fill="#92bfb1"/><path d="M1.923,3.846A1.923,1.923,0,1,0,0,1.924,1.922,1.922,0,0,0,1.923,3.846" transform="translate(67.5 105.327)" fill="#92bfb1"/><path d="M2.08,4.161A2.081,2.081,0,1,0,0,2.081a2.08,2.08,0,0,0,2.08,2.08" transform="translate(73.648 105.169)" fill="#92bfb1"/><path d="M2.2,4.406A2.2,2.2,0,1,0,0,2.2a2.2,2.2,0,0,0,2.2,2.2" transform="translate(79.83 105.048)" fill="#92bfb1"/><path d="M2.238,4.476A2.238,2.238,0,1,0,0,2.239,2.238,2.238,0,0,0,2.238,4.476" transform="translate(86.101 105.012)" fill="#92bfb1"/><path d="M2.2,4.406A2.2,2.2,0,1,0,0,2.2a2.2,2.2,0,0,0,2.2,2.2" transform="translate(92.439 105.048)" fill="#92bfb1"/><path d="M2.1,4.2A2.1,2.1,0,1,0,0,2.1,2.1,2.1,0,0,0,2.1,4.2" transform="translate(98.848 105.152)" fill="#92bfb1"/><path d="M.194.384A.192.192,0,1,0,0,.192.192.192,0,0,0,.194.384" transform="translate(6.182 113.363)" fill="#92bfb1"/><path d="M.3.595A.3.3,0,1,0,0,.3a.3.3,0,0,0,.3.3" transform="translate(12.382 113.258)" fill="#92bfb1"/><path d="M.349.7A.35.35,0,1,0,0,.349.35.35,0,0,0,.349.7" transform="translate(18.636 113.206)" fill="#92bfb1"/><path d="M.455.909A.455.455,0,1,0,0,.455.454.454,0,0,0,.455.909" transform="translate(24.835 113.101)" fill="#92bfb1"/><path d="M.577,1.154A.577.577,0,1,0,0,.577a.577.577,0,0,0,.577.577" transform="translate(31.017 112.979)" fill="#92bfb1"/><path d="M.734,1.469A.734.734,0,1,0,0,.734a.734.734,0,0,0,.734.734" transform="translate(37.164 112.821)" fill="#92bfb1"/><path d="M.909,1.818A.909.909,0,1,0,0,.909a.91.91,0,0,0,.909.91" transform="translate(43.294 112.647)" fill="#92bfb1"/><path d="M1.1,2.2A1.1,1.1,0,1,0,0,1.1,1.1,1.1,0,0,0,1.1,2.2" transform="translate(49.408 112.454)" fill="#92bfb1"/><path d="M1.294,2.588A1.294,1.294,0,1,0,0,1.294,1.293,1.293,0,0,0,1.294,2.588" transform="translate(55.519 112.262)" fill="#92bfb1"/><path d="M1.5,3.007A1.5,1.5,0,1,0,0,1.5a1.5,1.5,0,0,0,1.5,1.5" transform="translate(61.615 112.051)" fill="#92bfb1"/><path d="M1.713,3.427A1.713,1.713,0,1,0,0,1.713,1.713,1.713,0,0,0,1.713,3.427" transform="translate(67.709 111.843)" fill="#92bfb1"/><path d="M1.871,3.742A1.871,1.871,0,1,0,0,1.871,1.871,1.871,0,0,0,1.871,3.742" transform="translate(73.856 111.684)" fill="#92bfb1"/><path d="M1.958,3.916A1.958,1.958,0,1,0,0,1.958,1.957,1.957,0,0,0,1.958,3.916" transform="translate(80.075 111.597)" fill="#92bfb1"/><path d="M1.993,3.986A1.993,1.993,0,1,0,0,1.993,1.993,1.993,0,0,0,1.993,3.986" transform="translate(86.344 111.562)" fill="#92bfb1"/><path d="M1.975,3.951A1.975,1.975,0,1,0,0,1.976,1.975,1.975,0,0,0,1.975,3.951" transform="translate(92.666 111.58)" fill="#92bfb1"/><path d="M1.872,3.742A1.871,1.871,0,1,0,0,1.871,1.871,1.871,0,0,0,1.872,3.742" transform="translate(99.075 111.684)" fill="#92bfb1"/><path d="M.1.21a.1.1,0,0,0,.1-.1A.1.1,0,1,0,0,.106a.1.1,0,0,0,.1.1" transform="translate(6.271 119.754)" fill="#92bfb1"/><path d="M.28.559A.28.28,0,1,0,0,.28a.28.28,0,0,0,.28.28" transform="translate(12.4 119.58)" fill="#92bfb1"/><path d="M.332.664A.332.332,0,1,0,0,.331.332.332,0,0,0,.332.664" transform="translate(18.652 119.528)" fill="#92bfb1"/><path d="M.4.8A.4.4,0,1,0,0,.4.4.4,0,0,0,.4.8" transform="translate(24.888 119.459)" fill="#92bfb1"/><path d="M.524,1.049A.525.525,0,1,0,0,.525a.524.524,0,0,0,.524.524" transform="translate(31.07 119.335)" fill="#92bfb1"/><path d="M.646,1.294A.647.647,0,1,0,0,.647a.646.646,0,0,0,.646.646" transform="translate(37.253 119.213)" fill="#92bfb1"/><path d="M.8,1.609A.8.8,0,1,0,0,.8a.8.8,0,0,0,.8.8" transform="translate(43.401 119.055)" fill="#92bfb1"/><path d="M.961,1.923A.961.961,0,1,0,0,.961a.961.961,0,0,0,.961.961" transform="translate(49.548 118.9)" fill="#92bfb1"/><path d="M1.136,2.273A1.136,1.136,0,1,0,0,1.136,1.136,1.136,0,0,0,1.136,2.273" transform="translate(55.678 118.724)" fill="#92bfb1"/><path d="M1.311,2.623A1.311,1.311,0,1,0,0,1.311,1.312,1.312,0,0,0,1.311,2.623" transform="translate(61.806 118.549)" fill="#92bfb1"/><path d="M1.469,2.937A1.468,1.468,0,1,0,0,1.468,1.469,1.469,0,0,0,1.469,2.937" transform="translate(67.954 118.392)" fill="#92bfb1"/><path d="M1.591,3.182A1.591,1.591,0,1,0,0,1.591,1.591,1.591,0,0,0,1.591,3.182" transform="translate(74.136 118.269)" fill="#92bfb1"/><path d="M1.678,3.356A1.678,1.678,0,1,0,0,1.678,1.678,1.678,0,0,0,1.678,3.356" transform="translate(80.354 118.182)" fill="#92bfb1"/><path d="M1.713,3.427A1.713,1.713,0,1,0,0,1.713,1.713,1.713,0,0,0,1.713,3.427" transform="translate(86.624 118.147)" fill="#92bfb1"/><path d="M1.7,3.392A1.7,1.7,0,1,0,0,1.7a1.7,1.7,0,0,0,1.7,1.7" transform="translate(92.947 118.164)" fill="#92bfb1"/><path d="M1.61,3.216A1.608,1.608,0,1,0,0,1.608,1.609,1.609,0,0,0,1.61,3.216" transform="translate(99.337 118.25)" fill="#92bfb1"/><path d="M.244.49A.245.245,0,1,0,0,.245.245.245,0,0,0,.244.49" transform="translate(12.435 125.919)" fill="#92bfb1"/><path d="M.3.595A.3.3,0,1,0,0,.3a.3.3,0,0,0,.3.3" transform="translate(18.688 125.868)" fill="#92bfb1"/><path d="M.367.734A.367.367,0,1,0,0,.368.367.367,0,0,0,.367.734" transform="translate(24.923 125.797)" fill="#92bfb1"/><path d="M.455.91A.455.455,0,1,0,0,.455.455.455,0,0,0,.455.91" transform="translate(31.139 125.71)" fill="#92bfb1"/><path d="M.559,1.119A.559.559,0,1,0,0,.559a.559.559,0,0,0,.559.559" transform="translate(37.339 125.605)" fill="#92bfb1"/><path d="M.682,1.363A.682.682,0,1,0,0,.682a.682.682,0,0,0,.682.682" transform="translate(43.523 125.484)" fill="#92bfb1"/><path d="M.822,1.643A.821.821,0,1,0,0,.821a.821.821,0,0,0,.822.822" transform="translate(49.687 125.344)" fill="#92bfb1"/><path d="M.961,1.923A.961.961,0,1,0,0,.961a.961.961,0,0,0,.961.961" transform="translate(55.852 125.204)" fill="#92bfb1"/><path d="M1.1,2.2A1.1,1.1,0,1,0,0,1.1,1.1,1.1,0,0,0,1.1,2.2" transform="translate(62.016 125.063)" fill="#92bfb1"/><path d="M1.224,2.448A1.224,1.224,0,1,0,0,1.224,1.223,1.223,0,0,0,1.224,2.448" transform="translate(68.2 124.94)" fill="#92bfb1"/><path d="M1.329,2.657A1.329,1.329,0,1,0,0,1.328,1.329,1.329,0,0,0,1.329,2.657" transform="translate(74.398 124.835)" fill="#92bfb1"/><path d="M1.4,2.8A1.4,1.4,0,1,0,0,1.4,1.4,1.4,0,0,0,1.4,2.8" transform="translate(80.635 124.766)" fill="#92bfb1"/><path d="M1.434,2.867A1.434,1.434,0,1,0,0,1.434,1.433,1.433,0,0,0,1.434,2.867" transform="translate(86.903 124.732)" fill="#92bfb1"/><path d="M1.4,2.8A1.4,1.4,0,1,0,0,1.4,1.4,1.4,0,0,0,1.4,2.8" transform="translate(93.244 124.766)" fill="#92bfb1"/><path d="M1.347,2.692A1.346,1.346,0,1,0,0,1.346,1.347,1.347,0,0,0,1.347,2.692" transform="translate(99.6 124.818)" fill="#92bfb1"/><path d="M.1.21a.105.105,0,1,0-.1-.1.1.1,0,0,0,.1.1" transform="translate(12.575 132.365)" fill="#92bfb1"/><path d="M.28.559A.28.28,0,1,0,0,.28a.28.28,0,0,0,.28.28" transform="translate(18.704 132.19)" fill="#92bfb1"/><path d="M.315.629A.314.314,0,1,0,0,.314.315.315,0,0,0,.315.629" transform="translate(24.974 132.155)" fill="#92bfb1"/><path d="M.384.77A.385.385,0,1,0,0,.385.384.384,0,0,0,.384.77" transform="translate(31.21 132.085)" fill="#92bfb1"/><path d="M.472.944A.472.472,0,1,0,0,.471.472.472,0,0,0,.472.944" transform="translate(37.427 131.997)" fill="#92bfb1"/><path d="M.577,1.154A.577.577,0,1,0,0,.577a.577.577,0,0,0,.577.577" transform="translate(43.626 131.892)" fill="#92bfb1"/><path d="M.682,1.363A.682.682,0,1,0,0,.682a.682.682,0,0,0,.682.682" transform="translate(49.827 131.789)" fill="#92bfb1"/><path d="M.8,1.609A.8.8,0,1,0,0,.8a.8.8,0,0,0,.8.8" transform="translate(56.008 131.665)" fill="#92bfb1"/><path d="M.91,1.818A.909.909,0,1,0,0,.909a.91.91,0,0,0,.91.909" transform="translate(62.208 131.561)" fill="#92bfb1"/><path d="M1.014,2.028A1.014,1.014,0,1,0,0,1.014,1.014,1.014,0,0,0,1.014,2.028" transform="translate(68.408 131.455)" fill="#92bfb1"/><path d="M1.083,2.168A1.084,1.084,0,1,0,0,1.085,1.084,1.084,0,0,0,1.083,2.168" transform="translate(74.644 131.386)" fill="#92bfb1"/><path d="M1.154,2.308A1.154,1.154,0,1,0,0,1.154,1.154,1.154,0,0,0,1.154,2.308" transform="translate(80.878 131.315)" fill="#92bfb1"/><path d="M1.172,2.342A1.171,1.171,0,1,0,0,1.171,1.172,1.172,0,0,0,1.172,2.342" transform="translate(87.165 131.298)" fill="#92bfb1"/><path d="M1.154,2.308A1.154,1.154,0,1,0,0,1.154,1.154,1.154,0,0,0,1.154,2.308" transform="translate(93.489 131.315)" fill="#92bfb1"/><path d="M1.1,2.2A1.1,1.1,0,1,0,0,1.1,1.1,1.1,0,0,0,1.1,2.2" transform="translate(99.846 131.368)" fill="#92bfb1"/><path d="M.193.384A.192.192,0,1,0,0,.192.192.192,0,0,0,.193.384" transform="translate(18.792 138.582)" fill="#92bfb1"/><path d="M.28.559A.28.28,0,1,0,0,.28a.28.28,0,0,0,.28.28" transform="translate(25.009 138.494)" fill="#92bfb1"/><path d="M.332.664A.332.332,0,1,0,0,.332.332.332,0,0,0,.332.664" transform="translate(31.262 138.443)" fill="#92bfb1"/><path d="M.4.8A.4.4,0,1,0,0,.4.4.4,0,0,0,.4.8" transform="translate(37.498 138.372)" fill="#92bfb1"/><path d="M.472.944A.472.472,0,1,0,0,.471.472.472,0,0,0,.472.944" transform="translate(43.731 138.303)" fill="#92bfb1"/><path d="M.559,1.119A.559.559,0,1,0,0,.559a.559.559,0,0,0,.559.559" transform="translate(49.949 138.214)" fill="#92bfb1"/><path d="M.646,1.294A.647.647,0,1,0,0,.647a.646.646,0,0,0,.646.646" transform="translate(56.166 138.128)" fill="#92bfb1"/><path d="M.734,1.469A.734.734,0,1,0,0,.734a.734.734,0,0,0,.734.734" transform="translate(62.382 138.039)" fill="#92bfb1"/><path d="M.821,1.643A.822.822,0,1,0,0,.822a.821.821,0,0,0,.821.822" transform="translate(68.601 137.952)" fill="#92bfb1"/><path d="M.874,1.749A.874.874,0,1,0,0,.874a.874.874,0,0,0,.874.874" transform="translate(74.854 137.9)" fill="#92bfb1"/><path d="M.909,1.818A.909.909,0,1,0,0,.909a.91.91,0,0,0,.91.909" transform="translate(81.123 137.865)" fill="#92bfb1"/><path d="M.944,1.888A.944.944,0,1,0,0,.945a.944.944,0,0,0,.944.944" transform="translate(87.394 137.831)" fill="#92bfb1"/><path d="M.927,1.853A.927.927,0,1,0,0,.927a.926.926,0,0,0,.927.926" transform="translate(93.715 137.847)" fill="#92bfb1"/><path d="M.892,1.784A.892.892,0,1,0,0,.892a.892.892,0,0,0,.892.892" transform="translate(100.054 137.882)" fill="#92bfb1"/><path d="M.018.035A.018.018,0,0,0,.035.018.018.018,0,1,0,.018.035" transform="translate(18.966 145.062)" fill="#92bfb1"/><path d="M.244.49A.245.245,0,1,0,0,.245.245.245,0,0,0,.244.49" transform="translate(25.045 144.835)" fill="#92bfb1"/><path d="M.3.595A.3.3,0,1,0,0,.3a.3.3,0,0,0,.3.3" transform="translate(31.297 144.782)" fill="#92bfb1"/><path d="M.333.664A.332.332,0,1,0,0,.332.332.332,0,0,0,.333.664" transform="translate(37.567 144.748)" fill="#92bfb1"/><path d="M.384.769A.384.384,0,1,0,0,.384.384.384,0,0,0,.384.769" transform="translate(43.82 144.695)" fill="#92bfb1"/><path d="M.455.91A.455.455,0,1,0,0,.455.455.455,0,0,0,.455.91" transform="translate(50.055 144.624)" fill="#92bfb1"/><path d="M.524,1.049A.525.525,0,1,0,0,.525a.524.524,0,0,0,.524.524" transform="translate(56.289 144.554)" fill="#92bfb1"/><path d="M.595,1.189A.595.595,0,1,0,0,.595a.594.594,0,0,0,.595.595" transform="translate(62.524 144.484)" fill="#92bfb1"/><path d="M.646,1.294A.647.647,0,1,0,0,.646a.647.647,0,0,0,.646.647" transform="translate(68.776 144.433)" fill="#92bfb1"/><path d="M.7,1.4A.7.7,0,1,0,0,.7a.7.7,0,0,0,.7.7" transform="translate(75.029 144.378)" fill="#92bfb1"/><path d="M.717,1.434A.717.717,0,1,0,0,.717a.717.717,0,0,0,.717.717" transform="translate(81.316 144.362)" fill="#92bfb1"/><path d="M.734,1.469A.734.734,0,1,0,0,.734a.734.734,0,0,0,.734.734" transform="translate(87.602 144.344)" fill="#92bfb1"/><path d="M.734,1.469A.734.734,0,1,0,0,.734a.734.734,0,0,0,.734.734" transform="translate(93.908 144.344)" fill="#92bfb1"/><path d="M.7,1.4A.7.7,0,1,0,0,.7a.7.7,0,0,0,.7.7" transform="translate(100.247 144.378)" fill="#92bfb1"/><path d="M.035.07A.035.035,0,1,0,0,.035.035.035,0,0,0,.035.07" transform="translate(25.254 151.35)" fill="#92bfb1"/><path d="M.244.49A.245.245,0,1,0,0,.245.244.244,0,0,0,.244.49" transform="translate(31.349 151.138)" fill="#92bfb1"/><path d="M.28.559A.28.28,0,1,0,0,.28a.28.28,0,0,0,.28.28" transform="translate(37.619 151.105)" fill="#92bfb1"/><path d="M.315.63A.315.315,0,1,0,0,.315.315.315,0,0,0,.315.63" transform="translate(43.889 151.069)" fill="#92bfb1"/><path d="M.367.734A.367.367,0,1,0,0,.368.367.367,0,0,0,.367.734" transform="translate(50.143 151.016)" fill="#92bfb1"/><path d="M.419.839A.42.42,0,1,0,0,.42.419.419,0,0,0,.419.839" transform="translate(56.393 150.965)" fill="#92bfb1"/><path d="M.455.909A.455.455,0,1,0,0,.455.455.455,0,0,0,.455.909" transform="translate(62.663 150.929)" fill="#92bfb1"/><path d="M.507,1.014A.507.507,0,1,0,0,.508a.507.507,0,0,0,.507.507" transform="translate(68.916 150.877)" fill="#92bfb1"/><path d="M.542,1.084A.542.542,0,1,0,0,.542a.542.542,0,0,0,.542.542" transform="translate(75.185 150.842)" fill="#92bfb1"/><path d="M.559,1.119A.559.559,0,1,0,0,.559a.559.559,0,0,0,.559.559" transform="translate(81.473 150.824)" fill="#92bfb1"/><path d="M.577,1.154A.577.577,0,1,0,0,.577a.577.577,0,0,0,.577.577" transform="translate(87.76 150.807)" fill="#92bfb1"/><path d="M.559,1.119A.559.559,0,1,0,0,.559a.559.559,0,0,0,.559.559" transform="translate(94.083 150.824)" fill="#92bfb1"/><path d="M.543,1.084A.542.542,0,1,0,0,.542a.542.542,0,0,0,.543.542" transform="translate(100.404 150.842)" fill="#92bfb1"/><path d="M.018.035A.017.017,0,0,0,.035.018.017.017,0,0,0,.018,0a.018.018,0,1,0,0,.035" transform="translate(31.577 157.671)" fill="#92bfb1"/><path d="M.193.384A.192.192,0,1,0,0,.192.192.192,0,0,0,.193.384" transform="translate(37.706 157.497)" fill="#92bfb1"/><path d="M.28.559A.28.28,0,1,0,0,.28a.28.28,0,0,0,.28.28" transform="translate(43.925 157.409)" fill="#92bfb1"/><path d="M.3.595A.3.3,0,1,0,0,.3a.3.3,0,0,0,.3.3" transform="translate(50.211 157.391)" fill="#92bfb1"/><path d="M.333.664A.332.332,0,1,0,0,.331.332.332,0,0,0,.333.664" transform="translate(56.479 157.358)" fill="#92bfb1"/><path d="M.367.734A.367.367,0,1,0,0,.368.367.367,0,0,0,.367.734" transform="translate(62.75 157.321)" fill="#92bfb1"/><path d="M.384.77A.385.385,0,1,0,0,.385.384.384,0,0,0,.384.77" transform="translate(69.039 157.303)" fill="#92bfb1"/><path d="M.42.839A.42.42,0,1,0,0,.42a.42.42,0,0,0,.42.42" transform="translate(75.308 157.269)" fill="#92bfb1"/><path d="M.437.874A.437.437,0,1,0,0,.437.437.437,0,0,0,.437.874" transform="translate(81.595 157.251)" fill="#92bfb1"/><path d="M.437.874A.437.437,0,1,0,0,.437.437.437,0,0,0,.437.874" transform="translate(87.9 157.251)" fill="#92bfb1"/><path d="M.437.874A.437.437,0,1,0,0,.437.437.437,0,0,0,.437.874" transform="translate(94.206 157.251)" fill="#92bfb1"/><path d="M.421.839A.42.42,0,1,0,0,.42a.419.419,0,0,0,.421.42" transform="translate(100.526 157.269)" fill="#92bfb1"/><path d="M.1.209A.1.1,0,1,0,0,.1a.1.1,0,0,0,.1.1" transform="translate(44.1 163.889)" fill="#92bfb1"/><path d="M.244.49A.245.245,0,1,0,0,.245.244.244,0,0,0,.244.49" transform="translate(50.265 163.748)" fill="#92bfb1"/><path d="M.28.559A.28.28,0,1,0,0,.28a.28.28,0,0,0,.28.28" transform="translate(56.533 163.714)" fill="#92bfb1"/><path d="M.3.595A.3.3,0,1,0,0,.3a.3.3,0,0,0,.3.3" transform="translate(62.821 163.696)" fill="#92bfb1"/><path d="M.315.629A.314.314,0,1,0,0,.314.315.315,0,0,0,.315.629" transform="translate(69.108 163.679)" fill="#92bfb1"/><path d="M.332.664A.332.332,0,1,0,0,.332.333.333,0,0,0,.332.664" transform="translate(75.396 163.662)" fill="#92bfb1"/><path d="M.332.664A.332.332,0,1,0,0,.332.332.332,0,0,0,.332.664" transform="translate(81.7 163.662)" fill="#92bfb1"/><path d="M.35.7A.35.35,0,1,0,0,.35.35.35,0,0,0,.35.7" transform="translate(87.987 163.643)" fill="#92bfb1"/><path d="M.35.7A.35.35,0,1,0,0,.35.35.35,0,0,0,.35.7" transform="translate(94.291 163.643)" fill="#92bfb1"/><path d="M.333.664A.332.332,0,1,0,0,.332.333.333,0,0,0,.333.664" transform="translate(100.614 163.662)" fill="#92bfb1"/><path d="M.018.035A.018.018,0,1,0,.018,0a.018.018,0,1,0,0,.035" transform="translate(50.49 170.282)" fill="#92bfb1"/><path d="M.1.209A.1.1,0,1,0,0,.1a.1.1,0,0,0,.1.1" transform="translate(56.708 170.194)" fill="#92bfb1"/><path d="M.193.384A.192.192,0,1,0,0,.192.192.192,0,0,0,.193.384" transform="translate(62.925 170.106)" fill="#92bfb1"/><path d="M.262.524A.262.262,0,1,0,0,.262.262.262,0,0,0,.262.524" transform="translate(69.16 170.036)" fill="#92bfb1"/><path d="M.28.559A.28.28,0,1,0,0,.28a.28.28,0,0,0,.28.28" transform="translate(75.448 170.019)" fill="#92bfb1"/><path d="M.28.559A.28.28,0,1,0,0,.28a.28.28,0,0,0,.28.28" transform="translate(81.752 170.019)" fill="#92bfb1"/><path d="M.28.559A.28.28,0,1,0,0,.28a.28.28,0,0,0,.28.28" transform="translate(88.058 170.019)" fill="#92bfb1"/><path d="M.28.559A.28.28,0,1,0,0,.28a.28.28,0,0,0,.28.28" transform="translate(94.362 170.019)" fill="#92bfb1"/><path d="M.281.559A.28.28,0,1,0,0,.28a.28.28,0,0,0,.281.28" transform="translate(100.666 170.019)" fill="#92bfb1"/><path d="M.053.1A.053.053,0,0,0,.106.052.053.053,0,0,0,.053,0a.052.052,0,1,0,0,.1" transform="translate(75.675 176.552)" fill="#92bfb1"/><path d="M.069.14A.071.071,0,0,0,.14.069.071.071,0,0,0,.069,0a.07.07,0,0,0,0,.14" transform="translate(81.962 176.532)" fill="#92bfb1"/><path d="M.069.14A.071.071,0,0,0,.14.069.07.07,0,0,0,.069,0a.07.07,0,0,0,0,.14" transform="translate(88.268 176.532)" fill="#92bfb1"/><path d="M.069.14A.071.071,0,0,0,.14.069.071.071,0,0,0,.069,0a.07.07,0,0,0,0,.14" transform="translate(94.573 176.532)" fill="#92bfb1"/><path d="M.054.1a.052.052,0,1,0,0-.1A.053.053,0,0,0,0,.052.053.053,0,0,0,.054.1" transform="translate(100.893 176.552)" fill="#92bfb1"/></g><path d="M0,96.775H0V0A15.385,15.385,0,0,1,5.983,1.252a15.461,15.461,0,0,1,4.881,3.324,15.429,15.429,0,0,1,3.288,4.908,15.381,15.381,0,0,1,1.205,6V81.293a15.386,15.386,0,0,1-1.205,6A15.429,15.429,0,0,1,10.864,92.2a15.428,15.428,0,0,1-4.881,3.324A15.389,15.389,0,0,1,0,96.775Z" transform="translate(0.507 97.225)" fill="#ffa400" stroke="rgba(0,0,0,0)" stroke-miterlimit="10" stroke-width="1"/></g></svg>