<svg xmlns="http://www.w3.org/2000/svg" xmlns:xlink="http://www.w3.org/1999/xlink" width="588.698" height="327.292" viewBox="0 0 588.698 327.292">
  <defs>
    <clipPath id="clip-path">
      <rect id="Rectángulo_45662" data-name="Rectángulo 45662" width="189.572" height="174.828" fill="none"/>
    </clipPath>
    <clipPath id="clip-path-2">
      <rect id="Rectángulo_45664" data-name="Rectángulo 45664" width="105.318" height="8.425" fill="none"/>
    </clipPath>
    <clipPath id="clip-path-3">
      <rect id="Rectángulo_45665" data-name="Rectángulo 45665" width="35.107" height="8.425" fill="none"/>
    </clipPath>
    <clipPath id="clip-path-4">
      <rect id="Rectángulo_45666" data-name="Rectángulo 45666" width="8.425" height="8.425" fill="none"/>
    </clipPath>
    <clipPath id="clip-path-6">
      <rect id="Rectángulo_45673" data-name="Rectángulo 45673" width="77.233" height="2.808" fill="none"/>
    </clipPath>
    <clipPath id="clip-path-7">
      <rect id="Rectángulo_45675" data-name="Rectángulo 45675" width="91.226" height="2.809" fill="none"/>
    </clipPath>
    <clipPath id="clip-path-8">
      <rect id="Rectángulo_45678" data-name="Rectángulo 45678" width="65.851" height="2.809" fill="none"/>
    </clipPath>
    <clipPath id="clip-path-9">
      <rect id="Rectángulo_45680" data-name="Rectángulo 45680" width="63.893" height="2.809" fill="none"/>
    </clipPath>
    <clipPath id="clip-path-15">
      <rect id="Rectángulo_45692" data-name="Rectángulo 45692" width="85.658" height="2.808" fill="none"/>
    </clipPath>
    <clipPath id="clip-path-18">
      <rect id="Rectángulo_45699" data-name="Rectángulo 45699" width="21.314" height="2.809" fill="none"/>
    </clipPath>
    <clipPath id="clip-path-19">
      <rect id="Rectángulo_45701" data-name="Rectángulo 45701" width="34.829" height="2.809" fill="none"/>
    </clipPath>
    <clipPath id="clip-path-20">
      <rect id="Rectángulo_45703" data-name="Rectángulo 45703" width="25.473" height="2.809" fill="none"/>
    </clipPath>
    <clipPath id="clip-path-25">
      <rect id="Rectángulo_45713" data-name="Rectángulo 45713" width="91.226" height="2.808" fill="none"/>
    </clipPath>
    <clipPath id="clip-path-27">
      <rect id="Rectángulo_45718" data-name="Rectángulo 45718" width="50.11" height="276.188" fill="none"/>
    </clipPath>
    <clipPath id="clip-path-29">
      <rect id="Rectángulo_45741" data-name="Rectángulo 45741" width="21.448" height="22.336" fill="none"/>
    </clipPath>
    <clipPath id="clip-path-30">
      <rect id="Rectángulo_45742" data-name="Rectángulo 45742" width="9.045" height="9.046" fill="none"/>
    </clipPath>
  </defs>
  <g id="Grupo_147665" data-name="Grupo 147665" transform="translate(-477 -7075)">
    <path id="Trazado_203495" data-name="Trazado 203495" d="M600.642,62.9s-6.8-5.9-5.787-7.588c.821-1.361,6.208-1.38,6.208-1.38L603.4,62.9Z" transform="translate(-45.994 7053.962)" fill="#e7b29c"/>
    <path id="Trazado_203510" data-name="Trazado 203510" d="M424.509,8.366S427.3,6.507,427.3,3.718,423.579,0,423.579,0l-7.436,6.651Z" transform="translate(111.065 7101.387)" fill="#181626"/>
    <g id="Grupo_147663" data-name="Grupo 147663" transform="translate(477 7075)">
      <rect id="Rectángulo_45629" data-name="Rectángulo 45629" width="49.099" height="3.571" transform="translate(312.323 16.366)" fill="#92bfb1"/>
      <rect id="Rectángulo_45630" data-name="Rectángulo 45630" width="133.907" height="1.785" transform="translate(312.323 30.65)" fill="#d0eae2"/>
      <rect id="Rectángulo_45631" data-name="Rectángulo 45631" width="133.907" height="1.786" transform="translate(312.323 34.221)" fill="#d0eae2"/>
      <rect id="Rectángulo_45632" data-name="Rectángulo 45632" width="133.907" height="1.786" transform="translate(312.323 37.792)" fill="#d0eae2"/>
      <rect id="Rectángulo_45633" data-name="Rectángulo 45633" width="133.907" height="1.786" transform="translate(312.323 41.363)" fill="#d0eae2"/>
      <rect id="Rectángulo_45634" data-name="Rectángulo 45634" width="91.95" height="1.785" transform="translate(312.323 44.934)" fill="#d0eae2"/>
      <rect id="Rectángulo_45635" data-name="Rectángulo 45635" width="133.907" height="1.785" transform="translate(314.108 142.239)" fill="#d0eae2"/>
      <rect id="Rectángulo_45636" data-name="Rectángulo 45636" width="133.907" height="1.785" transform="translate(314.108 145.81)" fill="#d0eae2"/>
      <rect id="Rectángulo_45637" data-name="Rectángulo 45637" width="133.907" height="1.785" transform="translate(314.108 149.381)" fill="#d0eae2"/>
      <rect id="Rectángulo_45638" data-name="Rectángulo 45638" width="133.907" height="1.785" transform="translate(314.108 152.952)" fill="#d0eae2"/>
      <rect id="Rectángulo_45639" data-name="Rectángulo 45639" width="133.907" height="1.785" transform="translate(314.108 156.523)" fill="#d0eae2"/>
      <rect id="Rectángulo_45640" data-name="Rectángulo 45640" width="133.907" height="1.785" transform="translate(314.108 160.094)" fill="#d0eae2"/>
      <rect id="Rectángulo_45641" data-name="Rectángulo 45641" width="133.907" height="1.785" transform="translate(314.108 163.665)" fill="#d0eae2"/>
      <rect id="Rectángulo_45642" data-name="Rectángulo 45642" width="91.95" height="1.785" transform="translate(314.108 167.235)" fill="#d0eae2"/>
      <rect id="Rectángulo_45643" data-name="Rectángulo 45643" width="67.846" height="2.678" transform="translate(314.108 136.883)" fill="#ffa400"/>
      <rect id="Rectángulo_45644" data-name="Rectángulo 45644" width="98.199" height="2.678" transform="translate(312.323 22.615)" fill="#d0eae2"/>
      <rect id="Rectángulo_45645" data-name="Rectángulo 45645" width="3.571" height="9.82" transform="translate(389.989 119.921)" fill="#92d4d6"/>
      <rect id="Rectángulo_45646" data-name="Rectángulo 45646" width="3.571" height="9.82" transform="translate(414.092 119.921)" fill="#92d4d6"/>
      <rect id="Rectángulo_45647" data-name="Rectángulo 45647" width="3.571" height="9.82" transform="translate(432.839 119.921)" fill="#92d4d6"/>
      <rect id="Rectángulo_45648" data-name="Rectángulo 45648" width="3.571" height="12.498" transform="translate(402.487 117.244)" fill="#92d4d6"/>
      <rect id="Rectángulo_45649" data-name="Rectángulo 45649" width="3.571" height="15.176" transform="translate(426.59 114.565)" fill="#92d4d6"/>
      <rect id="Rectángulo_45650" data-name="Rectángulo 45650" width="3.571" height="17.854" transform="translate(420.341 111.887)" fill="#92d4d6"/>
      <rect id="Rectángulo_45651" data-name="Rectángulo 45651" width="3.571" height="16.962" transform="translate(408.736 112.78)" fill="#92d4d6"/>
      <rect id="Rectángulo_45652" data-name="Rectángulo 45652" width="3.571" height="14.283" transform="translate(396.238 115.458)" fill="#92d4d6"/>
      <rect id="Rectángulo_45653" data-name="Rectángulo 45653" width="3.571" height="9.82" transform="translate(327.499 119.921)" fill="#d0eae2"/>
      <rect id="Rectángulo_45654" data-name="Rectángulo 45654" width="3.571" height="9.82" transform="translate(351.602 119.921)" fill="#d0eae2"/>
      <rect id="Rectángulo_45655" data-name="Rectángulo 45655" width="3.571" height="9.82" transform="translate(370.349 119.921)" fill="#d0eae2"/>
      <rect id="Rectángulo_45656" data-name="Rectángulo 45656" width="3.571" height="12.498" transform="translate(339.997 117.244)" fill="#d0eae2"/>
      <rect id="Rectángulo_45657" data-name="Rectángulo 45657" width="3.571" height="15.176" transform="translate(364.1 114.565)" fill="#d0eae2"/>
      <rect id="Rectángulo_45658" data-name="Rectángulo 45658" width="3.571" height="17.854" transform="translate(357.851 111.887)" fill="#d0eae2"/>
      <rect id="Rectángulo_45659" data-name="Rectángulo 45659" width="3.571" height="16.962" transform="translate(346.246 112.78)" fill="#d0eae2"/>
      <rect id="Rectángulo_45660" data-name="Rectángulo 45660" width="3.571" height="14.283" transform="translate(333.748 115.458)" fill="#d0eae2"/>
      <rect id="Rectángulo_45661" data-name="Rectángulo 45661" width="133.907" height="41.958" transform="translate(312.323 51.183)" fill="#16697a"/>
      <path id="Trazado_201834" data-name="Trazado 201834" d="M2801.353,510.454a14.135,14.135,0,1,1,14.134-14.134,14.151,14.151,0,0,1-14.134,14.134m0-23.806a9.671,9.671,0,1,0,9.671,9.671,9.682,9.682,0,0,0-9.671-9.671" transform="translate(-2450.94 -424.01)" fill="#92bfb1"/>
      <path id="Trazado_201835" data-name="Trazado 201835" d="M2906.837,482.312v4.464a9.674,9.674,0,0,1,9.247,8.168h4.509a14.147,14.147,0,0,0-13.756-12.631" transform="translate(-2556.127 -424.121)" fill="#f3f9ff"/>
      <path id="Trazado_201836" data-name="Trazado 201836" d="M2794.5,624h-4.615a14.184,14.184,0,0,0,7.687,9.752l2.077-3.954a9.719,9.719,0,0,1-5.15-5.8" transform="translate(-2453.282 -548.716)" fill="#ffa400"/>
      <path id="Trazado_201837" data-name="Trazado 201837" d="M3291.272,482.471v14.4h-14.257a13.9,13.9,0,1,0,14.257-14.4" transform="translate(-2881.644 -424.261)" fill="#92bfb1"/>
      <path id="Trazado_201838" data-name="Trazado 201838" d="M3276.283,467.532c-.127,0-.251-.019-.38-.019a13.9,13.9,0,0,0-13.9,13.9c0,.173.02.341.026.513h14.257Z" transform="translate(-2868.44 -411.107)" fill="#ffa400"/>
      <g id="Grupo_147572" data-name="Grupo 147572" transform="translate(100.746 9.519)" opacity="0.54">
        <g id="Grupo_147571" data-name="Grupo 147571">
          <g id="Grupo_147570" data-name="Grupo 147570" clip-path="url(#clip-path)">
            <path id="Trazado_201839" data-name="Trazado 201839" d="M1020.734,253.728H838.886a3.873,3.873,0,0,1-3.862-3.862V82.763a3.873,3.873,0,0,1,3.862-3.862h181.848a3.873,3.873,0,0,1,3.862,3.862v167.1a3.873,3.873,0,0,1-3.862,3.862" transform="translate(-835.024 -78.901)" fill="#a7c6d1"/>
          </g>
        </g>
      </g>
      <rect id="Rectángulo_45663" data-name="Rectángulo 45663" width="179.04" height="150.565" transform="translate(106.011 28.164)" fill="#fff"/>
      <g id="Grupo_147575" data-name="Grupo 147575" transform="translate(141.995 14.435)" opacity="0.54">
        <g id="Grupo_147574" data-name="Grupo 147574">
          <g id="Grupo_147573" data-name="Grupo 147573" clip-path="url(#clip-path-2)">
            <path id="Trazado_201840" data-name="Trazado 201840" d="M1278.023,128.063h-96.892a4.213,4.213,0,1,1,0-8.425h96.892a4.213,4.213,0,1,1,0,8.425" transform="translate(-1176.918 -119.638)" fill="#99bfd6"/>
          </g>
        </g>
      </g>
      <g id="Grupo_147578" data-name="Grupo 147578" transform="translate(250.121 14.435)" opacity="0.54">
        <g id="Grupo_147577" data-name="Grupo 147577">
          <g id="Grupo_147576" data-name="Grupo 147576" clip-path="url(#clip-path-3)">
            <path id="Trazado_201841" data-name="Trazado 201841" d="M2104.008,128.063h-26.68a4.213,4.213,0,0,1,0-8.425h26.68a4.213,4.213,0,0,1,0,8.425" transform="translate(-2073.114 -119.638)" fill="#99bfd6"/>
          </g>
        </g>
      </g>
      <g id="Grupo_147581" data-name="Grupo 147581" transform="translate(106.889 13.732)" opacity="0.54">
        <g id="Grupo_147580" data-name="Grupo 147580">
          <g id="Grupo_147579" data-name="Grupo 147579" clip-path="url(#clip-path-4)">
            <path id="Trazado_201842" data-name="Trazado 201842" d="M894.369,118.031a4.213,4.213,0,1,1-4.213-4.213,4.213,4.213,0,0,1,4.213,4.213" transform="translate(-885.944 -113.818)" fill="#99bfd6"/>
          </g>
        </g>
      </g>
      <g id="Grupo_147584" data-name="Grupo 147584" transform="translate(118.825 13.732)" opacity="0.54">
        <g id="Grupo_147583" data-name="Grupo 147583">
          <g id="Grupo_147582" data-name="Grupo 147582" clip-path="url(#clip-path-4)">
            <path id="Trazado_201843" data-name="Trazado 201843" d="M993.3,118.031a4.213,4.213,0,1,1-4.213-4.213,4.213,4.213,0,0,1,4.213,4.213" transform="translate(-984.876 -113.818)" fill="#99bfd6"/>
          </g>
        </g>
      </g>
      <rect id="Rectángulo_45668" data-name="Rectángulo 45668" width="179.742" height="20.361" transform="translate(105.485 27.774)" fill="#c5dce2"/>
      <rect id="Rectángulo_45669" data-name="Rectángulo 45669" width="128.487" height="8.425" transform="translate(118.123 34.093)" fill="#fff"/>
      <rect id="Rectángulo_45670" data-name="Rectángulo 45670" width="30.191" height="8.425" transform="translate(224.142 34.093)" fill="#7aaac1"/>
      <rect id="Rectángulo_45671" data-name="Rectángulo 45671" width="91.226" height="2.808" transform="translate(117.045 52.349)" fill="#f0f1f2"/>
      <g id="Grupo_147587" data-name="Grupo 147587" transform="translate(118.123 93.072)" opacity="0.85">
        <g id="Grupo_147586" data-name="Grupo 147586">
          <g id="Grupo_147585" data-name="Grupo 147585" clip-path="url(#clip-path-6)">
            <rect id="Rectángulo_45672" data-name="Rectángulo 45672" width="77.233" height="2.808" transform="translate(0 0)" fill="#7aaac1"/>
          </g>
        </g>
      </g>
      <g id="Grupo_147590" data-name="Grupo 147590" transform="translate(117.045 97.986)" opacity="0.54">
        <g id="Grupo_147589" data-name="Grupo 147589">
          <g id="Grupo_147588" data-name="Grupo 147588" clip-path="url(#clip-path-7)">
            <rect id="Rectángulo_45674" data-name="Rectángulo 45674" width="91.226" height="2.808" transform="translate(0 0)" fill="#99bfd6"/>
          </g>
        </g>
      </g>
      <rect id="Rectángulo_45676" data-name="Rectángulo 45676" width="103.913" height="25.276" transform="translate(110.4 60.774)" fill="#dfeef2"/>
      <g id="Grupo_147593" data-name="Grupo 147593" transform="translate(117.045 103.603)" opacity="0.54">
        <g id="Grupo_147592" data-name="Grupo 147592">
          <g id="Grupo_147591" data-name="Grupo 147591" clip-path="url(#clip-path-8)">
            <rect id="Rectángulo_45677" data-name="Rectángulo 45677" width="65.852" height="2.808" transform="translate(0 0)" fill="#99bfd6"/>
          </g>
        </g>
      </g>
      <g id="Grupo_147596" data-name="Grupo 147596" transform="translate(118.123 113.433)" opacity="0.85">
        <g id="Grupo_147595" data-name="Grupo 147595">
          <g id="Grupo_147594" data-name="Grupo 147594" clip-path="url(#clip-path-9)">
            <rect id="Rectángulo_45679" data-name="Rectángulo 45679" width="63.893" height="2.808" transform="translate(0 0)" fill="#7aaac1"/>
          </g>
        </g>
      </g>
      <g id="Grupo_147599" data-name="Grupo 147599" transform="translate(118.123 66.391)" opacity="0.85">
        <g id="Grupo_147598" data-name="Grupo 147598">
          <g id="Grupo_147597" data-name="Grupo 147597" clip-path="url(#clip-path-9)">
            <rect id="Rectángulo_45681" data-name="Rectángulo 45681" width="63.893" height="2.808" transform="translate(0 0)" fill="#7aaac1"/>
          </g>
        </g>
      </g>
      <g id="Grupo_147602" data-name="Grupo 147602" transform="translate(117.045 72.007)" opacity="0.54">
        <g id="Grupo_147601" data-name="Grupo 147601">
          <g id="Grupo_147600" data-name="Grupo 147600" clip-path="url(#clip-path-7)">
            <rect id="Rectángulo_45683" data-name="Rectángulo 45683" width="91.226" height="2.808" transform="translate(0 0)" fill="#99bfd6"/>
          </g>
        </g>
      </g>
      <g id="Grupo_147605" data-name="Grupo 147605" transform="translate(117.045 77.625)" opacity="0.54">
        <g id="Grupo_147604" data-name="Grupo 147604">
          <g id="Grupo_147603" data-name="Grupo 147603" clip-path="url(#clip-path-8)">
            <rect id="Rectángulo_45685" data-name="Rectángulo 45685" width="65.852" height="2.808" transform="translate(0 0)" fill="#99bfd6"/>
          </g>
        </g>
      </g>
      <g id="Grupo_147608" data-name="Grupo 147608" transform="translate(117.045 118.348)" opacity="0.54">
        <g id="Grupo_147607" data-name="Grupo 147607">
          <g id="Grupo_147606" data-name="Grupo 147606" clip-path="url(#clip-path-7)">
            <rect id="Rectángulo_45687" data-name="Rectángulo 45687" width="91.226" height="2.808" transform="translate(0 0)" fill="#99bfd6"/>
          </g>
        </g>
      </g>
      <g id="Grupo_147611" data-name="Grupo 147611" transform="translate(117.045 123.964)" opacity="0.54">
        <g id="Grupo_147610" data-name="Grupo 147610">
          <g id="Grupo_147609" data-name="Grupo 147609" clip-path="url(#clip-path-8)">
            <rect id="Rectángulo_45689" data-name="Rectángulo 45689" width="65.852" height="2.808" transform="translate(0 0)" fill="#99bfd6"/>
          </g>
        </g>
      </g>
      <g id="Grupo_147614" data-name="Grupo 147614" transform="translate(118.123 133.092)" opacity="0.85">
        <g id="Grupo_147613" data-name="Grupo 147613">
          <g id="Grupo_147612" data-name="Grupo 147612" clip-path="url(#clip-path-15)">
            <rect id="Rectángulo_45691" data-name="Rectángulo 45691" width="85.658" height="2.808" transform="translate(0 0)" fill="#7aaac1"/>
          </g>
        </g>
      </g>
      <g id="Grupo_147617" data-name="Grupo 147617" transform="translate(117.045 138.007)" opacity="0.54">
        <g id="Grupo_147616" data-name="Grupo 147616">
          <g id="Grupo_147615" data-name="Grupo 147615" clip-path="url(#clip-path-7)">
            <rect id="Rectángulo_45693" data-name="Rectángulo 45693" width="91.226" height="2.808" transform="translate(0 0)" fill="#99bfd6"/>
          </g>
        </g>
      </g>
      <g id="Grupo_147620" data-name="Grupo 147620" transform="translate(117.045 143.624)" opacity="0.54">
        <g id="Grupo_147619" data-name="Grupo 147619">
          <g id="Grupo_147618" data-name="Grupo 147618" clip-path="url(#clip-path-8)">
            <rect id="Rectángulo_45695" data-name="Rectángulo 45695" width="65.852" height="2.808" transform="translate(0 0)" fill="#99bfd6"/>
          </g>
        </g>
      </g>
      <rect id="Rectángulo_45697" data-name="Rectángulo 45697" width="54.063" height="44.233" transform="translate(221.334 60.774)" fill="#d0eae2"/>
      <g id="Grupo_147623" data-name="Grupo 147623" transform="translate(226.532 66.391)" opacity="0.85">
        <g id="Grupo_147622" data-name="Grupo 147622">
          <g id="Grupo_147621" data-name="Grupo 147621" clip-path="url(#clip-path-18)">
            <rect id="Rectángulo_45698" data-name="Rectángulo 45698" width="21.313" height="2.808" transform="translate(0 0)" fill="#7aaac1"/>
          </g>
        </g>
      </g>
      <g id="Grupo_147626" data-name="Grupo 147626" transform="translate(226.532 71.305)" opacity="0.54">
        <g id="Grupo_147625" data-name="Grupo 147625">
          <g id="Grupo_147624" data-name="Grupo 147624" clip-path="url(#clip-path-19)">
            <rect id="Rectángulo_45700" data-name="Rectángulo 45700" width="34.829" height="2.808" transform="translate(0 0)" fill="#99bfd6"/>
          </g>
        </g>
      </g>
      <g id="Grupo_147629" data-name="Grupo 147629" transform="translate(226.532 76.922)" opacity="0.54">
        <g id="Grupo_147628" data-name="Grupo 147628">
          <g id="Grupo_147627" data-name="Grupo 147627" clip-path="url(#clip-path-20)">
            <rect id="Rectángulo_45702" data-name="Rectángulo 45702" width="25.472" height="2.808" transform="translate(0 0)" fill="#99bfd6"/>
          </g>
        </g>
      </g>
      <g id="Grupo_147632" data-name="Grupo 147632" transform="translate(226.532 86.05)" opacity="0.85">
        <g id="Grupo_147631" data-name="Grupo 147631">
          <g id="Grupo_147630" data-name="Grupo 147630" clip-path="url(#clip-path-18)">
            <rect id="Rectángulo_45704" data-name="Rectángulo 45704" width="21.313" height="2.808" transform="translate(0 0)" fill="#7aaac1"/>
          </g>
        </g>
      </g>
      <g id="Grupo_147635" data-name="Grupo 147635" transform="translate(226.532 90.965)" opacity="0.54">
        <g id="Grupo_147634" data-name="Grupo 147634">
          <g id="Grupo_147633" data-name="Grupo 147633" clip-path="url(#clip-path-19)">
            <rect id="Rectángulo_45706" data-name="Rectángulo 45706" width="34.829" height="2.808" transform="translate(0 0)" fill="#99bfd6"/>
          </g>
        </g>
      </g>
      <g id="Grupo_147638" data-name="Grupo 147638" transform="translate(226.532 96.581)" opacity="0.54">
        <g id="Grupo_147637" data-name="Grupo 147637">
          <g id="Grupo_147636" data-name="Grupo 147636" clip-path="url(#clip-path-20)">
            <rect id="Rectángulo_45708" data-name="Rectángulo 45708" width="25.472" height="2.808" transform="translate(0 0)" fill="#99bfd6"/>
          </g>
        </g>
      </g>
      <g id="Grupo_147641" data-name="Grupo 147641" transform="translate(118.123 154.155)" opacity="0.85">
        <g id="Grupo_147640" data-name="Grupo 147640">
          <g id="Grupo_147639" data-name="Grupo 147639" clip-path="url(#clip-path-9)">
            <rect id="Rectángulo_45710" data-name="Rectángulo 45710" width="63.893" height="2.808" transform="translate(0 0)" fill="#7aaac1"/>
          </g>
        </g>
      </g>
      <g id="Grupo_147644" data-name="Grupo 147644" transform="translate(117.045 159.071)" opacity="0.54">
        <g id="Grupo_147643" data-name="Grupo 147643">
          <g id="Grupo_147642" data-name="Grupo 147642" clip-path="url(#clip-path-25)">
            <rect id="Rectángulo_45712" data-name="Rectángulo 45712" width="91.226" height="2.808" transform="translate(0 0)" fill="#99bfd6"/>
          </g>
        </g>
      </g>
      <g id="Grupo_147647" data-name="Grupo 147647" transform="translate(117.045 164.687)" opacity="0.54">
        <g id="Grupo_147646" data-name="Grupo 147646">
          <g id="Grupo_147645" data-name="Grupo 147645" clip-path="url(#clip-path-8)">
            <rect id="Rectángulo_45714" data-name="Rectángulo 45714" width="65.852" height="2.808" transform="translate(0 0)" fill="#99bfd6"/>
          </g>
        </g>
      </g>
      <path id="Trazado_201844" data-name="Trazado 201844" d="M3092.175,1155.744l-59.361,2.08,19.019,18.132-85.467,94.431,16.781,16a8.836,8.836,0,0,0,12.492-.3l79.37-88.036,17.921,17.085Z" transform="translate(-2608.475 -1016.304)" fill="#ffa400"/>
      <path id="Trazado_201845" data-name="Trazado 201845" d="M1521.4,526.685l-14.528,15.233a9.558,9.558,0,0,1-13.513.32l-220.389-210.19L1294.1,309.9Z" transform="translate(-1119.39 -272.51)" fill="#ffa400"/>
      <path id="Trazado_203478" data-name="Trazado 203478" d="M4165.733,1024.5s2.994-5.729,2.008-7.363c-.8-1.321-6.024-1.339-6.024-1.339l1.339,8.7Z" transform="translate(-3659.606 -893.239)" fill="#e7b29c"/>
      <path id="Trazado_203479" data-name="Trazado 203479" d="M4235.75,2588.475v9.02h-14.432l10.824-3.608,1.8-8.118Z" transform="translate(-3712.017 -2273.797)" fill="#061323"/>
      <path id="Trazado_203480" data-name="Trazado 203480" d="M4612.78,2600.721l-2.706,10.824h9.02l-2.706-9.02Z" transform="translate(-4053.87 -2286.945)" fill="#061323"/>
      <path id="Trazado_203481" data-name="Trazado 203481" d="M4512.885,1911.761l7.216,50.511,4.195,32.471h9.335l-2.706-35.177,2.706-54.119Z" transform="translate(-3968.406 -1675.555)" fill="#061323"/>
      <path id="Trazado_203482" data-name="Trazado 203482" d="M4320.953,1860.59l-9.922,44.2V1954.4h4.51l6.314-46,14.883-35.478Z" transform="translate(-3790.906 -1636.11)" fill="#09213d"/>
      <path id="Trazado_203483" data-name="Trazado 203483" d="M4427.161,1167.31a9.471,9.471,0,1,1-9.471-9.471,9.471,9.471,0,0,1,9.471,9.471" transform="translate(-3876.369 -1018.146)" fill="#e7b29c"/>
      <path id="Trazado_203484" data-name="Trazado 203484" d="M4452.728,1256.312v-16.236l-15.434,6.9,3.708,9.333Z" transform="translate(-3901.935 -1090.461)" fill="#e7b29c"/>
      <path id="Trazado_203485" data-name="Trazado 203485" d="M4456.7,1157.839c-3.31,0-6.122,2.6-7.2,6.227a8.559,8.559,0,0,1,3.925,11.8,6.446,6.446,0,0,0,3.271.915c4.234,0,7.667-4.24,7.667-9.471s-3.432-9.471-7.667-9.471" transform="translate(-3912.675 -1018.146)" fill="#181626"/>
      <path id="Trazado_203486" data-name="Trazado 203486" d="M4512.885,1242.522h6.313l.9-9.922Z" transform="translate(-3968.406 -1083.887)" fill="#181626"/>
      <path id="Trazado_203487" data-name="Trazado 203487" d="M4355.887,1834.661h17.039l5.511-9.462-19.843-16.942Z" transform="translate(-3830.351 -1590.092)" fill="#061323"/>
      <path id="Trazado_203488" data-name="Trazado 203488" d="M4457.065,1355.826c0,1.993-4.24,3.608-9.47,3.608s-9.471-1.615-9.471-3.608,4.24-3.608,9.471-3.608,9.47,1.615,9.47,3.608" transform="translate(-3902.665 -1189.073)" fill="#cad1e0"/>
      <rect id="Rectángulo_45717" data-name="Rectángulo 45717" width="44.197" height="75.767" transform="translate(523.733 165.851)" fill="#0a2346"/>
      <path id="Trazado_203489" data-name="Trazado 203489" d="M4158.665,1114.3l-16.733-15.395-1.339-22.088h-4.686s-5.614,18.2-4.016,24.1c2.736,10.091,26.773,32.128,26.773,32.128Z" transform="translate(-3633.128 -946.901)" fill="#0a2346"/>
      <path id="Trazado_203490" data-name="Trazado 203490" d="M4447.239,1722.7a26.949,26.949,0,0,0-14.883-4.158c-10.3,0-18.875,5-20.793,11.627,3.468-4.752,10.667-8.019,18.989-8.019,6.777,0,12.807,2.168,16.687,5.538Z" transform="translate(-3879.309 -1511.203)" fill="#061323"/>
      <path id="Trazado_203491" data-name="Trazado 203491" d="M4455.782,1136.053s-2.706-1.8-2.706-4.51,3.608-3.608,3.608-3.608l7.216,6.454Z" transform="translate(-3915.814 -991.85)" fill="#181626"/>
      <path id="Trazado_203492" data-name="Trazado 203492" d="M4665.37,1374.066l20.836,23.246-21.262,18.426-5.244-1.843,13.04-16.159-9.071-8.5Z" transform="translate(-4097.508 -1208.285)" fill="#0a2346"/>
      <g id="Grupo_147653" data-name="Grupo 147653" transform="translate(10.709 44.966)" opacity="0.85">
        <g id="Grupo_147652" data-name="Grupo 147652">
          <g id="Grupo_147651" data-name="Grupo 147651" clip-path="url(#clip-path-27)">
            <path id="Trazado_203493" data-name="Trazado 203493" d="M92.255,648.892h-3.5L135.373,372.7h3.5Z" transform="translate(-88.759 -372.704)" fill="#0f0f0f"/>
          </g>
        </g>
      </g>
      <g id="Grupo_147656" data-name="Grupo 147656" transform="translate(57.323 44.966)" opacity="0.85">
        <g id="Grupo_147655" data-name="Grupo 147655">
          <g id="Grupo_147654" data-name="Grupo 147654" clip-path="url(#clip-path-27)">
            <path id="Trazado_203494" data-name="Trazado 203494" d="M478.613,648.892h-3.5L521.73,372.7h3.5Z" transform="translate(-475.117 -372.704)" fill="#0f0f0f"/>
          </g>
        </g>
      </g>
      <rect id="Rectángulo_45720" data-name="Rectángulo 45720" width="46.614" height="3.496" transform="translate(57.323 56.62)" fill="#0f0f0f"/>
      <rect id="Rectángulo_45721" data-name="Rectángulo 45721" width="46.614" height="3.496" transform="translate(53.827 74.1)" fill="#0f0f0f"/>
      <rect id="Rectángulo_45722" data-name="Rectángulo 45722" width="46.614" height="3.496" transform="translate(50.331 91.581)" fill="#0f0f0f"/>
      <rect id="Rectángulo_45723" data-name="Rectángulo 45723" width="46.614" height="3.496" transform="translate(46.835 109.061)" fill="#0f0f0f"/>
      <rect id="Rectángulo_45724" data-name="Rectángulo 45724" width="46.614" height="3.496" transform="translate(45.669 126.541)" fill="#0f0f0f"/>
      <rect id="Rectángulo_45725" data-name="Rectángulo 45725" width="46.614" height="3.496" transform="translate(42.173 144.021)" fill="#0f0f0f"/>
      <rect id="Rectángulo_45726" data-name="Rectángulo 45726" width="46.614" height="3.496" transform="translate(38.677 161.501)" fill="#0f0f0f"/>
      <rect id="Rectángulo_45727" data-name="Rectángulo 45727" width="46.614" height="3.496" transform="translate(35.181 178.982)" fill="#0f0f0f"/>
      <rect id="Rectángulo_45728" data-name="Rectángulo 45728" width="46.614" height="3.496" transform="translate(34.016 194.131)" fill="#0f0f0f"/>
      <rect id="Rectángulo_45729" data-name="Rectángulo 45729" width="46.614" height="3.496" transform="translate(30.52 211.611)" fill="#0f0f0f"/>
      <rect id="Rectángulo_45730" data-name="Rectángulo 45730" width="46.614" height="3.496" transform="translate(27.024 229.092)" fill="#0f0f0f"/>
      <rect id="Rectángulo_45731" data-name="Rectángulo 45731" width="46.614" height="3.496" transform="translate(23.528 246.572)" fill="#0f0f0f"/>
      <rect id="Rectángulo_45732" data-name="Rectángulo 45732" width="46.614" height="3.496" transform="translate(22.362 264.052)" fill="#0f0f0f"/>
      <rect id="Rectángulo_45733" data-name="Rectángulo 45733" width="46.614" height="3.496" transform="translate(18.867 281.532)" fill="#0f0f0f"/>
      <rect id="Rectángulo_45734" data-name="Rectángulo 45734" width="46.614" height="3.496" transform="translate(15.37 299.013)" fill="#0f0f0f"/>
      <path id="Trazado_203496" data-name="Trazado 203496" d="M195.971,572.442s4.484,4.485,6.448,4.49c1.115,0,3.262-2.247,2.975-3.324-.6-2.24-8.8-2.909-8.8-2.909Z" transform="translate(-172.327 -501.844)" fill="#e7b29c"/>
      <path id="Trazado_203497" data-name="Trazado 203497" d="M517.915,1389.242v9.3h14.873l-11.154-3.718-1.859-8.366Z" transform="translate(-455.428 -1219.178)" fill="#061323"/>
      <path id="Trazado_203498" data-name="Trazado 203498" d="M276.267,1517.769l2.789,11.154h-9.3l2.789-9.3Z" transform="translate(-237.213 -1334.651)" fill="#061323"/>
      <path id="Trazado_203499" data-name="Trazado 203499" d="M291.139,807.766,283.7,859.82l-4.323,33.463h-9.62l2.789-36.252-2.789-55.772Z" transform="translate(-237.213 -704.587)" fill="#061323"/>
      <path id="Trazado_203500" data-name="Trazado 203500" d="M451.672,755.032,461.9,800.58l-12.819,37.14H444.43l6.312-33.422L435.4,767.736Z" transform="translate(-382.873 -663.938)" fill="#09213d"/>
      <path id="Trazado_203501" data-name="Trazado 203501" d="M393.03,40.578a9.76,9.76,0,1,0,9.76-9.76,9.76,9.76,0,0,0-9.76,9.76" transform="translate(-345.611 -27.1)" fill="#e7b29c"/>
      <path id="Trazado_203502" data-name="Trazado 203502" d="M393.03,132.3V115.567l15.905,7.114-3.821,9.618Z" transform="translate(-345.611 -101.624)" fill="#e7b29c"/>
      <path id="Trazado_203503" data-name="Trazado 203503" d="M393.228,30.818c3.411,0,6.309,2.676,7.415,6.417A8.82,8.82,0,0,0,396.6,49.4a6.643,6.643,0,0,1-3.371.943c-4.364,0-7.9-4.37-7.9-9.76s3.537-9.76,7.9-9.76" transform="translate(-338.837 -27.1)" fill="#181626"/>
      <path id="Trazado_203504" data-name="Trazado 203504" d="M392.763,118.087h-6.507l-.929-10.225Z" transform="translate(-338.837 -94.848)" fill="#181626"/>
      <path id="Trazado_203505" data-name="Trazado 203505" d="M439.382,728.312H421.824l-5.68-9.751,20.45-17.459Z" transform="translate(-365.936 -616.514)" fill="#061323"/>
      <path id="Trazado_203506" data-name="Trazado 203506" d="M362.213,234.85c0,2.053,4.37,3.718,9.76,3.718s9.76-1.665,9.76-3.718-4.37-3.718-9.76-3.718-9.76,1.665-9.76,3.718" transform="translate(-318.512 -203.246)" fill="#cad1e0"/>
      <rect id="Rectángulo_45735" data-name="Rectángulo 45735" width="45.547" height="78.081" transform="translate(29.758 30.675)" fill="#0a2346"/>
      <path id="Trazado_203507" data-name="Trazado 203507" d="M610.613,118.749,626,124.931l-14.422-22.763,3.685-2.01S637.992,120.926,636.345,127c-2.82,10.4-27.591,12.659-27.591,12.659Z" transform="translate(-535.308 -88.074)" fill="#0a2346"/>
      <path id="Trazado_203508" data-name="Trazado 203508" d="M29.758,254.25S.737,264.9.013,273.77c-.643,7.868,23.238,21.379,23.238,21.379l2.789-2.789s-7.436-9.3-12.084-13.943c-4.6-4.6,18.591-5.964,18.591-5.964Z" transform="translate(0 -223.575)" fill="#0a2346"/>
      <path id="Trazado_203509" data-name="Trazado 203509" d="M246.647,612.934a27.772,27.772,0,0,1,15.337-4.286c10.611,0,19.452,5.152,21.428,11.982-3.574-4.9-10.993-8.264-19.569-8.264-6.984,0-13.2,2.234-17.2,5.707Z" transform="translate(-216.889 -535.215)" fill="#061323"/>
      <path id="Trazado_203511" data-name="Trazado 203511" d="M2291.245,926.626a13.708,13.708,0,1,1,10.859-16.058,13.723,13.723,0,0,1-10.859,16.058m-4.931-25.53a12.294,12.294,0,1,0,14.4,9.74,12.308,12.308,0,0,0-14.4-9.74" transform="translate(-2000.466 -790.939)" fill="#262626"/>
      <rect id="Rectángulo_45736" data-name="Rectángulo 45736" width="1.913" height="19.501" transform="matrix(0.982, -0.19, 0.19, 0.982, 289.702, 134.674)" fill="#262626"/>
      <rect id="Rectángulo_45737" data-name="Rectángulo 45737" width="4.522" height="1.979" transform="matrix(0.982, -0.19, 0.19, 0.982, 288.271, 135.74)" fill="#262626"/>
      <rect id="Rectángulo_45738" data-name="Rectángulo 45738" width="5.312" height="14.979" transform="translate(288.783 138.881) rotate(-10.934)" fill="#0a2346"/>
      <rect id="Rectángulo_45739" data-name="Rectángulo 45739" width="2.55" height="14.979" transform="translate(290.244 138.598) rotate(-10.927)" fill="#0a2346"/>
      <rect id="Rectángulo_45740" data-name="Rectángulo 45740" width="5.312" height="1.978" transform="translate(291.41 152.479) rotate(-10.931)" fill="#262626"/>
      <g id="Grupo_147659" data-name="Grupo 147659" transform="translate(277.013 110.912)" opacity="0.05">
        <g id="Grupo_147658" data-name="Grupo 147658">
          <g id="Grupo_147657" data-name="Grupo 147657" clip-path="url(#clip-path-29)">
            <path id="Trazado_203512" data-name="Trazado 203512" d="M2301.4,934.112a9.316,9.316,0,0,1,16.057-8.013,11.167,11.167,0,1,0-8.617,15.4,9.315,9.315,0,0,1-7.44-7.39" transform="translate(-2296.006 -919.293)" fill="#fff"/>
          </g>
        </g>
      </g>
      <g id="Grupo_147662" data-name="Grupo 147662" transform="translate(278.647 114.739)" opacity="0.1">
        <g id="Grupo_147661" data-name="Grupo 147661">
          <g id="Grupo_147660" data-name="Grupo 147660" clip-path="url(#clip-path-30)">
            <path id="Trazado_203513" data-name="Trazado 203513" d="M2318.508,954.679a4.522,4.522,0,1,1-5.3-3.583,4.522,4.522,0,0,1,5.3,3.583" transform="translate(-2309.546 -951.013)" fill="#fff"/>
          </g>
        </g>
      </g>
      <path id="Trazado_203514" data-name="Trazado 203514" d="M2412.058,1208.511s-6.614-5.74-5.626-7.376c.8-1.323,6.035-1.341,6.035-1.341l2.273,8.717Z" transform="translate(-2116.008 -1055.039)" fill="#e7b29c"/>
      <path id="Trazado_203515" data-name="Trazado 203515" d="M2018.659,1703.864s4.359,4.36,6.268,4.365c1.084,0,3.172-2.184,2.892-3.231-.581-2.177-8.559-2.828-8.559-2.828Z" transform="translate(-1775.108 -1496.803)" fill="#e7b29c"/>
      <path id="Trazado_203516" data-name="Trazado 203516" d="M2434.925,2610.594v9.036h14.458l-10.844-3.615-1.808-8.133Z" transform="translate(-2141.152 -2293.242)" fill="#061323"/>
      <path id="Trazado_203517" data-name="Trazado 203517" d="M2096.718,2622.862l2.711,10.844h-9.036l2.711-9.036Z" transform="translate(-1838.187 -2306.414)" fill="#061323"/>
      <path id="Trazado_203518" data-name="Trazado 203518" d="M2111.177,1932.633l-7.229,50.6-4.2,32.531h-9.352l2.711-35.242-2.711-54.219Z" transform="translate(-1838.187 -1693.898)" fill="#061323"/>
      <path id="Trazado_203519" data-name="Trazado 203519" d="M2267.238,1881.368l9.94,44.279v49.7h-4.518l-6.325-46.086-14.91-35.543Z" transform="translate(-1979.79 -1654.382)" fill="#09213d"/>
      <path id="Trazado_203520" data-name="Trazado 203520" d="M2210.23,1186.812a9.488,9.488,0,1,0,9.488-9.488,9.488,9.488,0,0,0-9.488,9.488" transform="translate(-1943.566 -1035.28)" fill="#e7b29c"/>
      <path id="Trazado_203521" data-name="Trazado 203521" d="M2210.23,1275.978v-16.266l15.462,6.916-3.715,9.35Z" transform="translate(-1943.566 -1107.728)" fill="#e7b29c"/>
      <path id="Trazado_203522" data-name="Trazado 203522" d="M2210.421,1177.324c3.316,0,6.133,2.6,7.208,6.238a8.575,8.575,0,0,0-3.932,11.822,6.46,6.46,0,0,1-3.277.916c-4.242,0-7.681-4.248-7.681-9.488s3.439-9.488,7.681-9.488" transform="translate(-1936.98 -1035.28)" fill="#181626"/>
      <path id="Trazado_203523" data-name="Trazado 203523" d="M2209.969,1262.163h-6.325l-.9-9.94Z" transform="translate(-1936.979 -1101.142)" fill="#181626"/>
      <path id="Trazado_203524" data-name="Trazado 203524" d="M2255.29,1855.392h-17.07l-5.521-9.479,19.88-16.973Z" transform="translate(-1963.324 -1608.278)" fill="#061323"/>
      <path id="Trazado_203525" data-name="Trazado 203525" d="M2180.271,1375.675c0,2,4.248,3.615,9.488,3.615s9.488-1.618,9.488-3.615-4.248-3.615-9.488-3.615-9.488,1.618-9.488,3.615" transform="translate(-1917.222 -1206.521)" fill="#cad1e0"/>
      <rect id="Rectángulo_45743" data-name="Rectángulo 45743" width="44.279" height="75.906" transform="translate(249.495 168.25)" fill="#0a2346"/>
      <path id="Trazado_203526" data-name="Trazado 203526" d="M2421.752,1262.8l14.957,6.01-14.021-22.129,3.582-1.954s22.1,20.189,20.5,26.094c-2.741,10.11-26.823,12.307-26.823,12.307Z" transform="translate(-2127.979 -1094.555)" fill="#0a2346"/>
      <path id="Trazado_203527" data-name="Trazado 203527" d="M1857.074,1394.533s-28.213,10.358-28.917,18.976c-.625,7.649,22.591,20.784,22.591,20.784l2.711-2.711s-7.229-9.036-11.747-13.555c-4.473-4.473,18.073-5.8,18.073-5.8Z" transform="translate(-1607.58 -1226.283)" fill="#0a2346"/>
      <path id="Trazado_203528" data-name="Trazado 203528" d="M2067.923,1743.227a27,27,0,0,1,14.91-4.166c10.316,0,18.911,5.009,20.832,11.649-3.475-4.761-10.686-8.034-19.024-8.034-6.789,0-12.83,2.172-16.717,5.548Z" transform="translate(-1818.428 -1529.244)" fill="#061323"/>
      <path id="Trazado_203529" data-name="Trazado 203529" d="M2240.832,1155.5s2.711-1.807,2.711-4.518-3.615-3.615-3.615-3.615l-7.229,6.466Z" transform="translate(-1963.324 -1008.935)" fill="#181626"/>
      <path id="Trazado_203530" data-name="Trazado 203530" d="M2430.146,1205.215h0a2.711,2.711,0,1,1,2.711-2.711,2.719,2.719,0,0,1-2.711,2.711" transform="translate(-2134.565 -1055.038)" fill="#e7b29c"/>
      <rect id="Rectángulo_45744" data-name="Rectángulo 45744" width="588.698" height="327.291" transform="translate(0)" fill="none"/>
    </g>
  </g>
</svg>
