<svg xmlns="http://www.w3.org/2000/svg" width="62.524" height="66.527" viewBox="0 0 62.524 66.527">
  <g id="signo-de-exclamacion" transform="translate(-15.257)">
    <g id="Grupo_146938" data-name="Grupo 146938" transform="translate(16.22 0.763)">
      <g id="Grupo_146935" data-name="Grupo 146935" transform="translate(0)">
        <path id="Trazado_198602" data-name="Trazado 198602" d="M52.879,5.815a30.278,30.278,0,1,1,0,60.556c-4.3,0-11.955-2.558-15.661-4.176A39.844,39.844,0,0,1,29.91,69.5v-13.7a30.267,30.267,0,0,1,22.97-49.99Z" transform="translate(-22.601 -5.815)" fill="#d0eae2"/>
        <g id="Grupo_146934" data-name="Grupo 146934" transform="translate(0)">
          <path id="Trazado_198603" data-name="Trazado 198603" d="M58.312,6.31a30.266,30.266,0,0,0-28.4,49.495V69.5a39.849,39.849,0,0,0,7.309-7.309c.835.365,1.877.777,3.029,1.2A35.982,35.982,0,0,1,32.736,41.45C32.736,25.454,43.342,11.8,58.312,6.31Z" transform="translate(-22.601 -5.815)" fill="#92bfb1"/>
        </g>
      </g>
      <g id="Grupo_146937" data-name="Grupo 146937" transform="translate(27.146 7.309)">
        <g id="XMLID_59_">
          <g id="Grupo_146936" data-name="Grupo 146936">
            <path id="Trazado_198604" data-name="Trazado 198604" d="M232.67,363.974a3.132,3.132,0,1,1-3.132,3.132A3.128,3.128,0,0,1,232.67,363.974Z" transform="translate(-229.538 -324.299)" fill="#ffa400"/>
            <rect id="Rectángulo_45150" data-name="Rectángulo 45150" width="6.264" height="35.498" fill="#ffa400"/>
          </g>
        </g>
      </g>
    </g>
    <g id="Grupo_146951" data-name="Grupo 146951" transform="translate(15.257)">
      <g id="Grupo_146950" data-name="Grupo 146950">
        <g id="XMLID_38_">
          <g id="Grupo_146949" data-name="Grupo 146949">
            <g id="Grupo_146939" data-name="Grupo 146939" transform="translate(13.705)">
              <path id="Trazado_198605" data-name="Trazado 198605" d="M161.8,50.667l-1.542-1.222A29.3,29.3,0,0,0,120.835,7.017L119.729,5.39A31.267,31.267,0,0,1,161.8,50.667Z" transform="translate(-119.729)" fill="#d0eae2"/>
            </g>
            <g id="Grupo_146940" data-name="Grupo 146940" transform="translate(0 7.546)">
              <path id="Trazado_198606" data-name="Trazado 198606" d="M22.565,116.5V101.313a31.248,31.248,0,0,1,3.581-43.79l1.283,1.492A29.28,29.28,0,0,0,24.3,100.31l.238.277v12.006a50.03,50.03,0,0,0,5.563-5.874l.472-.577.683.3c3.782,1.651,11.249,4.094,15.267,4.094a29.166,29.166,0,0,0,20.206-8.081l1.357,1.425A31.126,31.126,0,0,1,46.519,112.5c-4.113,0-11.191-2.23-15.371-3.967a39.165,39.165,0,0,1-7.047,6.93Z" transform="translate(-15.257 -57.523)" fill="#fff"/>
            </g>
            <g id="Grupo_146941" data-name="Grupo 146941" transform="translate(27.146 7.308)">
              <path id="Trazado_198607" data-name="Trazado 198607" d="M230.426,93.179h-8.232V55.713h8.232Zm-6.264-1.968h4.3V57.681h-4.3Z" transform="translate(-222.194 -55.713)" fill="#16697a"/>
            </g>
            <g id="Grupo_146942" data-name="Grupo 146942" transform="translate(27.146 46.983)">
              <path id="Trazado_198608" data-name="Trazado 198608" d="M226.31,366.392a4.116,4.116,0,1,1,4.116-4.116A4.121,4.121,0,0,1,226.31,366.392Zm0-6.264a2.148,2.148,0,1,0,2.148,2.148A2.151,2.151,0,0,0,226.31,360.128Z" transform="translate(-222.194 -358.16)" fill="#16697a"/>
            </g>
          </g>
        </g>
      </g>
    </g>
  </g>
</svg>
