<svg xmlns="http://www.w3.org/2000/svg" width="553.739" height="553.736" viewBox="0 0 553.739 553.736">
  <g id="Grupo_147785" data-name="Grupo 147785" transform="translate(-523.686 -2813.683)">
    <g id="Grupo_147558" data-name="Grupo 147558" transform="translate(0 -47)">
      <path id="Trazado_201733" data-name="Trazado 201733" d="M.5,277.2A276.64,276.64,0,0,1,277.207.5V106.247A170.978,170.978,0,0,0,106.247,277.2Z" transform="translate(523.186 2860.183)" fill="#ffa400"/>
      <path id="Trazado_201734" data-name="Trazado 201734" d="M277.207,1123.753A276.638,276.638,0,0,1,.5,847.049H106.247a170.983,170.983,0,0,0,170.96,170.961Z" transform="translate(523.186 2290.665)" fill="#92bfb1"/>
      <path id="Trazado_201735" data-name="Trazado 201735" d="M847.06,1018.011A170.981,170.981,0,0,0,1018.017,847.05h105.747a276.637,276.637,0,0,1-276.7,276.7Z" transform="translate(-47.06 2290.337)" fill="#d0eae2"/>
      <path id="Trazado_201736" data-name="Trazado 201736" d="M1018.017,277.2A170.978,170.978,0,0,0,847.06,106.247V.5a276.638,276.638,0,0,1,276.7,276.7Z" transform="translate(-46.339 2860.183)" fill="#16697a"/>
      <path id="Trazado_201737" data-name="Trazado 201737" d="M847.06,495.27V324.64a170.651,170.651,0,0,1,170.63,170.63Z" transform="translate(-46.339 2642.117)" fill="#eaeaea"/>
      <path id="Trazado_201738" data-name="Trazado 201738" d="M324.641,495.27A170.654,170.654,0,0,1,495.274,324.64V495.27Z" transform="translate(305.119 2642.117)" fill="#f4f4f4"/>
      <path id="Trazado_201739" data-name="Trazado 201739" d="M495.274,1017.683A170.655,170.655,0,0,1,324.641,847.05H495.274Z" transform="translate(305.119 2290.664)" fill="#eaeaea"/>
      <path id="Trazado_201740" data-name="Trazado 201740" d="M847.06,847.05h170.63a170.653,170.653,0,0,1-170.63,170.633Z" transform="translate(-46.339 2290.664)" fill="#f4f4f4"/>
      <path id="Trazado_201741" data-name="Trazado 201741" d="M44.837-13.016H21.82L17.8,0H-.144L25.409-69.672H41.2L66.944,0H48.9Zm-19-12.968H40.817L33.3-50.148Z" transform="translate(595.144 3021.672)" fill="#fff"/>
      <path id="Trazado_201742" data-name="Trazado 201742" d="M22.06-23.639V0H5.264V-69.672h27.8a32.382,32.382,0,0,1,14.14,2.943,22.178,22.178,0,0,1,9.522,8.374A22.87,22.87,0,0,1,60.1-46.033q0,10.192-7.3,16.293t-20.026,6.1Zm0-12.968H33.065q4.881,0,7.441-2.44a9.067,9.067,0,0,0,2.56-6.891,11.208,11.208,0,0,0-2.632-7.8A9.319,9.319,0,0,0,33.257-56.7H22.06Z" transform="translate(938.736 3021.672)" fill="#fff"/>
      <path id="Trazado_201743" data-name="Trazado 201743" d="M32.3-18.949,46.177-69.672H64.935L41.487,0H23.112L-.144-69.672H18.471Z" transform="translate(597.144 3314)" fill="#fff"/>
      <path id="Trazado_201744" data-name="Trazado 201744" d="M63.5,0H46.8V-29.094H22.06V0H5.264V-69.672h16.8v27.658H46.8V-69.672H63.5Z" transform="translate(938.736 3314)" fill="#fff"/>
      <path id="Trazado_201747" data-name="Trazado 201747" d="M9.15-2.656h-4.7L3.633,0H-.029L5.186-14.219H8.408L13.662,0H9.98ZM5.273-5.3H8.33L6.8-10.234Zm12.813-5.264V.361a3.836,3.836,0,0,1-1.074,2.891,4.127,4.127,0,0,1-2.969,1.016A7.009,7.009,0,0,1,12.49,4.1V1.611a6.3,6.3,0,0,0,.928.088A1.2,1.2,0,0,0,14.785.342V-10.566Zm-3.545-2.725a1.469,1.469,0,0,1,.508-1.152,1.916,1.916,0,0,1,1.318-.449,1.916,1.916,0,0,1,1.318.449,1.469,1.469,0,0,1,.508,1.152,1.469,1.469,0,0,1-.508,1.152,1.916,1.916,0,0,1-1.318.449,1.916,1.916,0,0,1-1.318-.449A1.469,1.469,0,0,1,14.541-13.291ZM26.24-1.143A3.393,3.393,0,0,1,23.418.2,3.328,3.328,0,0,1,20.786-.815a4.251,4.251,0,0,1-.894-2.905v-6.846h3.291V-3.7A1.183,1.183,0,0,0,24.5-2.344a1.72,1.72,0,0,0,1.611-.811v-7.412h3.311V0H26.338ZM36.758-2.969a.76.76,0,0,0-.439-.674,6.685,6.685,0,0,0-1.67-.527,7.615,7.615,0,0,1-2.031-.718A3.4,3.4,0,0,1,31.4-5.967a2.577,2.577,0,0,1-.42-1.455,2.92,2.92,0,0,1,1.2-2.4,4.948,4.948,0,0,1,3.145-.942,5.482,5.482,0,0,1,3.359.947,2.962,2.962,0,0,1,1.27,2.49h-3.3q0-1.27-1.338-1.27a1.326,1.326,0,0,0-.869.288.892.892,0,0,0-.352.718.819.819,0,0,0,.43.713,4.06,4.06,0,0,0,1.372.449,11.857,11.857,0,0,1,1.655.42,3.007,3.007,0,0,1,2.383,2.939A2.767,2.767,0,0,1,38.647-.713,5.632,5.632,0,0,1,35.322.2,5.747,5.747,0,0,1,32.9-.293a4.05,4.05,0,0,1-1.66-1.328,3.007,3.007,0,0,1-.6-1.768h3.076a1.272,1.272,0,0,0,.488,1.069,2.009,2.009,0,0,0,1.2.337,1.58,1.58,0,0,0,1.011-.273A.875.875,0,0,0,36.758-2.969ZM45.3-13.193v2.627h1.738v2.285H45.3v4.834a1.234,1.234,0,0,0,.215.83,1.152,1.152,0,0,0,.85.234,4.828,4.828,0,0,0,.82-.059V-.088A6.074,6.074,0,0,1,45.332.2a3.448,3.448,0,0,1-2.51-.8,3.282,3.282,0,0,1-.811-2.432V-8.281H40.664v-2.285h1.348v-2.627ZM54.287,0a3.716,3.716,0,0,1-.312-.947A3.06,3.06,0,0,1,51.436.2a3.749,3.749,0,0,1-2.539-.9,2.875,2.875,0,0,1-1.045-2.271,2.955,2.955,0,0,1,1.27-2.6,6.468,6.468,0,0,1,3.691-.879h1.016v-.557q0-1.455-1.26-1.455A1.027,1.027,0,0,0,51.4-7.314H48.105a2.955,2.955,0,0,1,1.3-2.49,5.474,5.474,0,0,1,3.325-.957,4.8,4.8,0,0,1,3.193.986,3.429,3.429,0,0,1,1.2,2.705v4.678a4.79,4.79,0,0,0,.449,2.227V0ZM52.227-2.148a1.836,1.836,0,0,0,1.021-.264,1.653,1.653,0,0,0,.581-.6V-4.7h-.957q-1.719,0-1.719,1.543a.942.942,0,0,0,.3.728A1.1,1.1,0,0,0,52.227-2.148ZM65.342-7.588l-1.084-.078a1.947,1.947,0,0,0-1.992.977V0H58.975V-10.566h3.086l.107,1.357a2.548,2.548,0,0,1,2.314-1.553,3.209,3.209,0,0,1,.918.117Z" transform="translate(691 3073)" fill="#12263f"/>
      <path id="Trazado_201748" data-name="Trazado 201748" d="M4.5-4.824V0H1.074V-14.219H6.748a6.608,6.608,0,0,1,2.886.6,4.526,4.526,0,0,1,1.943,1.709,4.667,4.667,0,0,1,.688,2.515,4.114,4.114,0,0,1-1.489,3.325A6.179,6.179,0,0,1,6.689-4.824Zm0-2.646H6.748a2.118,2.118,0,0,0,1.519-.5,1.85,1.85,0,0,0,.522-1.406,2.287,2.287,0,0,0-.537-1.592,1.9,1.9,0,0,0-1.465-.605H4.5ZM17.412,0h-3.3V-15h3.3Zm7.979,0a3.716,3.716,0,0,1-.312-.947A3.06,3.06,0,0,1,22.539.2,3.749,3.749,0,0,1,20-.708a2.875,2.875,0,0,1-1.045-2.271,2.955,2.955,0,0,1,1.27-2.6,6.468,6.468,0,0,1,3.691-.879h1.016v-.557q0-1.455-1.26-1.455A1.027,1.027,0,0,0,22.5-7.314H19.209a2.955,2.955,0,0,1,1.3-2.49,5.474,5.474,0,0,1,3.325-.957,4.8,4.8,0,0,1,3.193.986,3.429,3.429,0,0,1,1.2,2.705v4.678a4.79,4.79,0,0,0,.449,2.227V0ZM23.33-2.148a1.836,1.836,0,0,0,1.021-.264,1.653,1.653,0,0,0,.581-.6V-4.7h-.957q-1.719,0-1.719,1.543a.942.942,0,0,0,.3.728A1.1,1.1,0,0,0,23.33-2.148Zm9.746-8.418.107,1.24A3.583,3.583,0,0,1,36.2-10.762a3.015,3.015,0,0,1,2.466.986,4.7,4.7,0,0,1,.845,2.969V0h-3.3V-6.67a1.783,1.783,0,0,0-.322-1.177,1.491,1.491,0,0,0-1.172-.376,1.569,1.569,0,0,0-1.436.762V0H29.99V-10.566ZM46.445.2a5.432,5.432,0,0,1-3.936-1.45,5.008,5.008,0,0,1-1.5-3.774V-5.3a6.489,6.489,0,0,1,.6-2.861,4.395,4.395,0,0,1,1.753-1.919,5.292,5.292,0,0,1,2.734-.679A4.574,4.574,0,0,1,49.609-9.38,5.43,5.43,0,0,1,50.9-5.527v1.279H44.355a2.372,2.372,0,0,0,.771,1.4,2.3,2.3,0,0,0,1.543.508,2.958,2.958,0,0,0,2.441-1.094l1.5,1.777A4.2,4.2,0,0,1,48.872-.308,5.891,5.891,0,0,1,46.445.2Zm-.371-8.418q-1.445,0-1.719,1.914h3.32v-.254a1.63,1.63,0,0,0-.4-1.226A1.593,1.593,0,0,0,46.074-8.223ZM58.174,0a3.716,3.716,0,0,1-.312-.947A3.06,3.06,0,0,1,55.322.2a3.749,3.749,0,0,1-2.539-.9,2.875,2.875,0,0,1-1.045-2.271,2.955,2.955,0,0,1,1.27-2.6A6.468,6.468,0,0,1,56.7-6.455h1.016v-.557q0-1.455-1.26-1.455a1.027,1.027,0,0,0-1.172,1.152H51.992A2.955,2.955,0,0,1,53.3-9.8a5.474,5.474,0,0,1,3.325-.957,4.8,4.8,0,0,1,3.193.986,3.429,3.429,0,0,1,1.2,2.705v4.678a4.79,4.79,0,0,0,.449,2.227V0ZM56.113-2.148a1.836,1.836,0,0,0,1.021-.264,1.653,1.653,0,0,0,.581-.6V-4.7h-.957q-1.719,0-1.719,1.543a.942.942,0,0,0,.3.728A1.1,1.1,0,0,0,56.113-2.148ZM69.229-7.588l-1.084-.078a1.947,1.947,0,0,0-1.992.977V0H62.861V-10.566h3.086l.107,1.357a2.548,2.548,0,0,1,2.314-1.553,3.209,3.209,0,0,1,.918.117Z" transform="translate(840 3073)" fill="#12263f"/>
      <path id="Trazado_201745" data-name="Trazado 201745" d="M6.592-3.867,9.424-14.219h3.828L8.467,0H4.717L-.029-14.219h3.8ZM18.818.2a5.432,5.432,0,0,1-3.936-1.45,5.008,5.008,0,0,1-1.5-3.774V-5.3a6.489,6.489,0,0,1,.6-2.861,4.395,4.395,0,0,1,1.753-1.919,5.292,5.292,0,0,1,2.734-.679A4.574,4.574,0,0,1,21.982-9.38a5.43,5.43,0,0,1,1.289,3.853v1.279H16.729a2.372,2.372,0,0,0,.771,1.4,2.3,2.3,0,0,0,1.543.508,2.958,2.958,0,0,0,2.441-1.094l1.5,1.777A4.2,4.2,0,0,1,21.245-.308,5.891,5.891,0,0,1,18.818.2Zm-.371-8.418q-1.445,0-1.719,1.914h3.32v-.254a1.63,1.63,0,0,0-.4-1.226A1.593,1.593,0,0,0,18.447-8.223Zm12.539.635L29.9-7.666a1.947,1.947,0,0,0-1.992.977V0H24.619V-10.566h3.086l.107,1.357a2.548,2.548,0,0,1,2.314-1.553,3.209,3.209,0,0,1,.918.117ZM35.645,0h-3.3V-10.566h3.3Zm-3.5-13.291a1.469,1.469,0,0,1,.508-1.152,1.916,1.916,0,0,1,1.318-.449,1.916,1.916,0,0,1,1.318.449,1.469,1.469,0,0,1,.508,1.152,1.469,1.469,0,0,1-.508,1.152,1.916,1.916,0,0,1-1.318.449,1.916,1.916,0,0,1-1.318-.449A1.469,1.469,0,0,1,32.148-13.291ZM38.438,0V-8.281H36.9v-2.285h1.533v-.352a4.034,4.034,0,0,1,1.387-3.232,5.541,5.541,0,0,1,3.6-1.055,12.787,12.787,0,0,1,3.438.566l-.449,2.6-.547-.146a8.7,8.7,0,0,0-2.246-.283q-1.885,0-1.885,1.719v.186h2.07v2.285h-2.07V0Zm9.941,0H45.068V-10.566h3.311Zm6.475-2.344a1.464,1.464,0,0,0,1.074-.376A1.379,1.379,0,0,0,56.3-3.77h3.086A3.653,3.653,0,0,1,58.14-.918,4.631,4.631,0,0,1,54.932.2,4.689,4.689,0,0,1,51.3-1.25a5.7,5.7,0,0,1-1.328-4v-.137a6.436,6.436,0,0,1,.591-2.827,4.3,4.3,0,0,1,1.7-1.885,5.081,5.081,0,0,1,2.637-.659,4.573,4.573,0,0,1,3.271,1.143,4.053,4.053,0,0,1,1.211,3.1H56.3a1.807,1.807,0,0,0-.4-1.26,1.382,1.382,0,0,0-1.074-.439q-1.279,0-1.494,1.631a11.507,11.507,0,0,0-.068,1.426,4.52,4.52,0,0,0,.381,2.207A1.319,1.319,0,0,0,54.854-2.344ZM66.729,0a3.716,3.716,0,0,1-.312-.947A3.06,3.06,0,0,1,63.877.2a3.749,3.749,0,0,1-2.539-.9,2.875,2.875,0,0,1-1.045-2.271,2.955,2.955,0,0,1,1.27-2.6,6.468,6.468,0,0,1,3.691-.879H66.27v-.557q0-1.455-1.26-1.455a1.027,1.027,0,0,0-1.172,1.152H60.547a2.955,2.955,0,0,1,1.3-2.49,5.474,5.474,0,0,1,3.325-.957,4.8,4.8,0,0,1,3.193.986,3.429,3.429,0,0,1,1.2,2.705v4.678A4.79,4.79,0,0,0,70.02-.166V0ZM64.668-2.148a1.836,1.836,0,0,0,1.021-.264,1.653,1.653,0,0,0,.581-.6V-4.7h-.957q-1.719,0-1.719,1.543a.942.942,0,0,0,.3.728A1.1,1.1,0,0,0,64.668-2.148ZM77.783-7.588,76.7-7.666a1.947,1.947,0,0,0-1.992.977V0H71.416V-10.566H74.5l.107,1.357a2.548,2.548,0,0,1,2.314-1.553,3.209,3.209,0,0,1,.918.117Z" transform="translate(685 3215)" fill="#12263f"/>
      <path id="Trazado_201746" data-name="Trazado 201746" d="M12.959,0H9.551V-5.937H4.5V0H1.074V-14.219H4.5v5.645H9.551v-5.645h3.408Zm7.969,0a3.716,3.716,0,0,1-.312-.947A3.06,3.06,0,0,1,18.076.2a3.749,3.749,0,0,1-2.539-.9,2.875,2.875,0,0,1-1.045-2.271,2.955,2.955,0,0,1,1.27-2.6,6.468,6.468,0,0,1,3.691-.879h1.016v-.557q0-1.455-1.26-1.455a1.027,1.027,0,0,0-1.172,1.152H14.746a2.955,2.955,0,0,1,1.3-2.49,5.474,5.474,0,0,1,3.325-.957,4.8,4.8,0,0,1,3.193.986,3.429,3.429,0,0,1,1.2,2.705v4.678a4.79,4.79,0,0,0,.449,2.227V0ZM18.867-2.148a1.836,1.836,0,0,0,1.021-.264,1.653,1.653,0,0,0,.581-.6V-4.7h-.957q-1.719,0-1.719,1.543a.942.942,0,0,0,.3.728A1.1,1.1,0,0,0,18.867-2.148Zm11.191-.2a1.464,1.464,0,0,0,1.074-.376A1.379,1.379,0,0,0,31.5-3.77H34.59A3.653,3.653,0,0,1,33.345-.918,4.631,4.631,0,0,1,30.137.2,4.689,4.689,0,0,1,26.5-1.25a5.7,5.7,0,0,1-1.328-4v-.137a6.436,6.436,0,0,1,.591-2.827,4.3,4.3,0,0,1,1.7-1.885,5.081,5.081,0,0,1,2.637-.659,4.573,4.573,0,0,1,3.271,1.143,4.053,4.053,0,0,1,1.211,3.1H31.5a1.807,1.807,0,0,0-.4-1.26,1.382,1.382,0,0,0-1.074-.439q-1.279,0-1.494,1.631a11.508,11.508,0,0,0-.068,1.426,4.52,4.52,0,0,0,.381,2.207A1.319,1.319,0,0,0,30.059-2.344ZM41.094.2a5.432,5.432,0,0,1-3.936-1.45,5.008,5.008,0,0,1-1.5-3.774V-5.3a6.489,6.489,0,0,1,.6-2.861,4.395,4.395,0,0,1,1.753-1.919,5.292,5.292,0,0,1,2.734-.679A4.574,4.574,0,0,1,44.258-9.38a5.43,5.43,0,0,1,1.289,3.853v1.279H39a2.372,2.372,0,0,0,.771,1.4,2.3,2.3,0,0,0,1.543.508A2.958,2.958,0,0,0,43.76-3.437l1.5,1.777A4.2,4.2,0,0,1,43.521-.308,5.891,5.891,0,0,1,41.094.2Zm-.371-8.418q-1.445,0-1.719,1.914h3.32v-.254a1.63,1.63,0,0,0-.4-1.226A1.593,1.593,0,0,0,40.723-8.223Zm12.539.635-1.084-.078a1.947,1.947,0,0,0-1.992.977V0H46.895V-10.566H49.98l.107,1.357A2.548,2.548,0,0,1,52.4-10.762a3.209,3.209,0,0,1,.918.117Z" transform="translate(848 3215)" fill="#12263f"/>
      <g id="Grupo_147555" data-name="Grupo 147555" transform="translate(-350.873 2750.658)">
        <path id="Trazado_196560" data-name="Trazado 196560" d="M89.732,388.142h0a15,15,0,1,1-15,15,15,15,0,0,1,15-15" transform="translate(1296.14 -160.8)" fill="#0c0a3e"/>
        <path id="Trazado_196561" data-name="Trazado 196561" d="M89.732,394.748h0a8.393,8.393,0,1,1-8.393,8.393,8.393,8.393,0,0,1,8.393-8.393" transform="translate(1296.14 -160.8)" fill="#ffa400"/>
      </g>
      <g id="Grupo_147556" data-name="Grupo 147556" transform="translate(-815.688 3044.658)">
        <path id="Trazado_196560-2" data-name="Trazado 196560" d="M89.732,388.142h0a15,15,0,1,1-15,15,15,15,0,0,1,15-15" transform="translate(1296.14 -160.8)" fill="#0c0a3e"/>
        <path id="Trazado_196561-2" data-name="Trazado 196561" d="M89.732,394.748h0a8.393,8.393,0,1,1-8.393,8.393,8.393,8.393,0,0,1,8.393-8.393" transform="translate(1296.14 -160.8)" fill="#ffa400"/>
      </g>
      <g id="Grupo_147557" data-name="Grupo 147557" transform="translate(-350.873 3044.658)">
        <path id="Trazado_196560-3" data-name="Trazado 196560" d="M89.732,388.142h0a15,15,0,1,1-15,15,15,15,0,0,1,15-15" transform="translate(1296.14 -160.8)" fill="#0c0a3e"/>
        <path id="Trazado_196561-3" data-name="Trazado 196561" d="M89.732,394.748h0a8.393,8.393,0,1,1-8.393,8.393,8.393,8.393,0,0,1,8.393-8.393" transform="translate(1296.14 -160.8)" fill="#ffa400"/>
      </g>
    </g>
    <g id="Grupo_147559" data-name="Grupo 147559" transform="translate(-815.688 2703.658)">
      <path id="Trazado_196560-4" data-name="Trazado 196560" d="M89.732,388.142h0a15,15,0,1,1-15,15,15,15,0,0,1,15-15" transform="translate(1296.14 -160.8)" fill="#0c0a3e"/>
      <path id="Trazado_196561-4" data-name="Trazado 196561" d="M89.732,394.748h0a8.393,8.393,0,1,1-8.393,8.393,8.393,8.393,0,0,1,8.393-8.393" transform="translate(1296.14 -160.8)" fill="#ffa400"/>
    </g>
  </g>
</svg>
