<svg xmlns="http://www.w3.org/2000/svg" width="141" height="141" viewBox="0 0 141 141">
  <g id="Grupo_147565" data-name="Grupo 147565" transform="translate(5296 7346)">
    <g id="apoyo" transform="translate(-5279.157 -7329.158)">
      <path id="Trazado_201814" data-name="Trazado 201814" d="M354.673,8.533H331.421a7.155,7.155,0,0,0-7.154,7.154V33.573a7.155,7.155,0,0,0,7.154,7.154h5.366V49.67l8.943-8.943h8.943a7.155,7.155,0,0,0,7.154-7.154V15.687A7.155,7.155,0,0,0,354.673,8.533Z" transform="translate(-256.301 -6.744)" fill="#d0eae2"/>
      <path id="Trazado_201815" data-name="Trazado 201815" d="M367.65,13.466c-7.381,17.6-21.9,25.759-31.59,29.372a7.087,7.087,0,0,0,4.682,1.789h5.366v8.943l8.943-8.943h8.943a7.155,7.155,0,0,0,7.154-7.154V19.587A7.128,7.128,0,0,0,367.65,13.466Z" transform="translate(-265.622 -10.644)" fill="#d0eae2"/>
      <path id="Trazado_201816" data-name="Trazado 201816" d="M81.864,302.913,99.75,268.93H85.441l-8.943,16.1V270.718a10.731,10.731,0,0,0-10.731-10.731H55.035a5.365,5.365,0,0,1-5.366-5.366v-7.154H35.361v7.154a5.365,5.365,0,0,1-5.366,5.366H19.263A10.731,10.731,0,0,0,8.532,270.718v32.194Z" transform="translate(-6.744 -195.598)" fill="#fff8eb"/>
      <g id="Grupo_147562" data-name="Grupo 147562" transform="translate(8.943 80.318)">
        <path id="Trazado_201817" data-name="Trazado 201817" d="M49.76,410.195H46.183v-4.756a17.828,17.828,0,0,1-.739-20.181l1.307-2.06,3.021,1.917-1.307,2.059a14.249,14.249,0,0,0,.9,16.537,1.787,1.787,0,0,1,.392,1.118v5.366Z" transform="translate(-42.669 -383.198)" fill="#f5b789"/>
        <path id="Trazado_201818" data-name="Trazado 201818" d="M268.362,410.195h-3.577v-5.366a1.787,1.787,0,0,1,.392-1.118,14.246,14.246,0,0,0,.9-16.535l-1.307-2.06,3.021-1.917,1.307,2.06a17.828,17.828,0,0,1-.739,20.181Z" transform="translate(-218.219 -383.198)" fill="#f5b789"/>
      </g>
      <path id="Trazado_201819" data-name="Trazado 201819" d="M101.28,51.459V33.573A25.04,25.04,0,0,0,76.24,8.533h0A25.04,25.04,0,0,0,51.2,33.573V51.459A10.731,10.731,0,0,0,61.931,62.19H90.549A10.731,10.731,0,0,0,101.28,51.459Z" transform="translate(-40.469 -6.744)" fill="#ffa400"/>
      <path id="Trazado_201820" data-name="Trazado 201820" d="M143.688,8.533a25.044,25.044,0,0,0-7.154,1.05,25.042,25.042,0,0,1,17.886,23.99V51.459A10.731,10.731,0,0,1,143.688,62.19H158a10.731,10.731,0,0,0,10.731-10.731V33.573A25.04,25.04,0,0,0,143.688,8.533Z" transform="translate(-107.917 -6.744)" fill="#f7aa36"/>
      <path id="Trazado_201821" data-name="Trazado 201821" d="M391.564,309.4h-16.1A10.731,10.731,0,0,1,386.2,298.667h16.1A10.731,10.731,0,0,1,391.564,309.4Z" transform="translate(-296.769 -236.067)" fill="#ffede0"/>
      <g id="Grupo_147563" data-name="Grupo 147563" transform="translate(75.12 8.943)">
        <rect id="Rectángulo_45613" data-name="Rectángulo 45613" width="12.52" height="3.577" fill="#ccbfb0"/>
        <rect id="Rectángulo_45614" data-name="Rectángulo 45614" width="7.154" height="3.577" transform="translate(16.097)" fill="#ccbfb0"/>
        <rect id="Rectángulo_45615" data-name="Rectángulo 45615" width="23.251" height="3.577" transform="translate(0 7.154)" fill="#ccbfb0"/>
        <rect id="Rectángulo_45616" data-name="Rectángulo 45616" width="12.52" height="3.577" transform="translate(0 14.308)" fill="#ccbfb0"/>
      </g>
      <path id="Trazado_201822" data-name="Trazado 201822" d="M150.852,254.712v-7.245H136.534v7.245a15.967,15.967,0,0,0,14.327,0Z" transform="translate(-107.917 -195.598)" fill="#f7c097"/>
      <path id="Trazado_201823" data-name="Trazado 201823" d="M93.867,97.274v7.7a16.1,16.1,0,0,0,32.194,0V90.667a16.01,16.01,0,0,0-1.926-7.637Z" transform="translate(-74.193 -65.627)" fill="#fff8eb"/>
      <rect id="Rectángulo_45617" data-name="Rectángulo 45617" width="25.04" height="19.674" transform="translate(23.251 75.12)" fill="#16697a"/>
      <path id="Trazado_201824" data-name="Trazado 201824" d="M85.442,316.143,76.5,332.24V317.931A10.731,10.731,0,0,0,65.768,307.2H60.044L42.516,330.451,25.882,307.2H19.264A10.731,10.731,0,0,0,8.533,317.931v32.194H81.865l17.886-33.983Z" transform="translate(-6.744 -242.811)" fill="#d0eae2"/>
      <path id="Trazado_201825" data-name="Trazado 201825" d="M201.32,316.4H187.012l-8.943,16.1V318.188a10.731,10.731,0,0,0-9.553-10.664c-3.219,24.985-18.227,37.059-31.479,42.858h46.4Z" transform="translate(-108.314 -243.067)" fill="#92bfb1"/>
      <g id="Grupo_147564" data-name="Grupo 147564" transform="translate(8.943 80.318)">
        <path id="Trazado_201826" data-name="Trazado 201826" d="M49.76,410.195H46.183v-4.756a17.828,17.828,0,0,1-.739-20.181l1.307-2.06,3.021,1.917-1.307,2.059a14.249,14.249,0,0,0,.9,16.537,1.787,1.787,0,0,1,.392,1.118v5.366Z" transform="translate(-42.669 -383.198)" fill="#3685ba"/>
        <path id="Trazado_201827" data-name="Trazado 201827" d="M268.362,410.195h-3.577v-5.366a1.787,1.787,0,0,1,.392-1.118,14.246,14.246,0,0,0,.9-16.535l-1.307-2.06,3.021-1.917,1.307,2.06a17.828,17.828,0,0,1-.739,20.181Z" transform="translate(-218.219 -383.198)" fill="#3685ba"/>
      </g>
      <path id="Trazado_201828" data-name="Trazado 201828" d="M186.764,104.975V90.666a16.01,16.01,0,0,0-1.926-7.637L180.3,85.165a24.929,24.929,0,0,1,1.1,7.29v17.886a10.731,10.731,0,0,1-10.731,10.731,16.1,16.1,0,0,0,16.1-16.1Z" transform="translate(-134.895 -65.626)" fill="#fff"/>
      <path id="Trazado_201829" data-name="Trazado 201829" d="M83.8,55.446H82.015v3.577H83.8A12.534,12.534,0,0,0,96.323,46.5V26.829a26.829,26.829,0,0,0-53.657,0V46.5a12.534,12.534,0,0,0,12.52,12.52h1.789V55.446H55.186A8.953,8.953,0,0,1,46.243,46.5V26.829a23.252,23.252,0,0,1,46.5,0V46.5A8.953,8.953,0,0,1,83.8,55.446Z" transform="translate(-33.723)"/>
      <path id="Trazado_201830" data-name="Trazado 201830" d="M49.772,385.115,46.751,383.2l-1.307,2.06a17.828,17.828,0,0,0,.739,20.181v4.756h3.577v-5.366a1.787,1.787,0,0,0-.392-1.118,14.249,14.249,0,0,1-.9-16.537Z" transform="translate(-33.725 -302.88)"/>
      <path id="Trazado_201831" data-name="Trazado 201831" d="M347.927,0H324.676a8.953,8.953,0,0,0-8.943,8.943V26.829a8.953,8.953,0,0,0,8.943,8.943h3.577v7.154a1.789,1.789,0,0,0,1.1,1.653,1.789,1.789,0,0,0,1.949-.388l8.419-8.419h8.2a8.954,8.954,0,0,0,8.943-8.943V8.943A8.953,8.953,0,0,0,347.927,0Zm5.366,26.829a5.365,5.365,0,0,1-5.366,5.366h-8.943a1.784,1.784,0,0,0-1.264.524l-5.89,5.89V33.983a1.789,1.789,0,0,0-1.789-1.789h-5.366a5.365,5.365,0,0,1-5.366-5.366V8.943a5.365,5.365,0,0,1,5.366-5.366h23.251a5.365,5.365,0,0,1,5.366,5.366Z" transform="translate(-249.556)"/>
      <rect id="Rectángulo_45618" data-name="Rectángulo 45618" width="12.52" height="3.577" transform="translate(75.12 8.943)"/>
      <rect id="Rectángulo_45619" data-name="Rectángulo 45619" width="7.154" height="3.577" transform="translate(91.218 8.943)"/>
      <rect id="Rectángulo_45620" data-name="Rectángulo 45620" width="23.251" height="3.577" transform="translate(75.12 16.097)"/>
      <rect id="Rectángulo_45621" data-name="Rectángulo 45621" width="12.52" height="3.577" transform="translate(75.12 23.251)"/>
      <path id="Trazado_201832" data-name="Trazado 201832" d="M264.785,404.829v5.366h3.577v-4.756a17.827,17.827,0,0,0,.739-20.181l-1.307-2.06-3.021,1.917,1.307,2.06a14.246,14.246,0,0,1-.9,16.535A1.787,1.787,0,0,0,264.785,404.829Z" transform="translate(-209.276 -302.88)"/>
      <path id="Trazado_201833" data-name="Trazado 201833" d="M3.577,134.008a8.953,8.953,0,0,1,8.943-8.943h5.691l16.106,22.5a1.785,1.785,0,0,0,1.431.748h.023A1.788,1.788,0,0,0,37.2,147.6l16.992-22.536h4.829a8.953,8.953,0,0,1,8.943,8.943v14.309a1.789,1.789,0,0,0,3.352.868l8.431-15.176H90L72.565,166.2h4.069L94.08,134.009h.715a12.534,12.534,0,0,0,12.52-12.52,1.789,1.789,0,0,0-1.789-1.789h-16.1a12.52,12.52,0,0,0-12.5,12.01l-5.391,9.7v-7.407a12.534,12.534,0,0,0-12.52-12.52H52.486l-.048-.038-.032.038H48.292a3.576,3.576,0,0,1-3.577-3.577V113.7a17.887,17.887,0,0,0,8.943-15.466V83.928a17.915,17.915,0,0,0-2.146-8.489,1.789,1.789,0,0,0-2.325-.769L18.912,88.915a1.791,1.791,0,0,0-1.027,1.619v7.7A17.887,17.887,0,0,0,26.829,113.7v4.208a3.576,3.576,0,0,1-3.577,3.577H12.52A12.534,12.534,0,0,0,0,134.008V166.2H3.577Zm85.852-10.731h14.13a8.957,8.957,0,0,1-8.764,7.154H80.665A8.957,8.957,0,0,1,89.429,123.277Zm-53.62,20.232L30.29,135.8H41.622ZM21.463,98.237V91.669l27.617-13a14.316,14.316,0,0,1,1,5.255V98.237a14.309,14.309,0,1,1-28.617,0Zm1.789,26.829a7.155,7.155,0,0,0,7.154-7.154V115.3a17.862,17.862,0,0,0,10.731,0v2.613a7.155,7.155,0,0,0,7.154,7.154h1.431l-5.394,7.154H27.723L22.6,125.065Z" transform="translate(0 -58.888)"/>
    </g>
    <rect id="Rectángulo_45624" data-name="Rectángulo 45624" width="141" height="141" transform="translate(-5296 -7346)" fill="none"/>
  </g>
</svg>
