<svg xmlns="http://www.w3.org/2000/svg" width="76.437" height="81.722" viewBox="0 0 76.437 81.722">
  <g id="lapiz" transform="translate(-16.559)">
    <g id="Grupo_147384" data-name="Grupo 147384" transform="translate(17.754 1.197)">
      <path id="Trazado_199607" data-name="Trazado 199607" d="M106.907,104.334v58.583a5.288,5.288,0,0,0,5.288,5.288h50.241a5.288,5.288,0,0,0,5.288-5.288V104.334Z" transform="translate(-93.681 -88.878)" fill="#fff"/>
      <path id="Trazado_199608" data-name="Trazado 199608" d="M437.1,104.334v58.583a5.288,5.288,0,0,1-5.288,5.288h3.671a5.288,5.288,0,0,0,5.288-5.288V104.334Z" transform="translate(-366.724 -88.878)" fill="#f9eae0"/>
      <g id="Grupo_147382" data-name="Grupo 147382" transform="translate(0 37.016)">
        <path id="Trazado_199609" data-name="Trazado 199609" d="M77.367,285.247,56.728,264.609l-7.479,7.479,20.638,20.638a1.277,1.277,0,0,0,.9.374h1.14l5.81-5.81v-1.14A1.277,1.277,0,0,0,77.367,285.247Z" transform="translate(-45.226 -260.587)" fill="#92bfb1"/>
        <path id="Trazado_199610" data-name="Trazado 199610" d="M107.1,285.247,86.462,264.609l-1.832,1.832L105.987,287.8a1.276,1.276,0,0,1,.345.634l1.142-1.142v-1.14a1.277,1.277,0,0,0-.374-.9Z" transform="translate(-74.96 -260.587)" fill="#92bfb1"/>
        <path id="Trazado_199611" data-name="Trazado 199611" d="M188.806,402.889v-5.673a1.275,1.275,0,0,0-.082-.447l-7.315,7.315a1.276,1.276,0,0,0,.447.082h5.673A1.277,1.277,0,0,0,188.806,402.889Z" transform="translate(-156.292 -371.652)" fill="#f9eae0"/>
        <path id="Trazado_199612" data-name="Trazado 199612" d="M28.562,240.183l-3.74,3.74a2.644,2.644,0,0,0,0,3.74l3.74,3.74,7.479-7.479-3.74-3.74A2.645,2.645,0,0,0,28.562,240.183Z" transform="translate(-24.047 -239.408)" fill="#ffa400"/>
        <path id="Trazado_199613" data-name="Trazado 199613" d="M52.567,240.153c.012.012.026.022.038.034l5.571,5.571,1.832-1.832-3.739-3.74A2.643,2.643,0,0,0,52.567,240.153Z" transform="translate(-48.015 -239.413)" fill="#f57fb0"/>
      </g>
      <path id="Trazado_199614" data-name="Trazado 199614" d="M162.436,40.634H112.194a5.288,5.288,0,0,0-5.288,5.288v7.933h60.818V45.922A5.288,5.288,0,0,0,162.436,40.634Z" transform="translate(-93.681 -35.345)" fill="#ffa400"/>
      <path id="Trazado_199615" data-name="Trazado 199615" d="M435.479,40.634h-3.671a5.288,5.288,0,0,1,5.288,5.288v7.933h3.671V45.922A5.288,5.288,0,0,0,435.479,40.634Z" transform="translate(-366.724 -35.345)" fill="#ffbd61"/>
      <g id="Grupo_147383" data-name="Grupo 147383" transform="translate(21.158)">
        <path id="Trazado_199616" data-name="Trazado 199616" d="M156.607,15.433a2.644,2.644,0,1,0,5.289,0V10.144a2.644,2.644,0,1,0-5.289,0Z" transform="translate(-156.607 -7.5)" fill="#bdd3dd"/>
        <path id="Trazado_199617" data-name="Trazado 199617" d="M405.107,15.433a2.644,2.644,0,1,0,5.289,0V10.144a2.644,2.644,0,1,0-5.289,0Z" transform="translate(-365.443 -7.5)" fill="#bdd3dd"/>
        <path id="Trazado_199618" data-name="Trazado 199618" d="M239.44,15.433a2.644,2.644,0,1,0,5.289,0V10.144a2.644,2.644,0,1,0-5.289,0Z" transform="translate(-226.219 -7.5)" fill="#bdd3dd"/>
        <path id="Trazado_199619" data-name="Trazado 199619" d="M322.274,15.433a2.644,2.644,0,1,0,5.289,0V10.144a2.644,2.644,0,1,0-5.289,0Z" transform="translate(-295.831 -7.5)" fill="#bdd3dd"/>
      </g>
      <path id="Trazado_199620" data-name="Trazado 199620" d="M412.01,7.5a2.634,2.634,0,0,0-1.836.743,2.635,2.635,0,0,1,.809,1.9v5.288a2.635,2.635,0,0,1-.809,1.9,2.642,2.642,0,0,0,4.48-1.9V10.144A2.644,2.644,0,0,0,412.01,7.5Z" transform="translate(-348.543 -7.5)" fill="#92bfb1"/>
      <path id="Trazado_199621" data-name="Trazado 199621" d="M329.177,7.5a2.634,2.634,0,0,0-1.836.743,2.635,2.635,0,0,1,.809,1.9v5.288a2.635,2.635,0,0,1-.809,1.9,2.642,2.642,0,0,0,4.48-1.9V10.144A2.644,2.644,0,0,0,329.177,7.5Z" transform="translate(-278.931 -7.5)" fill="#92bfb1"/>
      <path id="Trazado_199622" data-name="Trazado 199622" d="M246.344,7.5a2.634,2.634,0,0,0-1.836.743,2.635,2.635,0,0,1,.809,1.9v5.288a2.635,2.635,0,0,1-.809,1.9,2.643,2.643,0,0,0,4.48-1.9V10.144A2.644,2.644,0,0,0,246.344,7.5Z" transform="translate(-209.319 -7.5)" fill="#92bfb1"/>
      <path id="Trazado_199623" data-name="Trazado 199623" d="M163.51,7.5a2.634,2.634,0,0,0-1.836.743,2.635,2.635,0,0,1,.809,1.9v5.288a2.634,2.634,0,0,1-.809,1.9,2.643,2.643,0,0,0,4.48-1.9V10.144A2.644,2.644,0,0,0,163.51,7.5Z" transform="translate(-139.707 -7.5)" fill="#92bfb1"/>
    </g>
    <g id="Grupo_147385" data-name="Grupo 147385" transform="translate(16.559 0)">
      <path id="Trazado_199624" data-name="Trazado 199624" d="M86.51,5.289H85.062V3.841a3.841,3.841,0,1,0-7.683,0V5.289H71.841V3.841a3.841,3.841,0,1,0-7.683,0V5.289H58.62V3.841a3.841,3.841,0,0,0-7.683,0V5.289H45.4V3.841a3.841,3.841,0,1,0-7.683,0V5.289H36.268a6.493,6.493,0,0,0-6.485,6.485v29.3l-2.928-2.928a3.846,3.846,0,0,0-5.432,0l-3.74,3.74a3.846,3.846,0,0,0,0,5.432l12.1,12.1V75.237a6.493,6.493,0,0,0,6.485,6.486H76.991a1.2,1.2,0,0,0,0-2.394H36.268a4.1,4.1,0,0,1-4.091-4.091V61.807l9.766,9.766a1.17,1.17,0,0,0,.089.08c.021.017.043.032.064.048l.03.022c.027.018.056.035.084.05l.016.009c.03.016.061.03.092.043l.014.006c.03.012.061.023.092.033l.019.007c.029.009.058.016.088.022l.026.006c.029.006.057.009.086.013l.03,0c.039,0,.078.006.117.006h6.983l1.519,1.519a1.2,1.2,0,0,0,1.693-1.693l-1.519-1.519V63.248q0-.059-.006-.117c0-.009,0-.017,0-.026,0-.03-.008-.06-.014-.09,0-.008,0-.015-.006-.023-.007-.03-.014-.061-.023-.091l-.006-.016c-.01-.032-.021-.063-.034-.094l0-.01c-.014-.032-.029-.064-.045-.1l-.007-.012c-.016-.03-.034-.06-.053-.088l-.019-.026c-.016-.023-.033-.046-.051-.068s-.052-.06-.08-.089l-9.766-9.766H82.543a1.2,1.2,0,1,0,0-2.394H40.235a1.193,1.193,0,0,0-.886.394l-7.172-7.172V20.9H90.6v8.164a1.2,1.2,0,0,0,2.394,0V11.774A6.493,6.493,0,0,0,86.51,5.289ZM49.071,69.53H45.679l3.392-3.392ZM23.961,50.206l2.047-2.047L44.836,66.987l-2.047,2.047ZM46.529,65.294,27.7,46.466l2.047-2.047L48.575,63.248ZM19.375,43.573l3.74-3.74a1.449,1.449,0,0,1,2.047,0l2.893,2.893L25.162,45.62h0l-2.893,2.893L19.375,45.62A1.449,1.449,0,0,1,19.375,43.573ZM81.221,2.394a1.449,1.449,0,0,1,1.447,1.447V9.13a1.447,1.447,0,1,1-2.894,0V3.841a1.449,1.449,0,0,1,1.447-1.447ZM68,2.394a1.449,1.449,0,0,1,1.447,1.447V9.13a1.447,1.447,0,1,1-2.894,0V3.841A1.449,1.449,0,0,1,68,2.394ZM53.331,3.841a1.447,1.447,0,1,1,2.894,0V9.13a1.447,1.447,0,1,1-2.894,0ZM41.557,2.394A1.449,1.449,0,0,1,43,3.841V9.13a1.447,1.447,0,1,1-2.894,0V3.841A1.449,1.449,0,0,1,41.557,2.394ZM32.177,18.51V11.774a4.1,4.1,0,0,1,4.091-4.091h1.447V9.13a3.841,3.841,0,0,0,7.683,0V7.683h5.539V9.13a3.841,3.841,0,1,0,7.683,0V7.683h5.539V9.13a3.841,3.841,0,1,0,7.683,0V7.683H77.38V9.13a3.841,3.841,0,1,0,7.683,0V7.683H86.51A4.1,4.1,0,0,1,90.6,11.774V18.51Z" transform="translate(-16.559 0)"/>
      <path id="Trazado_199625" data-name="Trazado 199625" d="M428.89,204.619a1.2,1.2,0,0,0-1.2,1.2V247.2a4.1,4.1,0,0,1-4.091,4.091h-4.73a1.2,1.2,0,0,0,0,2.394h4.73a6.493,6.493,0,0,0,6.486-6.486v-41.38A1.2,1.2,0,0,0,428.89,204.619Z" transform="translate(-353.651 -171.959)"/>
      <path id="Trazado_199626" data-name="Trazado 199626" d="M158.587,168.061H200.9a1.2,1.2,0,0,0,0-2.394H158.587a1.2,1.2,0,0,0,0,2.394Z" transform="translate(-134.911 -139.224)"/>
      <path id="Trazado_199627" data-name="Trazado 199627" d="M158.587,217.761H200.9a1.2,1.2,0,0,0,0-2.394H158.587a1.2,1.2,0,0,0,0,2.394Z" transform="translate(-134.911 -180.992)"/>
      <path id="Trazado_199628" data-name="Trazado 199628" d="M158.587,267.461H200.9a1.2,1.2,0,1,0,0-2.394H158.587a1.2,1.2,0,1,0,0,2.394Z" transform="translate(-134.911 -222.759)"/>
      <path id="Trazado_199629" data-name="Trazado 199629" d="M278.667,365.664a1.2,1.2,0,0,0-1.2-1.2H249.705a1.2,1.2,0,1,0,0,2.394H277.47A1.2,1.2,0,0,0,278.667,365.664Z" transform="translate(-211.486 -306.293)"/>
    </g>
  </g>
</svg>
