<svg xmlns="http://www.w3.org/2000/svg" width="694" height="689" viewBox="0 0 694 689">
  <g id="Grupo_147749" data-name="Grupo 147749" transform="translate(-455 -5471)">
    <circle id="Elipse_1428" data-name="Elipse 1428" cx="150" cy="150" r="150" transform="translate(650 5669)" fill="#ffa400"/>
    <path id="Trazado_205906" data-name="Trazado 205906" d="M-120.838,0h-4.1V-17.062h4.1Zm6.3-12.68.129,1.488a4.3,4.3,0,0,1,3.621-1.723,3.618,3.618,0,0,1,2.959,1.184,5.635,5.635,0,0,1,1.014,3.563V0h-3.961V-8a2.14,2.14,0,0,0-.387-1.412,1.789,1.789,0,0,0-1.406-.451,1.883,1.883,0,0,0-1.723.914V0h-3.949V-12.68Zm9.41,6.246a7.746,7.746,0,0,1,1.3-4.746,4.282,4.282,0,0,1,3.633-1.734,3.641,3.641,0,0,1,2.859,1.336V-18h3.961V0H-96.92l-.2-1.359A3.739,3.739,0,0,1-100.213.234,4.274,4.274,0,0,1-103.8-1.5,7.991,7.991,0,0,1-105.123-6.434Zm3.949.246q0,3.375,1.969,3.375a1.944,1.944,0,0,0,1.875-1.1V-8.742a1.892,1.892,0,0,0-1.852-1.125q-1.828,0-1.98,2.953ZM-86.959,0H-90.92V-12.68h3.961Zm-4.2-15.949a1.763,1.763,0,0,1,.609-1.383,2.3,2.3,0,0,1,1.582-.539,2.3,2.3,0,0,1,1.582.539,1.763,1.763,0,0,1,.609,1.383,1.763,1.763,0,0,1-.609,1.383,2.3,2.3,0,0,1-1.582.539,2.3,2.3,0,0,1-1.582-.539A1.763,1.763,0,0,1-91.154-15.949ZM-79.166-2.812a1.756,1.756,0,0,0,1.289-.451,1.654,1.654,0,0,0,.445-1.26h3.7A4.384,4.384,0,0,1-75.223-1.1,5.558,5.558,0,0,1-79.072.234,5.627,5.627,0,0,1-83.432-1.5a6.834,6.834,0,0,1-1.594-4.8v-.164a7.723,7.723,0,0,1,.709-3.393,5.162,5.162,0,0,1,2.045-2.262,6.1,6.1,0,0,1,3.164-.791,5.488,5.488,0,0,1,3.926,1.371,4.863,4.863,0,0,1,1.453,3.715h-3.7a2.168,2.168,0,0,0-.48-1.512A1.658,1.658,0,0,0-79.2-9.867q-1.535,0-1.793,1.957A13.809,13.809,0,0,0-81.076-6.2a5.424,5.424,0,0,0,.457,2.648A1.582,1.582,0,0,0-79.166-2.812ZM-64.916,0a4.459,4.459,0,0,1-.375-1.137A3.672,3.672,0,0,1-68.338.234,4.5,4.5,0,0,1-71.385-.85a3.45,3.45,0,0,1-1.254-2.725,3.546,3.546,0,0,1,1.523-3.117,7.761,7.761,0,0,1,4.43-1.055h1.219v-.671q0-1.755-1.512-1.755a1.236,1.236,0,0,0-1.406,1.39h-3.949a3.54,3.54,0,0,1,1.564-2.985,6.575,6.575,0,0,1,3.99-1.147,5.764,5.764,0,0,1,3.832,1.184,4.115,4.115,0,0,1,1.441,3.246v5.613A5.748,5.748,0,0,0-60.967-.2V0Zm-2.473-2.578a2.2,2.2,0,0,0,1.225-.316,1.983,1.983,0,0,0,.7-.715V-5.637h-1.148q-2.062,0-2.062,1.852a1.131,1.131,0,0,0,.363.873A1.315,1.315,0,0,0-67.389-2.578Zm7.57-3.855a7.746,7.746,0,0,1,1.3-4.746,4.282,4.282,0,0,1,3.633-1.734,3.641,3.641,0,0,1,2.859,1.336V-18h3.961V0h-3.551l-.2-1.359A3.739,3.739,0,0,1-54.908.234,4.274,4.274,0,0,1-58.494-1.5,7.991,7.991,0,0,1-59.818-6.434Zm3.949.246q0,3.375,1.969,3.375a1.944,1.944,0,0,0,1.875-1.1V-8.742a1.892,1.892,0,0,0-1.852-1.125q-1.828,0-1.98,2.953Zm9.551-.27a7.484,7.484,0,0,1,.738-3.381,5.28,5.28,0,0,1,2.121-2.279,6.388,6.388,0,0,1,3.246-.8,5.83,5.83,0,0,1,4.488,1.764,6.768,6.768,0,0,1,1.641,4.8v.141A6.566,6.566,0,0,1-35.73-1.506,5.846,5.846,0,0,1-40.189.234a5.912,5.912,0,0,1-4.348-1.623,6.348,6.348,0,0,1-1.77-4.4Zm3.949.246a4.718,4.718,0,0,0,.551,2.578,1.835,1.835,0,0,0,1.629.82q2.109,0,2.156-3.246v-.4q0-3.41-2.18-3.41-1.98,0-2.145,2.941Zm17.7-2.895-1.3-.094a2.336,2.336,0,0,0-2.391,1.172V0h-3.949V-12.68h3.7l.129,1.629a3.058,3.058,0,0,1,2.777-1.863,3.851,3.851,0,0,1,1.1.141Zm7.559,9.34a6.518,6.518,0,0,1-4.723-1.74,6.009,6.009,0,0,1-1.8-4.529v-.328A7.787,7.787,0,0,1-22.922-9.8a5.274,5.274,0,0,1,2.1-2.3,6.35,6.35,0,0,1,3.281-.814,5.489,5.489,0,0,1,4.219,1.658,6.516,6.516,0,0,1,1.547,4.623V-5.1h-7.852A2.846,2.846,0,0,0-18.7-3.422a2.755,2.755,0,0,0,1.852.609,3.549,3.549,0,0,0,2.93-1.312l1.8,2.133A5.045,5.045,0,0,1-14.2-.369,7.069,7.069,0,0,1-17.115.234Zm-.445-10.1q-1.734,0-2.062,2.3h3.984v-.3a1.956,1.956,0,0,0-.48-1.471A1.912,1.912,0,0,0-17.561-9.867Zm14.016,6.3a.912.912,0,0,0-.527-.809,8.021,8.021,0,0,0-2-.633,9.138,9.138,0,0,1-2.437-.861A4.083,4.083,0,0,1-9.979-7.16a3.092,3.092,0,0,1-.5-1.746,3.5,3.5,0,0,1,1.441-2.877,5.938,5.938,0,0,1,3.773-1.131,6.579,6.579,0,0,1,4.031,1.137A3.555,3.555,0,0,1,.287-8.789H-3.674q0-1.523-1.605-1.523a1.591,1.591,0,0,0-1.043.346,1.07,1.07,0,0,0-.422.861.982.982,0,0,0,.516.855,4.872,4.872,0,0,0,1.646.539,14.228,14.228,0,0,1,1.986.5Q.264-6.223.264-3.68A3.321,3.321,0,0,1-1.277-.855,6.758,6.758,0,0,1-5.268.234,6.9,6.9,0,0,1-8.174-.352a4.86,4.86,0,0,1-1.992-1.594,3.609,3.609,0,0,1-.715-2.121h3.691A1.526,1.526,0,0,0-6.6-2.783a2.41,2.41,0,0,0,1.441.4,1.9,1.9,0,0,0,1.213-.328A1.05,1.05,0,0,0-3.545-3.562ZM7.588-6.434a7.746,7.746,0,0,1,1.3-4.746,4.282,4.282,0,0,1,3.633-1.734,3.641,3.641,0,0,1,2.859,1.336V-18h3.961V0H15.791l-.2-1.359A3.739,3.739,0,0,1,12.5.234,4.274,4.274,0,0,1,8.912-1.5,7.991,7.991,0,0,1,7.588-6.434Zm3.949.246q0,3.375,1.969,3.375a1.944,1.944,0,0,0,1.875-1.1V-8.742a1.892,1.892,0,0,0-1.852-1.125q-1.828,0-1.98,2.953ZM27.721.234A6.518,6.518,0,0,1,23-1.506a6.009,6.009,0,0,1-1.8-4.529v-.328A7.787,7.787,0,0,1,21.914-9.8a5.274,5.274,0,0,1,2.1-2.3,6.35,6.35,0,0,1,3.281-.814,5.489,5.489,0,0,1,4.219,1.658,6.516,6.516,0,0,1,1.547,4.623V-5.1H25.213a2.846,2.846,0,0,0,.926,1.676,2.755,2.755,0,0,0,1.852.609,3.549,3.549,0,0,0,2.93-1.312l1.8,2.133A5.045,5.045,0,0,1,30.633-.369,7.069,7.069,0,0,1,27.721.234Zm-.445-10.1q-1.734,0-2.062,2.3H29.2v-.3a1.956,1.956,0,0,0-.48-1.471A1.912,1.912,0,0,0,27.275-9.867ZM40.166-6.434a8.561,8.561,0,0,1,.633-3.4,5.094,5.094,0,0,1,1.816-2.279,4.788,4.788,0,0,1,2.754-.8,3.807,3.807,0,0,1,3.094,1.336l.141-1.1h3.586V-.48a5.346,5.346,0,0,1-.779,2.912,5,5,0,0,1-2.256,1.9,8.292,8.292,0,0,1-3.422.662,7.153,7.153,0,0,1-2.7-.527,4.876,4.876,0,0,1-2-1.371L42.686.773a3.621,3.621,0,0,0,2.906,1.3q2.625,0,2.625-2.7v-.4A3.708,3.708,0,0,1,45.346.234,4.583,4.583,0,0,1,41.6-1.541a7.356,7.356,0,0,1-1.43-4.752Zm3.961.246a4.511,4.511,0,0,0,.586,2.467,1.849,1.849,0,0,0,1.641.908,2.1,2.1,0,0,0,1.863-.855V-9a2.045,2.045,0,0,0-1.84-.867,1.861,1.861,0,0,0-1.652.943A5.144,5.144,0,0,0,44.127-6.187ZM60.568.234a6.518,6.518,0,0,1-4.723-1.74,6.009,6.009,0,0,1-1.8-4.529v-.328A7.787,7.787,0,0,1,54.762-9.8a5.274,5.274,0,0,1,2.1-2.3,6.35,6.35,0,0,1,3.281-.814,5.489,5.489,0,0,1,4.219,1.658,6.516,6.516,0,0,1,1.547,4.623V-5.1H58.061a2.846,2.846,0,0,0,.926,1.676,2.755,2.755,0,0,0,1.852.609,3.549,3.549,0,0,0,2.93-1.312l1.8,2.133A5.045,5.045,0,0,1,63.48-.369,7.069,7.069,0,0,1,60.568.234Zm-.445-10.1q-1.734,0-2.062,2.3h3.984v-.3a1.956,1.956,0,0,0-.48-1.471A1.912,1.912,0,0,0,60.123-9.867Zm14.016,6.3a.912.912,0,0,0-.527-.809,8.021,8.021,0,0,0-2-.633,9.138,9.138,0,0,1-2.437-.861A4.083,4.083,0,0,1,67.705-7.16a3.092,3.092,0,0,1-.5-1.746,3.5,3.5,0,0,1,1.441-2.877,5.938,5.938,0,0,1,3.773-1.131,6.579,6.579,0,0,1,4.031,1.137,3.555,3.555,0,0,1,1.523,2.988H74.01q0-1.523-1.605-1.523a1.591,1.591,0,0,0-1.043.346,1.07,1.07,0,0,0-.422.861.982.982,0,0,0,.516.855,4.872,4.872,0,0,0,1.646.539,14.228,14.228,0,0,1,1.986.5q2.859.984,2.859,3.527A3.321,3.321,0,0,1,76.406-.855a6.758,6.758,0,0,1-3.99,1.09A6.9,6.9,0,0,1,69.51-.352a4.86,4.86,0,0,1-1.992-1.594A3.609,3.609,0,0,1,66.8-4.066h3.691a1.526,1.526,0,0,0,.586,1.283,2.41,2.41,0,0,0,1.441.4,1.9,1.9,0,0,0,1.213-.328A1.05,1.05,0,0,0,74.139-3.562Zm10.254-12.27v3.152h2.086v2.742H84.393v5.8a1.481,1.481,0,0,0,.258,1,1.383,1.383,0,0,0,1.02.281,5.793,5.793,0,0,0,.984-.07V-.105a7.288,7.288,0,0,1-2.227.34,4.137,4.137,0,0,1-3.012-.961,3.939,3.939,0,0,1-.973-2.918V-9.937H78.826V-12.68h1.617v-3.152ZM92.2,0H88.236V-12.68H92.2ZM88-15.949a1.763,1.763,0,0,1,.609-1.383,2.3,2.3,0,0,1,1.582-.539,2.3,2.3,0,0,1,1.582.539,1.763,1.763,0,0,1,.609,1.383,1.763,1.763,0,0,1-.609,1.383,2.3,2.3,0,0,1-1.582.539,2.3,2.3,0,0,1-1.582-.539A1.763,1.763,0,0,1,88-15.949Zm6.129,9.492a7.484,7.484,0,0,1,.738-3.381,5.28,5.28,0,0,1,2.121-2.279,6.388,6.388,0,0,1,3.246-.8,5.83,5.83,0,0,1,4.488,1.764,6.768,6.768,0,0,1,1.641,4.8v.141a6.566,6.566,0,0,1-1.646,4.705A5.846,5.846,0,0,1,100.26.234a5.912,5.912,0,0,1-4.348-1.623,6.348,6.348,0,0,1-1.77-4.4Zm3.949.246a4.718,4.718,0,0,0,.551,2.578,1.835,1.835,0,0,0,1.629.82q2.109,0,2.156-3.246v-.4q0-3.41-2.18-3.41-1.98,0-2.145,2.941ZM100.775-18h4.172l-3.258,3.68-3.223-.006Zm10.957,5.32.129,1.488a4.3,4.3,0,0,1,3.621-1.723,3.618,3.618,0,0,1,2.959,1.184,5.635,5.635,0,0,1,1.014,3.563V0h-3.961V-8a2.14,2.14,0,0,0-.387-1.412,1.789,1.789,0,0,0-1.406-.451,1.883,1.883,0,0,0-1.723.914V0h-3.949V-12.68ZM-73.107,24.469-71,17.32h4.23l-5.168,14.8-.223.539a3.926,3.926,0,0,1-3.891,2.461,6.189,6.189,0,0,1-1.629-.233V32.074h.516a2.7,2.7,0,0,0,1.271-.24,1.459,1.459,0,0,0,.65-.862l.316-.844L-79.33,17.32h4.219Zm12.844-.9a7.746,7.746,0,0,1,1.3-4.746,4.282,4.282,0,0,1,3.633-1.734,3.641,3.641,0,0,1,2.859,1.336V12h3.961V30h-3.551l-.2-1.359a3.739,3.739,0,0,1-3.094,1.594A4.274,4.274,0,0,1-58.939,28.5,7.991,7.991,0,0,1-60.264,23.566Zm3.949.246q0,3.375,1.969,3.375a1.944,1.944,0,0,0,1.875-1.1V21.258a1.892,1.892,0,0,0-1.852-1.125q-1.828,0-1.98,2.953Zm16.184,6.422a6.518,6.518,0,0,1-4.723-1.74,6.009,6.009,0,0,1-1.8-4.529v-.328a7.787,7.787,0,0,1,.721-3.434,5.274,5.274,0,0,1,2.1-2.3,6.35,6.35,0,0,1,3.281-.814,5.489,5.489,0,0,1,4.219,1.658,6.516,6.516,0,0,1,1.547,4.623V24.9h-7.852a2.846,2.846,0,0,0,.926,1.676,2.755,2.755,0,0,0,1.852.609,3.549,3.549,0,0,0,2.93-1.312l1.8,2.133a5.045,5.045,0,0,1-2.092,1.623A7.069,7.069,0,0,1-40.131,30.234Zm-.445-10.1q-1.734,0-2.062,2.3h3.984v-.3a1.956,1.956,0,0,0-.48-1.471A1.912,1.912,0,0,0-40.576,20.133Zm12.855,3.41a7.484,7.484,0,0,1,.738-3.381,5.28,5.28,0,0,1,2.121-2.279,6.388,6.388,0,0,1,3.246-.8,5.83,5.83,0,0,1,4.488,1.764,6.768,6.768,0,0,1,1.641,4.8v.141a6.566,6.566,0,0,1-1.646,4.705,5.846,5.846,0,0,1-4.459,1.74,5.912,5.912,0,0,1-4.348-1.623,6.348,6.348,0,0,1-1.77-4.4Zm3.949.246a4.718,4.718,0,0,0,.551,2.578,1.835,1.835,0,0,0,1.629.82q2.109,0,2.156-3.246v-.4q0-3.41-2.18-3.41-1.98,0-2.145,2.941Zm21.8-.035A7.646,7.646,0,0,1-3.3,28.471,4.264,4.264,0,0,1-6.9,30.234a3.655,3.655,0,0,1-2.871-1.277v5.918h-3.949V17.32h3.691l.117,1.172A3.656,3.656,0,0,1-6.92,17.086a4.3,4.3,0,0,1,3.645,1.729,7.741,7.741,0,0,1,1.3,4.752Zm-3.949-.246q0-3.375-1.969-3.375a1.859,1.859,0,0,0-1.875,1.008v4.992a1.919,1.919,0,0,0,1.9,1.055q1.887,0,1.945-3.258ZM5.9,30.234a6.518,6.518,0,0,1-4.723-1.74,6.009,6.009,0,0,1-1.8-4.529v-.328A7.787,7.787,0,0,1,.094,20.2a5.274,5.274,0,0,1,2.1-2.3,6.35,6.35,0,0,1,3.281-.814A5.489,5.489,0,0,1,9.7,18.744a6.516,6.516,0,0,1,1.547,4.623V24.9H3.393a2.846,2.846,0,0,0,.926,1.676,2.755,2.755,0,0,0,1.852.609A3.549,3.549,0,0,0,9.1,25.875l1.8,2.133a5.045,5.045,0,0,1-2.092,1.623A7.069,7.069,0,0,1,5.9,30.234Zm-.445-10.1q-1.734,0-2.062,2.3H7.377v-.3a1.956,1.956,0,0,0-.48-1.471A1.912,1.912,0,0,0,5.455,20.133Zm15.047.762L19.2,20.8a2.336,2.336,0,0,0-2.391,1.172V30H12.861V17.32h3.7l.129,1.629a3.058,3.058,0,0,1,2.777-1.863,3.851,3.851,0,0,1,1.1.141ZM28.717,30a4.459,4.459,0,0,1-.375-1.137,3.672,3.672,0,0,1-3.047,1.371,4.5,4.5,0,0,1-3.047-1.084,3.45,3.45,0,0,1-1.254-2.725,3.546,3.546,0,0,1,1.523-3.117,7.761,7.761,0,0,1,4.43-1.055h1.219v-.671q0-1.755-1.512-1.755a1.236,1.236,0,0,0-1.406,1.39H21.3a3.54,3.54,0,0,1,1.564-2.985,6.575,6.575,0,0,1,3.99-1.147,5.764,5.764,0,0,1,3.832,1.184,4.115,4.115,0,0,1,1.441,3.246v5.613a5.748,5.748,0,0,0,.539,2.672V30Zm-2.473-2.578a2.2,2.2,0,0,0,1.225-.316,1.983,1.983,0,0,0,.7-.715V24.363H27.018q-2.062,0-2.062,1.852a1.131,1.131,0,0,0,.363.873A1.315,1.315,0,0,0,26.244,27.422Zm13.43-.234a1.756,1.756,0,0,0,1.289-.451,1.654,1.654,0,0,0,.445-1.26h3.7A4.384,4.384,0,0,1,43.617,28.9a5.558,5.558,0,0,1-3.85,1.336A5.627,5.627,0,0,1,35.408,28.5a6.834,6.834,0,0,1-1.594-4.8v-.164a7.723,7.723,0,0,1,.709-3.393,5.162,5.162,0,0,1,2.045-2.262,6.1,6.1,0,0,1,3.164-.791,5.488,5.488,0,0,1,3.926,1.371,4.863,4.863,0,0,1,1.453,3.715h-3.7a2.168,2.168,0,0,0-.48-1.512,1.658,1.658,0,0,0-1.289-.527q-1.535,0-1.793,1.957a13.809,13.809,0,0,0-.082,1.711,5.424,5.424,0,0,0,.457,2.648A1.582,1.582,0,0,0,39.674,27.188ZM50.947,30H46.986V17.32h3.961Zm-4.2-15.949a1.763,1.763,0,0,1,.609-1.383,2.591,2.591,0,0,1,3.164,0,1.874,1.874,0,0,1,0,2.766,2.591,2.591,0,0,1-3.164,0A1.763,1.763,0,0,1,46.752,14.051Zm6.129,9.492a7.484,7.484,0,0,1,.738-3.381,5.28,5.28,0,0,1,2.121-2.279,6.388,6.388,0,0,1,3.246-.8,5.83,5.83,0,0,1,4.488,1.764,6.768,6.768,0,0,1,1.641,4.8v.141a6.566,6.566,0,0,1-1.646,4.705,5.846,5.846,0,0,1-4.459,1.74,5.912,5.912,0,0,1-4.348-1.623,6.348,6.348,0,0,1-1.77-4.4Zm3.949.246a4.718,4.718,0,0,0,.551,2.578,1.835,1.835,0,0,0,1.629.82q2.109,0,2.156-3.246v-.4q0-3.41-2.18-3.41-1.98,0-2.145,2.941ZM59.525,12H63.7l-3.258,3.68-3.223-.006Zm10.957,5.32.129,1.488a4.3,4.3,0,0,1,3.621-1.723,3.618,3.618,0,0,1,2.959,1.184,5.635,5.635,0,0,1,1.014,3.563V30H74.244V22a2.14,2.14,0,0,0-.387-1.412,1.789,1.789,0,0,0-1.406-.451,1.883,1.883,0,0,0-1.723.914V30H66.779V17.32Z" transform="translate(800 5812)" fill="#12263f"/>
    <path id="Elipse_1436" data-name="Elipse 1436" d="M272,2a272,272,0,0,0-54.417,5.485,268.511,268.511,0,0,0-96.542,40.625A270.794,270.794,0,0,0,23.217,166.9,268.625,268.625,0,0,0,7.485,217.583a272.652,272.652,0,0,0,0,108.833,268.511,268.511,0,0,0,40.625,96.542A270.794,270.794,0,0,0,166.9,520.783a268.625,268.625,0,0,0,50.679,15.732,272.652,272.652,0,0,0,108.833,0,268.511,268.511,0,0,0,96.542-40.625A270.794,270.794,0,0,0,520.783,377.1a268.624,268.624,0,0,0,15.732-50.679,272.652,272.652,0,0,0,0-108.833,268.511,268.511,0,0,0-40.625-96.542A270.794,270.794,0,0,0,377.1,23.217,268.624,268.624,0,0,0,326.417,7.485,272,272,0,0,0,272,2m0-2C422.221,0,544,121.779,544,272S422.221,544,272,544,0,422.221,0,272,121.779,0,272,0Z" transform="translate(528 5547)" fill="#16697a"/>
    <circle id="Elipse_1429" data-name="Elipse 1429" cx="90" cy="90" r="90" transform="translate(710 5471)" fill="#dee4f0"/>
    <path id="Trazado_205903" data-name="Trazado 205903" d="M-47.414-3.973h-6.609L-55.406,0h-3.082l6.445-17.062h2.66L-42.926,0H-46.02Zm-5.777-2.391h4.945l-2.473-7.078Zm17.133,4.324a2.575,2.575,0,0,0,1.77-.621,2.122,2.122,0,0,0,.75-1.535h2.684a4.183,4.183,0,0,1-.738,2.209A4.843,4.843,0,0,1-33.469-.363a5.588,5.588,0,0,1-2.555.6,5.406,5.406,0,0,1-4.219-1.723A6.833,6.833,0,0,1-41.8-6.246v-.293a6.719,6.719,0,0,1,1.547-4.635,5.357,5.357,0,0,1,4.219-1.74A5.21,5.21,0,0,1-32.35-11.6a4.722,4.722,0,0,1,1.494,3.463h-2.684a2.608,2.608,0,0,0-.744-1.793,2.394,2.394,0,0,0-1.775-.7,2.506,2.506,0,0,0-2.133,1,5.113,5.113,0,0,0-.762,3.041v.457a5.2,5.2,0,0,0,.744,3.076A2.5,2.5,0,0,0-36.059-2.039Zm12.563,0a2.575,2.575,0,0,0,1.77-.621,2.122,2.122,0,0,0,.75-1.535h2.684a4.183,4.183,0,0,1-.738,2.209A4.843,4.843,0,0,1-20.906-.363a5.588,5.588,0,0,1-2.555.6A5.406,5.406,0,0,1-27.68-1.488a6.833,6.833,0,0,1-1.559-4.758v-.293a6.719,6.719,0,0,1,1.547-4.635,5.357,5.357,0,0,1,4.219-1.74A5.21,5.21,0,0,1-19.787-11.6a4.722,4.722,0,0,1,1.494,3.463h-2.684a2.608,2.608,0,0,0-.744-1.793,2.394,2.394,0,0,0-1.775-.7,2.506,2.506,0,0,0-2.133,1,5.113,5.113,0,0,0-.762,3.041v.457a5.2,5.2,0,0,0,.744,3.076A2.5,2.5,0,0,0-23.5-2.039ZM-10.559.234a5.891,5.891,0,0,1-4.389-1.705,6.185,6.185,0,0,1-1.682-4.541v-.352A7.608,7.608,0,0,1-15.9-9.756a5.575,5.575,0,0,1,2.057-2.326,5.437,5.437,0,0,1,2.953-.832,4.977,4.977,0,0,1,4,1.652A6.987,6.987,0,0,1-5.473-6.586v1.148h-8.285a3.808,3.808,0,0,0,1.049,2.484,3.149,3.149,0,0,0,2.314.914A3.856,3.856,0,0,0-7.207-3.621l1.535,1.465A5.127,5.127,0,0,1-7.705-.393,6.365,6.365,0,0,1-10.559.234Zm-.34-10.863a2.4,2.4,0,0,0-1.893.82,4.252,4.252,0,0,0-.92,2.285h5.426v-.211A3.461,3.461,0,0,0-9.047-9.9,2.38,2.38,0,0,0-10.9-10.629ZM3.844-3.445a1.291,1.291,0,0,0-.627-1.16,6.668,6.668,0,0,0-2.08-.7,10.693,10.693,0,0,1-2.426-.773A3.237,3.237,0,0,1-3.422-9.07a3.375,3.375,0,0,1,1.383-2.742,5.467,5.467,0,0,1,3.516-1.1A5.688,5.688,0,0,1,5.15-11.789a3.57,3.57,0,0,1,1.4,2.918H3.7a1.755,1.755,0,0,0-.609-1.365,2.335,2.335,0,0,0-1.617-.545,2.523,2.523,0,0,0-1.529.434,1.367,1.367,0,0,0-.592,1.16,1.154,1.154,0,0,0,.551,1.02,7.574,7.574,0,0,0,2.227.732,10.54,10.54,0,0,1,2.631.879A3.725,3.725,0,0,1,6.182-5.332,3.123,3.123,0,0,1,6.645-3.6,3.3,3.3,0,0,1,5.227-.826,6.046,6.046,0,0,1,1.512.234,6.556,6.556,0,0,1-1.266-.328a4.571,4.571,0,0,1-1.9-1.547A3.662,3.662,0,0,1-3.844-4h2.766A2.007,2.007,0,0,0-.316-2.443,2.96,2.96,0,0,0,1.547-1.9a2.88,2.88,0,0,0,1.711-.428A1.324,1.324,0,0,0,3.844-3.445ZM12.152,0H9.3V-12.68h2.848ZM9.129-15.973a1.511,1.511,0,0,1,.416-1.09,1.571,1.571,0,0,1,1.189-.434,1.591,1.591,0,0,1,1.2.434,1.5,1.5,0,0,1,.422,1.09A1.465,1.465,0,0,1,11.93-14.9a1.6,1.6,0,0,1-1.2.428A1.584,1.584,0,0,1,9.545-14.9,1.476,1.476,0,0,1,9.129-15.973Zm17.25,9.762a7.617,7.617,0,0,1-1.318,4.7A4.3,4.3,0,0,1,21.434.234a4.136,4.136,0,0,1-3.469-1.605L17.824,0H15.246V-18h2.848v6.539a4.122,4.122,0,0,1,3.316-1.453,4.344,4.344,0,0,1,3.645,1.723,7.743,7.743,0,0,1,1.324,4.816Zm-2.848-.246A5.383,5.383,0,0,0,22.8-9.551,2.419,2.419,0,0,0,20.7-10.582a2.644,2.644,0,0,0-2.6,1.617v5.227a2.671,2.671,0,0,0,2.625,1.652,2.4,2.4,0,0,0,2.063-1,5.216,5.216,0,0,0,.75-3.012ZM31.793,0H28.945V-18h2.848Zm8.684.234a5.891,5.891,0,0,1-4.389-1.705,6.185,6.185,0,0,1-1.682-4.541v-.352a7.608,7.608,0,0,1,.732-3.393A5.575,5.575,0,0,1,37.2-12.082a5.437,5.437,0,0,1,2.953-.832,4.977,4.977,0,0,1,4,1.652,6.987,6.987,0,0,1,1.412,4.676v1.148H37.277a3.808,3.808,0,0,0,1.049,2.484,3.149,3.149,0,0,0,2.314.914,3.856,3.856,0,0,0,3.188-1.582l1.535,1.465A5.127,5.127,0,0,1,43.33-.393,6.365,6.365,0,0,1,40.477.234Zm-.34-10.863a2.4,2.4,0,0,0-1.893.82,4.252,4.252,0,0,0-.92,2.285H42.75v-.211A3.461,3.461,0,0,0,41.988-9.9,2.38,2.38,0,0,0,40.137-10.629ZM54.879-3.445a1.291,1.291,0,0,0-.627-1.16,6.668,6.668,0,0,0-2.08-.7,10.693,10.693,0,0,1-2.426-.773A3.237,3.237,0,0,1,47.613-9.07,3.375,3.375,0,0,1,49-11.812a5.467,5.467,0,0,1,3.516-1.1,5.688,5.688,0,0,1,3.674,1.125,3.57,3.57,0,0,1,1.4,2.918H54.738a1.755,1.755,0,0,0-.609-1.365,2.335,2.335,0,0,0-1.617-.545,2.523,2.523,0,0,0-1.529.434,1.367,1.367,0,0,0-.592,1.16,1.154,1.154,0,0,0,.551,1.02,7.574,7.574,0,0,0,2.227.732,10.54,10.54,0,0,1,2.631.879,3.725,3.725,0,0,1,1.418,1.225A3.123,3.123,0,0,1,57.68-3.6,3.3,3.3,0,0,1,56.262-.826,6.046,6.046,0,0,1,52.547.234,6.556,6.556,0,0,1,49.77-.328a4.571,4.571,0,0,1-1.9-1.547A3.662,3.662,0,0,1,47.191-4h2.766a2.007,2.007,0,0,0,.762,1.553,2.96,2.96,0,0,0,1.863.545,2.88,2.88,0,0,0,1.711-.428A1.324,1.324,0,0,0,54.879-3.445Z" transform="translate(800 5569)" fill="#12263f"/>
    <circle id="Elipse_1430" data-name="Elipse 1430" cx="90" cy="90" r="90" transform="translate(942 5593)" fill="#dee4f0"/>
    <path id="Trazado_205905" data-name="Trazado 205905" d="M-57.387-6.328V0h-2.965V-17.062h6.527a6.6,6.6,0,0,1,4.541,1.49A5.01,5.01,0,0,1-47.6-11.631a4.843,4.843,0,0,1-1.646,3.907,6.92,6.92,0,0,1-4.611,1.4Zm0-2.391h3.563a3.509,3.509,0,0,0,2.414-.744,2.735,2.735,0,0,0,.832-2.15,2.951,2.951,0,0,0-.844-2.209,3.252,3.252,0,0,0-2.32-.85h-3.645ZM-39.7.234a5.891,5.891,0,0,1-4.389-1.705,6.185,6.185,0,0,1-1.682-4.541v-.352a7.608,7.608,0,0,1,.732-3.393,5.575,5.575,0,0,1,2.057-2.326,5.437,5.437,0,0,1,2.953-.832,4.977,4.977,0,0,1,4,1.652,6.987,6.987,0,0,1,1.412,4.676v1.148H-42.9a3.808,3.808,0,0,0,1.049,2.484,3.149,3.149,0,0,0,2.314.914,3.856,3.856,0,0,0,3.188-1.582l1.535,1.465A5.127,5.127,0,0,1-36.85-.393,6.365,6.365,0,0,1-39.7.234Zm-.34-10.863a2.4,2.4,0,0,0-1.893.82,4.252,4.252,0,0,0-.92,2.285h5.426v-.211A3.461,3.461,0,0,0-38.191-9.9,2.38,2.38,0,0,0-40.043-10.629Zm14.273.551a7.047,7.047,0,0,0-1.16-.094,2.612,2.612,0,0,0-2.637,1.5V0h-2.848V-12.68H-29.7l.07,1.418a3.208,3.208,0,0,1,2.859-1.652,2.666,2.666,0,0,1,1.008.164Zm5.953-5.684v3.082h2.238v2.109h-2.238v7.078a1.559,1.559,0,0,0,.287,1.049,1.331,1.331,0,0,0,1.025.322,4.387,4.387,0,0,0,1-.117v2.2a7.013,7.013,0,0,1-1.875.27q-3.281,0-3.281-3.621V-10.57H-24.75V-12.68h2.086v-3.082ZM-12.375,0h-2.848V-12.68h2.848ZM-15.4-15.973a1.511,1.511,0,0,1,.416-1.09,1.571,1.571,0,0,1,1.189-.434,1.591,1.591,0,0,1,1.2.434,1.5,1.5,0,0,1,.422,1.09A1.465,1.465,0,0,1-12.6-14.9a1.6,1.6,0,0,1-1.2.428,1.584,1.584,0,0,1-1.189-.428A1.476,1.476,0,0,1-15.4-15.973Zm8.766,3.293.082,1.465a4.559,4.559,0,0,1,3.691-1.7q3.961,0,4.031,4.535V0H-1.676V-8.215A2.611,2.611,0,0,0-2.2-10a2.194,2.194,0,0,0-1.705-.58A2.744,2.744,0,0,0-6.469-9.023V0H-9.316V-12.68ZM9.656.234A5.891,5.891,0,0,1,5.268-1.471,6.185,6.185,0,0,1,3.586-6.012v-.352a7.608,7.608,0,0,1,.732-3.393,5.575,5.575,0,0,1,2.057-2.326,5.437,5.437,0,0,1,2.953-.832,4.977,4.977,0,0,1,4,1.652,6.987,6.987,0,0,1,1.412,4.676v1.148H6.457A3.808,3.808,0,0,0,7.506-2.953a3.149,3.149,0,0,0,2.314.914,3.856,3.856,0,0,0,3.188-1.582l1.535,1.465A5.127,5.127,0,0,1,12.51-.393,6.365,6.365,0,0,1,9.656.234Zm-.34-10.863a2.4,2.4,0,0,0-1.893.82A4.252,4.252,0,0,0,6.5-7.523H11.93v-.211A3.461,3.461,0,0,0,11.168-9.9,2.38,2.38,0,0,0,9.316-10.629ZM19.594-12.68l.082,1.465a4.559,4.559,0,0,1,3.691-1.7q3.961,0,4.031,4.535V0H24.551V-8.215A2.611,2.611,0,0,0,24.029-10a2.194,2.194,0,0,0-1.705-.58,2.744,2.744,0,0,0-2.566,1.559V0H16.91V-12.68Zm14.273-3.082v3.082h2.238v2.109H33.867v7.078a1.559,1.559,0,0,0,.287,1.049,1.331,1.331,0,0,0,1.025.322,4.387,4.387,0,0,0,1-.117v2.2A7.013,7.013,0,0,1,34.3.234q-3.281,0-3.281-3.621V-10.57H28.934V-12.68H31.02v-3.082Zm10,16a5.891,5.891,0,0,1-4.389-1.705,6.185,6.185,0,0,1-1.682-4.541v-.352a7.608,7.608,0,0,1,.732-3.393,5.575,5.575,0,0,1,2.057-2.326,5.437,5.437,0,0,1,2.953-.832,4.977,4.977,0,0,1,4,1.652,6.987,6.987,0,0,1,1.412,4.676v1.148H40.664a3.808,3.808,0,0,0,1.049,2.484,3.149,3.149,0,0,0,2.314.914,3.856,3.856,0,0,0,3.188-1.582L48.75-2.156A5.127,5.127,0,0,1,46.717-.393,6.365,6.365,0,0,1,43.863.234Zm-.34-10.863a2.4,2.4,0,0,0-1.893.82,4.252,4.252,0,0,0-.92,2.285h5.426v-.211A3.461,3.461,0,0,0,45.375-9.9,2.38,2.38,0,0,0,43.523-10.629ZM58.266-3.445a1.291,1.291,0,0,0-.627-1.16,6.668,6.668,0,0,0-2.08-.7,10.693,10.693,0,0,1-2.426-.773A3.237,3.237,0,0,1,51-9.07a3.375,3.375,0,0,1,1.383-2.742,5.467,5.467,0,0,1,3.516-1.1,5.688,5.688,0,0,1,3.674,1.125,3.57,3.57,0,0,1,1.4,2.918H58.125a1.755,1.755,0,0,0-.609-1.365,2.335,2.335,0,0,0-1.617-.545,2.523,2.523,0,0,0-1.529.434,1.367,1.367,0,0,0-.592,1.16,1.154,1.154,0,0,0,.551,1.02,7.574,7.574,0,0,0,2.227.732,10.54,10.54,0,0,1,2.631.879A3.725,3.725,0,0,1,60.6-5.332,3.123,3.123,0,0,1,61.066-3.6,3.3,3.3,0,0,1,59.648-.826,6.046,6.046,0,0,1,55.934.234a6.556,6.556,0,0,1-2.777-.562,4.571,4.571,0,0,1-1.9-1.547A3.662,3.662,0,0,1,50.578-4h2.766a2.007,2.007,0,0,0,.762,1.553,2.96,2.96,0,0,0,1.863.545,2.88,2.88,0,0,0,1.711-.428A1.324,1.324,0,0,0,58.266-3.445Z" transform="translate(1032 5691)" fill="#12263f"/>
    <circle id="Elipse_1435" data-name="Elipse 1435" cx="90" cy="90" r="90" transform="translate(477 5593)" fill="#dee4f0"/>
    <path id="Trazado_205904" data-name="Trazado 205904" d="M-41.414-4.395a2.06,2.06,0,0,0-.791-1.734,9.517,9.517,0,0,0-2.854-1.23A13.779,13.779,0,0,1-48.34-8.742a4.379,4.379,0,0,1-2.332-3.82,4.158,4.158,0,0,1,1.682-3.4A6.806,6.806,0,0,1-44.625-17.3a7.373,7.373,0,0,1,3.176.656,5.213,5.213,0,0,1,2.191,1.869,4.794,4.794,0,0,1,.8,2.689h-2.953a2.674,2.674,0,0,0-.838-2.092,3.458,3.458,0,0,0-2.4-.756,3.612,3.612,0,0,0-2.256.621,2.068,2.068,0,0,0-.8,1.734,1.871,1.871,0,0,0,.867,1.564A9.99,9.99,0,0,0-43.98-9.791a13.153,13.153,0,0,1,3.2,1.348,5.089,5.089,0,0,1,1.77,1.734,4.517,4.517,0,0,1,.563,2.291,4.061,4.061,0,0,1-1.635,3.393A7.091,7.091,0,0,1-44.52.234a8.335,8.335,0,0,1-3.4-.686,5.719,5.719,0,0,1-2.414-1.893A4.716,4.716,0,0,1-51.2-5.156h2.965a2.76,2.76,0,0,0,.961,2.25,4.208,4.208,0,0,0,2.754.8,3.656,3.656,0,0,0,2.326-.627A2.023,2.023,0,0,0-41.414-4.395ZM-30.539.234a5.891,5.891,0,0,1-4.389-1.705,6.185,6.185,0,0,1-1.682-4.541v-.352a7.608,7.608,0,0,1,.732-3.393,5.575,5.575,0,0,1,2.057-2.326,5.437,5.437,0,0,1,2.953-.832,4.977,4.977,0,0,1,4,1.652,6.987,6.987,0,0,1,1.412,4.676v1.148h-8.285a3.808,3.808,0,0,0,1.049,2.484,3.149,3.149,0,0,0,2.314.914,3.856,3.856,0,0,0,3.188-1.582l1.535,1.465A5.127,5.127,0,0,1-27.686-.393,6.365,6.365,0,0,1-30.539.234Zm-.34-10.863a2.4,2.4,0,0,0-1.893.82,4.252,4.252,0,0,0-.92,2.285h5.426v-.211A3.461,3.461,0,0,0-29.027-9.9,2.38,2.38,0,0,0-30.879-10.629ZM-20.6-12.68l.082,1.465a4.559,4.559,0,0,1,3.691-1.7q3.961,0,4.031,4.535V0h-2.848V-8.215A2.611,2.611,0,0,0-16.166-10a2.194,2.194,0,0,0-1.705-.58,2.744,2.744,0,0,0-2.566,1.559V0h-2.848V-12.68ZM-2.789-3.445a1.291,1.291,0,0,0-.627-1.16,6.668,6.668,0,0,0-2.08-.7,10.693,10.693,0,0,1-2.426-.773A3.237,3.237,0,0,1-10.055-9.07a3.375,3.375,0,0,1,1.383-2.742,5.467,5.467,0,0,1,3.516-1.1,5.688,5.688,0,0,1,3.674,1.125,3.57,3.57,0,0,1,1.4,2.918H-2.93a1.755,1.755,0,0,0-.609-1.365,2.335,2.335,0,0,0-1.617-.545,2.523,2.523,0,0,0-1.529.434,1.367,1.367,0,0,0-.592,1.16,1.154,1.154,0,0,0,.551,1.02A7.574,7.574,0,0,0-4.5-7.436a10.54,10.54,0,0,1,2.631.879A3.725,3.725,0,0,1-.451-5.332,3.123,3.123,0,0,1,.012-3.6,3.3,3.3,0,0,1-1.406-.826,6.046,6.046,0,0,1-5.121.234,6.556,6.556,0,0,1-7.9-.328,4.571,4.571,0,0,1-9.8-1.875,3.662,3.662,0,0,1-10.477-4h2.766a2.007,2.007,0,0,0,.762,1.553A2.96,2.96,0,0,0-5.086-1.9a2.88,2.88,0,0,0,1.711-.428A1.324,1.324,0,0,0-2.789-3.445ZM5.52,0H2.672V-12.68H5.52ZM2.5-15.973a1.511,1.511,0,0,1,.416-1.09A1.571,1.571,0,0,1,4.1-17.5a1.591,1.591,0,0,1,1.2.434,1.5,1.5,0,0,1,.422,1.09A1.465,1.465,0,0,1,5.3-14.9a1.6,1.6,0,0,1-1.2.428A1.584,1.584,0,0,1,2.912-14.9,1.476,1.476,0,0,1,2.5-15.973Zm17.25,9.762a7.617,7.617,0,0,1-1.318,4.7A4.3,4.3,0,0,1,14.8.234a4.136,4.136,0,0,1-3.469-1.605L11.191,0H8.613V-18h2.848v6.539a4.122,4.122,0,0,1,3.316-1.453,4.344,4.344,0,0,1,3.645,1.723,7.743,7.743,0,0,1,1.324,4.816ZM16.9-6.457a5.383,5.383,0,0,0-.727-3.094,2.419,2.419,0,0,0-2.109-1.031,2.644,2.644,0,0,0-2.6,1.617v5.227a2.671,2.671,0,0,0,2.625,1.652,2.4,2.4,0,0,0,2.063-1,5.216,5.216,0,0,0,.75-3.012ZM25.16,0H22.313V-18H25.16Zm8.684.234a5.891,5.891,0,0,1-4.389-1.705,6.185,6.185,0,0,1-1.682-4.541v-.352a7.608,7.608,0,0,1,.732-3.393,5.575,5.575,0,0,1,2.057-2.326,5.437,5.437,0,0,1,2.953-.832,4.977,4.977,0,0,1,4,1.652A6.987,6.987,0,0,1,38.93-6.586v1.148H30.645a3.808,3.808,0,0,0,1.049,2.484,3.149,3.149,0,0,0,2.314.914A3.856,3.856,0,0,0,37.2-3.621L38.73-2.156A5.127,5.127,0,0,1,36.7-.393,6.365,6.365,0,0,1,33.844.234ZM33.5-10.629a2.4,2.4,0,0,0-1.893.82,4.252,4.252,0,0,0-.92,2.285h5.426v-.211A3.461,3.461,0,0,0,35.355-9.9,2.38,2.38,0,0,0,33.5-10.629ZM48.246-3.445a1.291,1.291,0,0,0-.627-1.16,6.668,6.668,0,0,0-2.08-.7,10.693,10.693,0,0,1-2.426-.773A3.237,3.237,0,0,1,40.98-9.07a3.375,3.375,0,0,1,1.383-2.742,5.467,5.467,0,0,1,3.516-1.1,5.688,5.688,0,0,1,3.674,1.125,3.57,3.57,0,0,1,1.4,2.918H48.105a1.755,1.755,0,0,0-.609-1.365,2.335,2.335,0,0,0-1.617-.545,2.523,2.523,0,0,0-1.529.434,1.367,1.367,0,0,0-.592,1.16,1.154,1.154,0,0,0,.551,1.02,7.574,7.574,0,0,0,2.227.732,10.54,10.54,0,0,1,2.631.879,3.725,3.725,0,0,1,1.418,1.225A3.123,3.123,0,0,1,51.047-3.6,3.3,3.3,0,0,1,49.629-.826,6.046,6.046,0,0,1,45.914.234a6.556,6.556,0,0,1-2.777-.562,4.571,4.571,0,0,1-1.9-1.547A3.662,3.662,0,0,1,40.559-4h2.766a2.007,2.007,0,0,0,.762,1.553,2.96,2.96,0,0,0,1.863.545,2.88,2.88,0,0,0,1.711-.428A1.324,1.324,0,0,0,48.246-3.445Z" transform="translate(567 5691)" fill="#12263f"/>
    <circle id="Elipse_1431" data-name="Elipse 1431" cx="90" cy="90" r="90" transform="translate(969 5805)" fill="#dee4f0"/>
    <path id="Trazado_205908" data-name="Trazado 205908" d="M-23.215-7.23h-6.867V0h-2.965V-17.062h10.84v2.391h-7.875V-9.6h6.867ZM-17.109,0h-2.848V-12.68h2.848Zm-3.023-15.973a1.511,1.511,0,0,1,.416-1.09,1.571,1.571,0,0,1,1.189-.434,1.591,1.591,0,0,1,1.2.434,1.5,1.5,0,0,1,.422,1.09,1.465,1.465,0,0,1-.422,1.072,1.6,1.6,0,0,1-1.2.428,1.584,1.584,0,0,1-1.189-.428A1.476,1.476,0,0,1-20.133-15.973ZM-8.426.234a5.891,5.891,0,0,1-4.389-1.705A6.185,6.185,0,0,1-14.5-6.012v-.352a7.608,7.608,0,0,1,.732-3.393,5.575,5.575,0,0,1,2.057-2.326,5.437,5.437,0,0,1,2.953-.832,4.977,4.977,0,0,1,4,1.652A6.987,6.987,0,0,1-3.34-6.586v1.148h-8.285a3.808,3.808,0,0,0,1.049,2.484,3.149,3.149,0,0,0,2.314.914A3.856,3.856,0,0,0-5.074-3.621l1.535,1.465A5.127,5.127,0,0,1-5.572-.393,6.365,6.365,0,0,1-8.426.234Zm-.34-10.863a2.4,2.4,0,0,0-1.893.82,4.252,4.252,0,0,0-.92,2.285h5.426v-.211A3.461,3.461,0,0,0-6.914-9.9,2.38,2.38,0,0,0-8.766-10.629ZM1.9,0H-.949V-18H1.9Zm8.684.234A5.891,5.891,0,0,1,6.193-1.471,6.185,6.185,0,0,1,4.512-6.012v-.352a7.608,7.608,0,0,1,.732-3.393A5.575,5.575,0,0,1,7.3-12.082a5.437,5.437,0,0,1,2.953-.832,4.977,4.977,0,0,1,4,1.652,6.987,6.987,0,0,1,1.412,4.676v1.148H7.383A3.808,3.808,0,0,0,8.432-2.953a3.149,3.149,0,0,0,2.314.914,3.856,3.856,0,0,0,3.188-1.582l1.535,1.465A5.127,5.127,0,0,1,13.436-.393,6.365,6.365,0,0,1,10.582.234Zm-.34-10.863a2.4,2.4,0,0,0-1.893.82,4.252,4.252,0,0,0-.92,2.285h5.426v-.211A3.461,3.461,0,0,0,12.094-9.9,2.38,2.38,0,0,0,10.242-10.629ZM24.984-3.445a1.291,1.291,0,0,0-.627-1.16,6.668,6.668,0,0,0-2.08-.7,10.693,10.693,0,0,1-2.426-.773A3.237,3.237,0,0,1,17.719-9.07,3.375,3.375,0,0,1,19.1-11.812a5.467,5.467,0,0,1,3.516-1.1,5.688,5.688,0,0,1,3.674,1.125,3.57,3.57,0,0,1,1.4,2.918H24.844a1.755,1.755,0,0,0-.609-1.365,2.335,2.335,0,0,0-1.617-.545,2.523,2.523,0,0,0-1.529.434,1.367,1.367,0,0,0-.592,1.16,1.154,1.154,0,0,0,.551,1.02,7.574,7.574,0,0,0,2.227.732,10.54,10.54,0,0,1,2.631.879,3.725,3.725,0,0,1,1.418,1.225A3.123,3.123,0,0,1,27.785-3.6,3.3,3.3,0,0,1,26.367-.826,6.046,6.046,0,0,1,22.652.234a6.556,6.556,0,0,1-2.777-.562,4.571,4.571,0,0,1-1.9-1.547A3.662,3.662,0,0,1,17.3-4h2.766a2.007,2.007,0,0,0,.762,1.553,2.96,2.96,0,0,0,1.863.545A2.88,2.88,0,0,0,24.4-2.326,1.324,1.324,0,0,0,24.984-3.445Z" transform="translate(1059 5903)" fill="#12263f"/>
    <circle id="Elipse_1432" data-name="Elipse 1432" cx="90" cy="90" r="90" transform="translate(824 5980)" fill="#dee4f0"/>
    <path id="Trazado_205909" data-name="Trazado 205909" d="M-35.062-8.086a10.468,10.468,0,0,1-.867,4.4A6.557,6.557,0,0,1-38.408-.779,6.817,6.817,0,0,1-42.117.234a6.834,6.834,0,0,1-3.7-1.014,6.658,6.658,0,0,1-2.508-2.889,10.141,10.141,0,0,1-.9-4.324v-.961a10.379,10.379,0,0,1,.885-4.406,6.65,6.65,0,0,1,2.5-2.924,6.8,6.8,0,0,1,3.7-1.014,6.856,6.856,0,0,1,3.7,1,6.565,6.565,0,0,1,2.49,2.883,10.356,10.356,0,0,1,.891,4.377Zm-2.965-.891A7.459,7.459,0,0,0-39.1-13.324a3.508,3.508,0,0,0-3.041-1.512,3.5,3.5,0,0,0-3.006,1.506,7.315,7.315,0,0,0-1.107,4.26v.984a7.4,7.4,0,0,0,1.1,4.348A3.528,3.528,0,0,0-42.117-2.2a3.487,3.487,0,0,0,3.029-1.5,7.562,7.562,0,0,0,1.061-4.383Zm16.77,2.766a7.617,7.617,0,0,1-1.318,4.7A4.3,4.3,0,0,1-26.2.234a4.136,4.136,0,0,1-3.469-1.605L-29.812,0h-2.578V-18h2.848v6.539a4.122,4.122,0,0,1,3.316-1.453,4.344,4.344,0,0,1,3.645,1.723,7.743,7.743,0,0,1,1.324,4.816Zm-2.848-.246a5.383,5.383,0,0,0-.727-3.094,2.419,2.419,0,0,0-2.109-1.031,2.644,2.644,0,0,0-2.6,1.617v5.227a2.671,2.671,0,0,0,2.625,1.652,2.4,2.4,0,0,0,2.063-1,5.216,5.216,0,0,0,.75-3.012Zm8.2-6.223v13.8A4.172,4.172,0,0,1-16.869,4.1,3.706,3.706,0,0,1-19.7,5.121a5.691,5.691,0,0,1-1.512-.2V2.672a4.387,4.387,0,0,0,1.008.105q1.418,0,1.453-1.547V-12.68ZM-19-15.973a1.511,1.511,0,0,1,.416-1.09,1.571,1.571,0,0,1,1.189-.434,1.591,1.591,0,0,1,1.2.434,1.5,1.5,0,0,1,.422,1.09A1.465,1.465,0,0,1-16.2-14.9a1.6,1.6,0,0,1-1.2.428A1.584,1.584,0,0,1-18.58-14.9,1.476,1.476,0,0,1-19-15.973ZM-7.277.234a5.891,5.891,0,0,1-4.389-1.705,6.185,6.185,0,0,1-1.682-4.541v-.352a7.608,7.608,0,0,1,.732-3.393,5.575,5.575,0,0,1,2.057-2.326,5.437,5.437,0,0,1,2.953-.832,4.977,4.977,0,0,1,4,1.652A6.987,6.987,0,0,1-2.191-6.586v1.148h-8.285A3.808,3.808,0,0,0-9.428-2.953a3.149,3.149,0,0,0,2.314.914A3.856,3.856,0,0,0-3.926-3.621l1.535,1.465A5.127,5.127,0,0,1-4.424-.393,6.365,6.365,0,0,1-7.277.234Zm-.34-10.863a2.4,2.4,0,0,0-1.893.82,4.252,4.252,0,0,0-.92,2.285H-5v-.211A3.461,3.461,0,0,0-5.766-9.9,2.38,2.38,0,0,0-7.617-10.629Zm11.2-5.133v3.082H5.824v2.109H3.586v7.078a1.559,1.559,0,0,0,.287,1.049A1.331,1.331,0,0,0,4.9-2.121a4.387,4.387,0,0,0,1-.117v2.2A7.013,7.013,0,0,1,4.02.234Q.738.234.738-3.387V-10.57H-1.348V-12.68H.738v-3.082ZM11.027,0H8.18V-12.68h2.848ZM8-15.973a1.511,1.511,0,0,1,.416-1.09A1.571,1.571,0,0,1,9.609-17.5a1.591,1.591,0,0,1,1.2.434,1.5,1.5,0,0,1,.422,1.09A1.465,1.465,0,0,1,10.8-14.9a1.6,1.6,0,0,1-1.2.428A1.584,1.584,0,0,1,8.42-14.9,1.476,1.476,0,0,1,8-15.973ZM18.6-3.609l2.684-9.07h2.941L19.828,0H17.355l-4.43-12.68h2.953Zm6.691-2.848a7.477,7.477,0,0,1,.738-3.357,5.392,5.392,0,0,1,2.074-2.3,5.844,5.844,0,0,1,3.07-.8,5.539,5.539,0,0,1,4.166,1.652,6.5,6.5,0,0,1,1.729,4.383l.012.668a7.543,7.543,0,0,1-.721,3.352A5.327,5.327,0,0,1,34.295-.574a5.887,5.887,0,0,1-3.1.809A5.5,5.5,0,0,1,26.9-1.553a6.845,6.845,0,0,1-1.611-4.764Zm2.848.246a5.109,5.109,0,0,0,.809,3.064A2.629,2.629,0,0,0,31.2-2.039a2.6,2.6,0,0,0,2.244-1.125,5.643,5.643,0,0,0,.8-3.293A5.043,5.043,0,0,0,33.416-9.5a2.638,2.638,0,0,0-2.244-1.125,2.614,2.614,0,0,0-2.215,1.107A5.537,5.537,0,0,0,28.137-6.211ZM46.594-3.445a1.291,1.291,0,0,0-.627-1.16,6.668,6.668,0,0,0-2.08-.7,10.693,10.693,0,0,1-2.426-.773A3.237,3.237,0,0,1,39.328-9.07a3.375,3.375,0,0,1,1.383-2.742,5.467,5.467,0,0,1,3.516-1.1A5.688,5.688,0,0,1,47.9-11.789a3.57,3.57,0,0,1,1.4,2.918H46.453a1.755,1.755,0,0,0-.609-1.365,2.335,2.335,0,0,0-1.617-.545,2.523,2.523,0,0,0-1.529.434,1.367,1.367,0,0,0-.592,1.16,1.154,1.154,0,0,0,.551,1.02,7.574,7.574,0,0,0,2.227.732,10.54,10.54,0,0,1,2.631.879,3.725,3.725,0,0,1,1.418,1.225A3.123,3.123,0,0,1,49.395-3.6,3.3,3.3,0,0,1,47.977-.826,6.046,6.046,0,0,1,44.262.234a6.556,6.556,0,0,1-2.777-.562,4.571,4.571,0,0,1-1.9-1.547A3.662,3.662,0,0,1,38.906-4h2.766a2.007,2.007,0,0,0,.762,1.553A2.96,2.96,0,0,0,44.3-1.9a2.88,2.88,0,0,0,1.711-.428A1.324,1.324,0,0,0,46.594-3.445Z" transform="translate(914 6078)" fill="#12263f"/>
    <circle id="Elipse_1433" data-name="Elipse 1433" cx="90" cy="90" r="90" transform="translate(584 5980)" fill="#dee4f0"/>
    <path id="Trazado_205910" data-name="Trazado 205910" d="M-48.17-6.328V0h-2.965V-17.062h6.527a6.6,6.6,0,0,1,4.541,1.49,5.01,5.01,0,0,1,1.682,3.942,4.843,4.843,0,0,1-1.646,3.907,6.92,6.92,0,0,1-4.611,1.4Zm0-2.391h3.563a3.509,3.509,0,0,0,2.414-.744,2.735,2.735,0,0,0,.832-2.15,2.951,2.951,0,0,0-.844-2.209,3.252,3.252,0,0,0-2.32-.85H-48.17Zm18.738-1.359a7.047,7.047,0,0,0-1.16-.094,2.612,2.612,0,0,0-2.637,1.5V0h-2.848V-12.68h2.719l.07,1.418a3.208,3.208,0,0,1,2.859-1.652,2.666,2.666,0,0,1,1.008.164ZM-22.049.234a5.891,5.891,0,0,1-4.389-1.705,6.185,6.185,0,0,1-1.682-4.541v-.352a7.608,7.608,0,0,1,.732-3.393,5.575,5.575,0,0,1,2.057-2.326,5.437,5.437,0,0,1,2.953-.832,4.977,4.977,0,0,1,4,1.652,6.987,6.987,0,0,1,1.412,4.676v1.148h-8.285A3.808,3.808,0,0,0-24.2-2.953a3.149,3.149,0,0,0,2.314.914A3.856,3.856,0,0,0-18.7-3.621l1.535,1.465A5.127,5.127,0,0,1-19.2-.393,6.365,6.365,0,0,1-22.049.234Zm-.34-10.863a2.4,2.4,0,0,0-1.893.82,4.252,4.252,0,0,0-.92,2.285h5.426v-.211A3.461,3.461,0,0,0-20.537-9.9,2.38,2.38,0,0,0-22.389-10.629Zm12.844,8.59a2.575,2.575,0,0,0,1.77-.621A2.122,2.122,0,0,0-7.025-4.2h2.684A4.183,4.183,0,0,1-5.08-1.986,4.843,4.843,0,0,1-6.955-.363a5.588,5.588,0,0,1-2.555.6,5.406,5.406,0,0,1-4.219-1.723,6.833,6.833,0,0,1-1.559-4.758v-.293a6.719,6.719,0,0,1,1.547-4.635,5.357,5.357,0,0,1,4.219-1.74A5.21,5.21,0,0,1-5.836-11.6,4.722,4.722,0,0,1-4.342-8.133H-7.025A2.608,2.608,0,0,0-7.77-9.926a2.394,2.394,0,0,0-1.775-.7,2.506,2.506,0,0,0-2.133,1,5.113,5.113,0,0,0-.762,3.041v.457A5.2,5.2,0,0,0-11.7-3.053,2.5,2.5,0,0,0-9.545-2.039ZM.838,0H-2.01V-12.68H.838ZM-2.186-15.973a1.511,1.511,0,0,1,.416-1.09A1.571,1.571,0,0,1-.58-17.5a1.591,1.591,0,0,1,1.2.434,1.5,1.5,0,0,1,.422,1.09A1.465,1.465,0,0,1,.615-14.9a1.6,1.6,0,0,1-1.2.428A1.584,1.584,0,0,1-1.77-14.9,1.476,1.476,0,0,1-2.186-15.973ZM11.045-3.445a1.291,1.291,0,0,0-.627-1.16,6.668,6.668,0,0,0-2.08-.7,10.693,10.693,0,0,1-2.426-.773A3.237,3.237,0,0,1,3.779-9.07a3.375,3.375,0,0,1,1.383-2.742,5.467,5.467,0,0,1,3.516-1.1,5.688,5.688,0,0,1,3.674,1.125,3.57,3.57,0,0,1,1.4,2.918H10.9a1.755,1.755,0,0,0-.609-1.365,2.335,2.335,0,0,0-1.617-.545,2.523,2.523,0,0,0-1.529.434,1.367,1.367,0,0,0-.592,1.16,1.154,1.154,0,0,0,.551,1.02,7.574,7.574,0,0,0,2.227.732,10.54,10.54,0,0,1,2.631.879,3.725,3.725,0,0,1,1.418,1.225A3.123,3.123,0,0,1,13.846-3.6,3.3,3.3,0,0,1,12.428-.826,6.046,6.046,0,0,1,8.713.234,6.556,6.556,0,0,1,5.936-.328a4.571,4.571,0,0,1-1.9-1.547A3.662,3.662,0,0,1,3.357-4H6.123a2.007,2.007,0,0,0,.762,1.553A2.96,2.96,0,0,0,8.748-1.9a2.88,2.88,0,0,0,1.711-.428A1.324,1.324,0,0,0,11.045-3.445Zm4.746-3.012a7.477,7.477,0,0,1,.738-3.357,5.392,5.392,0,0,1,2.074-2.3,5.844,5.844,0,0,1,3.07-.8,5.539,5.539,0,0,1,4.166,1.652,6.5,6.5,0,0,1,1.729,4.383l.012.668a7.543,7.543,0,0,1-.721,3.352A5.327,5.327,0,0,1,24.8-.574a5.887,5.887,0,0,1-3.1.809A5.5,5.5,0,0,1,17.4-1.553a6.845,6.845,0,0,1-1.611-4.764Zm2.848.246a5.109,5.109,0,0,0,.809,3.064A2.629,2.629,0,0,0,21.7-2.039a2.6,2.6,0,0,0,2.244-1.125,5.643,5.643,0,0,0,.8-3.293A5.043,5.043,0,0,0,23.918-9.5a2.638,2.638,0,0,0-2.244-1.125,2.614,2.614,0,0,0-2.215,1.107A5.537,5.537,0,0,0,18.639-6.211ZM37.1-3.445a1.291,1.291,0,0,0-.627-1.16,6.668,6.668,0,0,0-2.08-.7,10.693,10.693,0,0,1-2.426-.773A3.237,3.237,0,0,1,29.83-9.07a3.375,3.375,0,0,1,1.383-2.742,5.467,5.467,0,0,1,3.516-1.1A5.688,5.688,0,0,1,38.4-11.789a3.57,3.57,0,0,1,1.4,2.918H36.955a1.755,1.755,0,0,0-.609-1.365,2.335,2.335,0,0,0-1.617-.545,2.523,2.523,0,0,0-1.529.434,1.367,1.367,0,0,0-.592,1.16,1.154,1.154,0,0,0,.551,1.02,7.574,7.574,0,0,0,2.227.732,10.54,10.54,0,0,1,2.631.879,3.725,3.725,0,0,1,1.418,1.225A3.123,3.123,0,0,1,39.9-3.6,3.3,3.3,0,0,1,38.479-.826,6.046,6.046,0,0,1,34.764.234a6.556,6.556,0,0,1-2.777-.562,4.571,4.571,0,0,1-1.9-1.547A3.662,3.662,0,0,1,29.408-4h2.766a2.007,2.007,0,0,0,.762,1.553A2.96,2.96,0,0,0,34.8-1.9a2.88,2.88,0,0,0,1.711-.428A1.324,1.324,0,0,0,37.1-3.445Z" transform="translate(674 6078)" fill="#12263f"/>
    <circle id="Elipse_1434" data-name="Elipse 1434" cx="90" cy="90" r="90" transform="translate(455 5805)" fill="#dee4f0"/>
    <path id="Trazado_205907" data-name="Trazado 205907" d="M-40.271-7.617h-7.008v5.25h8.191V0H-50.244V-17.062H-39.17v2.391h-8.109v4.711h7.008Zm7.875-.891,2.414-4.172h3.164L-30.7-6.434-26.689,0H-29.83l-2.531-4.336L-34.881,0h-3.164l4.008-6.434L-37.9-12.68h3.141Zm18.621,2.3a7.549,7.549,0,0,1-1.336,4.693A4.278,4.278,0,0,1-18.7.234a4.307,4.307,0,0,1-3.34-1.371V4.875h-2.848V-12.68h2.625l.117,1.289a4.183,4.183,0,0,1,3.41-1.523,4.322,4.322,0,0,1,3.639,1.729,7.751,7.751,0,0,1,1.318,4.8Zm-2.836-.246a5.288,5.288,0,0,0-.756-3.012,2.457,2.457,0,0,0-2.162-1.113,2.62,2.62,0,0,0-2.508,1.441v5.625a2.645,2.645,0,0,0,2.531,1.477,2.454,2.454,0,0,0,2.127-1.1A5.821,5.821,0,0,0-16.611-6.457ZM-8.338,0h-2.848V-18h2.848Zm6.164,0H-5.021V-12.68h2.848Zm-.539-17.918H.533l-3.246,3.551L-5-14.373ZM6.275-2.039a2.575,2.575,0,0,0,1.77-.621A2.122,2.122,0,0,0,8.795-4.2h2.684a4.183,4.183,0,0,1-.738,2.209A4.843,4.843,0,0,1,8.865-.363a5.588,5.588,0,0,1-2.555.6A5.406,5.406,0,0,1,2.092-1.488,6.833,6.833,0,0,1,.533-6.246v-.293A6.719,6.719,0,0,1,2.08-11.174,5.357,5.357,0,0,1,6.3-12.914,5.21,5.21,0,0,1,9.984-11.6a4.722,4.722,0,0,1,1.494,3.463H8.795a2.608,2.608,0,0,0-.744-1.793,2.394,2.394,0,0,0-1.775-.7,2.506,2.506,0,0,0-2.133,1,5.113,5.113,0,0,0-.762,3.041v.457a5.2,5.2,0,0,0,.744,3.076A2.5,2.5,0,0,0,6.275-2.039ZM16.658,0H13.811V-12.68h2.848ZM13.635-15.973a1.511,1.511,0,0,1,.416-1.09A1.571,1.571,0,0,1,15.24-17.5a1.591,1.591,0,0,1,1.2.434,1.5,1.5,0,0,1,.422,1.09,1.465,1.465,0,0,1-.422,1.072,1.6,1.6,0,0,1-1.2.428,1.584,1.584,0,0,1-1.189-.428A1.476,1.476,0,0,1,13.635-15.973Zm9.691.211v3.082h2.238v2.109H23.326v7.078a1.559,1.559,0,0,0,.287,1.049,1.331,1.331,0,0,0,1.025.322,4.387,4.387,0,0,0,1-.117v2.2a7.013,7.013,0,0,1-1.875.27q-3.281,0-3.281-3.621V-10.57H18.393V-12.68h2.086v-3.082Zm3.527,9.3a7.477,7.477,0,0,1,.738-3.357,5.392,5.392,0,0,1,2.074-2.3,5.844,5.844,0,0,1,3.07-.8A5.539,5.539,0,0,1,36.9-11.262a6.5,6.5,0,0,1,1.729,4.383l.012.668a7.543,7.543,0,0,1-.721,3.352A5.327,5.327,0,0,1,35.859-.574a5.887,5.887,0,0,1-3.1.809,5.5,5.5,0,0,1-4.295-1.787,6.845,6.845,0,0,1-1.611-4.764Zm2.848.246a5.109,5.109,0,0,0,.809,3.064,2.629,2.629,0,0,0,2.25,1.107A2.6,2.6,0,0,0,35-3.164a5.643,5.643,0,0,0,.8-3.293A5.043,5.043,0,0,0,34.98-9.5a2.638,2.638,0,0,0-2.244-1.125,2.614,2.614,0,0,0-2.215,1.107A5.537,5.537,0,0,0,29.7-6.211ZM48.158-3.445a1.291,1.291,0,0,0-.627-1.16,6.668,6.668,0,0,0-2.08-.7,10.693,10.693,0,0,1-2.426-.773A3.237,3.237,0,0,1,40.893-9.07a3.375,3.375,0,0,1,1.383-2.742,5.467,5.467,0,0,1,3.516-1.1,5.688,5.688,0,0,1,3.674,1.125,3.57,3.57,0,0,1,1.4,2.918H48.018a1.755,1.755,0,0,0-.609-1.365,2.335,2.335,0,0,0-1.617-.545,2.523,2.523,0,0,0-1.529.434,1.367,1.367,0,0,0-.592,1.16,1.154,1.154,0,0,0,.551,1.02,7.574,7.574,0,0,0,2.227.732,10.54,10.54,0,0,1,2.631.879A3.725,3.725,0,0,1,50.5-5.332,3.123,3.123,0,0,1,50.959-3.6,3.3,3.3,0,0,1,49.541-.826,6.046,6.046,0,0,1,45.826.234a6.556,6.556,0,0,1-2.777-.562,4.571,4.571,0,0,1-1.9-1.547A3.662,3.662,0,0,1,40.471-4h2.766A2.007,2.007,0,0,0,44-2.443a2.96,2.96,0,0,0,1.863.545,2.88,2.88,0,0,0,1.711-.428A1.324,1.324,0,0,0,48.158-3.445Z" transform="translate(545 5903)" fill="#12263f"/>
  </g>
</svg>
