<svg xmlns="http://www.w3.org/2000/svg" width="103" height="103" viewBox="0 0 103 103">
  <g id="Grupo_147790" data-name="Grupo 147790" transform="translate(-1022 -7563)">
    <g id="Grupo_147770" data-name="Grupo 147770">
      <circle id="Elipse_1461" data-name="Elipse 1461" cx="51.5" cy="51.5" r="51.5" transform="translate(1022 7563)" fill="#92bfb1"/>
      <g id="clasificacion" transform="translate(934.911 7577)">
        <g id="Grupo_147768" data-name="Grupo 147768" transform="translate(118.089 0)">
          <path id="Trazado_205858" data-name="Trazado 205858" d="M157.486,47.466a1.1,1.1,0,0,0,1.1-1.1V38.972a4.049,4.049,0,0,0-5.935-3.65,4.073,4.073,0,0,0-2.712-3.268l-1.37-7.985a1.105,1.105,0,0,1,.318-.978l6.179-6.023a3.307,3.307,0,0,0-1.833-5.641L144.7,10.186a1.1,1.1,0,0,1-.832-.6l-3.819-7.738a3.307,3.307,0,0,0-5.932,0L133.1,3.891a1.1,1.1,0,0,0,1.975.975l1.01-2.047a1.1,1.1,0,0,1,1.981,0l3.819,7.738a3.307,3.307,0,0,0,2.49,1.809l8.539,1.241a1.1,1.1,0,0,1,.612,1.884l-6.179,6.023a3.307,3.307,0,0,0-.951,2.928l1.289,7.516a3.986,3.986,0,0,0-1.1.451,4.09,4.09,0,0,0-3.673-2.772,4.022,4.022,0,0,0-1.989.439V22.511a4.045,4.045,0,0,0-4.192-4.042,4.065,4.065,0,0,0-3.9,4.11l-.027,8.955L127.9,34.112a1.1,1.1,0,0,1-1.6-1.165l1.459-8.505a3.307,3.307,0,0,0-.951-2.927l-6.179-6.023a1.1,1.1,0,0,1,.612-1.884l8.539-1.241a3.307,3.307,0,0,0,2.49-1.809l.544-1.1a1.1,1.1,0,0,0-1.975-.975l-.544,1.1a1.1,1.1,0,0,1-.832.6l-8.539,1.241a3.307,3.307,0,0,0-1.833,5.641l6.179,6.023a1.105,1.105,0,0,1,.318.978l-1.459,8.505a3.3,3.3,0,0,0,4.8,3.487l3.872-2.036-.029,9.7L132.14,41.8c-.009-.028-.02-.057-.032-.084a4.733,4.733,0,0,0-4.37-2.9,2.555,2.555,0,0,0-2.553,2.671l.367,8.121a11.1,11.1,0,0,0,2.91,7l4.181,4.551.047.048a2.86,2.86,0,0,1,.871,2.049v1.671H133.3a2.209,2.209,0,0,0-2.207,2.207v5.839a2.209,2.209,0,0,0,2.207,2.207h20.314a2.209,2.209,0,0,0,2.207-2.207V67.136a2.209,2.209,0,0,0-2.207-2.207h-.274v-.851a8.633,8.633,0,0,1,1.582-5L156.6,56.7a10.9,10.9,0,0,0,1.923-5.114,1.1,1.1,0,1,0-2.19-.233,8.7,8.7,0,0,1-1.534,4.079l-1.679,2.383a10.822,10.822,0,0,0-1.984,6.263v.851H135.763V63.258a5.074,5.074,0,0,0-1.52-3.61l-4.16-4.528a8.9,8.9,0,0,1-2.332-5.607l-.367-8.121a.353.353,0,0,1,.352-.369,2.535,2.535,0,0,1,2.324,1.516l.615,1.874a2.2,2.2,0,0,0,4.291-.679l.068-21.151a1.9,1.9,0,0,1,1.774-1.912,1.842,1.842,0,0,1,1.91,1.841l0,21.454a1.1,1.1,0,1,0,2.2,0V33.584a1.839,1.839,0,0,1,1.906-1.746,1.9,1.9,0,0,1,1.774,1.912l0,10.216a1.1,1.1,0,1,0,2.2,0v-8.13a1.839,1.839,0,0,1,1.908-1.789,1.9,1.9,0,0,1,1.774,1.912l-.01,8.008a1.1,1.1,0,0,0,2.2,0l.01-5.064a1.843,1.843,0,0,1,1.911-1.841,1.9,1.9,0,0,1,1.774,1.912v7.392a1.1,1.1,0,0,0,1.1,1.1Zm-3.865,19.669v5.839l0,0-20.319,0,0-5.843Z" transform="translate(-118.089 0)" fill="#fff"/>
        </g>
      </g>
    </g>
  </g>
</svg>
