<svg xmlns="http://www.w3.org/2000/svg" width="103" height="103" viewBox="0 0 103 103">
  <g id="Grupo_147793" data-name="Grupo 147793" transform="translate(-525 -8144)">
    <g id="Grupo_147775" data-name="Grupo 147775">
      <path id="Trazado_205895" data-name="Trazado 205895" d="M51.5,0A51.5,51.5,0,1,1,0,51.5,51.5,51.5,0,0,1,51.5,0Z" transform="translate(525 8144)" fill="#92bfb1"/>
      <g id="exam_A_score" data-name="exam A+ score" transform="translate(547 8166)">
        <path id="Trazado_205877" data-name="Trazado 205877" d="M5.242,11.483H17.657a1.242,1.242,0,1,0,0-2.483H5.242a1.242,1.242,0,1,0,0,2.483Z" transform="translate(0.966 2.174)" fill="#fff"/>
        <path id="Trazado_205878" data-name="Trazado 205878" d="M5.242,20.483H37.521a1.242,1.242,0,0,0,0-2.483H5.242a1.242,1.242,0,0,0,0,2.483Z" transform="translate(0.966 4.347)" fill="#fff"/>
        <path id="Trazado_205879" data-name="Trazado 205879" d="M5.242,25.483H37.521a1.242,1.242,0,0,0,0-2.483H5.242a1.242,1.242,0,1,0,0,2.483Z" transform="translate(0.966 5.555)" fill="#fff"/>
        <path id="Trazado_205880" data-name="Trazado 205880" d="M5.242,30.483H37.521a1.242,1.242,0,1,0,0-2.483H5.242a1.242,1.242,0,1,0,0,2.483Z" transform="translate(0.966 6.762)" fill="#fff"/>
        <path id="Trazado_205881" data-name="Trazado 205881" d="M5.242,35.483H37.521a1.242,1.242,0,1,0,0-2.483H5.242a1.242,1.242,0,1,0,0,2.483Z" transform="translate(0.966 7.97)" fill="#fff"/>
        <path id="Trazado_205882" data-name="Trazado 205882" d="M5.242,40.483h14.9a1.242,1.242,0,1,0,0-2.483H5.242a1.242,1.242,0,1,0,0,2.483Z" transform="translate(0.966 9.177)" fill="#fff"/>
        <path id="Trazado_205883" data-name="Trazado 205883" d="M48.48,3.453A4.966,4.966,0,0,0,40,6.967v40.97c0,.422-.186-.074,3.861,8.008a1.242,1.242,0,0,0,2.21,0c4.047-8.008,3.861-7.586,3.861-8.008V6.967A4.966,4.966,0,0,0,48.48,3.453Zm-6,12.2h4.966V45.838a8.889,8.889,0,0,0-4.966,0Zm0-4.966h4.966v2.483H42.483Zm2.483-6.208a2.483,2.483,0,0,1,2.483,2.483V8.208H42.483V6.967A2.483,2.483,0,0,1,44.966,4.484ZM42.818,48.321a6.207,6.207,0,0,1,4.3,0L44.966,52.6Z" transform="translate(9.66 0.482)" fill="#fff"/>
        <path id="Trazado_205884" data-name="Trazado 205884" d="M43.453,0H1.242A1.242,1.242,0,0,0,0,1.242V58.351a1.242,1.242,0,0,0,1.242,1.242H43.453a1.242,1.242,0,0,0,1.242-1.242V1.242A1.242,1.242,0,0,0,43.453,0ZM42.211,57.109H2.483V2.483H42.211Z" fill="#fff"/>
        <path id="Trazado_205885" data-name="Trazado 205885" d="M21.36,16.416l.745-1.726H25.83l.745,1.726a1.242,1.242,0,0,0,2.284-.968L25.134,6.757a1.242,1.242,0,0,0-2.284,0l-3.725,8.691a1.242,1.242,0,0,0,2.235.968Zm3.364-4.209H23.16l.782-1.813Z" transform="translate(4.612 1.45)" fill="#fff"/>
        <path id="Trazado_205886" data-name="Trazado 205886" d="M27.242,9.966h1.242v1.242a1.242,1.242,0,1,0,2.483,0V9.966h1.242a1.242,1.242,0,1,0,0-2.483H30.966V6.242a1.242,1.242,0,1,0-2.483,0V7.483H27.242a1.242,1.242,0,0,0,0,2.483Z" transform="translate(6.279 1.208)" fill="#fff"/>
      </g>
    </g>
  </g>
</svg>
