<svg xmlns="http://www.w3.org/2000/svg" width="103" height="103" viewBox="0 0 103 103">
  <g id="Grupo_147789" data-name="Grupo 147789" transform="translate(-533 -7311)">
    <g id="Grupo_147774" data-name="Grupo 147774">
      <path id="Trazado_205894" data-name="Trazado 205894" d="M51.5,0A51.5,51.5,0,1,1,0,51.5,51.5,51.5,0,0,1,51.5,0Z" transform="translate(533 7311)" fill="#92bfb1"/>
      <g id="formula" transform="translate(554.219 7333.878)">
        <path id="Trazado_205863" data-name="Trazado 205863" d="M52.218,44.706h2.038a1.019,1.019,0,0,0,0-2.038H52.218a1.019,1.019,0,1,0,0,2.038Zm0,0" transform="translate(-45.085 -37.573)" fill="#f3f9ff"/>
        <path id="Trazado_205864" data-name="Trazado 205864" d="M103.418,44.706h2.038a1.019,1.019,0,1,0,0-2.038h-2.038a1.019,1.019,0,1,0,0,2.038Zm0,0" transform="translate(-90.17 -37.573)" fill="#f3f9ff"/>
        <path id="Trazado_205865" data-name="Trazado 205865" d="M154.62,44.706H158.7a1.019,1.019,0,1,0,0-2.038H154.62a1.019,1.019,0,0,0,0,2.038Zm0,0" transform="translate(-135.259 -37.573)" fill="#f3f9ff"/>
        <path id="Trazado_205866" data-name="Trazado 205866" d="M222.886,44.706H245.3a1.019,1.019,0,1,0,0-2.038H222.886a1.019,1.019,0,0,0,0,2.038Zm0,0" transform="translate(-195.372 -37.573)" fill="#f3f9ff"/>
        <path id="Trazado_205867" data-name="Trazado 205867" d="M58.085,20.381H56.047V5.1A5.1,5.1,0,0,0,50.952,0H5.1A5.1,5.1,0,0,0,0,5.1V42.8a5.1,5.1,0,0,0,5.1,5.1H24.457v6.114a3.057,3.057,0,0,0,3.057,3.057H58.085a3.057,3.057,0,0,0,3.057-3.057V23.438A3.057,3.057,0,0,0,58.085,20.381ZM5.1,45.857A3.057,3.057,0,0,1,2.038,42.8V5.1A3.057,3.057,0,0,1,5.1,2.038H50.952A3.057,3.057,0,0,1,54.009,5.1V20.381H50.952V12.228a2.038,2.038,0,0,0-2.038-2.038H7.133A2,2,0,0,0,5.1,12.137V40.853A2,2,0,0,0,7.133,42.8H24.457v3.057ZM27.514,20.381a3.056,3.056,0,0,0-2.869,2.038H16.3V18.343H48.914v2.038ZM7.133,40.753V36.685h7.133v4.076ZM48.914,12.228V16.3H16.3V12.228ZM14.266,16.3H7.133V12.228h7.133ZM7.133,30.571h7.133v4.076H7.133Zm9.171,0h8.152v4.076H16.3Zm8.152-2.038H16.3V24.457h8.152Zm-10.191,0H7.133V24.457h7.133ZM7.133,22.419V18.343h7.133v4.076ZM16.3,36.685h8.152v4.076H16.3ZM59.1,54.009a1.019,1.019,0,0,1-1.019,1.019H27.514A1.019,1.019,0,0,1,26.5,54.009V23.438a1.019,1.019,0,0,1,1.019-1.019H58.085A1.019,1.019,0,0,1,59.1,23.438Zm0,0" transform="translate(0)" fill="#f3f9ff"/>
        <path id="Trazado_205868" data-name="Trazado 205868" d="M252.181,217.646h-3.872l.815-8.152a2.038,2.038,0,0,1,4.076,0,1.019,1.019,0,0,0,2.038,0,4.076,4.076,0,0,0-8.147-.1l-.82,8.254H243.01a1.019,1.019,0,0,0,0,2.038h3.057l-1.019,10.191a2.038,2.038,0,1,1-4.076,0,1.019,1.019,0,1,0-2.038,0,4.076,4.076,0,0,0,8.147.1l1.024-10.292h4.076a1.019,1.019,0,0,0,0-2.038Zm0,0" transform="translate(-210.401 -180.961)" fill="#f3f9ff"/>
        <path id="Trazado_205869" data-name="Trazado 205869" d="M369.219,341.634a1.02,1.02,0,0,0-1.441,0l-3.865,3.865-3.865-3.865a1.019,1.019,0,0,0-1.441,1.441l3.865,3.865-3.865,3.865a1.019,1.019,0,1,0,1.441,1.441l3.865-3.865,3.865,3.865a1.019,1.019,0,0,0,1.441-1.441l-3.865-3.865,3.865-3.865A1.019,1.019,0,0,0,369.219,341.634Zm0,0" transform="translate(-315.509 -300.574)" fill="#f3f9ff"/>
      </g>
    </g>
  </g>
</svg>
