<svg xmlns="http://www.w3.org/2000/svg" xmlns:xlink="http://www.w3.org/1999/xlink" width="504.999" height="320.839" viewBox="0 0 504.999 320.839">
  <defs>
    <clipPath id="clip-path">
      <rect id="Rectángulo_45520" data-name="Rectángulo 45520" width="316.218" height="295.994" fill="none"/>
    </clipPath>
    <clipPath id="clip-path-2">
      <rect id="Rectángulo_45523" data-name="Rectángulo 45523" width="153.275" height="14.754" fill="none"/>
    </clipPath>
    <clipPath id="clip-path-3">
      <rect id="Rectángulo_45524" data-name="Rectángulo 45524" width="51.092" height="14.754" fill="none"/>
    </clipPath>
    <clipPath id="clip-path-4">
      <rect id="Rectángulo_45527" data-name="Rectángulo 45527" width="44.728" height="8.413" fill="none"/>
    </clipPath>
    <clipPath id="clip-path-5">
      <rect id="Rectángulo_45528" data-name="Rectángulo 45528" width="32.958" height="8.413" fill="none"/>
    </clipPath>
    <clipPath id="clip-path-7">
      <rect id="Rectángulo_45530" data-name="Rectángulo 45530" width="40.02" height="8.413" fill="none"/>
    </clipPath>
    <clipPath id="clip-path-9">
      <rect id="Rectángulo_45532" data-name="Rectángulo 45532" width="41.197" height="8.413" fill="none"/>
    </clipPath>
    <clipPath id="clip-path-12">
      <rect id="Rectángulo_45535" data-name="Rectángulo 45535" width="14.754" height="14.754" fill="none"/>
    </clipPath>
    <clipPath id="clip-path-13">
      <rect id="Rectángulo_45536" data-name="Rectángulo 45536" width="14.755" height="14.754" fill="none"/>
    </clipPath>
    <clipPath id="clip-path-14">
      <rect id="Rectángulo_45560" data-name="Rectángulo 45560" width="43.03" height="237.164" fill="none"/>
    </clipPath>
    <clipPath id="clip-path-15">
      <rect id="Rectángulo_45561" data-name="Rectángulo 45561" width="43.029" height="237.164" fill="none"/>
    </clipPath>
    <clipPath id="clip-path-16">
      <rect id="Rectángulo_45583" data-name="Rectángulo 45583" width="18.417" height="19.179" fill="none"/>
    </clipPath>
    <clipPath id="clip-path-17">
      <rect id="Rectángulo_45584" data-name="Rectángulo 45584" width="7.768" height="7.767" fill="none"/>
    </clipPath>
    <clipPath id="clip-path-18">
      <rect id="Rectángulo_45588" data-name="Rectángulo 45588" width="10.324" height="10.552" fill="none"/>
    </clipPath>
    <clipPath id="clip-path-19">
      <rect id="Rectángulo_45590" data-name="Rectángulo 45590" width="10.272" height="7.5" fill="none"/>
    </clipPath>
  </defs>
  <g id="Grupo_147544" data-name="Grupo 147544" transform="translate(-857.87 -8775.447)">
    <g id="Grupo_147480" data-name="Grupo 147480" transform="translate(905.135 8775.447)" clip-path="url(#clip-path)">
      <path id="Trazado_201104" data-name="Trazado 201104" d="M1316.1,295.994H1010.449a5.3,5.3,0,0,1-5.282-5.282V5.282A5.3,5.3,0,0,1,1010.449,0H1316.1a5.3,5.3,0,0,1,5.281,5.282V290.713a5.3,5.3,0,0,1-5.281,5.282" transform="translate(-1005.167)" fill="#cfe0e6"/>
    </g>
    <rect id="Rectángulo_45522" data-name="Rectángulo 45522" width="308.675" height="257.725" transform="translate(909.149 8808.099)" fill="#fff"/>
    <g id="Grupo_147485" data-name="Grupo 147485" transform="translate(1003.532 8784.697)" clip-path="url(#clip-path-2)">
      <path id="Trazado_201105" data-name="Trazado 201105" d="M1961.394,90.743H1819.066a5.49,5.49,0,0,1-5.474-5.474V81.462a5.49,5.49,0,0,1,5.474-5.474h142.328a5.49,5.49,0,0,1,5.474,5.474v3.808a5.49,5.49,0,0,1-5.474,5.474" transform="translate(-1813.592 -75.988)" fill="#99bfd6"/>
    </g>
    <g id="Grupo_147488" data-name="Grupo 147488" transform="translate(1160.896 8784.697)" clip-path="url(#clip-path-3)">
      <path id="Trazado_201106" data-name="Trazado 201106" d="M3152.093,90.743h-40.145a5.49,5.49,0,0,1-5.474-5.474V81.462a5.49,5.49,0,0,1,5.474-5.474h40.145a5.49,5.49,0,0,1,5.473,5.474v3.808a5.489,5.489,0,0,1-5.473,5.474" transform="translate(-3106.474 -75.988)" fill="#99bfd6"/>
    </g>
    <g id="Grupo_147494" data-name="Grupo 147494" transform="translate(919.554 8854.303)" clip-path="url(#clip-path-4)">
      <path id="Trazado_201107" data-name="Trazado 201107" d="M1164.973,656.279h-37.952a3.4,3.4,0,0,1-3.388-3.388v-1.637a3.4,3.4,0,0,1,3.388-3.388h37.952a3.4,3.4,0,0,1,3.388,3.388v1.637a3.4,3.4,0,0,1-3.388,3.388" transform="translate(-1123.633 -647.867)" fill="#a7c6d1"/>
    </g>
    <g id="Grupo_147497" data-name="Grupo 147497" transform="translate(919.554 8872.329)" clip-path="url(#clip-path-5)">
      <path id="Trazado_201108" data-name="Trazado 201108" d="M1153.2,804.391h-26.181a3.4,3.4,0,0,1-3.388-3.388v-1.637a3.4,3.4,0,0,1,3.388-3.388H1153.2a3.4,3.4,0,0,1,3.388,3.388V801a3.4,3.4,0,0,1-3.388,3.388" transform="translate(-1123.633 -795.978)" fill="#a7c6d1"/>
    </g>
    <g id="Grupo_147500" data-name="Grupo 147500" transform="translate(919.554 8890.357)" clip-path="url(#clip-path-4)">
      <path id="Trazado_201109" data-name="Trazado 201109" d="M1164.973,952.5h-37.952a3.4,3.4,0,0,1-3.388-3.388v-1.637a3.4,3.4,0,0,1,3.388-3.388h37.952a3.4,3.4,0,0,1,3.388,3.388v1.637a3.4,3.4,0,0,1-3.388,3.388" transform="translate(-1123.633 -944.09)" fill="#a7c6d1"/>
    </g>
    <g id="Grupo_147503" data-name="Grupo 147503" transform="translate(919.554 8908.385)" clip-path="url(#clip-path-7)">
      <path id="Trazado_201110" data-name="Trazado 201110" d="M1160.263,1100.614H1127.02a3.4,3.4,0,0,1-3.388-3.388v-1.637a3.4,3.4,0,0,1,3.388-3.388h33.243a3.4,3.4,0,0,1,3.388,3.388v1.637a3.4,3.4,0,0,1-3.388,3.388" transform="translate(-1123.632 -1092.201)" fill="#a7c6d1"/>
    </g>
    <g id="Grupo_147506" data-name="Grupo 147506" transform="translate(919.554 8926.411)" clip-path="url(#clip-path-4)">
      <path id="Trazado_201111" data-name="Trazado 201111" d="M1164.973,1248.726h-37.952a3.4,3.4,0,0,1-3.388-3.388V1243.7a3.4,3.4,0,0,1,3.388-3.388h37.952a3.4,3.4,0,0,1,3.388,3.388v1.637a3.4,3.4,0,0,1-3.388,3.388" transform="translate(-1123.633 -1240.313)" fill="#a7c6d1"/>
    </g>
    <g id="Grupo_147509" data-name="Grupo 147509" transform="translate(919.554 8944.438)" clip-path="url(#clip-path-9)">
      <path id="Trazado_201112" data-name="Trazado 201112" d="M1161.442,1396.838h-34.421a3.4,3.4,0,0,1-3.388-3.388v-1.637a3.4,3.4,0,0,1,3.388-3.388h34.421a3.4,3.4,0,0,1,3.388,3.388v1.637a3.4,3.4,0,0,1-3.388,3.388" transform="translate(-1123.633 -1388.424)" fill="#a7c6d1"/>
    </g>
    <g id="Grupo_147512" data-name="Grupo 147512" transform="translate(919.554 8962.467)" clip-path="url(#clip-path-9)">
      <path id="Trazado_201113" data-name="Trazado 201113" d="M1161.442,1544.949h-34.421a3.4,3.4,0,0,1-3.388-3.388v-1.637a3.4,3.4,0,0,1,3.388-3.388h34.421a3.4,3.4,0,0,1,3.388,3.388v1.637a3.4,3.4,0,0,1-3.388,3.388" transform="translate(-1123.633 -1536.537)" fill="#a7c6d1"/>
    </g>
    <g id="Grupo_147515" data-name="Grupo 147515" transform="translate(919.554 8980.494)" clip-path="url(#clip-path-4)">
      <path id="Trazado_201114" data-name="Trazado 201114" d="M1164.973,1693.061h-37.952a3.4,3.4,0,0,1-3.388-3.388v-1.637a3.4,3.4,0,0,1,3.388-3.388h37.952a3.4,3.4,0,0,1,3.388,3.388v1.637a3.4,3.4,0,0,1-3.388,3.388" transform="translate(-1123.633 -1684.648)" fill="#a7c6d1"/>
    </g>
    <path id="Trazado_201115" data-name="Trazado 201115" d="M1173.63,493.227h-44.673a5.34,5.34,0,0,1-5.324-5.324v-2.572a5.339,5.339,0,0,1,5.324-5.324h44.673a5.34,5.34,0,0,1,5.324,5.324V487.9a5.34,5.34,0,0,1-5.324,5.324" transform="translate(-204.079 8353.864)" fill="#fff"/>
    <g id="Grupo_147518" data-name="Grupo 147518" transform="translate(915.245 8782.824)" clip-path="url(#clip-path-12)">
      <path id="Trazado_201116" data-name="Trazado 201116" d="M1102.985,67.989a7.377,7.377,0,1,1-7.377-7.377,7.377,7.377,0,0,1,7.377,7.377" transform="translate(-1088.23 -60.612)" fill="#99bfd6"/>
    </g>
    <g id="Grupo_147521" data-name="Grupo 147521" transform="translate(936.147 8782.824)" clip-path="url(#clip-path-13)">
      <path id="Trazado_201117" data-name="Trazado 201117" d="M1274.717,67.989a7.377,7.377,0,1,1-7.377-7.377,7.377,7.377,0,0,1,7.377,7.377" transform="translate(-1259.962 -60.612)" fill="#99bfd6"/>
    </g>
    <path id="Trazado_201118" data-name="Trazado 201118" d="M2598.971,489.74H2569.8a2.045,2.045,0,0,1-2.039-2.038V450.4a2.045,2.045,0,0,1,2.039-2.038h29.173a2.044,2.044,0,0,1,2.038,2.038v37.3a2.044,2.044,0,0,1-2.038,2.038" transform="translate(-1472.434 8381.657)" fill="#d8e6ea"/>
    <path id="Trazado_201119" data-name="Trazado 201119" d="M2629.065,519.612h-22.583a.52.52,0,0,1-.518-.518v-.055a.52.52,0,0,1,.518-.518h22.583a.519.519,0,0,1,.518.518v.055a.52.52,0,0,1-.518.518" transform="translate(-1505.988 8320.038)" fill="#bad5dd"/>
    <path id="Trazado_201120" data-name="Trazado 201120" d="M2629.065,545.439h-22.583a.52.52,0,0,1-.518-.518v-.055a.52.52,0,0,1,.518-.518h22.583a.52.52,0,0,1,.518.518v.055a.52.52,0,0,1-.518.518" transform="translate(-1505.988 8297.355)" fill="#bad5dd"/>
    <path id="Trazado_201121" data-name="Trazado 201121" d="M2629.065,571.267h-22.583a.52.52,0,0,1-.518-.518v-.055a.52.52,0,0,1,.518-.518h22.583a.52.52,0,0,1,.518.518v.055a.52.52,0,0,1-.518.518" transform="translate(-1505.988 8274.671)" fill="#bad5dd"/>
    <path id="Trazado_201122" data-name="Trazado 201122" d="M2629.065,594.854h-22.583a.52.52,0,0,1-.518-.518v-.055a.52.52,0,0,1,.518-.518h22.583a.519.519,0,0,1,.518.518v.055a.519.519,0,0,1-.518.518" transform="translate(-1505.988 8253.954)" fill="#bad5dd"/>
    <path id="Trazado_201123" data-name="Trazado 201123" d="M2282.231,487.163h-29.173a2.044,2.044,0,0,1-2.038-2.038v-37.3a2.044,2.044,0,0,1,2.038-2.038h29.173a2.044,2.044,0,0,1,2.038,2.038v37.3a2.044,2.044,0,0,1-2.038,2.038" transform="translate(-1194.246 8383.922)" fill="#bad5dd"/>
    <path id="Trazado_201124" data-name="Trazado 201124" d="M2312.326,517.034h-22.583a.52.52,0,0,1-.518-.518v-.055a.52.52,0,0,1,.518-.518h22.583a.52.52,0,0,1,.519.518v.055a.52.52,0,0,1-.519.518" transform="translate(-1227.8 8322.304)" fill="#fff"/>
    <path id="Trazado_201125" data-name="Trazado 201125" d="M2312.326,542.862h-22.583a.52.52,0,0,1-.518-.518v-.055a.52.52,0,0,1,.518-.518h22.583a.52.52,0,0,1,.519.518v.055a.52.52,0,0,1-.519.518" transform="translate(-1227.8 8299.618)" fill="#fff"/>
    <path id="Trazado_201126" data-name="Trazado 201126" d="M2312.326,568.69h-22.583a.52.52,0,0,1-.518-.518v-.055a.52.52,0,0,1,.518-.518h22.583a.52.52,0,0,1,.519.518v.055a.52.52,0,0,1-.519.518" transform="translate(-1227.8 8276.933)" fill="#fff"/>
    <path id="Trazado_201127" data-name="Trazado 201127" d="M2312.326,592.276h-22.583a.52.52,0,0,1-.518-.518V591.7a.52.52,0,0,1,.518-.518h22.583a.52.52,0,0,1,.519.518v.055a.52.52,0,0,1-.519.518" transform="translate(-1227.8 8256.219)" fill="#fff"/>
    <path id="Trazado_201128" data-name="Trazado 201128" d="M2613.478,895.931H2584.3a2.044,2.044,0,0,1-2.038-2.038v-37.3a2.044,2.044,0,0,1,2.038-2.038h29.173a2.045,2.045,0,0,1,2.039,2.038v37.3a2.045,2.045,0,0,1-2.039,2.038" transform="translate(-1485.175 8024.907)" fill="#d8e6ea"/>
    <path id="Trazado_201129" data-name="Trazado 201129" d="M2643.572,925.8h-22.583a.52.52,0,0,1-.518-.518v-.055a.519.519,0,0,1,.518-.518h22.583a.52.52,0,0,1,.518.518v.055a.52.52,0,0,1-.518.518" transform="translate(-1518.73 7963.289)" fill="#bad5dd"/>
    <path id="Trazado_201130" data-name="Trazado 201130" d="M2643.572,951.629h-22.583a.519.519,0,0,1-.518-.518v-.055a.519.519,0,0,1,.518-.518h22.583a.52.52,0,0,1,.518.518v.055a.52.52,0,0,1-.518.518" transform="translate(-1518.73 7940.604)" fill="#bad5dd"/>
    <path id="Trazado_201131" data-name="Trazado 201131" d="M2643.572,977.458h-22.583a.519.519,0,0,1-.518-.518v-.055a.52.52,0,0,1,.518-.518h22.583a.52.52,0,0,1,.518.518v.055a.52.52,0,0,1-.518.518" transform="translate(-1518.73 7917.919)" fill="#bad5dd"/>
    <path id="Trazado_201132" data-name="Trazado 201132" d="M2643.572,1001.045h-22.583a.52.52,0,0,1-.518-.518v-.055a.52.52,0,0,1,.518-.518h22.583a.52.52,0,0,1,.518.518v.055a.52.52,0,0,1-.518.518" transform="translate(-1518.73 7897.203)" fill="#bad5dd"/>
    <path id="Trazado_201133" data-name="Trazado 201133" d="M2296.738,893.353h-29.173a2.044,2.044,0,0,1-2.038-2.038v-37.3a2.044,2.044,0,0,1,2.038-2.038h29.173a2.044,2.044,0,0,1,2.038,2.038v37.3a2.045,2.045,0,0,1-2.038,2.038" transform="translate(-1206.987 8027.17)" fill="#bad5dd"/>
    <path id="Trazado_201134" data-name="Trazado 201134" d="M2326.832,923.225h-22.583a.52.52,0,0,1-.518-.518v-.055a.52.52,0,0,1,.518-.518h22.583a.52.52,0,0,1,.518.518v.055a.52.52,0,0,1-.518.518" transform="translate(-1240.541 7965.551)" fill="#fff"/>
    <path id="Trazado_201135" data-name="Trazado 201135" d="M2326.832,949.052h-22.583a.52.52,0,0,1-.518-.518v-.055a.52.52,0,0,1,.518-.518h22.583a.519.519,0,0,1,.518.518v.055a.52.52,0,0,1-.518.518" transform="translate(-1240.541 7942.867)" fill="#fff"/>
    <path id="Trazado_201136" data-name="Trazado 201136" d="M2326.832,974.881h-22.583a.52.52,0,0,1-.518-.518v-.055a.52.52,0,0,1,.518-.518h22.583a.52.52,0,0,1,.518.518v.055a.52.52,0,0,1-.518.518" transform="translate(-1240.541 7920.182)" fill="#fff"/>
    <path id="Trazado_201137" data-name="Trazado 201137" d="M2326.832,998.468h-22.583a.52.52,0,0,1-.518-.518v-.055a.52.52,0,0,1,.518-.518h22.583a.52.52,0,0,1,.518.518v.055a.52.52,0,0,1-.518.518" transform="translate(-1240.541 7899.467)" fill="#fff"/>
    <path id="Trazado_201138" data-name="Trazado 201138" d="M3240.6,486.219h-29.173a2.044,2.044,0,0,1-2.038-2.038v-37.3a2.044,2.044,0,0,1,2.038-2.038H3240.6a2.044,2.044,0,0,1,2.038,2.038v37.3a2.044,2.044,0,0,1-2.038,2.038" transform="translate(-2035.966 8384.75)" fill="#d8e6ea"/>
    <path id="Trazado_201139" data-name="Trazado 201139" d="M3270.693,516.089h-22.583a.52.52,0,0,1-.518-.518v-.055a.52.52,0,0,1,.518-.518h22.583a.52.52,0,0,1,.519.518v.055a.52.52,0,0,1-.519.518" transform="translate(-2069.52 8323.133)" fill="#bad5dd"/>
    <path id="Trazado_201140" data-name="Trazado 201140" d="M3270.693,541.918h-22.583a.52.52,0,0,1-.518-.518v-.055a.52.52,0,0,1,.518-.518h22.583a.52.52,0,0,1,.519.518v.055a.52.52,0,0,1-.519.518" transform="translate(-2069.52 8300.447)" fill="#bad5dd"/>
    <path id="Trazado_201141" data-name="Trazado 201141" d="M3270.693,567.747h-22.583a.52.52,0,0,1-.518-.518v-.055a.52.52,0,0,1,.518-.518h22.583a.52.52,0,0,1,.519.518v.055a.52.52,0,0,1-.519.518" transform="translate(-2069.52 8277.762)" fill="#bad5dd"/>
    <path id="Trazado_201142" data-name="Trazado 201142" d="M3270.693,591.333h-22.583a.52.52,0,0,1-.518-.518v-.055a.52.52,0,0,1,.518-.518h22.583a.52.52,0,0,1,.519.518v.055a.52.52,0,0,1-.519.518" transform="translate(-2069.52 8257.047)" fill="#bad5dd"/>
    <path id="Trazado_201143" data-name="Trazado 201143" d="M2923.859,483.641h-29.173a2.044,2.044,0,0,1-2.039-2.038V444.3a2.044,2.044,0,0,1,2.039-2.038h29.173a2.044,2.044,0,0,1,2.038,2.038v37.3a2.044,2.044,0,0,1-2.038,2.038" transform="translate(-1757.779 8387.015)" fill="#bad5dd"/>
    <path id="Trazado_201144" data-name="Trazado 201144" d="M2953.953,513.512h-22.582a.52.52,0,0,1-.519-.518v-.055a.52.52,0,0,1,.519-.518h22.582a.52.52,0,0,1,.519.518v.055a.52.52,0,0,1-.519.518" transform="translate(-1791.332 8325.396)" fill="#fff"/>
    <path id="Trazado_201145" data-name="Trazado 201145" d="M2953.953,539.34h-22.582a.52.52,0,0,1-.519-.518v-.055a.52.52,0,0,1,.519-.518h22.582a.52.52,0,0,1,.519.518v.055a.52.52,0,0,1-.519.518" transform="translate(-1791.332 8302.712)" fill="#fff"/>
    <path id="Trazado_201146" data-name="Trazado 201146" d="M2953.953,565.167h-22.582a.52.52,0,0,1-.519-.518v-.055a.52.52,0,0,1,.519-.518h22.582a.52.52,0,0,1,.519.518v.055a.52.52,0,0,1-.519.518" transform="translate(-1791.332 8280.028)" fill="#fff"/>
    <path id="Trazado_201147" data-name="Trazado 201147" d="M2953.953,588.755h-22.582a.52.52,0,0,1-.519-.518v-.055a.52.52,0,0,1,.519-.518h22.582a.52.52,0,0,1,.519.518v.055a.52.52,0,0,1-.519.518" transform="translate(-1791.332 8259.311)" fill="#fff"/>
    <path id="Trazado_201148" data-name="Trazado 201148" d="M3325.865,1190.8h17.989V1019l-17.989,8.995Z" transform="translate(-2138.266 7880.474)" fill="#7aaac1"/>
    <rect id="Rectángulo_45537" data-name="Rectángulo 45537" width="73.755" height="171.795" transform="translate(1205.588 8899.476)" fill="#d8e6ea"/>
    <rect id="Rectángulo_45538" data-name="Rectángulo 45538" width="73.755" height="2.698" transform="translate(1205.588 9029.896)" fill="#a7c9d6"/>
    <rect id="Rectángulo_45539" data-name="Rectángulo 45539" width="73.755" height="44.973" transform="translate(1205.588 8942.648)" fill="#a7c9d6"/>
    <path id="Trazado_201149" data-name="Trazado 201149" d="M3556.069,1386.137h26.754v-1.494a1.745,1.745,0,0,1,1.828-1.73h15.391a1.748,1.748,0,0,1,1.832,1.73v30.781a1.789,1.789,0,0,1-1.832,1.781h-43.973a1.912,1.912,0,0,1-1.969-1.781v-27.483a1.931,1.931,0,0,1,1.969-1.8" transform="translate(-2338.721 7560.854)" fill="#7aaac1"/>
    <rect id="Rectángulo_45540" data-name="Rectángulo 45540" width="41.619" height="27.258" transform="translate(1218.309 8948.164)" fill="#fff"/>
    <path id="Trazado_201150" data-name="Trazado 201150" d="M3542,1463.3a1.89,1.89,0,0,0,1.833,1.9h43.973a1.89,1.89,0,0,0,1.832-1.9l-1.832-25.615a1.8,1.8,0,0,0-1.832-1.8H3542a1.8,1.8,0,0,0-1.832,1.8Z" transform="translate(-2326.489 7514.326)" fill="#d8e6ea"/>
    <rect id="Rectángulo_45541" data-name="Rectángulo 45541" width="73.755" height="2.698" transform="translate(1205.588 8939.949)" fill="#a7c9d6"/>
    <path id="Trazado_201151" data-name="Trazado 201151" d="M3770.374,1393.527h26.754v-1.494a1.745,1.745,0,0,1,1.829-1.731h15.39a1.748,1.748,0,0,1,1.833,1.731v30.781a1.789,1.789,0,0,1-1.833,1.781h-43.973a1.911,1.911,0,0,1-1.969-1.781v-27.483a1.93,1.93,0,0,1,1.969-1.8" transform="translate(-2526.943 7554.365)" fill="#7aaac1"/>
    <rect id="Rectángulo_45542" data-name="Rectángulo 45542" width="41.619" height="27.258" transform="translate(1244.393 8949.064)" fill="#fff"/>
    <path id="Trazado_201152" data-name="Trazado 201152" d="M3756.309,1470.692a1.889,1.889,0,0,0,1.832,1.9h43.974a1.889,1.889,0,0,0,1.832-1.9l-1.832-25.615a1.8,1.8,0,0,0-1.833-1.8h-43.973a1.8,1.8,0,0,0-1.833,1.8Z" transform="translate(-2514.71 7507.835)" fill="#bad5dd"/>
    <rect id="Rectángulo_45543" data-name="Rectángulo 45543" width="78.252" height="31.481" transform="translate(1220.879 8953.441)" fill="#d8e6ea"/>
    <rect id="Rectángulo_45544" data-name="Rectángulo 45544" width="23.386" height="31.481" transform="translate(1205.588 8953.441)" fill="#bad5dd"/>
    <rect id="Rectángulo_45545" data-name="Rectángulo 45545" width="25.185" height="4.497" transform="translate(1229.871 8905.771)" fill="#7aaac1"/>
    <rect id="Rectángulo_45546" data-name="Rectángulo 45546" width="25.185" height="4.497" transform="translate(1253.258 8959.738)" fill="#7aaac1"/>
    <rect id="Rectángulo_45547" data-name="Rectángulo 45547" width="25.185" height="4.497" transform="translate(1229.871 8993.018)" fill="#7aaac1"/>
    <rect id="Rectángulo_45548" data-name="Rectángulo 45548" width="25.185" height="4.497" transform="translate(1229.871 9037.99)" fill="#7aaac1"/>
    <rect id="Rectángulo_45549" data-name="Rectángulo 45549" width="1.582" height="143.988" transform="matrix(0.859, -0.512, 0.512, 0.859, 1141.726, 8892.751)" fill="#0a2346"/>
    <path id="Trazado_201153" data-name="Trazado 201153" d="M3045.508,1138.515s2.571-4.919,1.724-6.322c-.684-1.134-5.173-1.15-5.173-1.15l1.149,7.472Z" transform="translate(-1889.004 7782.069)" fill="#e7b29c"/>
    <path id="Trazado_201154" data-name="Trazado 201154" d="M3105.184,2469.713v7.746h-12.393l9.295-3.1,1.549-6.97Z" transform="translate(-1933.561 6608.375)" fill="#061323"/>
    <path id="Trazado_201155" data-name="Trazado 201155" d="M3426.019,2480.117l-2.323,9.295h7.745l-2.324-7.745Z" transform="translate(-2224.19 6597.197)" fill="#061323"/>
    <path id="Trazado_201156" data-name="Trazado 201156" d="M3340.97,1893.728l6.2,43.374,3.6,27.883h8.016l-2.324-30.207,2.324-46.472Z" transform="translate(-2151.534 7116.976)" fill="#061323"/>
    <path id="Trazado_201157" data-name="Trazado 201157" d="M3177.674,1850.125l-8.52,37.952v42.6h3.872l5.422-39.5,12.78-30.465Z" transform="translate(-2000.63 7150.509)" fill="#09213d"/>
    <path id="Trazado_201158" data-name="Trazado 201158" d="M3268.146,1260.084a8.133,8.133,0,1,1-8.133-8.133,8.133,8.133,0,0,1,8.133,8.133" transform="translate(-2073.287 7675.877)" fill="#e7b29c"/>
    <path id="Trazado_201159" data-name="Trazado 201159" d="M3289.88,1335.891v-13.942l-13.253,5.928,3.184,8.014Z" transform="translate(-2095.021 7614.398)" fill="#e7b29c"/>
    <path id="Trazado_201160" data-name="Trazado 201160" d="M3293.2,1251.95c-2.842,0-5.257,2.229-6.179,5.347a7.35,7.35,0,0,1,3.37,10.133,5.533,5.533,0,0,0,2.808.786c3.636,0,6.583-3.641,6.583-8.133s-2.947-8.133-6.583-8.133" transform="translate(-2104.153 7675.878)" fill="#181626"/>
    <path id="Trazado_201161" data-name="Trazado 201161" d="M3340.97,1324.106h5.422l.775-8.52Z" transform="translate(-2151.534 7619.987)" fill="#181626"/>
    <path id="Trazado_201162" data-name="Trazado 201162" d="M3207.335,1828.253h14.631l4.732-8.125-17.04-14.548Z" transform="translate(-2034.163 7189.633)" fill="#061323"/>
    <path id="Trazado_201163" data-name="Trazado 201163" d="M3293.6,1420.5c0,1.711-3.641,3.1-8.133,3.1s-8.133-1.387-8.133-3.1,3.641-3.1,8.133-3.1,8.133,1.387,8.133,3.1" transform="translate(-2095.644 7530.563)" fill="#cad1e0"/>
    <rect id="Rectángulo_45550" data-name="Rectángulo 45550" width="37.952" height="65.061" transform="translate(1171.622 8950.29)" fill="#0a2346"/>
    <path id="Trazado_201164" data-name="Trazado 201164" d="M3039.665,1215.174l-14.369-13.219-1.149-18.967h-4.023s-4.821,15.63-3.448,20.691c2.349,8.665,22.99,27.588,22.99,27.588Z" transform="translate(-1866.494 7736.447)" fill="#0a2346"/>
    <path id="Trazado_201165" data-name="Trazado 201165" d="M3285.361,1732.788a23.142,23.142,0,0,0-12.78-3.571c-8.842,0-16.209,4.293-17.855,9.984,2.979-4.08,9.16-6.886,16.306-6.886,5.82,0,11,1.862,14.329,4.755Z" transform="translate(-2075.786 7256.701)" fill="#061323"/>
    <path id="Trazado_201166" data-name="Trazado 201166" d="M3292.385,1233.467s-2.323-1.549-2.323-3.873,3.1-3.1,3.1-3.1l6.2,5.542Z" transform="translate(-2106.822 7698.234)" fill="#181626"/>
    <path id="Trazado_201167" data-name="Trazado 201167" d="M3470.806,1436l17.892,19.961-18.257,15.823-4.5-1.582,11.2-13.876-7.79-7.3Z" transform="translate(-2261.291 7514.23)" fill="#0a2346"/>
    <rect id="Rectángulo_45551" data-name="Rectángulo 45551" width="2.678" height="10.562" transform="translate(1127.314 8888.433) rotate(-31.189)" fill="#7497a8"/>
    <rect id="Rectángulo_45552" data-name="Rectángulo 45552" width="2.678" height="10.562" transform="translate(1129.604 8887.046) rotate(-31.189)" fill="#99bfd6"/>
    <rect id="Rectángulo_45553" data-name="Rectángulo 45553" width="2.678" height="10.562" transform="translate(1131.896 8885.66) rotate(-31.189)" fill="#7497a8"/>
    <rect id="Rectángulo_45554" data-name="Rectángulo 45554" width="2.678" height="10.562" transform="translate(1134.186 8884.272) rotate(-31.189)" fill="#99bfd6"/>
    <rect id="Rectángulo_45555" data-name="Rectángulo 45555" width="2.678" height="10.562" transform="translate(1136.477 8882.886) rotate(-31.189)" fill="#7497a8"/>
    <rect id="Rectángulo_45556" data-name="Rectángulo 45556" width="2.678" height="10.562" transform="translate(1138.767 8881.5) rotate(-31.189)" fill="#99bfd6"/>
    <rect id="Rectángulo_45557" data-name="Rectángulo 45557" width="2.678" height="10.562" transform="translate(1141.059 8880.111) rotate(-31.189)" fill="#7497a8"/>
    <rect id="Rectángulo_45558" data-name="Rectángulo 45558" width="2.678" height="10.562" transform="translate(1143.35 8878.726) rotate(-31.189)" fill="#99bfd6"/>
    <rect id="Rectángulo_45559" data-name="Rectángulo 45559" width="21.422" height="2.799" transform="matrix(0.855, -0.518, 0.518, 0.855, 1131.728, 8895.723)" fill="#0a2346"/>
    <g id="Grupo_147524" data-name="Grupo 147524" transform="translate(982.53 8859.123)" clip-path="url(#clip-path-14)">
      <path id="Trazado_201168" data-name="Trazado 201168" d="M1644.045,924.647h-3l40.028-237.163h3Z" transform="translate(-1641.042 -687.484)" fill="#7aaac1"/>
    </g>
    <g id="Grupo_147527" data-name="Grupo 147527" transform="translate(1022.559 8859.123)" clip-path="url(#clip-path-15)">
      <path id="Trazado_201169" data-name="Trazado 201169" d="M1972.908,924.647h-3l40.028-237.163h3Z" transform="translate(-1969.907 -687.484)" fill="#7aaac1"/>
    </g>
    <rect id="Rectángulo_45562" data-name="Rectángulo 45562" width="40.028" height="3.002" transform="translate(1022.558 8869.131)" fill="#7aaac1"/>
    <rect id="Rectángulo_45563" data-name="Rectángulo 45563" width="40.028" height="3.002" transform="translate(1019.557 8884.142)" fill="#7aaac1"/>
    <rect id="Rectángulo_45564" data-name="Rectángulo 45564" width="40.028" height="3.002" transform="translate(1016.554 8899.152)" fill="#7aaac1"/>
    <rect id="Rectángulo_45565" data-name="Rectángulo 45565" width="40.028" height="3.002" transform="translate(1013.551 8914.162)" fill="#7aaac1"/>
    <rect id="Rectángulo_45566" data-name="Rectángulo 45566" width="40.027" height="3.002" transform="translate(1012.551 8929.172)" fill="#7aaac1"/>
    <rect id="Rectángulo_45567" data-name="Rectángulo 45567" width="40.027" height="3.002" transform="translate(1009.549 8944.184)" fill="#7aaac1"/>
    <rect id="Rectángulo_45568" data-name="Rectángulo 45568" width="40.028" height="3.002" transform="translate(1006.548 8959.193)" fill="#7aaac1"/>
    <rect id="Rectángulo_45569" data-name="Rectángulo 45569" width="40.028" height="3.002" transform="translate(1003.546 8974.203)" fill="#7aaac1"/>
    <rect id="Rectángulo_45570" data-name="Rectángulo 45570" width="40.027" height="3.002" transform="translate(1002.544 8987.212)" fill="#7aaac1"/>
    <rect id="Rectángulo_45571" data-name="Rectángulo 45571" width="40.027" height="3.002" transform="translate(999.543 9002.223)" fill="#7aaac1"/>
    <rect id="Rectángulo_45572" data-name="Rectángulo 45572" width="40.027" height="3.002" transform="translate(996.54 9017.232)" fill="#7aaac1"/>
    <rect id="Rectángulo_45573" data-name="Rectángulo 45573" width="40.028" height="3.002" transform="translate(993.539 9032.243)" fill="#7aaac1"/>
    <rect id="Rectángulo_45574" data-name="Rectángulo 45574" width="40.028" height="3.002" transform="translate(992.537 9047.253)" fill="#7aaac1"/>
    <rect id="Rectángulo_45575" data-name="Rectángulo 45575" width="40.027" height="3.002" transform="translate(989.536 9062.264)" fill="#7aaac1"/>
    <rect id="Rectángulo_45576" data-name="Rectángulo 45576" width="40.028" height="3.002" transform="translate(986.534 9077.274)" fill="#7aaac1"/>
    <path id="Trazado_201170" data-name="Trazado 201170" d="M2094.8,422.848s-5.842-5.07-4.97-6.515c.705-1.169,5.331-1.185,5.331-1.185l2.007,7.7Z" transform="translate(-1052.594 8410.829)" fill="#e7b29c"/>
    <path id="Trazado_201171" data-name="Trazado 201171" d="M1750.3,856.513s3.85,3.851,5.537,3.856c.958,0,2.8-1.929,2.554-2.854-.513-1.923-7.56-2.5-7.56-2.5Z" transform="translate(-754.472 8024.499)" fill="#e7b29c"/>
    <path id="Trazado_201172" data-name="Trazado 201172" d="M2024.335,1551.772v7.982h12.771l-9.578-3.193-1.6-7.184Z" transform="translate(-995.153 7414.651)" fill="#061323"/>
    <path id="Trazado_201173" data-name="Trazado 201173" d="M1818.7,1661.152l2.395,9.578h-7.982l2.394-7.982Z" transform="translate(-809.635 7316.482)" fill="#061323"/>
    <path id="Trazado_201174" data-name="Trazado 201174" d="M1831.467,1056.854l-6.385,44.7-3.712,28.734h-8.26l2.395-31.13-2.395-47.892Z" transform="translate(-809.635 7852.135)" fill="#061323"/>
    <path id="Trazado_201175" data-name="Trazado 201175" d="M1968.073,1011.918l8.78,39.112-11.008,31.892h-3.991l5.42-28.7-13.17-31.4Z" transform="translate(-933.469 7886.694)" fill="#09213d"/>
    <path id="Trazado_201176" data-name="Trazado 201176" d="M1918.035,403.856a8.381,8.381,0,1,0,8.381-8.381,8.381,8.381,0,0,0-8.381,8.381" transform="translate(-901.79 8428.107)" fill="#e7b29c"/>
    <path id="Trazado_201177" data-name="Trazado 201177" d="M1918.035,481.979V467.612l13.658,6.109-3.281,8.259Z" transform="translate(-901.791 8364.75)" fill="#e7b29c"/>
    <path id="Trazado_201178" data-name="Trazado 201178" d="M1918.263,395.474c2.929,0,5.417,2.3,6.367,5.51a7.574,7.574,0,0,0-3.473,10.443,5.7,5.7,0,0,1-2.894.81c-3.747,0-6.785-3.752-6.785-8.381s3.038-8.381,6.785-8.381" transform="translate(-896.032 8428.107)" fill="#181626"/>
    <path id="Trazado_201179" data-name="Trazado 201179" d="M1917.863,469.834h-5.587l-.8-8.78Z" transform="translate(-896.032 8370.511)" fill="#181626"/>
    <path id="Trazado_201180" data-name="Trazado 201180" d="M1957.664,989.378h-15.078l-4.877-8.373,17.561-14.992Z" transform="translate(-919.069 7927.012)" fill="#061323"/>
    <path id="Trazado_201181" data-name="Trazado 201181" d="M1891.8,569.173c0,1.763,3.752,3.193,8.381,3.193s8.381-1.43,8.381-3.193-3.752-3.193-8.381-3.193-8.381,1.43-8.381,3.193" transform="translate(-878.752 8278.354)" fill="#cad1e0"/>
    <rect id="Rectángulo_45577" data-name="Rectángulo 45577" width="39.112" height="67.048" transform="translate(1001.079 8846.729)" fill="#0a2346"/>
    <path id="Trazado_201182" data-name="Trazado 201182" d="M2103.254,470.46l13.211,5.309-12.385-19.546,3.164-1.726s19.52,17.833,18.105,23.049c-2.422,8.93-23.692,10.871-23.692,10.871Z" transform="translate(-1063.063 8376.27)" fill="#0a2346"/>
    <path id="Trazado_201183" data-name="Trazado 201183" d="M1609.045,585.658s-24.921,9.149-25.542,16.762c-.552,6.756,19.955,18.359,19.955,18.359l2.394-2.395s-6.386-7.982-10.376-11.973c-3.951-3.951,15.964-5.121,15.964-5.121Z" transform="translate(-607.966 8261.073)" fill="#0a2346"/>
    <path id="Trazado_201184" data-name="Trazado 201184" d="M1793.435,891a23.848,23.848,0,0,1,13.17-3.68c9.112,0,16.7,4.424,18.4,10.289-3.069-4.205-9.439-7.1-16.8-7.1-6,0-11.333,1.919-14.767,4.9Z" transform="translate(-792.356 7996.129)" fill="#061323"/>
    <path id="Trazado_201185" data-name="Trazado 201185" d="M1944.893,376.427s2.395-1.6,2.395-3.991-3.193-3.193-3.193-3.193l-6.386,5.711Z" transform="translate(-919.069 8451.147)" fill="#181626"/>
    <path id="Trazado_201344" data-name="Trazado 201344" d="M879.468,1603.313a.034.034,0,0,0-.013-.063l-.055.054Z" transform="translate(10.428 7367.336)" fill="#879ba1"/>
    <path id="Trazado_201345" data-name="Trazado 201345" d="M877.285,1601.819c-.059.012-.136.046-.133.119.073-.044.072-.012.153-.067.042.009.058.051.041.073.021-.011.054.041.092.009a.145.145,0,0,0-.176-.09c-.008-.021.013-.032.022-.043" transform="translate(12.403 7368.593)" fill="#879ba1"/>
    <path id="Trazado_201346" data-name="Trazado 201346" d="M849.641,1584.246l.017.022a.058.058,0,0,0-.017-.022" transform="translate(36.565 7384.027)" fill="#879ba1"/>
    <path id="Trazado_201347" data-name="Trazado 201347" d="M832.952,1571.73c.017.01.027.009.032,0-.017-.007-.032-.012-.032,0" transform="translate(51.223 7395.023)" fill="#879ba1"/>
    <path id="Trazado_201348" data-name="Trazado 201348" d="M830.465,1569.119l.018.019c0-.011-.01-.02-.018-.019" transform="translate(53.406 7397.313)" fill="#879ba1"/>
    <path id="Trazado_201349" data-name="Trazado 201349" d="M849.3,1583.832l-.042-.057c-.017.016.018.035.042.057" transform="translate(36.905 7384.441)" fill="#879ba1"/>
    <path id="Trazado_201350" data-name="Trazado 201350" d="M873.4,1601.126a.094.094,0,0,0,.042,0l-.035-.009Z" transform="translate(15.701 7369.21)" fill="#879ba1"/>
    <path id="Trazado_201351" data-name="Trazado 201351" d="M857.522,1588.909l.017.011.03-.016Z" transform="translate(29.642 7379.937)" fill="#879ba1"/>
    <path id="Trazado_201352" data-name="Trazado 201352" d="M863.005,1592.543c-.015-.012-.052.037-.072.056a.065.065,0,0,1,.057-.014.122.122,0,0,0,.015-.042" transform="translate(24.891 7376.742)" fill="#879ba1"/>
    <path id="Trazado_201353" data-name="Trazado 201353" d="M872.867,1598.65l.025,0Z" transform="translate(16.166 7371.376)" fill="#879ba1"/>
    <path id="Trazado_201354" data-name="Trazado 201354" d="M853.386,1585.924a.055.055,0,0,0,.006-.022.038.038,0,0,0-.006.022" transform="translate(33.275 7382.573)" fill="#879ba1"/>
    <path id="Trazado_201357" data-name="Trazado 201357" d="M825.544,1564.76l0,0c.021.007.011,0,0,0" transform="translate(57.728 7401.141)" fill="#879ba1"/>
    <path id="Trazado_201359" data-name="Trazado 201359" d="M873.026,1600.94l-.032-.015a.091.091,0,0,0,.032.015" transform="translate(16.054 7369.378)" fill="#879ba1"/>
    <path id="Trazado_201361" data-name="Trazado 201361" d="M812.854,1556.486a.065.065,0,0,0,0,.029.042.042,0,0,0,0-.029" transform="translate(68.977 7424.267)" fill="#879ba1"/>
    <path id="Trazado_201362" data-name="Trazado 201362" d="M821.646,1563.18l-.023-.027a.107.107,0,0,0,.023.027" transform="translate(61.172 7402.553)" fill="#879ba1"/>
    <path id="Trazado_201363" data-name="Trazado 201363" d="M807.211,1553.777c-.012-.012-.013-.021-.035-.026l0,.009c.011,0,.022,0,.033.017" transform="translate(74.046 7426.709)" fill="#879ba1"/>
    <path id="Trazado_201364" data-name="Trazado 201364" d="M802.219,1550.956l.005.015.02.008Z" transform="translate(78.473 7429.205)" fill="#879ba1"/>
    <path id="Trazado_201366" data-name="Trazado 201366" d="M873.289,1600.937a.031.031,0,0,1-.031.014l.024.008a.024.024,0,0,0,.008-.022" transform="translate(15.822 7369.367)" fill="#879ba1"/>
    <path id="Trazado_201367" data-name="Trazado 201367" d="M804.567,1556.783l-.083-.059a.579.579,0,0,0,.083.059" transform="translate(76.45 7424.055)" fill="#879ba1"/>
    <path id="Trazado_201369" data-name="Trazado 201369" d="M801.613,1554.876a.141.141,0,0,0-.032-.06.053.053,0,0,0-.017.006Z" transform="translate(79.057 7425.758)" fill="#879ba1"/>
    <path id="Trazado_201373" data-name="Trazado 201373" d="M849.782,1584.43l0,0,0,.012Z" transform="translate(36.443 7383.869)" fill="#879ba1"/>
    <path id="Trazado_201375" data-name="Trazado 201375" d="M857.086,1591.385a.032.032,0,0,0,.005.022.1.1,0,0,0-.005-.022" transform="translate(30.027 7377.757)" fill="#879ba1"/>
    <path id="Trazado_201376" data-name="Trazado 201376" d="M860.679,1593.749l.052.057a.387.387,0,0,0-.052-.057" transform="translate(26.87 7375.681)" fill="#879ba1"/>
    <path id="Trazado_201377" data-name="Trazado 201377" d="M863.385,1595.536a.093.093,0,0,0,.02-.019h0Z" transform="translate(24.494 7374.129)" fill="#879ba1"/>
    <path id="Trazado_201378" data-name="Trazado 201378" d="M819.825,1566.174l-.014-.007c-.036-.011-.014,0,.014.007" transform="translate(62.781 7399.91)" fill="#879ba1"/>
    <path id="Trazado_201379" data-name="Trazado 201379" d="M832.847,1574.312a.331.331,0,0,1-.066-.013c.024.024.045.04.066.013" transform="translate(51.372 7392.764)" fill="#879ba1"/>
    <path id="Trazado_201380" data-name="Trazado 201380" d="M805.267,1557.283h0l-.01-.006Z" transform="translate(75.759 7423.562)" fill="#879ba1"/>
    <path id="Trazado_201381" data-name="Trazado 201381" d="M832.2,1573.864a.126.126,0,0,0,.07.053.2.2,0,0,0-.07-.053" transform="translate(51.879 7393.146)" fill="#879ba1"/>
    <path id="Trazado_201382" data-name="Trazado 201382" d="M876.073,1602.474l.017.01.006-.008Z" transform="translate(13.35 7368.018)" fill="#879ba1"/>
    <path id="Trazado_201383" data-name="Trazado 201383" d="M876.262,1602.473l.023,0c-.009,0-.017-.007-.023,0" transform="translate(13.184 7368.021)" fill="#879ba1"/>
    <path id="Trazado_201384" data-name="Trazado 201384" d="M876.5,1602.513l-.048,0c.014.006.031.016.048,0" transform="translate(13.019 7367.987)" fill="#879ba1"/>
    <path id="Trazado_201385" data-name="Trazado 201385" d="M872.08,1600.384l-.015.017a.042.042,0,0,0,.015-.017" transform="translate(16.869 7369.853)" fill="#879ba1"/>
    <path id="Trazado_201386" data-name="Trazado 201386" d="M870.973,1599.822c.032.022.066.086.121.1l.012-.014c-.038.018-.083-.1-.133-.084" transform="translate(17.829 7370.349)" fill="#879ba1"/>
    <path id="Trazado_201387" data-name="Trazado 201387" d="M867.146,1595.087l.109.081c-.009-.032-.021-.075.035-.05-.114-.144.005.063-.144-.03" transform="translate(21.19 7374.525)" fill="#879ba1"/>
    <path id="Trazado_201388" data-name="Trazado 201388" d="M864.165,1593.024c.067.028.017-.03.027-.04-.05,0-.062-.006-.027.04" transform="translate(23.827 7376.355)" fill="#879ba1"/>
    <path id="Trazado_201389" data-name="Trazado 201389" d="M843.728,1579.3l.039-.041c-.05-.026-.013.017-.039.041" transform="translate(41.759 7388.416)" fill="#879ba1"/>
    <path id="Trazado_201390" data-name="Trazado 201390" d="M838.5,1578.776l.024.06.051-.026Z" transform="translate(46.353 7388.832)" fill="#879ba1"/>
    <path id="Trazado_201391" data-name="Trazado 201391" d="M837.714,1574.263l.024.008-.087-.039Z" transform="translate(47.096 7392.822)" fill="#879ba1"/>
    <path id="Trazado_201392" data-name="Trazado 201392" d="M803.25,1551.093l-.016.06c.035.007.074-.049.016-.06" transform="translate(77.566 7429.083)" fill="#879ba1"/>
    <path id="Trazado_201395" data-name="Trazado 201395" d="M591.258,923.747c.016.05.057.021.039-.112l-.069-.09Z" transform="translate(266.883 7989.469)" fill="#879ba1"/>
    <path id="Trazado_201396" data-name="Trazado 201396" d="M589.2,915.25c-.075-.147-.222-.276-.224-.163.128.111.106.159.232.295.058.125.035.235.012.216.021.044.035.2.073.272a.954.954,0,0,0-.137-.615c0-.052.028-.012.043-.005" transform="translate(268.895 7997.06)" fill="#879ba1"/>
    <path id="Trazado_201551" data-name="Trazado 201551" d="M806.385,1619.671c-.036.007-.051.016-.052.022.033-.01.061-.018.052-.022" transform="translate(74.8 7367.845)" fill="#879ba1"/>
    <path id="Trazado_201552" data-name="Trazado 201552" d="M814.2,1619.04l-.049.005a.076.076,0,0,0,.049-.005" transform="translate(67.822 7368.408)" fill="#879ba1"/>
    <path id="Trazado_201561" data-name="Trazado 201561" d="M828.484,1616.767h-.008c-.043.017-.018.01.008,0" transform="translate(55.174 7355.464)" fill="#879ba1"/>
    <path id="Trazado_201562" data-name="Trazado 201562" d="M905.137,1532.284c.009.192-.164-.26-.131.022.014-.033.173.208.131-.022" transform="translate(-12.058 7429.729)" fill="#879ba1"/>
    <path id="Trazado_201564" data-name="Trazado 201564" d="M905.033,1533h0l0,.029c0-.012,0-.019,0-.029" transform="translate(-12.086 7429.04)" fill="#879ba1"/>
    <path id="Trazado_201565" data-name="Trazado 201565" d="M859.967,1607.537a.114.114,0,0,0-.047-.013c0,.006.014.01.047.013" transform="translate(27.536 7363.582)" fill="#879ba1"/>
    <path id="Trazado_201566" data-name="Trazado 201566" d="M836.623,1613.767l.074-.009a.479.479,0,0,0-.074.009" transform="translate(47.997 7358.107)" fill="#879ba1"/>
    <path id="Trazado_201567" data-name="Trazado 201567" d="M872.049,1602.459a.293.293,0,0,0,.1-.034h-.018a.149.149,0,0,1-.085.035" transform="translate(16.884 7368.061)" fill="#879ba1"/>
    <path id="Trazado_201568" data-name="Trazado 201568" d="M883.711,1597.356l-.032,0-.044.027Z" transform="translate(6.709 7372.514)" fill="#879ba1"/>
    <path id="Trazado_201571" data-name="Trazado 201571" d="M871.141,1598.218l.238-.082-.238.082" transform="translate(17.682 7371.828)" fill="#879ba1"/>
    <path id="Trazado_201572" data-name="Trazado 201572" d="M839.62,1476.628l-.055-.017a.122.122,0,0,0,.055.017" transform="translate(45.415 7478.562)" fill="#879ba1"/>
    <path id="Trazado_201573" data-name="Trazado 201573" d="M878.651,1595.375a.515.515,0,0,0,.144-.02.1.1,0,0,0,.019-.027Z" transform="translate(11.086 7374.295)" fill="#879ba1"/>
    <path id="Trazado_201578" data-name="Trazado 201578" d="M835.7,1475.14l.005-.014-.043,0Z" transform="translate(48.837 7479.869)" fill="#879ba1"/>
    <path id="Trazado_201582" data-name="Trazado 201582" d="M835.318,1610.493l.032-.01c.073-.03.023-.013-.032.01" transform="translate(49.144 7360.998)" fill="#879ba1"/>
    <path id="Trazado_201583" data-name="Trazado 201583" d="M802.512,1618.073l.111-.044c-.064.006-.113.013-.111.044" transform="translate(78.211 7369.311)" fill="#879ba1"/>
    <path id="Trazado_201584" data-name="Trazado 201584" d="M870.925,1598.818h0l.026-.01Z" transform="translate(17.871 7371.237)" fill="#879ba1"/>
    <path id="Trazado_201585" data-name="Trazado 201585" d="M803.715,1617.784a.516.516,0,0,0-.166.026.807.807,0,0,0,.166-.026" transform="translate(77.285 7369.53)" fill="#879ba1"/>
    <path id="Trazado_201595" data-name="Trazado 201595" d="M793.97,1622.1l-.046.013.176-.04Z" transform="translate(85.879 7365.702)" fill="#879ba1"/>
    <path id="Trazado_201596" data-name="Trazado 201596" d="M881.573,1598.523l-.064-.045c-.07.048-.053.125.064.045" transform="translate(8.612 7371.527)" fill="#879ba1"/>
    <path id="Trazado_201597" data-name="Trazado 201597" d="M906.761,1566.307a.372.372,0,0,0,.089-.262c-.031.106-.084.206-.089.262" transform="translate(-13.603 7400.013)" fill="#879ba1"/>
    <path id="Trazado_201598" data-name="Trazado 201598" d="M846.756,1475.156l.1.022-.173-.063Z" transform="translate(39.164 7479.876)" fill="#879ba1"/>
    <path id="Trazado_201650" data-name="Trazado 201650" d="M2249.9,2426.424c.144-.018.063-.061-.335-.052l-.282.072Z" transform="translate(-1192.722 6644.402)" fill="#879ba1"/>
    <path id="Trazado_201651" data-name="Trazado 201651" d="M2226.644,2425.716c-.468.035-1.008.1-.7.162.463-.069.575-.04,1.074-.123.4-.009.7.023.628.05.141-.018.618.016.833-.03a11.236,11.236,0,0,0-1.86-.012c-.147-.016,0-.035.029-.048" transform="translate(-1172.14 6644.977)" fill="#879ba1"/>
    <path id="Trazado_201652" data-name="Trazado 201652" d="M1912.71,2424.792l.251.009c-.068,0-.154-.007-.251-.009" transform="translate(-897.112 6645.788)" fill="#879ba1"/>
    <path id="Trazado_201653" data-name="Trazado 201653" d="M1714.6,2424.356a1.266,1.266,0,0,0,.27-.015,1.168,1.168,0,0,0-.27.015" transform="translate(-723.115 6646.185)" fill="#879ba1"/>
    <path id="Trazado_201654" data-name="Trazado 201654" d="M1680.842,2423.8l.243,0a1.645,1.645,0,0,0-.243,0" transform="translate(-693.468 6646.666)" fill="#879ba1"/>
    <path id="Trazado_201655" data-name="Trazado 201655" d="M1908.036,2424.629l-.644-.023a3.677,3.677,0,0,0,.644.023" transform="translate(-892.44 6645.951)" fill="#879ba1"/>
    <path id="Trazado_201656" data-name="Trazado 201656" d="M2188.284,2427.009c.135,0,.247-.011.35-.019l-.329.008a.13.13,0,0,1-.021.012" transform="translate(-1139.147 6643.858)" fill="#879ba1"/>
    <path id="Trazado_201657" data-name="Trazado 201657" d="M2000.017,2424.1h.2c.057-.008.111-.018.163-.029Z" transform="translate(-973.794 6646.422)" fill="#879ba1"/>
    <path id="Trazado_201658" data-name="Trazado 201658" d="M2064.717,2424.22a.607.607,0,0,0-.319.085,2.072,2.072,0,0,1,.4-.042c0-.011-.021-.026-.083-.043" transform="translate(-1030.339 6646.29)" fill="#879ba1"/>
    <path id="Trazado_201659" data-name="Trazado 201659" d="M2173.268,2425.045l.23-.008-.23.008" transform="translate(-1125.958 6645.574)" fill="#879ba1"/>
    <path id="Trazado_201660" data-name="Trazado 201660" d="M1951.523,2424.045a.232.232,0,0,0-.074-.022c0,.008.029.015.074.022" transform="translate(-931.137 6646.463)" fill="#879ba1"/>
    <path id="Trazado_201663" data-name="Trazado 201663" d="M1618.959,2423.142h.033c.2-.007.086-.006-.033,0" transform="translate(-639.117 6647.241)" fill="#879ba1"/>
    <path id="Trazado_201664" data-name="Trazado 201664" d="M1047.458,2423.541c.783.055-1.275.07-.1.131-.109-.024,1.072-.1.1-.131" transform="translate(-136.762 6646.887)" fill="#879ba1"/>
    <path id="Trazado_201665" data-name="Trazado 201665" d="M2184.135,2427.079h-.334c.152,0,.255,0,.334,0" transform="translate(-1135.208 6643.779)" fill="#879ba1"/>
    <path id="Trazado_201666" data-name="Trazado 201666" d="M1050.061,2424.617h0l.122.006-.122-.006" transform="translate(-139.462 6645.942)" fill="#879ba1"/>
    <path id="Trazado_201667" data-name="Trazado 201667" d="M1476.368,2423.471a1.247,1.247,0,0,0,.177.027.648.648,0,0,0-.177-.027" transform="translate(-513.881 6646.948)" fill="#879ba1"/>
    <path id="Trazado_201668" data-name="Trazado 201668" d="M1580.287,2424.129l-.32-.008c.127.005.23.007.32.008" transform="translate(-604.87 6646.377)" fill="#879ba1"/>
    <path id="Trazado_201669" data-name="Trazado 201669" d="M1417.819,2424.122c-.174,0-.233-.013-.47,0l.072.007a2.7,2.7,0,0,1,.4,0" transform="translate(-462.045 6646.383)" fill="#879ba1"/>
    <path id="Trazado_201670" data-name="Trazado 201670" d="M1363.807,2424.185c.037,0,.086.009.129.012l.222,0Z" transform="translate(-415.021 6646.321)" fill="#879ba1"/>
    <path id="Trazado_201672" data-name="Trazado 201672" d="M2186.755,2426.863a.683.683,0,0,1-.208.026l.232,0c.021-.009.025-.018-.025-.023" transform="translate(-1137.621 6643.969)" fill="#879ba1"/>
    <path id="Trazado_201673" data-name="Trazado 201673" d="M1410.87,2428.086l-1.11-.009c.31.006.714.009,1.11.009" transform="translate(-455.38 6642.903)" fill="#879ba1"/>
    <path id="Trazado_201675" data-name="Trazado 201675" d="M1377.251,2427.846c-.2-.022-.408-.034-.625-.042-.046.005-.1.009-.129.016Z" transform="translate(-426.166 6643.144)" fill="#879ba1"/>
    <path id="Trazado_201679" data-name="Trazado 201679" d="M1914.813,2424.864l-.043,0a.845.845,0,0,1,.092.009c-.029,0-.029,0-.048-.007" transform="translate(-898.922 6645.727)" fill="#879ba1"/>
    <path id="Trazado_201681" data-name="Trazado 201681" d="M2009.079,2426.6a.906.906,0,0,0,.15.016,1.191,1.191,0,0,0-.15-.016" transform="translate(-981.754 6644.2)" fill="#879ba1"/>
    <path id="Trazado_201682" data-name="Trazado 201682" d="M2049.663,2426.713l.7.022c-.3-.012-.522-.018-.7-.022" transform="translate(-1017.397 6644.101)" fill="#879ba1"/>
    <path id="Trazado_201683" data-name="Trazado 201683" d="M2080.867,2426.771a.213.213,0,0,0,.074-.026h-.007Z" transform="translate(-1044.802 6644.073)" fill="#879ba1"/>
    <path id="Trazado_201684" data-name="Trazado 201684" d="M1582.441,2427.554c-.051,0-.1,0-.147,0-.344.012-.11.007.147,0" transform="translate(-606.763 6643.361)" fill="#879ba1"/>
    <path id="Trazado_201685" data-name="Trazado 201685" d="M1728.217,2426.378c-.191.011-.379.022-.578.029a1.7,1.7,0,0,0,.578-.029" transform="translate(-734.568 6644.395)" fill="#879ba1"/>
    <path id="Trazado_201686" data-name="Trazado 201686" d="M1419,2428.152h0Z" transform="translate(-463.389 6642.838)" fill="#879ba1"/>
    <path id="Trazado_201687" data-name="Trazado 201687" d="M1720.774,2426.573c.32.012.587.01.836,0-.263,0-.571-.01-.836,0" transform="translate(-728.538 6644.229)" fill="#879ba1"/>
    <path id="Trazado_201688" data-name="Trazado 201688" d="M2216.106,2427.139l.183,0s.008-.007.022-.01Z" transform="translate(-1163.581 6643.733)" fill="#879ba1"/>
    <path id="Trazado_201689" data-name="Trazado 201689" d="M2217.787,2427.08l.2-.007a1.535,1.535,0,0,0-.2.007" transform="translate(-1165.058 6643.785)" fill="#879ba1"/>
    <path id="Trazado_201690" data-name="Trazado 201690" d="M2219.885,2426.945l-.427.015a3.047,3.047,0,0,0,.427-.015" transform="translate(-1166.525 6643.896)" fill="#879ba1"/>
    <path id="Trazado_201691" data-name="Trazado 201691" d="M2174.384,2426.958l-.058.023c.032-.005.052-.012.058-.023" transform="translate(-1126.886 6643.886)" fill="#879ba1"/>
    <path id="Trazado_201692" data-name="Trazado 201692" d="M2162.246,2426.942c.365.005.915.048,1.423.033l.048-.018c-.239.033-1.124-.053-1.47-.016" transform="translate(-1116.277 6643.909)" fill="#879ba1"/>
    <path id="Trazado_201693" data-name="Trazado 201693" d="M2109.854,2424.285l1.28.018c-.224-.023-.518-.056.064-.061-1.614-.071.333.053-1.344.043" transform="translate(-1070.263 6646.291)" fill="#879ba1"/>
    <path id="Trazado_201694" data-name="Trazado 201694" d="M2074.757,2424.13c.688-.011-.008-.034.029-.048-.436.022-.542.027-.029.048" transform="translate(-1039.135 6646.411)" fill="#879ba1"/>
    <path id="Trazado_201695" data-name="Trazado 201695" d="M1840.312,2424.07l.069-.056c-.53.008,0,.022-.069.056" transform="translate(-833.378 6646.471)" fill="#879ba1"/>
    <path id="Trazado_201696" data-name="Trazado 201696" d="M1796.486,2426.72l.516.035.246-.052Z" transform="translate(-795.036 6644.109)" fill="#879ba1"/>
    <path id="Trazado_201697" data-name="Trazado 201697" d="M1765.159,2423.52l.232-.008-.885.02Z" transform="translate(-766.949 6646.913)" fill="#879ba1"/>
    <path id="Trazado_201698" data-name="Trazado 201698" d="M1374.019,2423.715l.16.069c.358-.012.433-.089-.16-.069" transform="translate(-423.988 6646.737)" fill="#879ba1"/>
    <path id="Trazado_201699" data-name="Trazado 201699" d="M1194.67,2424.03a6.449,6.449,0,0,0-1.172-.022c.468,0,.934.031,1.172.022" transform="translate(-265.44 6646.492)" fill="#879ba1"/>
    <path id="Trazado_201701" data-name="Trazado 201701" d="M2548.288,1021.622a11.771,11.771,0,1,1,9.324-13.789,11.783,11.783,0,0,1-9.324,13.789m-4.235-21.923a10.557,10.557,0,1,0,12.368,8.363,10.569,10.569,0,0,0-12.368-8.363" transform="translate(-1443.032 7898.661)" fill="#262626"/>
    <rect id="Rectángulo_45578" data-name="Rectángulo 45578" width="1.642" height="16.746" transform="translate(1104.33 8919.412) rotate(-10.932)" fill="#262626"/>
    <rect id="Rectángulo_45579" data-name="Rectángulo 45579" width="3.883" height="1.699" transform="matrix(0.982, -0.19, 0.19, 0.982, 1103.102, 8920.328)" fill="#262626"/>
    <rect id="Rectángulo_45580" data-name="Rectángulo 45580" width="4.561" height="12.863" transform="translate(1103.54 8923.026) rotate(-10.933)" fill="#0a2346"/>
    <rect id="Rectángulo_45581" data-name="Rectángulo 45581" width="2.19" height="12.863" transform="translate(1104.796 8922.782) rotate(-10.927)" fill="#0a2346"/>
    <rect id="Rectángulo_45582" data-name="Rectángulo 45582" width="4.562" height="1.699" transform="matrix(0.982, -0.19, 0.19, 0.982, 1105.797, 8934.702)" fill="#262626"/>
    <g id="Grupo_147530" data-name="Grupo 147530" transform="translate(1093.435 8899.01)" clip-path="url(#clip-path-16)">
      <path id="Trazado_201702" data-name="Trazado 201702" d="M2556.845,1027.9a8,8,0,0,1,13.788-6.881,9.589,9.589,0,1,0-7.4,13.227,8,8,0,0,1-6.388-6.346" transform="translate(-2552.216 -1015.177)" fill="#fff"/>
    </g>
    <g id="Grupo_147533" data-name="Grupo 147533" transform="translate(1094.837 8902.296)" clip-path="url(#clip-path-17)">
      <path id="Trazado_201703" data-name="Trazado 201703" d="M2571.438,1045.324a3.883,3.883,0,1,1-4.549-3.076,3.883,3.883,0,0,1,4.549,3.076" transform="translate(-2563.741 -1042.177)" fill="#fff"/>
    </g>
    <path id="Trazado_201704" data-name="Trazado 201704" d="M2651.042,1261.421s-5.679-4.929-4.831-6.334c.686-1.136,5.182-1.152,5.182-1.152l1.952,7.486Z" transform="translate(-1541.26 7674.135)" fill="#e7b29c"/>
    <path id="Trazado_201705" data-name="Trazado 201705" d="M2316.141,1683.008s3.743,3.744,5.383,3.749c.931,0,2.723-1.876,2.483-2.775-.5-1.87-7.35-2.428-7.35-2.428Z" transform="translate(-1251.441 7298.564)" fill="#e7b29c"/>
    <path id="Trazado_201706" data-name="Trazado 201706" d="M2670.462,2454.814v7.76h12.416l-9.311-3.1-1.552-6.983Z" transform="translate(-1562.636 6621.465)" fill="#061323"/>
    <path id="Trazado_201707" data-name="Trazado 201707" d="M2382.632,2465.237l2.328,9.311h-7.76l2.328-7.759Z" transform="translate(-1305.068 6610.266)" fill="#061323"/>
    <path id="Trazado_201708" data-name="Trazado 201708" d="M2395.047,1877.768l-6.207,43.454-3.609,27.934H2377.2l2.328-30.263-2.328-46.558Z" transform="translate(-1305.068 7131.001)" fill="#061323"/>
    <path id="Trazado_201709" data-name="Trazado 201709" d="M2527.849,1834.085l8.536,38.022v42.678h-3.88l-5.432-39.574-12.8-30.521Z" transform="translate(-1425.453 7164.598)" fill="#09213d"/>
    <path id="Trazado_201710" data-name="Trazado 201710" d="M2479.2,1242.958a8.148,8.148,0,1,0,8.147-8.147,8.147,8.147,0,0,0-8.147,8.147" transform="translate(-1394.657 7690.932)" fill="#e7b29c"/>
    <path id="Trazado_201711" data-name="Trazado 201711" d="M2479.2,1318.9v-13.967l13.278,5.938-3.19,8.029Z" transform="translate(-1394.657 7629.34)" fill="#e7b29c"/>
    <path id="Trazado_201712" data-name="Trazado 201712" d="M2479.425,1234.809c2.848,0,5.267,2.234,6.19,5.357a7.363,7.363,0,0,0-3.376,10.152,5.544,5.544,0,0,1-2.814.787c-3.643,0-6.6-3.648-6.6-8.148s2.953-8.148,6.6-8.148" transform="translate(-1389.058 7690.933)" fill="#181626"/>
    <path id="Trazado_201713" data-name="Trazado 201713" d="M2479.037,1307.1h-5.431l-.776-8.536Z" transform="translate(-1389.058 7634.939)" fill="#181626"/>
    <path id="Trazado_201714" data-name="Trazado 201714" d="M2517.729,1812.172h-14.658l-4.741-8.14,17.071-14.575Z" transform="translate(-1411.456 7203.793)" fill="#061323"/>
    <path id="Trazado_201715" data-name="Trazado 201715" d="M2453.7,1403.67c0,1.714,3.648,3.1,8.147,3.1s8.147-1.39,8.147-3.1-3.648-3.1-8.147-3.1-8.147,1.39-8.147,3.1" transform="translate(-1372.261 7545.351)" fill="#cad1e0"/>
    <rect id="Rectángulo_45585" data-name="Rectángulo 45585" width="38.022" height="65.181" transform="translate(1069.804 8948.245)" fill="#0a2346"/>
    <path id="Trazado_201716" data-name="Trazado 201716" d="M2659.264,1307.706l12.844,5.161-12.04-19,3.076-1.678s18.976,17.337,17.6,22.407c-2.354,8.681-23.033,10.568-23.033,10.568Z" transform="translate(-1551.437 7640.539)" fill="#0a2346"/>
    <path id="Trazado_201717" data-name="Trazado 201717" d="M2178.819,1419.7s-24.226,8.895-24.831,16.295c-.536,6.568,19.4,17.847,19.4,17.847l2.328-2.328s-6.208-7.76-10.087-11.639c-3.841-3.841,15.519-4.979,15.519-4.979Z" transform="translate(-1109.015 7528.549)" fill="#0a2346"/>
    <path id="Trazado_201718" data-name="Trazado 201718" d="M2358.074,1716.533a23.184,23.184,0,0,1,12.8-3.577c8.858,0,16.238,4.3,17.888,10-2.984-4.088-9.177-6.9-16.336-6.9-5.831,0-11.018,1.865-14.356,4.764Z" transform="translate(-1288.271 7270.984)" fill="#061323"/>
    <path id="Trazado_201719" data-name="Trazado 201719" d="M2505.314,1216.291s2.328-1.552,2.328-3.88-3.1-3.1-3.1-3.1l-6.208,5.552Z" transform="translate(-1411.456 7713.331)" fill="#181626"/>
    <path id="Trazado_201720" data-name="Trazado 201720" d="M2666.415,1258.591h0a2.328,2.328,0,1,1,2.328-2.328,2.335,2.335,0,0,1-2.328,2.328" transform="translate(-1557.036 7674.135)" fill="#e7b29c"/>
    <g id="Grupo_147536" data-name="Grupo 147536" transform="translate(1340.683 9003.56)" clip-path="url(#clip-path-18)">
      <path id="Trazado_201726" data-name="Trazado 201726" d="M4588.719,1874.261a2.609,2.609,0,0,0-1.808.976l-3.314,5.639,6.531,3.839,3.794-6.894s-1.675-3-2.4-3.327a4.664,4.664,0,0,0-2.805-.234" transform="translate(-4583.597 -1874.163)" fill="#fff"/>
    </g>
    <path id="Trazado_201727" data-name="Trazado 201727" d="M4658.8,1873.116s-1.174-2-1.887-3.321-1.134-.993-1.754-1.111-8.53-.04-8.53-.04a5.166,5.166,0,0,1,2.2,1.928l4.088,6.232-2.344,1.346,7.13.23,3.44-6.263Z" transform="translate(-3298.277 7134.266)" fill="#fff"/>
    <g id="Grupo_147542" data-name="Grupo 147542" transform="translate(1340.229 9024.208)" clip-path="url(#clip-path-19)">
      <path id="Trazado_201730" data-name="Trazado 201730" d="M4581.082,2050.213a2.6,2.6,0,0,0,1.742,1.088l7.305-.011,0-7.475-8.173-.014s-2.411,1.761-2.063,3.859a5.136,5.136,0,0,0,1.186,2.553" transform="translate(-4579.862 -2043.801)" fill="#fff"/>
    </g>
    <path id="Trazado_201731" data-name="Trazado 201731" d="M4540.959,1963.008s-1.383,2.112-2.175,3.383-.358,1.441-.153,2.039,4.187,7.431,4.187,7.431a3.564,3.564,0,0,1,.6-3.007l3.686-5.847,2.321,1.46-3.205-6.775-7.161.135Z" transform="translate(-3203.156 7052.523)" fill="#fff"/>
  </g>
</svg>
