<svg xmlns="http://www.w3.org/2000/svg" width="103" height="103" viewBox="0 0 103 103">
  <g id="Grupo_147794" data-name="Grupo 147794" transform="translate(-915 -8305)">
    <g id="Grupo_147776" data-name="Grupo 147776">
      <path id="Trazado_205896" data-name="Trazado 205896" d="M51.5,0A51.5,51.5,0,1,1,0,51.5,51.5,51.5,0,0,1,51.5,0Z" transform="translate(915 8305)" fill="#92bfb1"/>
      <g id="tolerancia-racial" transform="translate(893.141 8319.687)">
        <path id="Trazado_205887" data-name="Trazado 205887" d="M286.514,225.555a1.014,1.014,0,0,0,1.014-1.014v-2.027a1.014,1.014,0,0,0-2.027,0v2.027A1.014,1.014,0,0,0,286.514,225.555Z" transform="translate(-205.833 -191.563)" fill="#fff"/>
        <path id="Trazado_205888" data-name="Trazado 205888" d="M167.514,225.555a1.014,1.014,0,0,0,1.014-1.014v-2.027a1.014,1.014,0,0,0-2.027,0v2.027A1.014,1.014,0,0,0,167.514,225.555Z" transform="translate(-102.917 -191.563)" fill="#fff"/>
        <path id="Trazado_205889" data-name="Trazado 205889" d="M189.775,279.645a8.544,8.544,0,0,0,11.2,0,1.014,1.014,0,0,0-1.305-1.551,6.547,6.547,0,0,1-8.58,0,1.014,1.014,0,0,0-1.312,1.545Z" transform="translate(-122.736 -240.305)" fill="#fff"/>
        <path id="Trazado_205890" data-name="Trazado 205890" d="M103.86,11.285A11.282,11.282,0,0,0,83.209,5a14.522,14.522,0,0,0-4.15-.6H66.219A14.546,14.546,0,0,0,51.69,18.922a1.014,1.014,0,1,0,2.027,0,12.516,12.516,0,0,1,12.5-12.5h12.84a12.518,12.518,0,0,1,3.153.4,11.279,11.279,0,0,0,9.349,15.7v3.356a5.142,5.142,0,0,0-.811-.065H82.1a8.457,8.457,0,0,1-8.447-8.447,1.014,1.014,0,0,0-2.027,0,8.457,8.457,0,0,1-8.447,8.447h-8.65a5.158,5.158,0,0,0-.811.065V23.652a1.014,1.014,0,1,0-2.027,0v3.021a5.131,5.131,0,0,0,0,8.557c0,.015,0,.03,0,.046v4.933a6.427,6.427,0,0,0,6.42,6.42h5.372a16.885,16.885,0,0,0,2.264,1.232v4.174h-6.42A11.839,11.839,0,0,0,47.5,63.861v1.622A3.721,3.721,0,0,0,51.217,69.2H85.784a1.014,1.014,0,0,0,0-2.027H51.217a1.691,1.691,0,0,1-1.689-1.689V63.861a9.81,9.81,0,0,1,9.8-9.8H60.61v1.689a6.427,6.427,0,0,0,6.42,6.42H78.248a6.427,6.427,0,0,0,6.42-6.42V54.062h1.284a9.81,9.81,0,0,1,9.8,9.8v1.622a1.691,1.691,0,0,1-1.689,1.689H90.514a1.014,1.014,0,1,0,0,2.027h3.546a3.721,3.721,0,0,0,3.717-3.717V63.861A11.839,11.839,0,0,0,85.952,52.035h-6.42V47.86A16.878,16.878,0,0,0,81.8,46.628h5.372a6.427,6.427,0,0,0,6.42-6.42v-4.98a5.131,5.131,0,0,0,0-8.555v-4.15A11.3,11.3,0,0,0,103.86,11.285ZM72.639,21.861A10.489,10.489,0,0,0,82.1,27.842h5.406v4.6a14.867,14.867,0,1,1-29.734,0v-4.6h5.406A10.489,10.489,0,0,0,72.639,21.861ZM54.528,27.842h1.216v2.095H54.46a1.014,1.014,0,1,0,0,2.027h1.284v.473c0,.547.027,1.088.078,1.622H54.528a3.108,3.108,0,0,1-1.608-5.768A3.285,3.285,0,0,1,54.528,27.842ZM58.11,44.6a4.4,4.4,0,0,1-4.393-4.393V36.022a5.142,5.142,0,0,0,.811.065h1.615A16.891,16.891,0,0,0,60.927,44.6ZM78.248,60.144H67.03a4.392,4.392,0,0,1-3.7-2.027H81.946A4.392,4.392,0,0,1,78.248,60.144Zm.946-6.082H82.64v1.689c0,.114-.006.226-.014.338H62.652c-.009-.112-.014-.224-.014-.338V54.062h3.446a1.691,1.691,0,0,0,1.689-1.689V48.616a16.907,16.907,0,0,0,9.731,0v3.756A1.691,1.691,0,0,0,79.194,54.062ZM91.56,40.209A4.4,4.4,0,0,1,87.168,44.6H84.35a16.891,16.891,0,0,0,4.784-8.515H90.75a5.158,5.158,0,0,0,.811-.065Zm.8-11.917a3.108,3.108,0,0,1-1.608,5.768H89.455c.051-.534.078-1.075.078-1.622v-.473h1.284a1.014,1.014,0,1,0,0-2.027H89.533V27.842H90.75A2.968,2.968,0,0,1,92.358,28.291ZM83.316,11.285a9.258,9.258,0,1,1,9.258,9.258A9.269,9.269,0,0,1,83.316,11.285Z" fill="#fff"/>
        <path id="Trazado_205891" data-name="Trazado 205891" d="M352.374,53.154a1.014,1.014,0,0,0-1.431.08l-4.864,5.443-2.114-2.124a1.014,1.014,0,1,0-1.437,1.43L345.4,60.87a1.02,1.02,0,0,0,1.474-.039l5.58-6.245a1.014,1.014,0,0,0-.081-1.431Z" transform="translate(-254.898 -45.747)" fill="#fff"/>
      </g>
    </g>
  </g>
</svg>
