<svg xmlns="http://www.w3.org/2000/svg" width="79" height="79" viewBox="0 0 79 79">
  <g id="Grupo_147780" data-name="Grupo 147780" transform="translate(-672 -8060.587)">
    <circle id="Elipse_1415" data-name="Elipse 1415" cx="39.5" cy="39.5" r="39.5" transform="translate(672 8060.587)" fill="#fff"/>
    <path id="Trazado_205898" data-name="Trazado 205898" d="M24.28,0H1.956V-4.834L12.239-15.645q3.8-4.329,3.8-6.877a4.784,4.784,0,0,0-.9-3.142,3.216,3.216,0,0,0-2.615-1.077A3.257,3.257,0,0,0,9.778-25.3a5.915,5.915,0,0,0-1.055,3.593H1.3a10.506,10.506,0,0,1,1.472-5.438,10.324,10.324,0,0,1,4.087-3.9A12.14,12.14,0,0,1,12.7-32.454q5.186,0,7.987,2.4a8.55,8.55,0,0,1,2.8,6.877,9.987,9.987,0,0,1-.7,3.68A16.14,16.14,0,0,1,20.6-15.743a55.073,55.073,0,0,1-4.779,5.262L11.689-5.713H24.28Z" transform="translate(699 8114.587)" fill="#ffa400"/>
  </g>
</svg>
