<svg xmlns="http://www.w3.org/2000/svg" width="79" height="79" viewBox="0 0 79 79">
  <g id="Grupo_147783" data-name="Grupo 147783" transform="translate(-672 -8502.587)">
    <circle id="Elipse_1418" data-name="Elipse 1418" cx="39.5" cy="39.5" r="39.5" transform="translate(672 8502.587)" fill="#fff"/>
    <path id="Trazado_205901" data-name="Trazado 205901" d="M2.4-15.627,4.351-31.992h18.7v5.757H10.371L9.646-19.88a8.734,8.734,0,0,1,2.076-.817,9.474,9.474,0,0,1,2.516-.353q4.768,0,7.328,2.823t2.56,7.921a11.353,11.353,0,0,1-1.373,5.57A9.439,9.439,0,0,1,18.9-.9,12.174,12.174,0,0,1,13.03.439,13.1,13.1,0,0,1,7.383-.8,10.131,10.131,0,0,1,3.252-4.2,8.269,8.269,0,0,1,1.78-9.089H9.207A4.2,4.2,0,0,0,10.327-6.3a3.557,3.557,0,0,0,2.659,1.031q3.735,0,3.735-5.526,0-5.109-4.57-5.109a4.56,4.56,0,0,0-3.867,1.666Z" transform="translate(699 8556.587)" fill="#ffa400"/>
  </g>
</svg>
